<svg width="1759.9999999999998" height="700" xmlns="http://www.w3.org/2000/svg" xmlns:xlink="http://www.w3.org/1999/xlink">
 <g>
  <title>Layer 1</title>
  <g id="svg_615">
   <path d="m-1686.87,-100l3677.74,0l0,1322.83l-3677.74,0l0,-1322.83z" fill="#fff" id="svg_299"/>
   <path d="m340,326a6,6 0 0 1 6,-6l1388,0a6,6 0 0 1 6,6l0,348a6,6 0 0 1 -6,6l-1388,0a6,6 0 0 1 -6,-6l0,-348z" fill="#fff" id="svg_300"/>
   <path d="m365.2,320.07l20.12,0m10.07,0l20.1,0m10.08,0l20.13,0m10.07,0l20.13,0m10.07,0l20.13,0m10.06,0l20.13,0m10.06,0l20.13,0m10.05,0l20.13,0m10.07,0l20.13,0m10.06,0l20.13,0m10.06,0l20.13,0m10.07,0l20.13,-0.02m10.06,0l20.13,0m10.07,0l20.13,0m10.06,0l20.14,0m10.07,0l20.14,0m10.06,0l20.13,0m10.06,0l20.12,0m10.07,0l20.12,0m10.06,0l20.14,0m10.08,0l20.13,0m10.07,0l20.13,0m10.07,0l20.13,0m10.06,0l20.13,-0.02m10.05,0l20.13,0m10.07,0l20.13,0m10.06,0l20.13,0m10.07,0l20.13,0m10.06,0l20.13,0m10.07,0l20.13,0m10.06,0l20.13,0m10.06,0l20.14,0m10.07,0l20.14,0m10.06,0l20.13,0m10.07,0l20.13,0m10.06,0l20.12,0m10.07,0l20.12,-0.02m10.06,0l20.13,0m10.08,0l20.12,0m10.07,0l20.13,0m10.06,0l20.13,0m10.06,0l20.13,0m10.05,0l20.13,0m10.07,0l20.13,0m10.06,0l20.13,0m10.07,0l10.07,0l0.94,0.07l0.9,0.22l0.88,0.35l0.8,0.5l0.72,0.6l0.6,0.72l0.5,0.8l0.37,0.88l0.23,0.9l0,9.7m0,9.7l0,19.38m0,9.7l0,19.38m0,9.7l0.02,19.4m0,9.68l0,19.4m0,9.68l0,19.4m0,9.68l0.02,19.38m0,9.7l0,19.38m0,9.7l0,19.38m0,9.7l0,19.38m0.02,9.7l0,19.38m0,9.7l0,19.37m0,9.7l0,9.7l-0.07,0.94l-0.22,0.9l-0.35,0.88l-0.5,0.8l-0.6,0.72l-0.72,0.6l-0.8,0.5l-0.88,0.37l-0.9,0.23l-10.08,0m-10.06,0l-20.12,0m-10.07,0l-20.1,0m-10.08,0l-20.13,0m-10.07,0l-20.13,0m-10.07,0l-20.13,0m-10.06,0l-20.13,0m-10.06,0l-20.13,0m-10.05,0l-20.13,0m-10.07,0l-20.13,0m-10.06,0l-20.13,0m-10.06,0l-20.13,0m-10.07,0l-20.13,0.02m-10.06,0l-20.13,0m-10.07,0l-20.13,0m-10.06,0l-20.14,0m-10.07,0l-20.14,0m-10.06,0l-20.13,0m-10.06,0l-20.12,0m-10.07,0l-20.12,0m-10.06,0l-20.16,0m-10.08,0l-20.12,0m-10.07,0l-20.13,0m-10.07,0l-20.13,0m-10.06,0l-20.13,0.02m-10.05,0l-20.13,0m-10.07,0l-20.13,0m-10.06,0l-20.13,0m-10.07,0l-20.13,0m-10.06,0l-20.13,0m-10.07,0l-20.13,0m-10.06,0l-20.13,0m-10.06,0l-20.14,0m-10.07,0l-20.14,0m-10.06,0l-20.13,0m-10.07,0l-20.13,0m-10.06,0l-20.1,0m-10.07,0l-20.12,0.02m-10.06,0l-20.15,0m-10.08,0l-20.12,0m-10.07,0l-20.13,0m-10.06,0l-20.14,0m-10.06,0l-20.14,0m-10.05,0l-20.13,0m-10.07,0l-20.13,0m-10.06,0l-20.13,0m-10.07,0l-10.06,0l-0.94,-0.07l-0.9,-0.22l-0.88,-0.35l-0.8,-0.5l-0.72,-0.6l-0.6,-0.72l-0.5,-0.8l-0.37,-0.88l-0.23,-0.9l0,-9.7m0,-9.7l0,-19.38m0,-9.7l0,-19.4m0,-9.7l-0.02,-19.4m0,-9.68l0,-19.4m0,-9.68l0,-19.4m0,-9.68l-0.02,-19.38m0,-9.7l0,-19.38m0,-9.7l0,-19.38m0,-9.7l0,-19.38m-0.02,-9.7l0,-19.38m0,-9.7l0,-19.36m0,-9.7l0,-9.7l0.07,-0.94l0.22,-0.9l0.35,-0.88l0.5,-0.8l0.6,-0.72l0.72,-0.6l0.8,-0.5l0.88,-0.37l0.9,-0.23l10.08,0" stroke="#3a414a" fill="none" id="svg_301"/>
   <path d="m340,26a6,6 0 0 1 6,-6l1388,0a6,6 0 0 1 6,6l0,188a6,6 0 0 1 -6,6l-1388,0a6,6 0 0 1 -6,-6l0,-188z" fill="#fff" id="svg_302"/>
   <path d="m365.2,20.07l20.12,0m10.07,0l20.1,0m10.08,0l20.13,0m10.07,0l20.13,0m10.07,0l20.13,0m10.06,0l20.13,0m10.06,0l20.13,0m10.05,0l20.13,0m10.07,0l20.13,0m10.06,0l20.13,0m10.06,0l20.13,0m10.07,0l20.13,-0.02m10.06,0l20.13,0m10.07,0l20.13,0m10.06,0l20.14,0m10.07,0l20.14,0m10.06,0l20.13,0m10.06,0l20.12,0m10.07,0l20.12,0m10.06,0l20.14,0m10.08,0l20.13,0m10.07,0l20.13,0m10.07,0l20.13,0m10.06,0l20.13,-0.02m10.05,0l20.13,0m10.07,0l20.13,0m10.06,0l20.13,0m10.07,0l20.13,0m10.06,0l20.13,0m10.07,0l20.13,0m10.06,0l20.13,0m10.06,0l20.14,0m10.07,0l20.14,0m10.06,0l20.13,0m10.07,0l20.13,0m10.06,0l20.12,0m10.07,0l20.12,-0.02m10.06,0l20.13,0m10.08,0l20.12,0m10.07,0l20.13,0m10.06,0l20.13,0m10.06,0l20.13,0m10.05,0l20.13,0m10.07,0l20.13,0m10.06,0l20.13,0m10.07,0l10.07,0l0.94,0.07l0.9,0.22l0.88,0.35l0.8,0.5l0.72,0.6l0.6,0.72l0.5,0.8l0.37,0.88l0.23,0.9l0,10.5m0,10.5l0,21m0.02,10.5l0,21m0,10.48l0.02,21m0,10.5l0,21m0,10.48l0.02,21m0,10.5l0,10.49l-0.07,0.94l-0.22,0.9l-0.35,0.88l-0.5,0.8l-0.6,0.72l-0.72,0.6l-0.8,0.5l-0.88,0.37l-0.9,0.23l-10.08,0m-10.06,0l-20.12,0m-10.07,0l-20.1,0m-10.08,0l-20.13,0m-10.07,0l-20.13,0m-10.07,0l-20.13,0m-10.06,0l-20.13,0m-10.06,0l-20.13,0m-10.05,0l-20.13,0m-10.07,0l-20.13,0m-10.06,0l-20.13,0m-10.06,0l-20.13,0m-10.07,0l-20.13,0.02m-10.06,0l-20.13,0m-10.07,0l-20.13,0m-10.06,0l-20.14,0m-10.07,0l-20.14,0m-10.06,0l-20.13,0m-10.06,0l-20.12,0m-10.07,0l-20.12,0m-10.06,0l-20.16,0m-10.08,0l-20.12,0m-10.07,0l-20.13,0m-10.07,0l-20.13,0m-10.06,0l-20.13,0.02m-10.05,0l-20.13,0m-10.07,0l-20.13,0m-10.06,0l-20.13,0m-10.07,0l-20.13,0m-10.06,0l-20.13,0m-10.07,0l-20.13,0m-10.06,0l-20.13,0m-10.06,0l-20.14,0m-10.07,0l-20.14,0m-10.06,0l-20.13,0m-10.07,0l-20.13,0m-10.06,0l-20.1,0m-10.07,0l-20.12,0.02m-10.06,0l-20.15,0m-10.08,0l-20.12,0m-10.07,0l-20.13,0m-10.06,0l-20.14,0m-10.06,0l-20.14,0m-10.05,0l-20.13,0m-10.07,0l-20.13,0m-10.06,0l-20.13,0m-10.07,0l-10.06,0l-0.94,-0.07l-0.9,-0.22l-0.88,-0.35l-0.8,-0.5l-0.72,-0.6l-0.6,-0.72l-0.5,-0.8l-0.37,-0.88l-0.23,-0.9l0,-10.5m0,-10.5l0,-21m-0.02,-10.5l0,-21m0,-10.48l-0.02,-21m0,-10.5l0,-21m0,-10.48l-0.02,-21m0,-10.5l0,-10.5l0.07,-0.94l0.22,-0.9l0.35,-0.88l0.5,-0.8l0.6,-0.72l0.72,-0.6l0.8,-0.5l0.88,-0.37l0.9,-0.23l10.08,0" stroke="#3a414a" fill="none" id="svg_303"/>
   <path d="m420,86a6,6 0 0 1 6,-6l188,0a6,6 0 0 1 6,6l0,108a6,6 0 0 1 -6,6l-188,0a6,6 0 0 1 -6,-6l0,-108z" stroke="#3a414a" fill="#fff" id="svg_304"/>
   <path d="m928.66667,86a6,6 0 0 1 6,-6l188,0a6,6 0 0 1 6,6l0,108a6,6 0 0 1 -6,6l-188,0a6,6 0 0 1 -6,-6l0,-108z" stroke="#3a414a" fill="#fff" id="svg_305"/>
   <path d="m1440,86a6,6 0 0 1 6,-6l188,0a6,6 0 0 1 6,6l0,108a6,6 0 0 1 -6,6l-188,0a6,6 0 0 1 -6,-6l0,-108z" stroke="#3a414a" fill="#fff" id="svg_306"/>
   <path d="m420,346a6,6 0 0 1 6,-6l188,0a6,6 0 0 1 6,6l0,108a6,6 0 0 1 -6,6l-188,0a6,6 0 0 1 -6,-6l0,-108z" stroke="#3a414a" fill="#fff" id="svg_307"/>
   <path d="m740,346a6,6 0 0 1 6,-6l188,0a6,6 0 0 1 6,6l0,108a6,6 0 0 1 -6,6l-188,0a6,6 0 0 1 -6,-6l0,-108z" stroke="#3a414a" fill="#fff" id="svg_308"/>
   <path d="m1080,346a6,6 0 0 1 6,-6l188,0a6,6 0 0 1 6,6l0,108a6,6 0 0 1 -6,6l-188,0a6,6 0 0 1 -6,-6l0,-108z" stroke="#3a414a" fill="#fff" id="svg_309"/>
   <path d="m1160,526a6,6 0 0 1 6,-6l188,0a6,6 0 0 1 6,6l0,108a6,6 0 0 1 -6,6l-188,0a6,6 0 0 1 -6,-6l0,-108z" stroke="#3a414a" fill="#fff" id="svg_310"/>
   <path d="m1500,526a6,6 0 0 1 6,-6l188,0a6,6 0 0 1 6,6l0,108a6,6 0 0 1 -6,6l-188,0a6,6 0 0 1 -6,-6l0,-108z" stroke="#3a414a" fill="#fff" id="svg_311"/>
   <path d="m620.96,140l292.2,0" stroke="#3a414a" fill="none" id="svg_312"/>
   <path d="m620.98,140.5l-0.52,0l0,-1l0.52,0l0,1z" stroke="#3a414a" stroke-width="0.05" fill="#3a414a" id="svg_313"/>
   <path d="m927.92,140l-14.27,4.64l0,-9.28l14.27,4.64z" stroke="#3a414a" fill="#3a414a" id="svg_314"/>
   <path d="m1130.96,140l292.2,0" stroke="#3a414a" fill="none" id="svg_315"/>
   <path d="m1130.98,140.5l-0.52,0l0,-1l0.52,0l0,1z" stroke="#3a414a" stroke-width="0.05" fill="#3a414a" id="svg_316"/>
   <path d="m1437.92,140l-14.27,4.64l0,-9.28l14.27,4.64z" stroke="#3a414a" fill="#3a414a" id="svg_317"/>
   <path d="m620.96,400l102.19,0" stroke="#3a414a" fill="none" id="svg_318"/>
   <path d="m620.98,400.5l-0.52,0l0,-1l0.52,0l0,1z" stroke="#3a414a" stroke-width="0.05" fill="#3a414a" id="svg_319"/>
   <path d="m737.92,400l-14.27,4.64l0,-9.28l14.27,4.64z" stroke="#3a414a" fill="#3a414a" id="svg_320"/>
   <path d="m940.96,400l122.19,0" stroke="#3a414a" fill="none" id="svg_321"/>
   <path d="m940.98,400.5l-0.52,0l0,-1l0.52,0l0,1z" stroke="#3a414a" stroke-width="0.05" fill="#3a414a" id="svg_322"/>
   <path d="m1077.92,400l-14.27,4.64l0,-9.28l14.27,4.64z" stroke="#3a414a" fill="#3a414a" id="svg_323"/>
   <path d="m1360.96,580l122.2,0" stroke="#3a414a" fill="none" id="svg_324"/>
   <path d="m1360.98,580.5l-0.52,0l0,-1l0.52,0l0,1z" stroke="#3a414a" stroke-width="0.05" fill="#3a414a" id="svg_325"/>
   <path d="m1497.92,580l-14.27,4.64l0,-9.28l14.27,4.64z" stroke="#3a414a" fill="#3a414a" id="svg_326"/>
   <path d="m100,64.33a6,6 0 0 1 6,-6l228,0a6,6 0 0 1 6,6l0,51.34a6,6 0 0 1 -6,6l-228,0a6,6 0 0 1 -6,-6l0,-51.34z" stroke="#000" stroke-opacity="0" fill="#fff" fill-opacity="0" id="svg_327"/>
   <path d="m100,431a6,6 0 0 1 6,-6l228,0a6,6 0 0 1 6,6l0,78a6,6 0 0 1 -6,6l-228,0a6,6 0 0 1 -6,-6l0,-78z" stroke="#000" stroke-opacity="0" fill="#fff" fill-opacity="0" id="svg_328"/>
   <path d="m220,123.13l0,15.63m0,15.62l0,31.26m0,15.63l0,31.25m0,15.63l0,31.25m0,15.63l0,31.25m0,15.63l0,31.26m0,15.63l0,15.62" stroke="#3a414a" stroke-width="3" fill="none" id="svg_329"/>
   <path d="m221.5,123.17l-3,0l0,-1.54l3,0l0,1.54z" stroke="#3a414a" stroke-width="0.05" fill="#3a414a" id="svg_330"/>
   <path d="m220,420.18l-4.64,-14.26l9.28,0l-4.64,14.26z" stroke="#3a414a" stroke-width="3" fill="#3a414a" id="svg_331"/>
   <path d="m1180,460.96l0,42.22" stroke="#3a414a" fill="none" id="svg_332"/>
   <path d="m1180.5,460.98l-1,0l0,-0.52l1,0l0,0.52z" stroke="#3a414a" stroke-width="0.05" fill="#3a414a" id="svg_333"/>
   <path d="m1180,517.95l-4.64,-14.27l9.28,0l-4.64,14.27z" stroke="#3a414a" fill="#3a414a" id="svg_334"/>
   <defs transform="translate(-14.6667 -2.66667) translate(41.3333 0) translate(0 -3.63636) translate(20 -1.81818) translate(120 -100)" id="svg_614">
    <path fill="#3a414a" d="m67,-125c0,53 21,87 73,88c37,1 54,-22 65,-47l45,17c-17,42 -51,71 -110,71c-82,0 -120,-46 -125,-129c-7,-110 109,-156 196,-107c18,10 29,29 36,50l-46,12c-8,-25 -30,-41 -62,-41c-52,0 -71,34 -72,86" id="svg_335"/>
    <path fill="#3a414a" d="m135,-150c-39,-12 -60,13 -60,57l0,93l-50,0l-1,-190l47,0c2,13 -1,29 3,40c6,-28 27,-53 61,-41l0,41" id="svg_336"/>
    <path fill="#3a414a" d="m185,-48c-13,30 -37,53 -82,52c-60,-2 -89,-37 -89,-100s30,-98 90,-98c62,0 83,45 84,108l-122,0c0,31 8,55 39,56c18,0 30,-7 34,-22l46,4zm-45,-69c5,-46 -57,-63 -70,-21c-2,6 -4,13 -4,21l74,0" id="svg_337"/>
    <path fill="#3a414a" d="m133,-34c-16,19 -30,39 -64,38c-37,-1 -58,-20 -58,-58c-1,-60 55,-63 116,-61c1,-26 -3,-47 -28,-47c-18,1 -26,9 -28,27l-52,-2c7,-38 36,-58 82,-57s74,22 75,68l1,82c-1,14 12,18 25,15l0,27c-30,8 -71,5 -69,-32zm-48,3c29,0 43,-24 42,-57c-32,0 -66,-3 -65,30c0,17 8,27 23,27" id="svg_338"/>
    <path fill="#3a414a" d="m115,-3c-36,14 -87,7 -87,-42l0,-112l-24,0l0,-33l27,0l15,-45l31,0l0,45l36,0l0,33l-36,0l0,99c-1,23 16,31 38,25l0,30" id="svg_339"/>
    <path fill="#3a414a" d="m137,-138c1,-29 -70,-34 -71,-4c15,46 118,7 119,86c1,83 -164,76 -172,9l43,-7c4,19 20,25 44,25c33,8 57,-30 24,-41c-43,-14 -102,-11 -104,-66c-2,-80 154,-74 161,-7" id="svg_340"/>
    <g id="svg_348">
     <use transform="matrix(0.06790123456790122,0,0,0.06790123456790122,0,0)" xlink:href="#G" id="svg_341"/>
     <use transform="matrix(0.06790123456790122,0,0,0.06790123456790122,17.586419753086414,0)" xlink:href="#H" id="svg_342"/>
     <use transform="matrix(0.06790123456790122,0,0,0.06790123456790122,27.092592592592585,0)" xlink:href="#I" id="svg_343"/>
     <use transform="matrix(0.06790123456790122,0,0,0.06790123456790122,40.67283950617283,0)" xlink:href="#J" id="svg_344"/>
     <use transform="matrix(0.06790123456790122,0,0,0.06790123456790122,54.253086419753075,0)" xlink:href="#K" id="svg_345"/>
     <use transform="matrix(0.06790123456790122,0,0,0.06790123456790122,62.33333333333332,0)" xlink:href="#I" id="svg_346"/>
     <use transform="matrix(0.06790123456790122,0,0,0.06790123456790122,75.91358024691358,0)" xlink:href="#L" id="svg_347"/>
    </g>
    <path fill="#3a414a" d="m205,0l-28,-72l-113,0l-28,72l-35,0l101,-248l38,0l99,248l-34,0zm-38,-99l-47,-123c-12,45 -31,82 -46,123l93,0" id="svg_349"/>
    <path fill="#3a414a" d="m85,-194c31,0 48,13 60,33l-1,-100l32,0l1,261l-30,0c-2,-10 0,-23 -3,-31c-10,23 -28,35 -59,35c-53,0 -69,-39 -70,-98c0,-66 23,-100 70,-100zm9,24c-40,0 -46,34 -46,75c0,40 6,74 45,74c42,0 51,-32 51,-76c0,-42 -9,-74 -50,-73" id="svg_350"/>
    <g id="svg_354">
     <use transform="matrix(0.06172839506172839,0,0,0.06172839506172839,0,0)" xlink:href="#M" id="svg_351"/>
     <use transform="matrix(0.06172839506172839,0,0,0.06172839506172839,14.814814814814813,0)" xlink:href="#N" id="svg_352"/>
     <use transform="matrix(0.06172839506172839,0,0,0.06172839506172839,27.160493827160494,0)" xlink:href="#N" id="svg_353"/>
    </g>
    <path fill="#3a414a" d="m84,4c-89,4 -54,-116 -61,-194l32,0l0,120c0,31 7,50 39,49c72,-2 45,-101 50,-169l31,0l1,190l-30,0c-1,-10 1,-25 -2,-33c-11,22 -28,36 -60,37" id="svg_355"/>
    <path fill="#3a414a" d="m135,-143c-3,-34 -86,-38 -87,0c15,53 115,12 119,90s-150,74 -157,8l28,-5c4,36 97,45 98,0c-10,-56 -113,-15 -118,-90c-4,-57 82,-63 122,-42c12,7 21,19 24,35" id="svg_356"/>
    <path fill="#3a414a" d="m100,-194c63,0 86,42 84,106l-135,0c0,40 14,67 53,68c26,1 43,-12 49,-29l28,8c-11,28 -37,45 -77,45c-58,0 -88,-37 -87,-100c1,-61 26,-98 85,-98zm52,81c6,-60 -76,-77 -97,-28c-3,7 -6,17 -6,28l103,0" id="svg_357"/>
    <path fill="#3a414a" d="m114,-163c-78,-16 -53,91 -57,163l-32,0l-1,-190l30,0c1,12 -1,29 2,39c6,-27 23,-49 58,-41l0,29" id="svg_358"/>
    <g id="svg_363">
     <use transform="matrix(0.06172839506172839,0,0,0.06172839506172839,0,0)" xlink:href="#O" id="svg_359"/>
     <use transform="matrix(0.06172839506172839,0,0,0.06172839506172839,12.345679012345679,0)" xlink:href="#P" id="svg_360"/>
     <use transform="matrix(0.06172839506172839,0,0,0.06172839506172839,23.45679012345679,0)" xlink:href="#Q" id="svg_361"/>
     <use transform="matrix(0.06172839506172839,0,0,0.06172839506172839,35.80246913580247,0)" xlink:href="#R" id="svg_362"/>
    </g>
    <path fill="#3a414a" d="m177,-190c-10,125 41,293 -110,261c-23,-6 -38,-20 -44,-43l32,-5c15,47 100,32 89,-28l0,-30c-11,21 -29,36 -61,36c-54,0 -68,-41 -68,-96c0,-56 16,-97 71,-98c29,-1 48,16 59,35c1,-10 0,-23 2,-32l30,0zm-83,168c36,0 50,-32 50,-73c0,-42 -14,-75 -50,-75c-39,0 -46,34 -46,75s6,73 46,73" id="svg_364"/>
    <path fill="#3a414a" d="m100,-194c62,-1 85,37 85,99c1,63 -27,99 -86,99s-83,-39 -84,-99c0,-66 28,-99 85,-99zm-1,174c44,1 53,-31 53,-75c0,-43 -8,-75 -51,-75s-53,32 -53,75s10,74 51,75" id="svg_365"/>
    <path fill="#3a414a" d="m115,-194c55,1 70,41 70,98s-16,98 -70,100c-31,0 -49,-13 -60,-34l1,105l-32,0l-1,-265l31,0l2,30c10,-21 28,-34 59,-34zm-8,174c40,0 45,-34 45,-75s-6,-73 -45,-74c-42,0 -51,32 -51,76c0,43 10,73 51,73" id="svg_366"/>
    <g id="svg_373">
     <use transform="matrix(0.06172839506172839,0,0,0.06172839506172839,0,0)" xlink:href="#S" id="svg_367"/>
     <use transform="matrix(0.06172839506172839,0,0,0.06172839506172839,12.345679012345679,0)" xlink:href="#R" id="svg_368"/>
     <use transform="matrix(0.06172839506172839,0,0,0.06172839506172839,19.691358024691358,0)" xlink:href="#T" id="svg_369"/>
     <use transform="matrix(0.06172839506172839,0,0,0.06172839506172839,32.03703703703704,0)" xlink:href="#O" id="svg_370"/>
     <use transform="matrix(0.06172839506172839,0,0,0.06172839506172839,44.382716049382715,0)" xlink:href="#U" id="svg_371"/>
     <use transform="matrix(0.06172839506172839,0,0,0.06172839506172839,56.72839506172839,0)" xlink:href="#P" id="svg_372"/>
    </g>
    <g id="svg_377">
     <use transform="matrix(0.055555555555555546,0,0,0.055555555555555546,0,0)" xlink:href="#M" id="svg_374"/>
     <use transform="matrix(0.055555555555555546,0,0,0.055555555555555546,13.33333333333333,0)" xlink:href="#N" id="svg_375"/>
     <use transform="matrix(0.055555555555555546,0,0,0.055555555555555546,24.44444444444444,0)" xlink:href="#N" id="svg_376"/>
    </g>
    <g id="svg_382">
     <use transform="matrix(0.055555555555555546,0,0,0.055555555555555546,0,0)" xlink:href="#O" id="svg_378"/>
     <use transform="matrix(0.055555555555555546,0,0,0.055555555555555546,11.111111111111109,0)" xlink:href="#P" id="svg_379"/>
     <use transform="matrix(0.055555555555555546,0,0,0.055555555555555546,21.111111111111107,0)" xlink:href="#Q" id="svg_380"/>
     <use transform="matrix(0.055555555555555546,0,0,0.055555555555555546,32.222222222222214,0)" xlink:href="#R" id="svg_381"/>
    </g>
    <g id="svg_389">
     <use transform="matrix(0.055555555555555546,0,0,0.055555555555555546,0,0)" xlink:href="#S" id="svg_383"/>
     <use transform="matrix(0.055555555555555546,0,0,0.055555555555555546,11.111111111111109,0)" xlink:href="#R" id="svg_384"/>
     <use transform="matrix(0.055555555555555546,0,0,0.055555555555555546,17.722222222222218,0)" xlink:href="#T" id="svg_385"/>
     <use transform="matrix(0.055555555555555546,0,0,0.055555555555555546,28.83333333333333,0)" xlink:href="#O" id="svg_386"/>
     <use transform="matrix(0.055555555555555546,0,0,0.055555555555555546,39.944444444444436,0)" xlink:href="#U" id="svg_387"/>
     <use transform="matrix(0.055555555555555546,0,0,0.055555555555555546,51.05555555555554,0)" xlink:href="#P" id="svg_388"/>
    </g>
    <path fill="#3a414a" d="m59,-47c-2,24 18,29 38,22l0,24c-33,10 -70,5 -70,-39l0,-127l-22,0l0,-23l24,0l9,-43l21,0l0,43l35,0l0,23l-35,0l0,120" id="svg_390"/>
    <g id="svg_393">
     <use transform="matrix(0.055555555555555546,0,0,0.055555555555555546,0,0)" xlink:href="#V" id="svg_391"/>
     <use transform="matrix(0.055555555555555546,0,0,0.055555555555555546,5.5555555555555545,0)" xlink:href="#T" id="svg_392"/>
    </g>
    <g id="svg_400">
     <use transform="matrix(0.055555555555555546,0,0,0.055555555555555546,0,0)" xlink:href="#M" id="svg_394"/>
     <use transform="matrix(0.055555555555555546,0,0,0.055555555555555546,13.33333333333333,0)" xlink:href="#P" id="svg_395"/>
     <use transform="matrix(0.055555555555555546,0,0,0.055555555555555546,23.33333333333333,0)" xlink:href="#P" id="svg_396"/>
     <use transform="matrix(0.055555555555555546,0,0,0.055555555555555546,33.33333333333333,0)" xlink:href="#Q" id="svg_397"/>
     <use transform="matrix(0.055555555555555546,0,0,0.055555555555555546,44.444444444444436,0)" xlink:href="#V" id="svg_398"/>
     <use transform="matrix(0.055555555555555546,0,0,0.055555555555555546,49.99999999999999,0)" xlink:href="#P" id="svg_399"/>
    </g>
    <path fill="#3a414a" d="m30,0l0,-248l187,0l0,28l-154,0l0,79l144,0l0,27l-144,0l0,87l162,0l0,27l-195,0" id="svg_401"/>
    <path fill="#3a414a" d="m117,-194c89,-4 53,116 60,194l-32,0l0,-121c0,-31 -8,-49 -39,-48c-72,2 -44,102 -49,169l-32,0l-1,-190l30,0c1,10 -1,24 2,32c11,-22 29,-35 61,-36" id="svg_402"/>
    <path fill="#3a414a" d="m24,-231l0,-30l32,0l0,30l-32,0zm0,231l0,-190l32,0l0,190l-32,0" id="svg_403"/>
    <path fill="#3a414a" d="m141,-36c-15,21 -31,41 -68,40c-36,-1 -58,-21 -58,-57c-1,-64 63,-63 125,-63c3,-35 -9,-54 -41,-54c-24,1 -41,7 -42,31l-33,-3c5,-37 33,-52 76,-52c45,0 72,20 72,64l0,82c-1,20 7,32 28,27l0,20c-31,9 -61,-2 -59,-35zm-93,-17c0,20 12,33 32,33c41,-3 63,-29 60,-74c-43,2 -92,-5 -92,41" id="svg_404"/>
    <path fill="#3a414a" d="m24,0l0,-261l32,0l0,261l-32,0" id="svg_405"/>
    <g id="svg_416">
     <use transform="matrix(0.055555555555555546,0,0,0.055555555555555546,0,0)" xlink:href="#W" id="svg_406"/>
     <use transform="matrix(0.055555555555555546,0,0,0.055555555555555546,13.33333333333333,0)" xlink:href="#P" id="svg_407"/>
     <use transform="matrix(0.055555555555555546,0,0,0.055555555555555546,23.33333333333333,0)" xlink:href="#P" id="svg_408"/>
     <use transform="matrix(0.055555555555555546,0,0,0.055555555555555546,33.33333333333333,0)" xlink:href="#Q" id="svg_409"/>
     <use transform="matrix(0.055555555555555546,0,0,0.055555555555555546,44.444444444444436,0)" xlink:href="#X" id="svg_410"/>
     <use transform="matrix(0.055555555555555546,0,0,0.055555555555555546,55.55555555555554,0)" xlink:href="#V" id="svg_411"/>
     <use transform="matrix(0.055555555555555546,0,0,0.055555555555555546,61.1111111111111,0)" xlink:href="#Y" id="svg_412"/>
     <use transform="matrix(0.055555555555555546,0,0,0.055555555555555546,65.49999999999999,0)" xlink:href="#Z" id="svg_413"/>
     <use transform="matrix(0.055555555555555546,0,0,0.055555555555555546,76.6111111111111,0)" xlink:href="#aa" id="svg_414"/>
     <use transform="matrix(0.055555555555555546,0,0,0.055555555555555546,80.99999999999999,0)" xlink:href="#P" id="svg_415"/>
    </g>
    <path fill="#3a414a" d="m96,-169c-40,0 -48,33 -48,73s9,75 48,75c24,0 41,-14 43,-38l32,2c-6,37 -31,61 -74,61c-59,0 -76,-41 -82,-99c-10,-93 101,-131 147,-64c4,7 5,14 7,22l-32,3c-4,-21 -16,-35 -41,-35" id="svg_417"/>
    <g id="svg_425">
     <use transform="matrix(0.055555555555555546,0,0,0.055555555555555546,0,0)" xlink:href="#U" id="svg_418"/>
     <use transform="matrix(0.055555555555555546,0,0,0.055555555555555546,11.111111111111109,0)" xlink:href="#R" id="svg_419"/>
     <use transform="matrix(0.055555555555555546,0,0,0.055555555555555546,17.722222222222218,0)" xlink:href="#T" id="svg_420"/>
     <use transform="matrix(0.055555555555555546,0,0,0.055555555555555546,28.83333333333333,0)" xlink:href="#N" id="svg_421"/>
     <use transform="matrix(0.055555555555555546,0,0,0.055555555555555546,39.944444444444436,0)" xlink:href="#O" id="svg_422"/>
     <use transform="matrix(0.055555555555555546,0,0,0.055555555555555546,51.05555555555554,0)" xlink:href="#ab" id="svg_423"/>
     <use transform="matrix(0.055555555555555546,0,0,0.055555555555555546,61.05555555555554,0)" xlink:href="#V" id="svg_424"/>
    </g>
    <path fill="#3a414a" d="m101,-234c-31,-9 -42,10 -38,44l38,0l0,23l-38,0l0,167l-31,0l0,-167l-27,0l0,-23l27,0c-7,-52 17,-82 69,-68l0,24" id="svg_426"/>
    <g id="svg_435">
     <use transform="matrix(0.055555555555555546,0,0,0.055555555555555546,0,0)" xlink:href="#U" id="svg_427"/>
     <use transform="matrix(0.055555555555555546,0,0,0.055555555555555546,11.111111111111109,0)" xlink:href="#R" id="svg_428"/>
     <use transform="matrix(0.055555555555555546,0,0,0.055555555555555546,17.722222222222218,0)" xlink:href="#T" id="svg_429"/>
     <use transform="matrix(0.055555555555555546,0,0,0.055555555555555546,28.83333333333333,0)" xlink:href="#ac" id="svg_430"/>
     <use transform="matrix(0.055555555555555546,0,0,0.055555555555555546,34.388888888888886,0)" xlink:href="#Y" id="svg_431"/>
     <use transform="matrix(0.055555555555555546,0,0,0.055555555555555546,38.77777777777777,0)" xlink:href="#aa" id="svg_432"/>
     <use transform="matrix(0.055555555555555546,0,0,0.055555555555555546,43.16666666666666,0)" xlink:href="#Q" id="svg_433"/>
     <use transform="matrix(0.055555555555555546,0,0,0.055555555555555546,54.277777777777764,0)" xlink:href="#P" id="svg_434"/>
    </g>
    <g id="svg_441">
     <use transform="matrix(0.06172839506172839,0,0,0.06172839506172839,0,0)" xlink:href="#O" id="svg_436"/>
     <use transform="matrix(0.06172839506172839,0,0,0.06172839506172839,12.345679012345679,0)" xlink:href="#P" id="svg_437"/>
     <use transform="matrix(0.06172839506172839,0,0,0.06172839506172839,23.45679012345679,0)" xlink:href="#Q" id="svg_438"/>
     <use transform="matrix(0.06172839506172839,0,0,0.06172839506172839,35.80246913580247,0)" xlink:href="#R" id="svg_439"/>
     <use transform="matrix(0.06172839506172839,0,0,0.06172839506172839,43.148148148148145,0)" xlink:href="#P" id="svg_440"/>
    </g>
    <g id="svg_444">
     <use transform="matrix(0.06172839506172839,0,0,0.06172839506172839,0,0)" xlink:href="#V" id="svg_442"/>
     <use transform="matrix(0.06172839506172839,0,0,0.06172839506172839,6.172839506172839,0)" xlink:href="#T" id="svg_443"/>
    </g>
    <path fill="#3a414a" d="m212,-179c-10,-28 -35,-45 -73,-45c-59,0 -87,40 -87,99c0,60 29,101 89,101c43,0 62,-24 78,-52l27,14c-18,38 -51,66 -107,66c-80,0 -117,-50 -121,-129c-6,-104 99,-153 187,-111c19,9 31,26 39,46" id="svg_445"/>
    <g id="svg_452">
     <use transform="matrix(0.06172839506172839,0,0,0.06172839506172839,0,0)" xlink:href="#ad" id="svg_446"/>
     <use transform="matrix(0.06172839506172839,0,0,0.06172839506172839,15.987654320987653,0)" xlink:href="#R" id="svg_447"/>
     <use transform="matrix(0.06172839506172839,0,0,0.06172839506172839,23.333333333333332,0)" xlink:href="#Q" id="svg_448"/>
     <use transform="matrix(0.06172839506172839,0,0,0.06172839506172839,35.67901234567901,0)" xlink:href="#Z" id="svg_449"/>
     <use transform="matrix(0.06172839506172839,0,0,0.06172839506172839,48.02469135802469,0)" xlink:href="#V" id="svg_450"/>
     <use transform="matrix(0.06172839506172839,0,0,0.06172839506172839,54.19753086419753,0)" xlink:href="#Q" id="svg_451"/>
    </g>
    <g id="svg_459">
     <use transform="matrix(0.06172839506172839,0,0,0.06172839506172839,0,0)" xlink:href="#ac" id="svg_453"/>
     <use transform="matrix(0.06172839506172839,0,0,0.06172839506172839,6.172839506172839,0)" xlink:href="#T" id="svg_454"/>
     <use transform="matrix(0.06172839506172839,0,0,0.06172839506172839,18.51851851851852,0)" xlink:href="#aa" id="svg_455"/>
     <use transform="matrix(0.06172839506172839,0,0,0.06172839506172839,23.395061728395063,0)" xlink:href="#N" id="svg_456"/>
     <use transform="matrix(0.06172839506172839,0,0,0.06172839506172839,35.74074074074074,0)" xlink:href="#Q" id="svg_457"/>
     <use transform="matrix(0.06172839506172839,0,0,0.06172839506172839,48.08641975308642,0)" xlink:href="#R" id="svg_458"/>
    </g>
    <g id="svg_469">
     <use transform="matrix(0.06172839506172839,0,0,0.06172839506172839,0,0)" xlink:href="#P" id="svg_460"/>
     <use transform="matrix(0.06172839506172839,0,0,0.06172839506172839,11.11111111111111,0)" xlink:href="#V" id="svg_461"/>
     <use transform="matrix(0.06172839506172839,0,0,0.06172839506172839,17.28395061728395,0)" xlink:href="#R" id="svg_462"/>
     <use transform="matrix(0.06172839506172839,0,0,0.06172839506172839,24.629629629629626,0)" xlink:href="#O" id="svg_463"/>
     <use transform="matrix(0.06172839506172839,0,0,0.06172839506172839,36.9753086419753,0)" xlink:href="#ab" id="svg_464"/>
     <use transform="matrix(0.06172839506172839,0,0,0.06172839506172839,48.08641975308642,0)" xlink:href="#V" id="svg_465"/>
     <use transform="matrix(0.06172839506172839,0,0,0.06172839506172839,54.25925925925926,0)" xlink:href="#O" id="svg_466"/>
     <use transform="matrix(0.06172839506172839,0,0,0.06172839506172839,66.60493827160494,0)" xlink:href="#R" id="svg_467"/>
     <use transform="matrix(0.06172839506172839,0,0,0.06172839506172839,73.95061728395062,0)" xlink:href="#Q" id="svg_468"/>
    </g>
    <path fill="#3a414a" d="m232,-93c-1,65 -40,97 -104,97c-61,0 -100,-32 -100,-94l0,-158l33,0c8,89 -33,224 67,224c102,0 64,-133 71,-224l33,0l0,155" id="svg_470"/>
    <g id="svg_477">
     <use transform="matrix(0.06172839506172839,0,0,0.06172839506172839,0,0)" xlink:href="#ae" id="svg_471"/>
     <use transform="matrix(0.06172839506172839,0,0,0.06172839506172839,15.987654320987653,0)" xlink:href="#U" id="svg_472"/>
     <use transform="matrix(0.06172839506172839,0,0,0.06172839506172839,28.333333333333332,0)" xlink:href="#aa" id="svg_473"/>
     <use transform="matrix(0.06172839506172839,0,0,0.06172839506172839,33.20987654320987,0)" xlink:href="#T" id="svg_474"/>
     <use transform="matrix(0.06172839506172839,0,0,0.06172839506172839,45.55555555555555,0)" xlink:href="#Z" id="svg_475"/>
     <use transform="matrix(0.06172839506172839,0,0,0.06172839506172839,57.90123456790123,0)" xlink:href="#N" id="svg_476"/>
    </g>
    <g id="svg_484">
     <use transform="matrix(0.06172839506172839,0,0,0.06172839506172839,0,0)" xlink:href="#Z" id="svg_478"/>
     <use transform="matrix(0.06172839506172839,0,0,0.06172839506172839,12.345679012345679,0)" xlink:href="#P" id="svg_479"/>
     <use transform="matrix(0.06172839506172839,0,0,0.06172839506172839,23.45679012345679,0)" xlink:href="#P" id="svg_480"/>
     <use transform="matrix(0.06172839506172839,0,0,0.06172839506172839,34.5679012345679,0)" xlink:href="#Q" id="svg_481"/>
     <use transform="matrix(0.06172839506172839,0,0,0.06172839506172839,46.913580246913575,0)" xlink:href="#V" id="svg_482"/>
     <use transform="matrix(0.06172839506172839,0,0,0.06172839506172839,53.08641975308642,0)" xlink:href="#P" id="svg_483"/>
    </g>
    <path fill="#3a414a" d="m185,-189c-5,-48 -123,-54 -124,2c14,75 158,14 163,119c3,78 -121,87 -175,55c-17,-10 -28,-26 -33,-46l33,-7c5,56 141,63 141,-1c0,-78 -155,-14 -162,-118c-5,-82 145,-84 179,-34c5,7 8,16 11,25" id="svg_485"/>
    <g id="svg_491">
     <use transform="matrix(0.06172839506172839,0,0,0.06172839506172839,0,0)" xlink:href="#af" id="svg_486"/>
     <use transform="matrix(0.06172839506172839,0,0,0.06172839506172839,14.814814814814813,0)" xlink:href="#Q" id="svg_487"/>
     <use transform="matrix(0.06172839506172839,0,0,0.06172839506172839,27.160493827160494,0)" xlink:href="#V" id="svg_488"/>
     <use transform="matrix(0.06172839506172839,0,0,0.06172839506172839,33.333333333333336,0)" xlink:href="#O" id="svg_489"/>
     <use transform="matrix(0.06172839506172839,0,0,0.06172839506172839,45.67901234567901,0)" xlink:href="#U" id="svg_490"/>
    </g>
    <path fill="#3a414a" d="m210,-169c-67,3 -38,105 -44,169l-31,0l0,-121c0,-29 -5,-50 -35,-48c-66,4 -38,104 -44,169l-31,0l-1,-190l30,0c1,10 -1,24 2,32c10,-44 99,-50 107,0c11,-21 27,-35 58,-36c85,-2 47,119 55,194l-31,0l0,-121c0,-29 -5,-49 -35,-48" id="svg_492"/>
    <g id="svg_504">
     <use transform="matrix(0.06172839506172839,0,0,0.06172839506172839,0,0)" xlink:href="#U" id="svg_493"/>
     <use transform="matrix(0.06172839506172839,0,0,0.06172839506172839,12.345679012345679,0)" xlink:href="#Q" id="svg_494"/>
     <use transform="matrix(0.06172839506172839,0,0,0.06172839506172839,24.691358024691358,0)" xlink:href="#R" id="svg_495"/>
     <use transform="matrix(0.06172839506172839,0,0,0.06172839506172839,32.03703703703704,0)" xlink:href="#ag" id="svg_496"/>
     <use transform="matrix(0.06172839506172839,0,0,0.06172839506172839,50.49382716049382,0)" xlink:href="#Y" id="svg_497"/>
     <use transform="matrix(0.06172839506172839,0,0,0.06172839506172839,55.37037037037037,0)" xlink:href="#P" id="svg_498"/>
     <use transform="matrix(0.06172839506172839,0,0,0.06172839506172839,66.48148148148148,0)" xlink:href="#P" id="svg_499"/>
     <use transform="matrix(0.06172839506172839,0,0,0.06172839506172839,77.5925925925926,0)" xlink:href="#Y" id="svg_500"/>
     <use transform="matrix(0.06172839506172839,0,0,0.06172839506172839,82.46913580246914,0)" xlink:href="#T" id="svg_501"/>
     <use transform="matrix(0.06172839506172839,0,0,0.06172839506172839,94.81481481481482,0)" xlink:href="#X" id="svg_502"/>
     <use transform="matrix(0.06172839506172839,0,0,0.06172839506172839,107.16049382716051,0)" xlink:href="#P" id="svg_503"/>
    </g>
    <g id="svg_510">
     <use transform="matrix(0.06172839506172839,0,0,0.06172839506172839,0,0)" xlink:href="#af" id="svg_505"/>
     <use transform="matrix(0.06172839506172839,0,0,0.06172839506172839,14.814814814814813,0)" xlink:href="#Q" id="svg_506"/>
     <use transform="matrix(0.06172839506172839,0,0,0.06172839506172839,27.160493827160494,0)" xlink:href="#V" id="svg_507"/>
     <use transform="matrix(0.06172839506172839,0,0,0.06172839506172839,33.333333333333336,0)" xlink:href="#O" id="svg_508"/>
     <use transform="matrix(0.06172839506172839,0,0,0.06172839506172839,45.67901234567901,0)" xlink:href="#U" id="svg_509"/>
    </g>
    <g id="svg_519">
     <use transform="matrix(0.06172839506172839,0,0,0.06172839506172839,0,0)" xlink:href="#ag" id="svg_511"/>
     <use transform="matrix(0.06172839506172839,0,0,0.06172839506172839,18.456790123456788,0)" xlink:href="#Q" id="svg_512"/>
     <use transform="matrix(0.06172839506172839,0,0,0.06172839506172839,30.80246913580247,0)" xlink:href="#V" id="svg_513"/>
     <use transform="matrix(0.06172839506172839,0,0,0.06172839506172839,36.97530864197531,0)" xlink:href="#Z" id="svg_514"/>
     <use transform="matrix(0.06172839506172839,0,0,0.06172839506172839,49.32098765432099,0)" xlink:href="#N" id="svg_515"/>
     <use transform="matrix(0.06172839506172839,0,0,0.06172839506172839,61.666666666666664,0)" xlink:href="#Z" id="svg_516"/>
     <use transform="matrix(0.06172839506172839,0,0,0.06172839506172839,74.01234567901234,0)" xlink:href="#V" id="svg_517"/>
     <use transform="matrix(0.06172839506172839,0,0,0.06172839506172839,80.18518518518518,0)" xlink:href="#Z" id="svg_518"/>
    </g>
    <g id="svg_525">
     <use transform="matrix(0.06172839506172839,0,0,0.06172839506172839,0,0)" xlink:href="#ac" id="svg_520"/>
     <use transform="matrix(0.06172839506172839,0,0,0.06172839506172839,6.172839506172839,0)" xlink:href="#T" id="svg_521"/>
     <use transform="matrix(0.06172839506172839,0,0,0.06172839506172839,18.51851851851852,0)" xlink:href="#R" id="svg_522"/>
     <use transform="matrix(0.06172839506172839,0,0,0.06172839506172839,25.864197530864196,0)" xlink:href="#ag" id="svg_523"/>
     <use transform="matrix(0.06172839506172839,0,0,0.06172839506172839,44.32098765432099,0)" xlink:href="#P" id="svg_524"/>
    </g>
    <path fill="#3a414a" d="m115,-194c53,0 69,39 70,98c0,66 -23,100 -70,100c-31,-1 -49,-11 -59,-34l-2,30l-31,0l1,-261l32,0l0,101c10,-23 28,-34 59,-34zm-8,174c40,0 45,-34 45,-75c0,-40 -5,-75 -45,-74c-42,0 -51,32 -51,76c0,43 10,73 51,73" id="svg_526"/>
    <g id="svg_533">
     <use transform="matrix(0.06172839506172839,0,0,0.06172839506172839,0,0)" xlink:href="#U" id="svg_527"/>
     <use transform="matrix(0.06172839506172839,0,0,0.06172839506172839,12.345679012345679,0)" xlink:href="#O" id="svg_528"/>
     <use transform="matrix(0.06172839506172839,0,0,0.06172839506172839,24.691358024691358,0)" xlink:href="#ah" id="svg_529"/>
     <use transform="matrix(0.06172839506172839,0,0,0.06172839506172839,37.03703703703704,0)" xlink:href="#aa" id="svg_530"/>
     <use transform="matrix(0.06172839506172839,0,0,0.06172839506172839,41.91358024691358,0)" xlink:href="#Y" id="svg_531"/>
     <use transform="matrix(0.06172839506172839,0,0,0.06172839506172839,46.79012345679013,0)" xlink:href="#ab" id="svg_532"/>
    </g>
    <g id="svg_545">
     <use transform="matrix(0.06172839506172839,0,0,0.06172839506172839,0,0)" xlink:href="#ab" id="svg_534"/>
     <use transform="matrix(0.06172839506172839,0,0,0.06172839506172839,11.11111111111111,0)" xlink:href="#T" id="svg_535"/>
     <use transform="matrix(0.06172839506172839,0,0,0.06172839506172839,23.45679012345679,0)" xlink:href="#aa" id="svg_536"/>
     <use transform="matrix(0.06172839506172839,0,0,0.06172839506172839,28.333333333333336,0)" xlink:href="#aa" id="svg_537"/>
     <use transform="matrix(0.06172839506172839,0,0,0.06172839506172839,33.20987654320988,0)" xlink:href="#Q" id="svg_538"/>
     <use transform="matrix(0.06172839506172839,0,0,0.06172839506172839,45.55555555555556,0)" xlink:href="#ab" id="svg_539"/>
     <use transform="matrix(0.06172839506172839,0,0,0.06172839506172839,56.66666666666667,0)" xlink:href="#V" id="svg_540"/>
     <use transform="matrix(0.06172839506172839,0,0,0.06172839506172839,62.83950617283951,0)" xlink:href="#Y" id="svg_541"/>
     <use transform="matrix(0.06172839506172839,0,0,0.06172839506172839,67.71604938271605,0)" xlink:href="#T" id="svg_542"/>
     <use transform="matrix(0.06172839506172839,0,0,0.06172839506172839,80.06172839506173,0)" xlink:href="#X" id="svg_543"/>
     <use transform="matrix(0.06172839506172839,0,0,0.06172839506172839,92.40740740740742,0)" xlink:href="#P" id="svg_544"/>
    </g>
    <path fill="#3a414a" d="m199,0l-22,-63l-94,0l-22,63l-52,0l90,-248l61,0l90,248l-51,0zm-33,-102l-36,-108c-10,38 -24,72 -36,108l72,0" id="svg_546"/>
    <path fill="#3a414a" d="m88,-194c31,-1 46,15 58,34l-1,-101l50,0l1,261l-48,0c-2,-10 0,-23 -3,-31c-11,23 -29,35 -61,35c-52,0 -68,-45 -69,-99c0,-56 19,-97 73,-99zm17,164c33,0 40,-30 41,-66c1,-37 -9,-64 -41,-64s-38,30 -39,65c0,43 13,65 39,65" id="svg_547"/>
    <path fill="#3a414a" d="m220,-157c-53,9 -28,100 -34,157l-49,0l0,-107c1,-27 -5,-49 -29,-50c-53,10 -27,100 -33,157l-50,0l-1,-190l47,0c2,12 -1,28 3,38c10,-53 101,-56 108,0c13,-22 24,-43 59,-42c82,1 51,116 57,194l-49,0l0,-107c-1,-25 -5,-48 -29,-50" id="svg_548"/>
    <path fill="#3a414a" d="m25,-224l0,-37l50,0l0,37l-50,0zm0,224l0,-190l50,0l0,190l-50,0" id="svg_549"/>
    <path fill="#3a414a" d="m135,-194c87,-1 58,113 63,194l-50,0c-7,-57 23,-157 -34,-157c-59,0 -34,97 -39,157l-50,0l-1,-190l47,0c2,12 -1,28 3,38c12,-26 28,-41 61,-42" id="svg_550"/>
    <g id="svg_556">
     <use transform="matrix(0.06172839506172839,0,0,0.06172839506172839,0,0)" xlink:href="#ai" id="svg_551"/>
     <use transform="matrix(0.06172839506172839,0,0,0.06172839506172839,15.987654320987653,0)" xlink:href="#aj" id="svg_552"/>
     <use transform="matrix(0.06172839506172839,0,0,0.06172839506172839,29.50617283950617,0)" xlink:href="#ak" id="svg_553"/>
     <use transform="matrix(0.06172839506172839,0,0,0.06172839506172839,49.25925925925925,0)" xlink:href="#al" id="svg_554"/>
     <use transform="matrix(0.06172839506172839,0,0,0.06172839506172839,55.432098765432094,0)" xlink:href="#am" id="svg_555"/>
    </g>
    <path fill="#3a414a" d="m110,-194c64,0 96,36 96,99c0,64 -35,99 -97,99c-61,0 -95,-36 -95,-99c0,-62 34,-99 96,-99zm-1,164c35,0 45,-28 45,-65c0,-40 -10,-65 -43,-65c-34,0 -45,26 -45,65c0,36 10,65 43,65" id="svg_557"/>
    <path fill="#3a414a" d="m25,0l0,-261l50,0l0,261l-50,0" id="svg_558"/>
    <g id="svg_566">
     <use transform="matrix(0.06172839506172839,0,0,0.06172839506172839,0,0)" xlink:href="#G" id="svg_559"/>
     <use transform="matrix(0.06172839506172839,0,0,0.06172839506172839,15.987654320987653,0)" xlink:href="#an" id="svg_560"/>
     <use transform="matrix(0.06172839506172839,0,0,0.06172839506172839,29.50617283950617,0)" xlink:href="#am" id="svg_561"/>
     <use transform="matrix(0.06172839506172839,0,0,0.06172839506172839,43.02469135802469,0)" xlink:href="#L" id="svg_562"/>
     <use transform="matrix(0.06172839506172839,0,0,0.06172839506172839,55.37037037037037,0)" xlink:href="#an" id="svg_563"/>
     <use transform="matrix(0.06172839506172839,0,0,0.06172839506172839,68.88888888888889,0)" xlink:href="#ao" id="svg_564"/>
     <use transform="matrix(0.06172839506172839,0,0,0.06172839506172839,75.06172839506172,0)" xlink:href="#I" id="svg_565"/>
    </g>
    <g id="svg_580">
     <use transform="matrix(0.06172839506172839,0,0,0.06172839506172839,0,0)" xlink:href="#J" id="svg_567"/>
     <use transform="matrix(0.06172839506172839,0,0,0.06172839506172839,12.345679012345679,0)" xlink:href="#aj" id="svg_568"/>
     <use transform="matrix(0.06172839506172839,0,0,0.06172839506172839,25.864197530864196,0)" xlink:href="#ak" id="svg_569"/>
     <use transform="matrix(0.06172839506172839,0,0,0.06172839506172839,45.61728395061728,0)" xlink:href="#al" id="svg_570"/>
     <use transform="matrix(0.06172839506172839,0,0,0.06172839506172839,51.79012345679012,0)" xlink:href="#am" id="svg_571"/>
     <use transform="matrix(0.06172839506172839,0,0,0.06172839506172839,65.30864197530863,0)" xlink:href="#al" id="svg_572"/>
     <use transform="matrix(0.06172839506172839,0,0,0.06172839506172839,71.48148148148147,0)" xlink:href="#L" id="svg_573"/>
     <use transform="matrix(0.06172839506172839,0,0,0.06172839506172839,83.82716049382715,0)" xlink:href="#K" id="svg_574"/>
     <use transform="matrix(0.06172839506172839,0,0,0.06172839506172839,91.17283950617283,0)" xlink:href="#H" id="svg_575"/>
     <use transform="matrix(0.06172839506172839,0,0,0.06172839506172839,99.81481481481481,0)" xlink:href="#J" id="svg_576"/>
     <use transform="matrix(0.06172839506172839,0,0,0.06172839506172839,112.1604938271605,0)" xlink:href="#K" id="svg_577"/>
     <use transform="matrix(0.06172839506172839,0,0,0.06172839506172839,119.50617283950618,0)" xlink:href="#an" id="svg_578"/>
     <use transform="matrix(0.06172839506172839,0,0,0.06172839506172839,133.02469135802468,0)" xlink:href="#H" id="svg_579"/>
    </g>
    <g id="svg_587">
     <use transform="matrix(0.06172839506172839,0,0,0.06172839506172839,0,0)" xlink:href="#ai" id="svg_581"/>
     <use transform="matrix(0.06172839506172839,0,0,0.06172839506172839,15.987654320987653,0)" xlink:href="#L" id="svg_582"/>
     <use transform="matrix(0.06172839506172839,0,0,0.06172839506172839,28.333333333333332,0)" xlink:href="#L" id="svg_583"/>
     <use transform="matrix(0.06172839506172839,0,0,0.06172839506172839,40.67901234567901,0)" xlink:href="#I" id="svg_584"/>
     <use transform="matrix(0.06172839506172839,0,0,0.06172839506172839,53.02469135802469,0)" xlink:href="#K" id="svg_585"/>
     <use transform="matrix(0.06172839506172839,0,0,0.06172839506172839,60.37037037037037,0)" xlink:href="#L" id="svg_586"/>
    </g>
    <path fill="#3a414a" d="m24,0l0,-248l195,0l0,40l-143,0l0,63l132,0l0,40l-132,0l0,65l150,0l0,40l-202,0" id="svg_588"/>
    <g id="svg_599">
     <use transform="matrix(0.06172839506172839,0,0,0.06172839506172839,0,0)" xlink:href="#ap" id="svg_589"/>
     <use transform="matrix(0.06172839506172839,0,0,0.06172839506172839,14.814814814814813,0)" xlink:href="#L" id="svg_590"/>
     <use transform="matrix(0.06172839506172839,0,0,0.06172839506172839,27.160493827160494,0)" xlink:href="#L" id="svg_591"/>
     <use transform="matrix(0.06172839506172839,0,0,0.06172839506172839,39.50617283950617,0)" xlink:href="#I" id="svg_592"/>
     <use transform="matrix(0.06172839506172839,0,0,0.06172839506172839,51.85185185185185,0)" xlink:href="#am" id="svg_593"/>
     <use transform="matrix(0.06172839506172839,0,0,0.06172839506172839,65.37037037037037,0)" xlink:href="#K" id="svg_594"/>
     <use transform="matrix(0.06172839506172839,0,0,0.06172839506172839,72.71604938271605,0)" xlink:href="#al" id="svg_595"/>
     <use transform="matrix(0.06172839506172839,0,0,0.06172839506172839,78.88888888888889,0)" xlink:href="#J" id="svg_596"/>
     <use transform="matrix(0.06172839506172839,0,0,0.06172839506172839,91.23456790123457,0)" xlink:href="#ao" id="svg_597"/>
     <use transform="matrix(0.06172839506172839,0,0,0.06172839506172839,97.4074074074074,0)" xlink:href="#L" id="svg_598"/>
    </g>
    <path fill="#3a414a" d="m135,-194c53,0 70,44 70,98c0,56 -19,98 -73,100c-31,1 -45,-17 -59,-34c3,33 2,69 2,105l-50,0l-1,-265l48,0c2,10 0,23 3,31c11,-24 29,-35 60,-35zm-21,164c33,0 39,-31 40,-66c0,-38 -9,-64 -40,-64c-56,0 -55,130 0,130" id="svg_600"/>
    <path fill="#3a414a" d="m190,-63c-7,42 -38,67 -86,67c-59,0 -84,-38 -90,-98c-12,-110 154,-137 174,-36l-49,2c-2,-19 -15,-32 -35,-32c-30,0 -35,28 -38,64c-6,74 65,87 74,30" id="svg_601"/>
    <g id="svg_613">
     <use transform="matrix(0.06172839506172839,0,0,0.06172839506172839,0,0)" xlink:href="#J" id="svg_602"/>
     <use transform="matrix(0.06172839506172839,0,0,0.06172839506172839,12.345679012345679,0)" xlink:href="#aq" id="svg_603"/>
     <use transform="matrix(0.06172839506172839,0,0,0.06172839506172839,25.864197530864196,0)" xlink:href="#aq" id="svg_604"/>
     <use transform="matrix(0.06172839506172839,0,0,0.06172839506172839,39.382716049382715,0)" xlink:href="#ao" id="svg_605"/>
     <use transform="matrix(0.06172839506172839,0,0,0.06172839506172839,45.55555555555556,0)" xlink:href="#al" id="svg_606"/>
     <use transform="matrix(0.06172839506172839,0,0,0.06172839506172839,51.7283950617284,0)" xlink:href="#ar" id="svg_607"/>
     <use transform="matrix(0.06172839506172839,0,0,0.06172839506172839,64.07407407407408,0)" xlink:href="#J" id="svg_608"/>
     <use transform="matrix(0.06172839506172839,0,0,0.06172839506172839,76.41975308641976,0)" xlink:href="#K" id="svg_609"/>
     <use transform="matrix(0.06172839506172839,0,0,0.06172839506172839,83.76543209876544,0)" xlink:href="#al" id="svg_610"/>
     <use transform="matrix(0.06172839506172839,0,0,0.06172839506172839,89.93827160493828,0)" xlink:href="#an" id="svg_611"/>
     <use transform="matrix(0.06172839506172839,0,0,0.06172839506172839,103.4567901234568,0)" xlink:href="#am" id="svg_612"/>
    </g>
   </defs>
  </g>
  <g id="svg_1">
   <path d="m-1686.87,-100l3677.74,0l0,1322.83l-3677.74,0l0,-1322.83z" fill="#fff" id="svg_2"/>
   <path d="m340,326a6,6 0 0 1 6,-6l1388,0a6,6 0 0 1 6,6l0,348a6,6 0 0 1 -6,6l-1388,0a6,6 0 0 1 -6,-6l0,-348z" fill="#fff" id="svg_3"/>
   <path d="m365.2,320.07l20.12,0m10.07,0l20.1,0m10.08,0l20.13,0m10.07,0l20.13,0m10.07,0l20.13,0m10.06,0l20.13,0m10.06,0l20.13,0m10.05,0l20.13,0m10.07,0l20.13,0m10.06,0l20.13,0m10.06,0l20.13,0m10.07,0l20.13,-0.02m10.06,0l20.13,0m10.07,0l20.13,0m10.06,0l20.14,0m10.07,0l20.14,0m10.06,0l20.13,0m10.06,0l20.12,0m10.07,0l20.12,0m10.06,0l20.14,0m10.08,0l20.13,0m10.07,0l20.13,0m10.07,0l20.13,0m10.06,0l20.13,-0.02m10.05,0l20.13,0m10.07,0l20.13,0m10.06,0l20.13,0m10.07,0l20.13,0m10.06,0l20.13,0m10.07,0l20.13,0m10.06,0l20.13,0m10.06,0l20.14,0m10.07,0l20.14,0m10.06,0l20.13,0m10.07,0l20.13,0m10.06,0l20.12,0m10.07,0l20.12,-0.02m10.06,0l20.13,0m10.08,0l20.12,0m10.07,0l20.13,0m10.06,0l20.13,0m10.06,0l20.13,0m10.05,0l20.13,0m10.07,0l20.13,0m10.06,0l20.13,0m10.07,0l10.07,0l0.94,0.07l0.9,0.22l0.88,0.35l0.8,0.5l0.72,0.6l0.6,0.72l0.5,0.8l0.37,0.88l0.23,0.9l0,9.7m0,9.7l0,19.38m0,9.7l0,19.38m0,9.7l0.02,19.4m0,9.68l0,19.4m0,9.68l0,19.4m0,9.68l0.02,19.38m0,9.7l0,19.38m0,9.7l0,19.38m0,9.7l0,19.38m0.02,9.7l0,19.38m0,9.7l0,19.37m0,9.7l0,9.7l-0.07,0.94l-0.22,0.9l-0.35,0.88l-0.5,0.8l-0.6,0.72l-0.72,0.6l-0.8,0.5l-0.88,0.37l-0.9,0.23l-10.08,0m-10.06,0l-20.12,0m-10.07,0l-20.1,0m-10.08,0l-20.13,0m-10.07,0l-20.13,0m-10.07,0l-20.13,0m-10.06,0l-20.13,0m-10.06,0l-20.13,0m-10.05,0l-20.13,0m-10.07,0l-20.13,0m-10.06,0l-20.13,0m-10.06,0l-20.13,0m-10.07,0l-20.13,0.02m-10.06,0l-20.13,0m-10.07,0l-20.13,0m-10.06,0l-20.14,0m-10.07,0l-20.14,0m-10.06,0l-20.13,0m-10.06,0l-20.12,0m-10.07,0l-20.12,0m-10.06,0l-20.16,0m-10.08,0l-20.12,0m-10.07,0l-20.13,0m-10.07,0l-20.13,0m-10.06,0l-20.13,0.02m-10.05,0l-20.13,0m-10.07,0l-20.13,0m-10.06,0l-20.13,0m-10.07,0l-20.13,0m-10.06,0l-20.13,0m-10.07,0l-20.13,0m-10.06,0l-20.13,0m-10.06,0l-20.14,0m-10.07,0l-20.14,0m-10.06,0l-20.13,0m-10.07,0l-20.13,0m-10.06,0l-20.1,0m-10.07,0l-20.12,0.02m-10.06,0l-20.15,0m-10.08,0l-20.12,0m-10.07,0l-20.13,0m-10.06,0l-20.14,0m-10.06,0l-20.14,0m-10.05,0l-20.13,0m-10.07,0l-20.13,0m-10.06,0l-20.13,0m-10.07,0l-10.06,0l-0.94,-0.07l-0.9,-0.22l-0.88,-0.35l-0.8,-0.5l-0.72,-0.6l-0.6,-0.72l-0.5,-0.8l-0.37,-0.88l-0.23,-0.9l0,-9.7m0,-9.7l0,-19.38m0,-9.7l0,-19.4m0,-9.7l-0.02,-19.4m0,-9.68l0,-19.4m0,-9.68l0,-19.4m0,-9.68l-0.02,-19.38m0,-9.7l0,-19.38m0,-9.7l0,-19.38m0,-9.7l0,-19.38m-0.02,-9.7l0,-19.38m0,-9.7l0,-19.36m0,-9.7l0,-9.7l0.07,-0.94l0.22,-0.9l0.35,-0.88l0.5,-0.8l0.6,-0.72l0.72,-0.6l0.8,-0.5l0.88,-0.37l0.9,-0.23l10.08,0" stroke="#3a414a" fill="none" id="svg_4"/>
   <path d="m340,26a6,6 0 0 1 6,-6l1388,0a6,6 0 0 1 6,6l0,188a6,6 0 0 1 -6,6l-1388,0a6,6 0 0 1 -6,-6l0,-188z" fill="#fff" id="svg_5"/>
   <path d="m365.2,20.07l20.12,0m10.07,0l20.1,0m10.08,0l20.13,0m10.07,0l20.13,0m10.07,0l20.13,0m10.06,0l20.13,0m10.06,0l20.13,0m10.05,0l20.13,0m10.07,0l20.13,0m10.06,0l20.13,0m10.06,0l20.13,0m10.07,0l20.13,-0.02m10.06,0l20.13,0m10.07,0l20.13,0m10.06,0l20.14,0m10.07,0l20.14,0m10.06,0l20.13,0m10.06,0l20.12,0m10.07,0l20.12,0m10.06,0l20.14,0m10.08,0l20.13,0m10.07,0l20.13,0m10.07,0l20.13,0m10.06,0l20.13,-0.02m10.05,0l20.13,0m10.07,0l20.13,0m10.06,0l20.13,0m10.07,0l20.13,0m10.06,0l20.13,0m10.07,0l20.13,0m10.06,0l20.13,0m10.06,0l20.14,0m10.07,0l20.14,0m10.06,0l20.13,0m10.07,0l20.13,0m10.06,0l20.12,0m10.07,0l20.12,-0.02m10.06,0l20.13,0m10.08,0l20.12,0m10.07,0l20.13,0m10.06,0l20.13,0m10.06,0l20.13,0m10.05,0l20.13,0m10.07,0l20.13,0m10.06,0l20.13,0m10.07,0l10.07,0l0.94,0.07l0.9,0.22l0.88,0.35l0.8,0.5l0.72,0.6l0.6,0.72l0.5,0.8l0.37,0.88l0.23,0.9l0,10.5m0,10.5l0,21m0.02,10.5l0,21m0,10.48l0.02,21m0,10.5l0,21m0,10.48l0.02,21m0,10.5l0,10.49l-0.07,0.94l-0.22,0.9l-0.35,0.88l-0.5,0.8l-0.6,0.72l-0.72,0.6l-0.8,0.5l-0.88,0.37l-0.9,0.23l-10.08,0m-10.06,0l-20.12,0m-10.07,0l-20.1,0m-10.08,0l-20.13,0m-10.07,0l-20.13,0m-10.07,0l-20.13,0m-10.06,0l-20.13,0m-10.06,0l-20.13,0m-10.05,0l-20.13,0m-10.07,0l-20.13,0m-10.06,0l-20.13,0m-10.06,0l-20.13,0m-10.07,0l-20.13,0.02m-10.06,0l-20.13,0m-10.07,0l-20.13,0m-10.06,0l-20.14,0m-10.07,0l-20.14,0m-10.06,0l-20.13,0m-10.06,0l-20.12,0m-10.07,0l-20.12,0m-10.06,0l-20.16,0m-10.08,0l-20.12,0m-10.07,0l-20.13,0m-10.07,0l-20.13,0m-10.06,0l-20.13,0.02m-10.05,0l-20.13,0m-10.07,0l-20.13,0m-10.06,0l-20.13,0m-10.07,0l-20.13,0m-10.06,0l-20.13,0m-10.07,0l-20.13,0m-10.06,0l-20.13,0m-10.06,0l-20.14,0m-10.07,0l-20.14,0m-10.06,0l-20.13,0m-10.07,0l-20.13,0m-10.06,0l-20.1,0m-10.07,0l-20.12,0.02m-10.06,0l-20.15,0m-10.08,0l-20.12,0m-10.07,0l-20.13,0m-10.06,0l-20.14,0m-10.06,0l-20.14,0m-10.05,0l-20.13,0m-10.07,0l-20.13,0m-10.06,0l-20.13,0m-10.07,0l-10.06,0l-0.94,-0.07l-0.9,-0.22l-0.88,-0.35l-0.8,-0.5l-0.72,-0.6l-0.6,-0.72l-0.5,-0.8l-0.37,-0.88l-0.23,-0.9l0,-10.5m0,-10.5l0,-21m-0.02,-10.5l0,-21m0,-10.48l-0.02,-21m0,-10.5l0,-21m0,-10.48l-0.02,-21m0,-10.5l0,-10.5l0.07,-0.94l0.22,-0.9l0.35,-0.88l0.5,-0.8l0.6,-0.72l0.72,-0.6l0.8,-0.5l0.88,-0.37l0.9,-0.23l10.08,0" stroke="#3a414a" fill="none" id="svg_6"/>
   <path d="m420,86a6,6 0 0 1 6,-6l188,0a6,6 0 0 1 6,6l0,108a6,6 0 0 1 -6,6l-188,0a6,6 0 0 1 -6,-6l0,-108z" stroke="#3a414a" fill="#fff" id="svg_9"/>
   <path d="m928.66667,86a6,6 0 0 1 6,-6l188,0a6,6 0 0 1 6,6l0,108a6,6 0 0 1 -6,6l-188,0a6,6 0 0 1 -6,-6l0,-108z" stroke="#3a414a" fill="#fff" id="svg_13"/>
   <path d="m1440,86a6,6 0 0 1 6,-6l188,0a6,6 0 0 1 6,6l0,108a6,6 0 0 1 -6,6l-188,0a6,6 0 0 1 -6,-6l0,-108z" stroke="#3a414a" fill="#fff" id="svg_22"/>
   <path d="m420,346a6,6 0 0 1 6,-6l188,0a6,6 0 0 1 6,6l0,108a6,6 0 0 1 -6,6l-188,0a6,6 0 0 1 -6,-6l0,-108z" stroke="#3a414a" fill="#fff" id="svg_27"/>
   <path d="m740,346a6,6 0 0 1 6,-6l188,0a6,6 0 0 1 6,6l0,108a6,6 0 0 1 -6,6l-188,0a6,6 0 0 1 -6,-6l0,-108z" stroke="#3a414a" fill="#fff" id="svg_31"/>
   <path d="m1080,346a6,6 0 0 1 6,-6l188,0a6,6 0 0 1 6,6l0,108a6,6 0 0 1 -6,6l-188,0a6,6 0 0 1 -6,-6l0,-108z" stroke="#3a414a" fill="#fff" id="svg_34"/>
   <path d="m1160,526a6,6 0 0 1 6,-6l188,0a6,6 0 0 1 6,6l0,108a6,6 0 0 1 -6,6l-188,0a6,6 0 0 1 -6,-6l0,-108z" stroke="#3a414a" fill="#fff" id="svg_37"/>
   <path d="m1500,526a6,6 0 0 1 6,-6l188,0a6,6 0 0 1 6,6l0,108a6,6 0 0 1 -6,6l-188,0a6,6 0 0 1 -6,-6l0,-108z" stroke="#3a414a" fill="#fff" id="svg_41"/>
   <path d="m620.96,140l292.2,0" stroke="#3a414a" fill="none" id="svg_45"/>
   <path d="m620.98,140.5l-0.52,0l0,-1l0.52,0l0,1z" stroke="#3a414a" stroke-width="0.05" fill="#3a414a" id="svg_46"/>
   <path d="m927.92,140l-14.27,4.64l0,-9.28l14.27,4.64z" stroke="#3a414a" fill="#3a414a" id="svg_47"/>
   <path d="m1130.96,140l292.2,0" stroke="#3a414a" fill="none" id="svg_48"/>
   <path d="m1130.98,140.5l-0.52,0l0,-1l0.52,0l0,1z" stroke="#3a414a" stroke-width="0.05" fill="#3a414a" id="svg_49"/>
   <path d="m1437.92,140l-14.27,4.64l0,-9.28l14.27,4.64z" stroke="#3a414a" fill="#3a414a" id="svg_50"/>
   <path d="m620.96,400l102.19,0" stroke="#3a414a" fill="none" id="svg_51"/>
   <path d="m620.98,400.5l-0.52,0l0,-1l0.52,0l0,1z" stroke="#3a414a" stroke-width="0.05" fill="#3a414a" id="svg_52"/>
   <path d="m737.92,400l-14.27,4.64l0,-9.28l14.27,4.64z" stroke="#3a414a" fill="#3a414a" id="svg_53"/>
   <path d="m940.96,400l122.19,0" stroke="#3a414a" fill="none" id="svg_54"/>
   <path d="m940.98,400.5l-0.52,0l0,-1l0.52,0l0,1z" stroke="#3a414a" stroke-width="0.05" fill="#3a414a" id="svg_55"/>
   <path d="m1077.92,400l-14.27,4.64l0,-9.28l14.27,4.64z" stroke="#3a414a" fill="#3a414a" id="svg_56"/>
   <path d="m1360.96,580l122.2,0" stroke="#3a414a" fill="none" id="svg_57"/>
   <path d="m1360.98,580.5l-0.52,0l0,-1l0.52,0l0,1z" stroke="#3a414a" stroke-width="0.05" fill="#3a414a" id="svg_58"/>
   <path d="m1497.92,580l-14.27,4.64l0,-9.28l14.27,4.64z" stroke="#3a414a" fill="#3a414a" id="svg_59"/>
   <path d="m100,64.33a6,6 0 0 1 6,-6l228,0a6,6 0 0 1 6,6l0,51.34a6,6 0 0 1 -6,6l-228,0a6,6 0 0 1 -6,-6l0,-51.34z" stroke="#000" stroke-opacity="0" fill="#fff" fill-opacity="0" id="svg_60"/>
   <path d="m100,431a6,6 0 0 1 6,-6l228,0a6,6 0 0 1 6,6l0,78a6,6 0 0 1 -6,6l-228,0a6,6 0 0 1 -6,-6l0,-78z" stroke="#000" stroke-opacity="0" fill="#fff" fill-opacity="0" id="svg_65"/>
   <path d="m220,123.13l0,15.63m0,15.62l0,31.26m0,15.63l0,31.25m0,15.63l0,31.25m0,15.63l0,31.25m0,15.63l0,31.26m0,15.63l0,15.62" stroke="#3a414a" stroke-width="3" fill="none" id="svg_71"/>
   <path d="m221.5,123.17l-3,0l0,-1.54l3,0l0,1.54z" stroke="#3a414a" stroke-width="0.05" fill="#3a414a" id="svg_72"/>
   <path d="m220,420.18l-4.64,-14.26l9.28,0l-4.64,14.26z" stroke="#3a414a" stroke-width="3" fill="#3a414a" id="svg_73"/>
   <path d="m1180,460.96l0,42.22" stroke="#3a414a" fill="none" id="svg_74"/>
   <path d="m1180.5,460.98l-1,0l0,-0.52l1,0l0,0.52z" stroke="#3a414a" stroke-width="0.05" fill="#3a414a" id="svg_75"/>
   <path d="m1180,517.95l-4.64,-14.27l9.28,0l-4.64,14.27z" stroke="#3a414a" fill="#3a414a" id="svg_76"/>
   <defs transform="translate(-4.61538 4.61538) translate(0 24.331) translate(-14.6667 -2.66667) translate(41.3333 0) translate(0 -3.63636) translate(20 -1.81818) translate(120 -100)">
    <path fill="#3a414a" d="m67,-125c0,53 21,87 73,88c37,1 54,-22 65,-47l45,17c-17,42 -51,71 -110,71c-82,0 -120,-46 -125,-129c-7,-110 109,-156 196,-107c18,10 29,29 36,50l-46,12c-8,-25 -30,-41 -62,-41c-52,0 -71,34 -72,86" id="G"/>
    <path fill="#3a414a" d="m135,-150c-39,-12 -60,13 -60,57l0,93l-50,0l-1,-190l47,0c2,13 -1,29 3,40c6,-28 27,-53 61,-41l0,41" id="H"/>
    <path fill="#3a414a" d="m185,-48c-13,30 -37,53 -82,52c-60,-2 -89,-37 -89,-100s30,-98 90,-98c62,0 83,45 84,108l-122,0c0,31 8,55 39,56c18,0 30,-7 34,-22l46,4zm-45,-69c5,-46 -57,-63 -70,-21c-2,6 -4,13 -4,21l74,0" id="I"/>
    <path fill="#3a414a" d="m133,-34c-16,19 -30,39 -64,38c-37,-1 -58,-20 -58,-58c-1,-60 55,-63 116,-61c1,-26 -3,-47 -28,-47c-18,1 -26,9 -28,27l-52,-2c7,-38 36,-58 82,-57s74,22 75,68l1,82c-1,14 12,18 25,15l0,27c-30,8 -71,5 -69,-32zm-48,3c29,0 43,-24 42,-57c-32,0 -66,-3 -65,30c0,17 8,27 23,27" id="J"/>
    <path fill="#3a414a" d="m115,-3c-36,14 -87,7 -87,-42l0,-112l-24,0l0,-33l27,0l15,-45l31,0l0,45l36,0l0,33l-36,0l0,99c-1,23 16,31 38,25l0,30" id="K"/>
    <path fill="#3a414a" d="m137,-138c1,-29 -70,-34 -71,-4c15,46 118,7 119,86c1,83 -164,76 -172,9l43,-7c4,19 20,25 44,25c33,8 57,-30 24,-41c-43,-14 -102,-11 -104,-66c-2,-80 154,-74 161,-7" id="L"/>
    <g id="a">
     <use transform="matrix(0.06790123456790122,0,0,0.06790123456790122,0,0)" xlink:href="#G" id="svg_77"/>
     <use transform="matrix(0.06790123456790122,0,0,0.06790123456790122,17.586419753086414,0)" xlink:href="#H" id="svg_78"/>
     <use transform="matrix(0.06790123456790122,0,0,0.06790123456790122,27.092592592592585,0)" xlink:href="#I" id="svg_79"/>
     <use transform="matrix(0.06790123456790122,0,0,0.06790123456790122,40.67283950617283,0)" xlink:href="#J" id="svg_80"/>
     <use transform="matrix(0.06790123456790122,0,0,0.06790123456790122,54.253086419753075,0)" xlink:href="#K" id="svg_81"/>
     <use transform="matrix(0.06790123456790122,0,0,0.06790123456790122,62.33333333333332,0)" xlink:href="#I" id="svg_82"/>
     <use transform="matrix(0.06790123456790122,0,0,0.06790123456790122,75.91358024691358,0)" xlink:href="#L" id="svg_83"/>
    </g>
    <path fill="#3a414a" d="m205,0l-28,-72l-113,0l-28,72l-35,0l101,-248l38,0l99,248l-34,0zm-38,-99l-47,-123c-12,45 -31,82 -46,123l93,0" id="M"/>
    <path fill="#3a414a" d="m85,-194c31,0 48,13 60,33l-1,-100l32,0l1,261l-30,0c-2,-10 0,-23 -3,-31c-10,23 -28,35 -59,35c-53,0 -69,-39 -70,-98c0,-66 23,-100 70,-100zm9,24c-40,0 -46,34 -46,75c0,40 6,74 45,74c42,0 51,-32 51,-76c0,-42 -9,-74 -50,-73" id="N"/>
    <g id="b">
     <use transform="matrix(0.06172839506172839,0,0,0.06172839506172839,0,0)" xlink:href="#M" id="svg_84"/>
     <use transform="matrix(0.06172839506172839,0,0,0.06172839506172839,14.814814814814813,0)" xlink:href="#N" id="svg_85"/>
     <use transform="matrix(0.06172839506172839,0,0,0.06172839506172839,27.160493827160494,0)" xlink:href="#N" id="svg_86"/>
    </g>
    <path fill="#3a414a" d="m84,4c-89,4 -54,-116 -61,-194l32,0l0,120c0,31 7,50 39,49c72,-2 45,-101 50,-169l31,0l1,190l-30,0c-1,-10 1,-25 -2,-33c-11,22 -28,36 -60,37" id="O"/>
    <path fill="#3a414a" d="m135,-143c-3,-34 -86,-38 -87,0c15,53 115,12 119,90s-150,74 -157,8l28,-5c4,36 97,45 98,0c-10,-56 -113,-15 -118,-90c-4,-57 82,-63 122,-42c12,7 21,19 24,35" id="P"/>
    <path fill="#3a414a" d="m100,-194c63,0 86,42 84,106l-135,0c0,40 14,67 53,68c26,1 43,-12 49,-29l28,8c-11,28 -37,45 -77,45c-58,0 -88,-37 -87,-100c1,-61 26,-98 85,-98zm52,81c6,-60 -76,-77 -97,-28c-3,7 -6,17 -6,28l103,0" id="Q"/>
    <path fill="#3a414a" d="m114,-163c-78,-16 -53,91 -57,163l-32,0l-1,-190l30,0c1,12 -1,29 2,39c6,-27 23,-49 58,-41l0,29" id="R"/>
    <g id="c">
     <use transform="matrix(0.06172839506172839,0,0,0.06172839506172839,0,0)" xlink:href="#O" id="svg_87"/>
     <use transform="matrix(0.06172839506172839,0,0,0.06172839506172839,12.345679012345679,0)" xlink:href="#P" id="svg_88"/>
     <use transform="matrix(0.06172839506172839,0,0,0.06172839506172839,23.45679012345679,0)" xlink:href="#Q" id="svg_89"/>
     <use transform="matrix(0.06172839506172839,0,0,0.06172839506172839,35.80246913580247,0)" xlink:href="#R" id="svg_90"/>
    </g>
    <path fill="#3a414a" d="m177,-190c-10,125 41,293 -110,261c-23,-6 -38,-20 -44,-43l32,-5c15,47 100,32 89,-28l0,-30c-11,21 -29,36 -61,36c-54,0 -68,-41 -68,-96c0,-56 16,-97 71,-98c29,-1 48,16 59,35c1,-10 0,-23 2,-32l30,0zm-83,168c36,0 50,-32 50,-73c0,-42 -14,-75 -50,-75c-39,0 -46,34 -46,75s6,73 46,73" id="S"/>
    <path fill="#3a414a" d="m100,-194c62,-1 85,37 85,99c1,63 -27,99 -86,99s-83,-39 -84,-99c0,-66 28,-99 85,-99zm-1,174c44,1 53,-31 53,-75c0,-43 -8,-75 -51,-75s-53,32 -53,75s10,74 51,75" id="T"/>
    <path fill="#3a414a" d="m115,-194c55,1 70,41 70,98s-16,98 -70,100c-31,0 -49,-13 -60,-34l1,105l-32,0l-1,-265l31,0l2,30c10,-21 28,-34 59,-34zm-8,174c40,0 45,-34 45,-75s-6,-73 -45,-74c-42,0 -51,32 -51,76c0,43 10,73 51,73" id="U"/>
    <g id="d">
     <use transform="matrix(0.06172839506172839,0,0,0.06172839506172839,0,0)" xlink:href="#S" id="svg_91"/>
     <use transform="matrix(0.06172839506172839,0,0,0.06172839506172839,12.345679012345679,0)" xlink:href="#R" id="svg_92"/>
     <use transform="matrix(0.06172839506172839,0,0,0.06172839506172839,19.691358024691358,0)" xlink:href="#T" id="svg_93"/>
     <use transform="matrix(0.06172839506172839,0,0,0.06172839506172839,32.03703703703704,0)" xlink:href="#O" id="svg_94"/>
     <use transform="matrix(0.06172839506172839,0,0,0.06172839506172839,44.382716049382715,0)" xlink:href="#U" id="svg_95"/>
     <use transform="matrix(0.06172839506172839,0,0,0.06172839506172839,56.72839506172839,0)" xlink:href="#P" id="svg_96"/>
    </g>
    <g id="e">
     <use transform="matrix(0.055555555555555546,0,0,0.055555555555555546,0,0)" xlink:href="#M" id="svg_97"/>
     <use transform="matrix(0.055555555555555546,0,0,0.055555555555555546,13.33333333333333,0)" xlink:href="#N" id="svg_98"/>
     <use transform="matrix(0.055555555555555546,0,0,0.055555555555555546,24.44444444444444,0)" xlink:href="#N" id="svg_99"/>
    </g>
    <g id="f">
     <use transform="matrix(0.055555555555555546,0,0,0.055555555555555546,0,0)" xlink:href="#O" id="svg_100"/>
     <use transform="matrix(0.055555555555555546,0,0,0.055555555555555546,11.111111111111109,0)" xlink:href="#P" id="svg_101"/>
     <use transform="matrix(0.055555555555555546,0,0,0.055555555555555546,21.111111111111107,0)" xlink:href="#Q" id="svg_102"/>
     <use transform="matrix(0.055555555555555546,0,0,0.055555555555555546,32.222222222222214,0)" xlink:href="#R" id="svg_103"/>
    </g>
    <g id="g">
     <use transform="matrix(0.055555555555555546,0,0,0.055555555555555546,0,0)" xlink:href="#S" id="svg_104"/>
     <use transform="matrix(0.055555555555555546,0,0,0.055555555555555546,11.111111111111109,0)" xlink:href="#R" id="svg_105"/>
     <use transform="matrix(0.055555555555555546,0,0,0.055555555555555546,17.722222222222218,0)" xlink:href="#T" id="svg_106"/>
     <use transform="matrix(0.055555555555555546,0,0,0.055555555555555546,28.83333333333333,0)" xlink:href="#O" id="svg_107"/>
     <use transform="matrix(0.055555555555555546,0,0,0.055555555555555546,39.944444444444436,0)" xlink:href="#U" id="svg_108"/>
     <use transform="matrix(0.055555555555555546,0,0,0.055555555555555546,51.05555555555554,0)" xlink:href="#P" id="svg_109"/>
    </g>
    <path fill="#3a414a" d="m59,-47c-2,24 18,29 38,22l0,24c-33,10 -70,5 -70,-39l0,-127l-22,0l0,-23l24,0l9,-43l21,0l0,43l35,0l0,23l-35,0l0,120" id="V"/>
    <g id="h">
     <use transform="matrix(0.055555555555555546,0,0,0.055555555555555546,0,0)" xlink:href="#V" id="svg_110"/>
     <use transform="matrix(0.055555555555555546,0,0,0.055555555555555546,5.5555555555555545,0)" xlink:href="#T" id="svg_111"/>
    </g>
    <g id="i">
     <use transform="matrix(0.055555555555555546,0,0,0.055555555555555546,0,0)" xlink:href="#M" id="svg_112"/>
     <use transform="matrix(0.055555555555555546,0,0,0.055555555555555546,13.33333333333333,0)" xlink:href="#P" id="svg_113"/>
     <use transform="matrix(0.055555555555555546,0,0,0.055555555555555546,23.33333333333333,0)" xlink:href="#P" id="svg_114"/>
     <use transform="matrix(0.055555555555555546,0,0,0.055555555555555546,33.33333333333333,0)" xlink:href="#Q" id="svg_115"/>
     <use transform="matrix(0.055555555555555546,0,0,0.055555555555555546,44.444444444444436,0)" xlink:href="#V" id="svg_116"/>
     <use transform="matrix(0.055555555555555546,0,0,0.055555555555555546,49.99999999999999,0)" xlink:href="#P" id="svg_117"/>
    </g>
    <path fill="#3a414a" d="m30,0l0,-248l187,0l0,28l-154,0l0,79l144,0l0,27l-144,0l0,87l162,0l0,27l-195,0" id="W"/>
    <path fill="#3a414a" d="m117,-194c89,-4 53,116 60,194l-32,0l0,-121c0,-31 -8,-49 -39,-48c-72,2 -44,102 -49,169l-32,0l-1,-190l30,0c1,10 -1,24 2,32c11,-22 29,-35 61,-36" id="X"/>
    <path fill="#3a414a" d="m24,-231l0,-30l32,0l0,30l-32,0zm0,231l0,-190l32,0l0,190l-32,0" id="Y"/>
    <path fill="#3a414a" d="m141,-36c-15,21 -31,41 -68,40c-36,-1 -58,-21 -58,-57c-1,-64 63,-63 125,-63c3,-35 -9,-54 -41,-54c-24,1 -41,7 -42,31l-33,-3c5,-37 33,-52 76,-52c45,0 72,20 72,64l0,82c-1,20 7,32 28,27l0,20c-31,9 -61,-2 -59,-35zm-93,-17c0,20 12,33 32,33c41,-3 63,-29 60,-74c-43,2 -92,-5 -92,41" id="Z"/>
    <path fill="#3a414a" d="m24,0l0,-261l32,0l0,261l-32,0" id="aa"/>
    <g id="j">
     <use transform="matrix(0.055555555555555546,0,0,0.055555555555555546,0,0)" xlink:href="#W" id="svg_118"/>
     <use transform="matrix(0.055555555555555546,0,0,0.055555555555555546,13.33333333333333,0)" xlink:href="#P" id="svg_119"/>
     <use transform="matrix(0.055555555555555546,0,0,0.055555555555555546,23.33333333333333,0)" xlink:href="#P" id="svg_120"/>
     <use transform="matrix(0.055555555555555546,0,0,0.055555555555555546,33.33333333333333,0)" xlink:href="#Q" id="svg_121"/>
     <use transform="matrix(0.055555555555555546,0,0,0.055555555555555546,44.444444444444436,0)" xlink:href="#X" id="svg_122"/>
     <use transform="matrix(0.055555555555555546,0,0,0.055555555555555546,55.55555555555554,0)" xlink:href="#V" id="svg_123"/>
     <use transform="matrix(0.055555555555555546,0,0,0.055555555555555546,61.1111111111111,0)" xlink:href="#Y" id="svg_124"/>
     <use transform="matrix(0.055555555555555546,0,0,0.055555555555555546,65.49999999999999,0)" xlink:href="#Z" id="svg_125"/>
     <use transform="matrix(0.055555555555555546,0,0,0.055555555555555546,76.6111111111111,0)" xlink:href="#aa" id="svg_126"/>
     <use transform="matrix(0.055555555555555546,0,0,0.055555555555555546,80.99999999999999,0)" xlink:href="#P" id="svg_127"/>
    </g>
    <path fill="#3a414a" d="m96,-169c-40,0 -48,33 -48,73s9,75 48,75c24,0 41,-14 43,-38l32,2c-6,37 -31,61 -74,61c-59,0 -76,-41 -82,-99c-10,-93 101,-131 147,-64c4,7 5,14 7,22l-32,3c-4,-21 -16,-35 -41,-35" id="ab"/>
    <g id="k">
     <use transform="matrix(0.055555555555555546,0,0,0.055555555555555546,0,0)" xlink:href="#U" id="svg_128"/>
     <use transform="matrix(0.055555555555555546,0,0,0.055555555555555546,11.111111111111109,0)" xlink:href="#R" id="svg_129"/>
     <use transform="matrix(0.055555555555555546,0,0,0.055555555555555546,17.722222222222218,0)" xlink:href="#T" id="svg_130"/>
     <use transform="matrix(0.055555555555555546,0,0,0.055555555555555546,28.83333333333333,0)" xlink:href="#N" id="svg_131"/>
     <use transform="matrix(0.055555555555555546,0,0,0.055555555555555546,39.944444444444436,0)" xlink:href="#O" id="svg_132"/>
     <use transform="matrix(0.055555555555555546,0,0,0.055555555555555546,51.05555555555554,0)" xlink:href="#ab" id="svg_133"/>
     <use transform="matrix(0.055555555555555546,0,0,0.055555555555555546,61.05555555555554,0)" xlink:href="#V" id="svg_134"/>
    </g>
    <path fill="#3a414a" d="m101,-234c-31,-9 -42,10 -38,44l38,0l0,23l-38,0l0,167l-31,0l0,-167l-27,0l0,-23l27,0c-7,-52 17,-82 69,-68l0,24" id="ac"/>
    <g id="l">
     <use transform="matrix(0.055555555555555546,0,0,0.055555555555555546,0,0)" xlink:href="#U" id="svg_135"/>
     <use transform="matrix(0.055555555555555546,0,0,0.055555555555555546,11.111111111111109,0)" xlink:href="#R" id="svg_136"/>
     <use transform="matrix(0.055555555555555546,0,0,0.055555555555555546,17.722222222222218,0)" xlink:href="#T" id="svg_137"/>
     <use transform="matrix(0.055555555555555546,0,0,0.055555555555555546,28.83333333333333,0)" xlink:href="#ac" id="svg_138"/>
     <use transform="matrix(0.055555555555555546,0,0,0.055555555555555546,34.388888888888886,0)" xlink:href="#Y" id="svg_139"/>
     <use transform="matrix(0.055555555555555546,0,0,0.055555555555555546,38.77777777777777,0)" xlink:href="#aa" id="svg_140"/>
     <use transform="matrix(0.055555555555555546,0,0,0.055555555555555546,43.16666666666666,0)" xlink:href="#Q" id="svg_141"/>
     <use transform="matrix(0.055555555555555546,0,0,0.055555555555555546,54.277777777777764,0)" xlink:href="#P" id="svg_142"/>
    </g>
    <g id="m">
     <use transform="matrix(0.06172839506172839,0,0,0.06172839506172839,0,0)" xlink:href="#O" id="svg_143"/>
     <use transform="matrix(0.06172839506172839,0,0,0.06172839506172839,12.345679012345679,0)" xlink:href="#P" id="svg_144"/>
     <use transform="matrix(0.06172839506172839,0,0,0.06172839506172839,23.45679012345679,0)" xlink:href="#Q" id="svg_145"/>
     <use transform="matrix(0.06172839506172839,0,0,0.06172839506172839,35.80246913580247,0)" xlink:href="#R" id="svg_146"/>
     <use transform="matrix(0.06172839506172839,0,0,0.06172839506172839,43.148148148148145,0)" xlink:href="#P" id="svg_147"/>
    </g>
    <g id="n">
     <use transform="matrix(0.06172839506172839,0,0,0.06172839506172839,0,0)" xlink:href="#V" id="svg_148"/>
     <use transform="matrix(0.06172839506172839,0,0,0.06172839506172839,6.172839506172839,0)" xlink:href="#T" id="svg_149"/>
    </g>
    <path fill="#3a414a" d="m212,-179c-10,-28 -35,-45 -73,-45c-59,0 -87,40 -87,99c0,60 29,101 89,101c43,0 62,-24 78,-52l27,14c-18,38 -51,66 -107,66c-80,0 -117,-50 -121,-129c-6,-104 99,-153 187,-111c19,9 31,26 39,46" id="ad"/>
    <g id="o">
     <use transform="matrix(0.06172839506172839,0,0,0.06172839506172839,0,0)" xlink:href="#ad" id="svg_150"/>
     <use transform="matrix(0.06172839506172839,0,0,0.06172839506172839,15.987654320987653,0)" xlink:href="#R" id="svg_151"/>
     <use transform="matrix(0.06172839506172839,0,0,0.06172839506172839,23.333333333333332,0)" xlink:href="#Q" id="svg_152"/>
     <use transform="matrix(0.06172839506172839,0,0,0.06172839506172839,35.67901234567901,0)" xlink:href="#Z" id="svg_153"/>
     <use transform="matrix(0.06172839506172839,0,0,0.06172839506172839,48.02469135802469,0)" xlink:href="#V" id="svg_154"/>
     <use transform="matrix(0.06172839506172839,0,0,0.06172839506172839,54.19753086419753,0)" xlink:href="#Q" id="svg_155"/>
    </g>
    <g id="p">
     <use transform="matrix(0.06172839506172839,0,0,0.06172839506172839,0,0)" xlink:href="#ac" id="svg_156"/>
     <use transform="matrix(0.06172839506172839,0,0,0.06172839506172839,6.172839506172839,0)" xlink:href="#T" id="svg_157"/>
     <use transform="matrix(0.06172839506172839,0,0,0.06172839506172839,18.51851851851852,0)" xlink:href="#aa" id="svg_158"/>
     <use transform="matrix(0.06172839506172839,0,0,0.06172839506172839,23.395061728395063,0)" xlink:href="#N" id="svg_159"/>
     <use transform="matrix(0.06172839506172839,0,0,0.06172839506172839,35.74074074074074,0)" xlink:href="#Q" id="svg_160"/>
     <use transform="matrix(0.06172839506172839,0,0,0.06172839506172839,48.08641975308642,0)" xlink:href="#R" id="svg_161"/>
    </g>
    <g id="q">
     <use transform="matrix(0.06172839506172839,0,0,0.06172839506172839,0,0)" xlink:href="#P" id="svg_162"/>
     <use transform="matrix(0.06172839506172839,0,0,0.06172839506172839,11.11111111111111,0)" xlink:href="#V" id="svg_163"/>
     <use transform="matrix(0.06172839506172839,0,0,0.06172839506172839,17.28395061728395,0)" xlink:href="#R" id="svg_164"/>
     <use transform="matrix(0.06172839506172839,0,0,0.06172839506172839,24.629629629629626,0)" xlink:href="#O" id="svg_165"/>
     <use transform="matrix(0.06172839506172839,0,0,0.06172839506172839,36.9753086419753,0)" xlink:href="#ab" id="svg_166"/>
     <use transform="matrix(0.06172839506172839,0,0,0.06172839506172839,48.08641975308642,0)" xlink:href="#V" id="svg_167"/>
     <use transform="matrix(0.06172839506172839,0,0,0.06172839506172839,54.25925925925926,0)" xlink:href="#O" id="svg_168"/>
     <use transform="matrix(0.06172839506172839,0,0,0.06172839506172839,66.60493827160494,0)" xlink:href="#R" id="svg_169"/>
     <use transform="matrix(0.06172839506172839,0,0,0.06172839506172839,73.95061728395062,0)" xlink:href="#Q" id="svg_170"/>
    </g>
    <path fill="#3a414a" d="m232,-93c-1,65 -40,97 -104,97c-61,0 -100,-32 -100,-94l0,-158l33,0c8,89 -33,224 67,224c102,0 64,-133 71,-224l33,0l0,155" id="ae"/>
    <g id="r">
     <use transform="matrix(0.06172839506172839,0,0,0.06172839506172839,0,0)" xlink:href="#ae" id="svg_171"/>
     <use transform="matrix(0.06172839506172839,0,0,0.06172839506172839,15.987654320987653,0)" xlink:href="#U" id="svg_172"/>
     <use transform="matrix(0.06172839506172839,0,0,0.06172839506172839,28.333333333333332,0)" xlink:href="#aa" id="svg_173"/>
     <use transform="matrix(0.06172839506172839,0,0,0.06172839506172839,33.20987654320987,0)" xlink:href="#T" id="svg_174"/>
     <use transform="matrix(0.06172839506172839,0,0,0.06172839506172839,45.55555555555555,0)" xlink:href="#Z" id="svg_175"/>
     <use transform="matrix(0.06172839506172839,0,0,0.06172839506172839,57.90123456790123,0)" xlink:href="#N" id="svg_176"/>
    </g>
    <g id="s">
     <use transform="matrix(0.06172839506172839,0,0,0.06172839506172839,0,0)" xlink:href="#Z" id="svg_177"/>
     <use transform="matrix(0.06172839506172839,0,0,0.06172839506172839,12.345679012345679,0)" xlink:href="#P" id="svg_178"/>
     <use transform="matrix(0.06172839506172839,0,0,0.06172839506172839,23.45679012345679,0)" xlink:href="#P" id="svg_179"/>
     <use transform="matrix(0.06172839506172839,0,0,0.06172839506172839,34.5679012345679,0)" xlink:href="#Q" id="svg_180"/>
     <use transform="matrix(0.06172839506172839,0,0,0.06172839506172839,46.913580246913575,0)" xlink:href="#V" id="svg_181"/>
     <use transform="matrix(0.06172839506172839,0,0,0.06172839506172839,53.08641975308642,0)" xlink:href="#P" id="svg_182"/>
    </g>
    <path fill="#3a414a" d="m185,-189c-5,-48 -123,-54 -124,2c14,75 158,14 163,119c3,78 -121,87 -175,55c-17,-10 -28,-26 -33,-46l33,-7c5,56 141,63 141,-1c0,-78 -155,-14 -162,-118c-5,-82 145,-84 179,-34c5,7 8,16 11,25" id="af"/>
    <g id="t">
     <use transform="matrix(0.06172839506172839,0,0,0.06172839506172839,0,0)" xlink:href="#af" id="svg_183"/>
     <use transform="matrix(0.06172839506172839,0,0,0.06172839506172839,14.814814814814813,0)" xlink:href="#Q" id="svg_184"/>
     <use transform="matrix(0.06172839506172839,0,0,0.06172839506172839,27.160493827160494,0)" xlink:href="#V" id="svg_185"/>
     <use transform="matrix(0.06172839506172839,0,0,0.06172839506172839,33.333333333333336,0)" xlink:href="#O" id="svg_186"/>
     <use transform="matrix(0.06172839506172839,0,0,0.06172839506172839,45.67901234567901,0)" xlink:href="#U" id="svg_187"/>
    </g>
    <path fill="#3a414a" d="m210,-169c-67,3 -38,105 -44,169l-31,0l0,-121c0,-29 -5,-50 -35,-48c-66,4 -38,104 -44,169l-31,0l-1,-190l30,0c1,10 -1,24 2,32c10,-44 99,-50 107,0c11,-21 27,-35 58,-36c85,-2 47,119 55,194l-31,0l0,-121c0,-29 -5,-49 -35,-48" id="ag"/>
    <g id="u">
     <use transform="matrix(0.06172839506172839,0,0,0.06172839506172839,0,0)" xlink:href="#U" id="svg_188"/>
     <use transform="matrix(0.06172839506172839,0,0,0.06172839506172839,12.345679012345679,0)" xlink:href="#Q" id="svg_189"/>
     <use transform="matrix(0.06172839506172839,0,0,0.06172839506172839,24.691358024691358,0)" xlink:href="#R" id="svg_190"/>
     <use transform="matrix(0.06172839506172839,0,0,0.06172839506172839,32.03703703703704,0)" xlink:href="#ag" id="svg_191"/>
     <use transform="matrix(0.06172839506172839,0,0,0.06172839506172839,50.49382716049382,0)" xlink:href="#Y" id="svg_192"/>
     <use transform="matrix(0.06172839506172839,0,0,0.06172839506172839,55.37037037037037,0)" xlink:href="#P" id="svg_193"/>
     <use transform="matrix(0.06172839506172839,0,0,0.06172839506172839,66.48148148148148,0)" xlink:href="#P" id="svg_194"/>
     <use transform="matrix(0.06172839506172839,0,0,0.06172839506172839,77.5925925925926,0)" xlink:href="#Y" id="svg_195"/>
     <use transform="matrix(0.06172839506172839,0,0,0.06172839506172839,82.46913580246914,0)" xlink:href="#T" id="svg_196"/>
     <use transform="matrix(0.06172839506172839,0,0,0.06172839506172839,94.81481481481482,0)" xlink:href="#X" id="svg_197"/>
     <use transform="matrix(0.06172839506172839,0,0,0.06172839506172839,107.16049382716051,0)" xlink:href="#P" id="svg_198"/>
    </g>
    <g id="v">
     <use transform="matrix(0.06172839506172839,0,0,0.06172839506172839,0,0)" xlink:href="#af" id="svg_199"/>
     <use transform="matrix(0.06172839506172839,0,0,0.06172839506172839,14.814814814814813,0)" xlink:href="#Q" id="svg_200"/>
     <use transform="matrix(0.06172839506172839,0,0,0.06172839506172839,27.160493827160494,0)" xlink:href="#V" id="svg_201"/>
     <use transform="matrix(0.06172839506172839,0,0,0.06172839506172839,33.333333333333336,0)" xlink:href="#O" id="svg_202"/>
     <use transform="matrix(0.06172839506172839,0,0,0.06172839506172839,45.67901234567901,0)" xlink:href="#U" id="svg_203"/>
    </g>
    <g id="w">
     <use transform="matrix(0.06172839506172839,0,0,0.06172839506172839,0,0)" xlink:href="#ag" id="svg_204"/>
     <use transform="matrix(0.06172839506172839,0,0,0.06172839506172839,18.456790123456788,0)" xlink:href="#Q" id="svg_205"/>
     <use transform="matrix(0.06172839506172839,0,0,0.06172839506172839,30.80246913580247,0)" xlink:href="#V" id="svg_206"/>
     <use transform="matrix(0.06172839506172839,0,0,0.06172839506172839,36.97530864197531,0)" xlink:href="#Z" id="svg_207"/>
     <use transform="matrix(0.06172839506172839,0,0,0.06172839506172839,49.32098765432099,0)" xlink:href="#N" id="svg_208"/>
     <use transform="matrix(0.06172839506172839,0,0,0.06172839506172839,61.666666666666664,0)" xlink:href="#Z" id="svg_209"/>
     <use transform="matrix(0.06172839506172839,0,0,0.06172839506172839,74.01234567901234,0)" xlink:href="#V" id="svg_210"/>
     <use transform="matrix(0.06172839506172839,0,0,0.06172839506172839,80.18518518518518,0)" xlink:href="#Z" id="svg_211"/>
    </g>
    <g id="x">
     <use transform="matrix(0.06172839506172839,0,0,0.06172839506172839,0,0)" xlink:href="#ac" id="svg_212"/>
     <use transform="matrix(0.06172839506172839,0,0,0.06172839506172839,6.172839506172839,0)" xlink:href="#T" id="svg_213"/>
     <use transform="matrix(0.06172839506172839,0,0,0.06172839506172839,18.51851851851852,0)" xlink:href="#R" id="svg_214"/>
     <use transform="matrix(0.06172839506172839,0,0,0.06172839506172839,25.864197530864196,0)" xlink:href="#ag" id="svg_215"/>
     <use transform="matrix(0.06172839506172839,0,0,0.06172839506172839,44.32098765432099,0)" xlink:href="#P" id="svg_216"/>
    </g>
    <path fill="#3a414a" d="m115,-194c53,0 69,39 70,98c0,66 -23,100 -70,100c-31,-1 -49,-11 -59,-34l-2,30l-31,0l1,-261l32,0l0,101c10,-23 28,-34 59,-34zm-8,174c40,0 45,-34 45,-75c0,-40 -5,-75 -45,-74c-42,0 -51,32 -51,76c0,43 10,73 51,73" id="ah"/>
    <g id="y">
     <use transform="matrix(0.06172839506172839,0,0,0.06172839506172839,0,0)" xlink:href="#U" id="svg_217"/>
     <use transform="matrix(0.06172839506172839,0,0,0.06172839506172839,12.345679012345679,0)" xlink:href="#O" id="svg_218"/>
     <use transform="matrix(0.06172839506172839,0,0,0.06172839506172839,24.691358024691358,0)" xlink:href="#ah" id="svg_219"/>
     <use transform="matrix(0.06172839506172839,0,0,0.06172839506172839,37.03703703703704,0)" xlink:href="#aa" id="svg_220"/>
     <use transform="matrix(0.06172839506172839,0,0,0.06172839506172839,41.91358024691358,0)" xlink:href="#Y" id="svg_221"/>
     <use transform="matrix(0.06172839506172839,0,0,0.06172839506172839,46.79012345679013,0)" xlink:href="#ab" id="svg_222"/>
    </g>
    <g id="z">
     <use transform="matrix(0.06172839506172839,0,0,0.06172839506172839,0,0)" xlink:href="#ab" id="svg_223"/>
     <use transform="matrix(0.06172839506172839,0,0,0.06172839506172839,11.11111111111111,0)" xlink:href="#T" id="svg_224"/>
     <use transform="matrix(0.06172839506172839,0,0,0.06172839506172839,23.45679012345679,0)" xlink:href="#aa" id="svg_225"/>
     <use transform="matrix(0.06172839506172839,0,0,0.06172839506172839,28.333333333333336,0)" xlink:href="#aa" id="svg_226"/>
     <use transform="matrix(0.06172839506172839,0,0,0.06172839506172839,33.20987654320988,0)" xlink:href="#Q" id="svg_227"/>
     <use transform="matrix(0.06172839506172839,0,0,0.06172839506172839,45.55555555555556,0)" xlink:href="#ab" id="svg_228"/>
     <use transform="matrix(0.06172839506172839,0,0,0.06172839506172839,56.66666666666667,0)" xlink:href="#V" id="svg_229"/>
     <use transform="matrix(0.06172839506172839,0,0,0.06172839506172839,62.83950617283951,0)" xlink:href="#Y" id="svg_230"/>
     <use transform="matrix(0.06172839506172839,0,0,0.06172839506172839,67.71604938271605,0)" xlink:href="#T" id="svg_231"/>
     <use transform="matrix(0.06172839506172839,0,0,0.06172839506172839,80.06172839506173,0)" xlink:href="#X" id="svg_232"/>
     <use transform="matrix(0.06172839506172839,0,0,0.06172839506172839,92.40740740740742,0)" xlink:href="#P" id="svg_233"/>
    </g>
    <path fill="#3a414a" d="m199,0l-22,-63l-94,0l-22,63l-52,0l90,-248l61,0l90,248l-51,0zm-33,-102l-36,-108c-10,38 -24,72 -36,108l72,0" id="ai"/>
    <path fill="#3a414a" d="m88,-194c31,-1 46,15 58,34l-1,-101l50,0l1,261l-48,0c-2,-10 0,-23 -3,-31c-11,23 -29,35 -61,35c-52,0 -68,-45 -69,-99c0,-56 19,-97 73,-99zm17,164c33,0 40,-30 41,-66c1,-37 -9,-64 -41,-64s-38,30 -39,65c0,43 13,65 39,65" id="aj"/>
    <path fill="#3a414a" d="m220,-157c-53,9 -28,100 -34,157l-49,0l0,-107c1,-27 -5,-49 -29,-50c-53,10 -27,100 -33,157l-50,0l-1,-190l47,0c2,12 -1,28 3,38c10,-53 101,-56 108,0c13,-22 24,-43 59,-42c82,1 51,116 57,194l-49,0l0,-107c-1,-25 -5,-48 -29,-50" id="ak"/>
    <path fill="#3a414a" d="m25,-224l0,-37l50,0l0,37l-50,0zm0,224l0,-190l50,0l0,190l-50,0" id="al"/>
    <path fill="#3a414a" d="m135,-194c87,-1 58,113 63,194l-50,0c-7,-57 23,-157 -34,-157c-59,0 -34,97 -39,157l-50,0l-1,-190l47,0c2,12 -1,28 3,38c12,-26 28,-41 61,-42" id="am"/>
    <g id="A">
     <use transform="matrix(0.06172839506172839,0,0,0.06172839506172839,0,0)" xlink:href="#ai" id="svg_234"/>
     <use transform="matrix(0.06172839506172839,0,0,0.06172839506172839,15.987654320987653,0)" xlink:href="#aj" id="svg_235"/>
     <use transform="matrix(0.06172839506172839,0,0,0.06172839506172839,29.50617283950617,0)" xlink:href="#ak" id="svg_236"/>
     <use transform="matrix(0.06172839506172839,0,0,0.06172839506172839,49.25925925925925,0)" xlink:href="#al" id="svg_237"/>
     <use transform="matrix(0.06172839506172839,0,0,0.06172839506172839,55.432098765432094,0)" xlink:href="#am" id="svg_238"/>
    </g>
    <path fill="#3a414a" d="m110,-194c64,0 96,36 96,99c0,64 -35,99 -97,99c-61,0 -95,-36 -95,-99c0,-62 34,-99 96,-99zm-1,164c35,0 45,-28 45,-65c0,-40 -10,-65 -43,-65c-34,0 -45,26 -45,65c0,36 10,65 43,65" id="an"/>
    <path fill="#3a414a" d="m25,0l0,-261l50,0l0,261l-50,0" id="ao"/>
    <g id="B">
     <use transform="matrix(0.06172839506172839,0,0,0.06172839506172839,0,0)" xlink:href="#G" id="svg_239"/>
     <use transform="matrix(0.06172839506172839,0,0,0.06172839506172839,15.987654320987653,0)" xlink:href="#an" id="svg_240"/>
     <use transform="matrix(0.06172839506172839,0,0,0.06172839506172839,29.50617283950617,0)" xlink:href="#am" id="svg_241"/>
     <use transform="matrix(0.06172839506172839,0,0,0.06172839506172839,43.02469135802469,0)" xlink:href="#L" id="svg_242"/>
     <use transform="matrix(0.06172839506172839,0,0,0.06172839506172839,55.37037037037037,0)" xlink:href="#an" id="svg_243"/>
     <use transform="matrix(0.06172839506172839,0,0,0.06172839506172839,68.88888888888889,0)" xlink:href="#ao" id="svg_244"/>
     <use transform="matrix(0.06172839506172839,0,0,0.06172839506172839,75.06172839506172,0)" xlink:href="#I" id="svg_245"/>
    </g>
    <g id="C">
     <use transform="matrix(0.06172839506172839,0,0,0.06172839506172839,0,0)" xlink:href="#J" id="svg_246"/>
     <use transform="matrix(0.06172839506172839,0,0,0.06172839506172839,12.345679012345679,0)" xlink:href="#aj" id="svg_247"/>
     <use transform="matrix(0.06172839506172839,0,0,0.06172839506172839,25.864197530864196,0)" xlink:href="#ak" id="svg_248"/>
     <use transform="matrix(0.06172839506172839,0,0,0.06172839506172839,45.61728395061728,0)" xlink:href="#al" id="svg_249"/>
     <use transform="matrix(0.06172839506172839,0,0,0.06172839506172839,51.79012345679012,0)" xlink:href="#am" id="svg_250"/>
     <use transform="matrix(0.06172839506172839,0,0,0.06172839506172839,65.30864197530863,0)" xlink:href="#al" id="svg_251"/>
     <use transform="matrix(0.06172839506172839,0,0,0.06172839506172839,71.48148148148147,0)" xlink:href="#L" id="svg_252"/>
     <use transform="matrix(0.06172839506172839,0,0,0.06172839506172839,83.82716049382715,0)" xlink:href="#K" id="svg_253"/>
     <use transform="matrix(0.06172839506172839,0,0,0.06172839506172839,91.17283950617283,0)" xlink:href="#H" id="svg_254"/>
     <use transform="matrix(0.06172839506172839,0,0,0.06172839506172839,99.81481481481481,0)" xlink:href="#J" id="svg_255"/>
     <use transform="matrix(0.06172839506172839,0,0,0.06172839506172839,112.1604938271605,0)" xlink:href="#K" id="svg_256"/>
     <use transform="matrix(0.06172839506172839,0,0,0.06172839506172839,119.50617283950618,0)" xlink:href="#an" id="svg_257"/>
     <use transform="matrix(0.06172839506172839,0,0,0.06172839506172839,133.02469135802468,0)" xlink:href="#H" id="svg_258"/>
    </g>
    <g id="D">
     <use transform="matrix(0.06172839506172839,0,0,0.06172839506172839,0,0)" xlink:href="#ai" id="svg_259"/>
     <use transform="matrix(0.06172839506172839,0,0,0.06172839506172839,15.987654320987653,0)" xlink:href="#L" id="svg_260"/>
     <use transform="matrix(0.06172839506172839,0,0,0.06172839506172839,28.333333333333332,0)" xlink:href="#L" id="svg_261"/>
     <use transform="matrix(0.06172839506172839,0,0,0.06172839506172839,40.67901234567901,0)" xlink:href="#I" id="svg_262"/>
     <use transform="matrix(0.06172839506172839,0,0,0.06172839506172839,53.02469135802469,0)" xlink:href="#K" id="svg_263"/>
     <use transform="matrix(0.06172839506172839,0,0,0.06172839506172839,60.37037037037037,0)" xlink:href="#L" id="svg_264"/>
    </g>
    <path fill="#3a414a" d="m24,0l0,-248l195,0l0,40l-143,0l0,63l132,0l0,40l-132,0l0,65l150,0l0,40l-202,0" id="ap"/>
    <g id="E">
     <use transform="matrix(0.06172839506172839,0,0,0.06172839506172839,0,0)" xlink:href="#ap" id="svg_265"/>
     <use transform="matrix(0.06172839506172839,0,0,0.06172839506172839,14.814814814814813,0)" xlink:href="#L" id="svg_266"/>
     <use transform="matrix(0.06172839506172839,0,0,0.06172839506172839,27.160493827160494,0)" xlink:href="#L" id="svg_267"/>
     <use transform="matrix(0.06172839506172839,0,0,0.06172839506172839,39.50617283950617,0)" xlink:href="#I" id="svg_268"/>
     <use transform="matrix(0.06172839506172839,0,0,0.06172839506172839,51.85185185185185,0)" xlink:href="#am" id="svg_269"/>
     <use transform="matrix(0.06172839506172839,0,0,0.06172839506172839,65.37037037037037,0)" xlink:href="#K" id="svg_270"/>
     <use transform="matrix(0.06172839506172839,0,0,0.06172839506172839,72.71604938271605,0)" xlink:href="#al" id="svg_271"/>
     <use transform="matrix(0.06172839506172839,0,0,0.06172839506172839,78.88888888888889,0)" xlink:href="#J" id="svg_272"/>
     <use transform="matrix(0.06172839506172839,0,0,0.06172839506172839,91.23456790123457,0)" xlink:href="#ao" id="svg_273"/>
     <use transform="matrix(0.06172839506172839,0,0,0.06172839506172839,97.4074074074074,0)" xlink:href="#L" id="svg_274"/>
    </g>
    <path fill="#3a414a" d="m135,-194c53,0 70,44 70,98c0,56 -19,98 -73,100c-31,1 -45,-17 -59,-34c3,33 2,69 2,105l-50,0l-1,-265l48,0c2,10 0,23 3,31c11,-24 29,-35 60,-35zm-21,164c33,0 39,-31 40,-66c0,-38 -9,-64 -40,-64c-56,0 -55,130 0,130" id="aq"/>
    <path fill="#3a414a" d="m190,-63c-7,42 -38,67 -86,67c-59,0 -84,-38 -90,-98c-12,-110 154,-137 174,-36l-49,2c-2,-19 -15,-32 -35,-32c-30,0 -35,28 -38,64c-6,74 65,87 74,30" id="ar"/>
    <g id="F">
     <use transform="matrix(0.06172839506172839,0,0,0.06172839506172839,0,0)" xlink:href="#J" id="svg_275"/>
     <use transform="matrix(0.06172839506172839,0,0,0.06172839506172839,12.345679012345679,0)" xlink:href="#aq" id="svg_276"/>
     <use transform="matrix(0.06172839506172839,0,0,0.06172839506172839,25.864197530864196,0)" xlink:href="#aq" id="svg_277"/>
     <use transform="matrix(0.06172839506172839,0,0,0.06172839506172839,39.382716049382715,0)" xlink:href="#ao" id="svg_278"/>
     <use transform="matrix(0.06172839506172839,0,0,0.06172839506172839,45.55555555555556,0)" xlink:href="#al" id="svg_279"/>
     <use transform="matrix(0.06172839506172839,0,0,0.06172839506172839,51.7283950617284,0)" xlink:href="#ar" id="svg_280"/>
     <use transform="matrix(0.06172839506172839,0,0,0.06172839506172839,64.07407407407408,0)" xlink:href="#J" id="svg_281"/>
     <use transform="matrix(0.06172839506172839,0,0,0.06172839506172839,76.41975308641976,0)" xlink:href="#K" id="svg_282"/>
     <use transform="matrix(0.06172839506172839,0,0,0.06172839506172839,83.76543209876544,0)" xlink:href="#al" id="svg_283"/>
     <use transform="matrix(0.06172839506172839,0,0,0.06172839506172839,89.93827160493828,0)" xlink:href="#an" id="svg_284"/>
     <use transform="matrix(0.06172839506172839,0,0,0.06172839506172839,103.4567901234568,0)" xlink:href="#am" id="svg_285"/>
    </g>
   </defs>
  </g>
  <text fill="#000000" stroke="#000" stroke-width="0" x="125.52013" y="81.57579" id="svg_290" font-size="22" font-family="'Noto Sans Display'" text-anchor="start" xml:space="preserve" font-weight="bold">Administrador do</text>
  <text fill="#000000" stroke="#000" stroke-width="0" x="130.48419" y="453.63484" id="svg_289" font-size="22" font-family="'Noto Sans Display'" text-anchor="start" xml:space="preserve" font-weight="bold">Administrador do</text>
  <text fill="#000000" stroke="#000" stroke-width="0" x="134.57567" y="286.90909" id="svg_286" font-size="24" font-family="'Noto Sans Display'" text-anchor="start" xml:space="preserve" font-weight="bold">Cria</text>
  <text fill="#000000" stroke="#000" stroke-width="0" x="140.13876" y="110.66669" id="svg_295" font-size="22" font-family="'Noto Sans Display'" text-anchor="start" xml:space="preserve" font-weight="bold">Admin Console</text>
  <text fill="#000000" stroke="#000" stroke-width="0" x="441.73759" y="134.97438" id="svg_10" font-size="20" font-family="'Noto Sans Display'" text-anchor="start" xml:space="preserve" font-weight="normal">Adicionar grupos</text>
  <text fill="#000000" stroke="#000" stroke-width="0" x="465.30419" y="162.66669" id="svg_297" font-size="20" font-family="'Noto Sans Display'" text-anchor="start" xml:space="preserve" font-weight="normal">de usurios</text>
  <text fill="#000000" stroke="#000" stroke-width="0" x="932.79136" y="109.48721" id="svg_617" font-size="20" font-family="'Noto Sans Display'" text-anchor="start" xml:space="preserve" font-weight="normal">Adicionar grupos de</text>
  <text fill="#000000" stroke="#000" stroke-width="0" x="1453.26258" y="134.66669" id="svg_620" font-size="20" font-family="'Noto Sans Display'" text-anchor="start" xml:space="preserve" font-weight="normal">Adicionar usurios</text>
  <text fill="#000000" stroke="#000" stroke-width="0" x="449.12918" y="393.33332" id="svg_622" font-size="20" font-family="'Noto Sans Display'" text-anchor="start" xml:space="preserve" font-weight="normal">Criar estrutura</text>
  <text fill="#000000" stroke="#000" stroke-width="0" x="763.86971" y="405.33332" id="svg_624" font-size="20" font-family="'Noto Sans Display'" text-anchor="start" xml:space="preserve" font-weight="normal">Upload de ativos</text>
  <text fill="#000000" stroke="#000" stroke-width="0" x="1130.22555" y="393.33332" id="svg_626" font-size="20" font-family="'Noto Sans Display'" text-anchor="start" xml:space="preserve" font-weight="normal">Configurar</text>
  <text fill="#000000" stroke="#000" stroke-width="0" x="1211.89018" y="566.82048" id="svg_17" font-size="20" font-family="'Noto Sans Display'" text-anchor="start" xml:space="preserve" font-weight="normal">Configurar</text>
  <text fill="#000000" stroke="#000" stroke-width="0" x="1194.80695" y="593.10253" id="svg_7" font-size="20" font-family="'Noto Sans Display'" text-anchor="start" xml:space="preserve" font-weight="normal">formulrios de</text>
  <text fill="#000000" stroke="#000" stroke-width="0" x="1209.41685" y="618.10252" id="svg_628" font-size="20" font-family="'Noto Sans Display'" text-anchor="start" xml:space="preserve" font-weight="normal">metadados</text>
  <text fill="#000000" stroke="#000" stroke-width="0" x="1542.43884" y="572.30765" id="svg_298" font-size="20" font-family="'Noto Sans Display'" text-anchor="start" xml:space="preserve" font-weight="normal">Criar colees</text>
  <text fill="#000000" stroke="#000" stroke-width="0" x="937.82131" y="135.8556" id="svg_618" font-size="20" font-family="'Noto Sans Display'" text-anchor="start" xml:space="preserve" font-weight="normal">usurios aos perfis</text>
  <text fill="#000000" stroke-width="0" x="1495.70928" y="160.03508" id="svg_621" font-size="20" font-family="'Noto Sans Display'" text-anchor="start" xml:space="preserve" font-weight="normal" stroke="#000">a grupos</text>
  <text fill="#000000" stroke="#000" stroke-width="0" x="471.51174" y="418.70171" id="svg_623" font-size="20" font-family="'Noto Sans Display'" text-anchor="start" xml:space="preserve" font-weight="normal">de pastas</text>
  <text fill="#000000" stroke="#000" stroke-width="0" x="1126.88231" y="418.70171" id="svg_627" font-size="20" font-family="'Noto Sans Display'" text-anchor="start" xml:space="preserve" font-weight="normal">permisses</text>
  <text fill="#000000" stroke="#000" stroke-width="0" x="1567.80881" y="597.80426" id="svg_18" font-size="20" font-family="'Noto Sans Display'" text-anchor="start" xml:space="preserve" font-weight="normal">pblicas</text>
  <text fill="#000000" stroke="#000" stroke-width="0" x="958.45788" y="159.89261" id="svg_14" font-size="20" font-family="'Noto Sans Display'" text-anchor="start" xml:space="preserve" font-weight="normal">de produto do</text>
  <text fill="#000000" stroke="#000" stroke-width="0" x="947.97457" y="185.26556" id="svg_291" font-size="20" font-family="'Noto Sans Display'" text-anchor="start" xml:space="preserve" font-weight="normal">Assets Essentials</text>
  <text fill="#000000" stroke="#000" stroke-width="0" x="135.12354" y="482.72575" id="svg_293" font-size="22" font-family="'Noto Sans Display'" text-anchor="start" xml:space="preserve" font-weight="bold">aplicativo Assets</text>
  <text fill="#000000" stroke="#000" stroke-width="0" x="167.55149" y="514.75351" id="svg_288" font-size="22" font-family="'Noto Sans Display'" text-anchor="start" xml:space="preserve" font-weight="bold">Essentials</text>
 </g>
</svg>