<?xml version="1.0" encoding="utf-8"?>
<!-- Generator: Adobe Illustrator 26.5.2, SVG Export Plug-In . SVG Version: 6.00 Build 0)  -->
<svg version="1.1" id="Layer_1" xmlns:lucid="lucid"
	 xmlns="http://www.w3.org/2000/svg" xmlns:xlink="http://www.w3.org/1999/xlink" x="0px" y="0px" width="1760px" height="700px"
	 viewBox="0 0 1760 700" style="enable-background:new 0 0 1760 700;" xml:space="preserve">
<style type="text/css">
	.st0{fill:#FFFFFF;}
	.st1{fill:none;stroke:#3A414A;}
	.st2{fill:none;}
	.st3{fill:#FFFFFF;stroke:#3A414A;}
	.st4{fill:#3A414A;stroke:#3A414A;stroke-width:5.000000e-02;}
	.st5{fill:#3A414A;stroke:#3A414A;}
	.st6{fill:#FFFFFF;fill-opacity:0;stroke:#000000;stroke-opacity:0;}
	.st7{fill:none;stroke:#3A414A;stroke-width:3;}
	.st8{fill:#3A414A;stroke:#3A414A;stroke-width:3;}
	.st9{enable-background:new    ;}
	.st10{fill:#3A414A;}
</style>
<path class="st0" d="M-1686.9-100h3677.7v1322.8h-3677.7V-100z"/>
<path class="st0" d="M340,326c0-3.3,2.7-6,6-6h1388c3.3,0,6,2.7,6,6v348c0,3.3-2.7,6-6,6H346c-3.3,0-6-2.7-6-6V326z"/>
<path class="st1" d="M365.2,320.1h20.1 M395.4,320.1h20.1 M425.6,320.1h20.1 M455.8,320.1h20.1 M486,320.1h20.1 M516.2,320.1h20.1
	 M546.4,320.1h20.1 M576.5,320.1h20.1 M606.7,320.1h20.1 M636.9,320.1h20.1 M667.1,320.1h20.1 M697.3,320.1l20.1,0 M727.5,320.1
	h20.1 M757.7,320.1h20.1 M787.9,320.1H808 M818.1,320.1h20.1 M848.3,320.1h20.1 M878.5,320.1h20.1 M908.7,320.1h20.1 M938.9,320.1
	H959 M969.1,320.1h20.1 M999.3,320.1h20.1 M1029.5,320.1h20.1 M1059.7,320.1l20.1,0 M1089.8,320h20.1 M1120.1,320h20.1 M1150.2,320
	h20.1 M1180.4,320h20.1 M1210.6,320h20.1 M1240.8,320h20.1 M1271,320h20.1 M1301.2,320h20.1 M1331.4,320h20.1 M1361.6,320h20.1
	 M1391.8,320h20.1 M1422,320h20.1 M1452.2,320l20.1,0 M1482.4,320h20.1 M1512.6,320h20.1 M1542.8,320h20.1 M1573,320h20.1
	 M1603.2,320h20.1 M1633.3,320h20.1 M1663.5,320h20.1 M1693.7,320h20.1 M1723.9,320h10.1l0.9,0.1l0.9,0.2l0.9,0.4l0.8,0.5l0.7,0.6
	l0.6,0.7l0.5,0.8l0.4,0.9l0.2,0.9v9.7 M1739.9,344.5v19.4 M1739.9,373.5v19.4 M1739.9,402.6l0,19.4 M1740,431.7v19.4 M1740,460.8
	v19.4 M1740,489.9l0,19.4 M1740,518.9v19.4 M1740,548v19.4 M1740,577.1v19.4 M1740,606.2v19.4 M1740,635.3v19.4 M1740,664.3v9.7
	l-0.1,0.9l-0.2,0.9l-0.3,0.9l-0.5,0.8l-0.6,0.7l-0.7,0.6l-0.8,0.5l-0.9,0.4l-0.9,0.2h-10.1 M1714.8,680h-20.1 M1684.6,680h-20.1
	 M1654.5,680h-20.1 M1624.3,680h-20.1 M1594.1,680h-20.1 M1563.9,680h-20.1 M1533.7,680h-20.1 M1503.5,680h-20.1 M1473.3,680h-20.1
	 M1443.1,680H1423 M1412.9,680h-20.1 M1382.7,680l-20.1,0 M1352.5,680h-20.1 M1322.3,680h-20.1 M1292.1,680H1272 M1261.9,680h-20.1
	 M1231.7,680h-20.1 M1201.5,680h-20.1 M1171.3,680h-20.1 M1141.2,680H1121 M1110.9,680h-20.1 M1080.7,680h-20.1 M1050.5,680h-20.1
	 M1020.3,680l-20.1,0 M990.2,680H970 M960,680h-20.1 M929.8,680h-20.1 M899.6,680h-20.1 M869.4,680h-20.1 M839.2,680H819 M809,680
	h-20.1 M778.8,680h-20.1 M748.6,680h-20.1 M718.4,680h-20.1 M688.2,680h-20.1 M658,680h-20.1 M627.8,680l-20.1,0 M597.7,680h-20.2
	 M567.4,680h-20.1 M537.2,680h-20.1 M507,680h-20.1 M476.8,680h-20.1 M446.7,680h-20.1 M416.5,680h-20.1 M386.3,680h-20.1
	 M356.1,680H346l-0.9-0.1l-0.9-0.2l-0.9-0.3l-0.8-0.5l-0.7-0.6l-0.6-0.7l-0.5-0.8l-0.4-0.9l-0.2-0.9v-9.7 M340.1,655.6v-19.4
	 M340.1,626.5v-19.4 M340.1,597.4l0-19.4 M340,568.3v-19.4 M340,539.2v-19.4 M340,510.2l0-19.4 M340,481.1v-19.4 M340,452v-19.4
	 M340,422.9v-19.4 M340,393.8v-19.4 M340,364.8v-19.4 M340,335.7V326l0.1-0.9l0.2-0.9l0.4-0.9l0.5-0.8l0.6-0.7l0.7-0.6l0.8-0.5
	l0.9-0.4l0.9-0.2h10.1"/>
<path class="st0" d="M340,26c0-3.3,2.7-6,6-6h1388c3.3,0,6,2.7,6,6v188c0,3.3-2.7,6-6,6H346c-3.3,0-6-2.7-6-6V26z"/>
<path class="st1" d="M365.2,20.1h20.1 M395.4,20.1h20.1 M425.6,20.1h20.1 M455.8,20.1h20.1 M486,20.1h20.1 M516.2,20.1h20.1
	 M546.4,20.1h20.1 M576.5,20.1h20.1 M606.7,20.1h20.1 M636.9,20.1h20.1 M667.1,20.1h20.1 M697.3,20.1l20.1,0 M727.5,20.1h20.1
	 M757.7,20.1h20.1 M787.9,20.1H808 M818.1,20.1h20.1 M848.3,20.1h20.1 M878.5,20.1h20.1 M908.7,20.1h20.1 M938.9,20.1H959
	 M969.1,20.1h20.1 M999.3,20.1h20.1 M1029.5,20.1h20.1 M1059.7,20.1l20.1,0 M1089.8,20h20.1 M1120.1,20h20.1 M1150.2,20h20.1
	 M1180.4,20h20.1 M1210.6,20h20.1 M1240.8,20h20.1 M1271,20h20.1 M1301.2,20h20.1 M1331.4,20h20.1 M1361.6,20h20.1 M1391.8,20h20.1
	 M1422,20h20.1 M1452.2,20l20.1,0 M1482.4,20h20.1 M1512.6,20h20.1 M1542.8,20h20.1 M1573,20h20.1 M1603.2,20h20.1 M1633.3,20h20.1
	 M1663.5,20h20.1 M1693.7,20h20.1 M1723.9,20h10.1l0.9,0.1l0.9,0.2l0.9,0.3l0.8,0.5l0.7,0.6l0.6,0.7l0.5,0.8l0.4,0.9l0.2,0.9v10.5
	 M1739.9,46.1v21 M1740,77.6v21 M1740,109l0,21 M1740,140.5v21 M1740,172l0,21 M1740,203.5V214l-0.1,0.9l-0.2,0.9l-0.3,0.9l-0.5,0.8
	l-0.6,0.7l-0.7,0.6l-0.8,0.5l-0.9,0.4l-0.9,0.2h-10.1 M1714.8,219.9h-20.1 M1684.6,219.9h-20.1 M1654.5,219.9h-20.1 M1624.3,219.9
	h-20.1 M1594.1,219.9h-20.1 M1563.9,219.9h-20.1 M1533.7,219.9h-20.1 M1503.5,219.9h-20.1 M1473.3,219.9h-20.1 M1443.1,219.9H1423
	 M1412.9,219.9h-20.1 M1382.7,219.9l-20.1,0 M1352.5,220h-20.1 M1322.3,220h-20.1 M1292.1,220H1272 M1261.9,220h-20.1 M1231.7,220
	h-20.1 M1201.5,220h-20.1 M1171.3,220h-20.1 M1141.2,220H1121 M1110.9,220h-20.1 M1080.7,220h-20.1 M1050.5,220h-20.1 M1020.3,220
	l-20.1,0 M990.2,220H970 M960,220h-20.1 M929.8,220h-20.1 M899.6,220h-20.1 M869.4,220h-20.1 M839.2,220H819 M809,220h-20.1
	 M778.8,220h-20.1 M748.6,220h-20.1 M718.4,220h-20.1 M688.2,220h-20.1 M658,220h-20.1 M627.8,220l-20.1,0 M597.7,220h-20.2
	 M567.4,220h-20.1 M537.2,220h-20.1 M507,220h-20.1 M476.8,220h-20.1 M446.7,220h-20.1 M416.5,220h-20.1 M386.3,220h-20.1
	 M356.1,220H346l-0.9-0.1l-0.9-0.2l-0.9-0.4l-0.8-0.5l-0.7-0.6l-0.6-0.7l-0.5-0.8l-0.4-0.9l-0.2-0.9v-10.5 M340.1,194v-21
	 M340,162.5v-21 M340,131l0-21 M340,99.5v-21 M340,68l0-21 M340,36.5V26l0.1-0.9l0.2-0.9l0.4-0.9l0.5-0.8l0.6-0.7l0.7-0.6l0.8-0.5
	l0.9-0.4l0.9-0.2h10.1"/>
<path class="st2" d="M20,260h240v60H20V260z"/>
<path class="st3" d="M420,86c0-3.3,2.7-6,6-6h188c3.3,0,6,2.7,6,6v108c0,3.3-2.7,6-6,6H426c-3.3,0-6-2.7-6-6V86z"/>
<path class="st3" d="M930,86c0-3.3,2.7-6,6-6h188c3.3,0,6,2.7,6,6v108c0,3.3-2.7,6-6,6H936c-3.3,0-6-2.7-6-6V86z"/>
<path class="st3" d="M1440,86c0-3.3,2.7-6,6-6h188c3.3,0,6,2.7,6,6v108c0,3.3-2.7,6-6,6h-188c-3.3,0-6-2.7-6-6V86z"/>
<path class="st3" d="M420,346c0-3.3,2.7-6,6-6h188c3.3,0,6,2.7,6,6v108c0,3.3-2.7,6-6,6H426c-3.3,0-6-2.7-6-6V346z"/>
<path class="st3" d="M740,346c0-3.3,2.7-6,6-6h188c3.3,0,6,2.7,6,6v108c0,3.3-2.7,6-6,6H746c-3.3,0-6-2.7-6-6V346z"/>
<path class="st3" d="M1080,346c0-3.3,2.7-6,6-6h188c3.3,0,6,2.7,6,6v108c0,3.3-2.7,6-6,6h-188c-3.3,0-6-2.7-6-6V346z"/>
<path class="st3" d="M1160,526c0-3.3,2.7-6,6-6h188c3.3,0,6,2.7,6,6v108c0,3.3-2.7,6-6,6h-188c-3.3,0-6-2.7-6-6V526z"/>
<path class="st3" d="M1500,526c0-3.3,2.7-6,6-6h188c3.3,0,6,2.7,6,6v108c0,3.3-2.7,6-6,6h-188c-3.3,0-6-2.7-6-6V526z"/>
<path class="st1" d="M621,140h292.2"/>
<path class="st4" d="M621,140.5h-0.5v-1h0.5V140.5z"/>
<path class="st5" d="M927.9,140l-14.3,4.6v-9.3L927.9,140z"/>
<path class="st1" d="M1131,140h292.2"/>
<path class="st4" d="M1131,140.5h-0.5v-1h0.5V140.5z"/>
<path class="st5" d="M1437.9,140l-14.3,4.6v-9.3L1437.9,140z"/>
<path class="st1" d="M621,400h102.2"/>
<path class="st4" d="M621,400.5h-0.5v-1h0.5V400.5z"/>
<path class="st5" d="M737.9,400l-14.3,4.6v-9.3L737.9,400z"/>
<path class="st1" d="M941,400h122.2"/>
<path class="st4" d="M941,400.5h-0.5v-1h0.5V400.5z"/>
<path class="st5" d="M1077.9,400l-14.3,4.6v-9.3L1077.9,400z"/>
<path class="st1" d="M1361,580h122.2"/>
<path class="st4" d="M1361,580.5h-0.5v-1h0.5V580.5z"/>
<path class="st5" d="M1497.9,580l-14.3,4.6v-9.3L1497.9,580z"/>
<path class="st6" d="M100,64.3c0-3.3,2.7-6,6-6h228c3.3,0,6,2.7,6,6v51.3c0,3.3-2.7,6-6,6H106c-3.3,0-6-2.7-6-6V64.3z"/>
<path class="st6" d="M100,431c0-3.3,2.7-6,6-6h228c3.3,0,6,2.7,6,6v78c0,3.3-2.7,6-6,6H106c-3.3,0-6-2.7-6-6V431z"/>
<path class="st7" d="M220,123.1v15.6 M220,154.4v31.3 M220,201.3v31.2 M220,248.2v31.2 M220,295v31.2 M220,341.9v31.3 M220,388.8
	v15.6"/>
<path class="st4" d="M221.5,123.2h-3v-1.5h3V123.2z"/>
<path class="st8" d="M220,420.2l-4.6-14.3h9.3L220,420.2z"/>
<path class="st1" d="M1180,461v42.2"/>
<path class="st4" d="M1180.5,461h-1v-0.5h1V461z"/>
<path class="st5" d="M1180,518l-4.6-14.3h9.3L1180,518z"/>
<g transform="translate(-0.5 -0.5)">
	<g class="st9">
		<path class="st10" d="M144.3,81.7h-3.5l5.6-15.8h3.8l5.6,15.8h-3.6l-1-3.3h-5.8L144.3,81.7z M146.3,75.7h4l-2-6.2h0L146.3,75.7z"
			/>
		<path class="st10" d="M168.4,81.7h-3v-1.5h0c-0.7,1.3-2.1,1.8-3.4,1.8c-3.5,0-4.9-3.1-4.9-6.3c0-4,2.3-6,4.9-6
			c2,0,2.9,1.1,3.4,1.8h0v-5.6h3.1V81.7z M162.7,79.5c2,0,2.7-1.6,2.7-3.4c0-1.9-0.5-3.8-2.6-3.8c-2,0-2.6,1.7-2.6,3.6
			C160.2,77.3,160.7,79.5,162.7,79.5z"/>
		<path class="st10" d="M187.9,81.7h-3.1v-7.1c0-1.7-0.8-2.3-1.7-2.3c-1.5,0-2.1,1-2.1,2.4v7H178v-7c0-1,0-2.4-1.8-2.4
			c-1.5,0-1.9,1-1.9,2.3v7.1h-3.1V70h2.9v1.7h0c0.4-0.8,1.3-2,3.3-2c1.7,0,2.5,0.6,3.3,1.9c0.4-0.6,1.3-1.9,3.1-1.9
			c2.3,0,4.1,1.3,4.1,3.9V81.7z"/>
		<path class="st10" d="M193.9,68.6h-3.1v-2.9h3.1V68.6z M193.9,70v11.7h-3.1V70H193.9z"/>
		<path class="st10" d="M207.4,81.7h-3.1v-7.1c0-0.9,0-2.3-2-2.3c-1.4,0-2.4,0.9-2.4,2.7v6.7h-3.1V70h2.9v1.7h0c0.4-0.7,1.3-2,3.5-2
			c2.3,0,4.1,1.3,4.1,3.9V81.7z"/>
		<path class="st10" d="M213.4,68.6h-3.1v-2.9h3.1V68.6z M213.4,70v11.7h-3.1V70H213.4z"/>
		<path class="st10" d="M223,73.6c-0.1-0.7-0.4-1.5-2.1-1.5s-1.9,0.6-1.9,1.1c0,1.8,7.3,0.5,7.3,4.8c0,3.4-3.3,4-5.1,4
			c-2.7,0-5.5-0.9-5.6-4h3.2c0,1,0.6,1.7,2.6,1.7c1.6,0,2-0.8,2-1.2c0-2-7.3-0.5-7.3-4.9c0-1.7,1.1-3.9,4.7-3.9c2.3,0,5,0.6,5.3,3.9
			H223z"/>
		<path class="st10" d="M232.1,70h1.9v2.2h-1.9v6.4c0,0.7,0,0.9,1.3,0.9c0.2,0,0.4,0,0.6,0v2.3c-0.5,0-1,0-1.5,0h-0.4
			c-2.7,0-3.1-1-3.1-2.5v-7.1h-1.6V70h1.6v-3.2h3.1V70z"/>
		<path class="st10" d="M235.9,70h2.9v2h0c0.6-1.2,1.3-2.3,3.2-2.3c0.2,0,0.4,0,0.6,0v3.1c-0.3,0-0.6,0-0.9,0
			c-2.4,0-2.8,1.5-2.8,2.8v6.1h-3.1V70z"/>
		<path class="st10" d="M254,79.4c0,1.4,0.3,1.7,0.7,1.8v0.5h-3.3c-0.2-0.5-0.2-0.7-0.3-1.4c-0.7,0.7-1.7,1.7-3.8,1.7
			c-1.8,0-3.6-1-3.6-3.4c0-2.3,1.5-3.5,3.4-3.7l2.8-0.4c0.5-0.1,1.1-0.3,1.1-0.9c0-1.3-1.2-1.4-2-1.4c-1.5,0-1.8,0.9-1.9,1.6h-3
			c0.4-3.6,2.8-4.1,5.2-4.1c1.6,0,4.7,0.5,4.7,3.4V79.4z M251,76c-0.3,0.2-0.8,0.4-2.1,0.6c-1.1,0.2-2.1,0.5-2.1,1.8
			c0,1.1,0.8,1.4,1.4,1.4c1.4,0,2.8-0.9,2.8-2.3V76z"/>
		<path class="st10" d="M267.4,81.7h-3v-1.5h0c-0.7,1.3-2.1,1.8-3.4,1.8c-3.5,0-4.9-3.1-4.9-6.3c0-4,2.3-6,4.9-6
			c2,0,2.9,1.1,3.4,1.8h0v-5.6h3.1V81.7z M261.7,79.5c2,0,2.7-1.6,2.7-3.4c0-1.9-0.5-3.8-2.6-3.8c-2,0-2.6,1.7-2.6,3.6
			C259.2,77.3,259.8,79.5,261.7,79.5z"/>
		<path class="st10" d="M275.5,82c-3.1,0-6-1.9-6-6.2s2.8-6.2,6-6.2s6,1.9,6,6.2S278.6,82,275.5,82z M275.5,72.3
			c-2.4,0-2.8,2.1-2.8,3.6s0.4,3.6,2.8,3.6s2.8-2.1,2.8-3.6S277.8,72.3,275.5,72.3z"/>
		<path class="st10" d="M283.6,70h2.9v2h0c0.6-1.2,1.3-2.3,3.2-2.3c0.2,0,0.4,0,0.6,0v3.1c-0.3,0-0.6,0-0.9,0
			c-2.4,0-2.8,1.5-2.8,2.8v6.1h-3.1V70z"/>
		<path class="st10" d="M130.5,108.1h-3v-1.5h0c-0.7,1.3-2.1,1.8-3.4,1.8c-3.5,0-4.9-3.1-4.9-6.3c0-4,2.3-6,4.9-6
			c2,0,2.9,1.1,3.4,1.8h0v-5.6h3.1V108.1z M124.8,105.9c2,0,2.7-1.6,2.7-3.4c0-1.9-0.5-3.8-2.6-3.8c-2,0-2.6,1.7-2.6,3.6
			C122.3,103.7,122.9,105.9,124.8,105.9z"/>
		<path class="st10" d="M138.6,108.4c-3.1,0-6-1.9-6-6.2s2.8-6.2,6-6.2s6,1.9,6,6.2S141.7,108.4,138.6,108.4z M138.6,98.7
			c-2.4,0-2.8,2.1-2.8,3.6s0.4,3.6,2.8,3.6s2.8-2.1,2.8-3.6S140.9,98.7,138.6,98.7z"/>
		<path class="st10" d="M155.3,108.1h-3.5l5.6-15.8h3.8l5.6,15.8h-3.6l-1-3.3h-5.8L155.3,108.1z M157.3,102.1h4l-2-6.2h0
			L157.3,102.1z"/>
		<path class="st10" d="M179.4,108.1h-3v-1.5h0c-0.7,1.3-2.1,1.8-3.4,1.8c-3.5,0-4.9-3.1-4.9-6.3c0-4,2.3-6,4.9-6
			c2,0,2.9,1.1,3.4,1.8h0v-5.6h3.1V108.1z M173.7,105.9c2,0,2.7-1.6,2.7-3.4c0-1.9-0.5-3.8-2.6-3.8c-2,0-2.6,1.7-2.6,3.6
			C171.2,103.7,171.7,105.9,173.7,105.9z"/>
		<path class="st10" d="M198.9,108.1h-3.1V101c0-1.7-0.8-2.3-1.7-2.3c-1.5,0-2.1,1-2.1,2.4v7H189v-7c0-1,0-2.4-1.8-2.4
			c-1.5,0-1.9,1-1.9,2.3v7.1h-3.1V96.4h2.9v1.7h0c0.4-0.8,1.3-2,3.3-2c1.7,0,2.5,0.6,3.3,1.9c0.4-0.6,1.3-1.9,3.1-1.9
			c2.3,0,4.1,1.3,4.1,3.9V108.1z"/>
		<path class="st10" d="M204.9,95h-3.1v-2.9h3.1V95z M204.9,96.4v11.7h-3.1V96.4H204.9z"/>
		<path class="st10" d="M218.4,108.1h-3.1V101c0-0.9,0-2.3-2-2.3c-1.4,0-2.4,0.9-2.4,2.7v6.7h-3.1V96.4h2.9v1.7h0
			c0.4-0.7,1.3-2,3.5-2c2.3,0,4.1,1.3,4.1,3.9V108.1z"/>
		<path class="st10" d="M237.7,97.5c-0.3-0.9-0.8-2.7-3.5-2.7c-1.6,0-3.9,1.1-3.9,5.5c0,2.8,1.1,5.4,3.9,5.4c1.8,0,3.1-1,3.5-3h3.3
			c-0.7,3.4-2.9,5.8-6.9,5.8c-4.2,0-7.2-2.8-7.2-8.3c0-5.5,3.2-8.3,7.3-8.3c4.7,0,6.6,3.3,6.8,5.6H237.7z"/>
		<path class="st10" d="M248.6,108.4c-3.1,0-6-1.9-6-6.2s2.8-6.2,6-6.2s6,1.9,6,6.2S251.7,108.4,248.6,108.4z M248.6,98.7
			c-2.4,0-2.8,2.1-2.8,3.6s0.4,3.6,2.8,3.6s2.8-2.1,2.8-3.6S250.9,98.7,248.6,98.7z"/>
		<path class="st10" d="M267.3,108.1h-3.1V101c0-0.9,0-2.3-2-2.3c-1.4,0-2.4,0.9-2.4,2.7v6.7h-3.1V96.4h2.9v1.7h0
			c0.4-0.7,1.3-2,3.5-2c2.3,0,4.1,1.3,4.1,3.9V108.1z"/>
		<path class="st10" d="M276.8,100c-0.1-0.7-0.4-1.5-2.1-1.5s-1.9,0.6-1.9,1.1c0,1.8,7.3,0.5,7.3,4.8c0,3.4-3.3,4-5.1,4
			c-2.7,0-5.5-0.9-5.6-4h3.2c0,1,0.6,1.7,2.6,1.7c1.6,0,2-0.8,2-1.2c0-2-7.3-0.5-7.3-4.9c0-1.7,1.1-3.9,4.7-3.9c2.3,0,5,0.6,5.3,3.9
			H276.8z"/>
		<path class="st10" d="M287.7,108.4c-3.1,0-6-1.9-6-6.2s2.8-6.2,6-6.2s6,1.9,6,6.2S290.8,108.4,287.7,108.4z M287.7,98.7
			c-2.4,0-2.8,2.1-2.8,3.6s0.4,3.6,2.8,3.6s2.8-2.1,2.8-3.6S290.1,98.7,287.7,98.7z"/>
		<path class="st10" d="M299,108.1h-3.1V92.3h3.1V108.1z"/>
		<path class="st10" d="M312,104.7c-0.8,2.8-3.1,3.7-5.1,3.7c-3.3,0-5.8-1.6-5.8-6.4c0-1.4,0.5-5.9,5.6-5.9c2.3,0,5.5,1.1,5.5,6.4
			v0.5h-8c0.1,0.9,0.3,2.9,2.8,2.9c0.9,0,1.7-0.4,2-1.3H312z M309,101.1c-0.2-1.9-1.4-2.5-2.4-2.5c-1.5,0-2.2,0.9-2.4,2.5H309z"/>
	</g>
</g>
<g transform="translate(-0.5 -0.5)">
	<g class="st9">
		<path class="st10" d="M442.1,132l-1.7,4.6h-2.2l5.9-15.8h2.4l5.7,15.8H450l-1.6-4.6H442.1z M447.6,130.1l-2.3-7h0l-2.5,7H447.6z"
			/>
		<path class="st10" d="M463.6,136.6h-1.8V135h0c-0.8,1.6-2.2,1.9-3.3,1.9c-3.9,0-5.1-3.7-5.1-6.4c0-3.2,1.7-5.7,4.8-5.7
			c2.1,0,3,1.3,3.4,2l0-0.2v-5.8h1.9V136.6z M458.5,135.2c1.2,0,3.1-0.8,3.1-3.9c0-1.9-0.3-4.9-3.1-4.9c-3,0-3.1,2.8-3.1,4.3
			C455.4,133.3,456.3,135.2,458.5,135.2z"/>
		<path class="st10" d="M466.3,123v-2.2h1.9v2.2H466.3z M468.2,136.6h-1.9v-11.5h1.9V136.6z"/>
		<path class="st10" d="M478.3,128.9c-0.2-1.5-1.1-2.5-2.7-2.5c-2.4,0-3.2,2.3-3.2,4.3c0,2,0.5,4.4,3.1,4.4c1.3,0,2.4-1,2.8-2.7h1.9
			c-0.2,1.8-1.3,4.4-4.7,4.4c-3.2,0-5.1-2.4-5.1-5.8c0-3.6,1.7-6.4,5.5-6.4c3,0,4.2,2.2,4.3,4.2H478.3z"/>
		<path class="st10" d="M482.2,123v-2.2h1.9v2.2H482.2z M484.1,136.6h-1.9v-11.5h1.9V136.6z"/>
		<path class="st10" d="M491.7,124.7c3.7,0,5.3,3.1,5.3,6.1s-1.7,6.1-5.3,6.1c-3.7,0-5.3-3.1-5.3-6.1S488,124.7,491.7,124.7z
			 M491.7,135.2c2.8,0,3.3-2.9,3.3-4.4s-0.6-4.4-3.3-4.4c-2.8,0-3.3,2.9-3.3,4.4S488.9,135.2,491.7,135.2z"/>
		<path class="st10" d="M508.6,136.6h-1.9v-7.1c0-2-0.6-3-2.5-3c-1.1,0-3,0.7-3,3.8v6.3h-1.9v-11.5h1.8v1.6h0c0.4-0.6,1.5-2,3.5-2
			c1.8,0,4,0.7,4,4V136.6z"/>
		<path class="st10" d="M511.4,128.6c0.1-2.8,1.9-3.8,4.8-3.8c0.9,0,4.3,0.3,4.3,3.2v6.6c0,0.5,0.2,0.7,0.6,0.7c0.2,0,0.4,0,0.6-0.1
			v1.4c-0.3,0.1-0.6,0.2-1.1,0.2c-1.7,0-2-0.9-2-1.8c-0.7,0.8-1.9,1.9-4.2,1.9c-2.1,0-3.6-1.3-3.6-3.3c0-1,0.3-3.2,3.5-3.6l3.2-0.4
			c0.5,0,1-0.2,1-1.4c0-1.2-0.9-1.9-2.7-1.9c-2.2,0-2.5,1.3-2.6,2.2H511.4z M518.5,130.7c-0.3,0.2-0.8,0.4-3.2,0.7
			c-0.9,0.1-2.5,0.4-2.5,1.9c0,1.3,0.6,2,2.1,2c1.8,0,3.6-1.2,3.6-2.7V130.7z"/>
		<path class="st10" d="M525.9,136.6H524v-11.5h1.8v1.9h0c0.8-1.3,1.8-2.2,3.2-2.2c0.2,0,0.4,0,0.5,0.1v2h-0.7
			c-1.8,0-2.9,1.4-2.9,3.1V136.6z"/>
		<path class="st10" d="M546.7,135.6c0,1.7,0,5.8-5.3,5.8c-1.4,0-4-0.4-4.4-3.4h1.9c0.4,1.8,2.1,1.8,2.6,1.8c3.3,0,3.3-2.7,3.3-4
			v-0.5h0v0.1c-0.5,0.8-1.5,1.5-3.1,1.5c-3.9,0-5.1-3.7-5.1-6.4c0-3.2,1.7-5.7,4.8-5.7c2.1,0,3,1.3,3.4,2h0v-1.6h1.8V135.6z
			 M541.7,135.2c1.2,0,3.1-0.8,3.1-3.9c0-1.9-0.3-4.9-3.1-4.9c-3,0-3.1,2.8-3.1,4.3C538.6,133.3,539.6,135.2,541.7,135.2z"/>
		<path class="st10" d="M551.4,136.6h-1.9v-11.5h1.8v1.9h0c0.8-1.3,1.8-2.2,3.2-2.2c0.2,0,0.4,0,0.5,0.1v2h-0.7
			c-1.8,0-2.9,1.4-2.9,3.1V136.6z"/>
		<path class="st10" d="M564.3,136.6v-1.7l0,0c-0.8,1.3-1.8,2-3.7,2c-1.7,0-3.7-0.8-3.7-3.6v-8.3h1.9v7.6c0,1.9,1,2.5,2.2,2.5
			c2.4,0,3.2-2.2,3.2-3.8v-6.3h1.9v11.5H564.3z"/>
		<path class="st10" d="M568.9,125.1h1.8v1.6h0c0.5-0.7,1.3-2,3.4-2c3.1,0,4.8,2.5,4.8,5.7c0,2.8-1.1,6.4-5.1,6.4
			c-1.5,0-2.6-0.7-3.1-1.5h0v5.8h-1.9V125.1z M573.9,135.2c2.1,0,3.1-1.9,3.1-4.4c0-1.5-0.2-4.3-3.1-4.3c-2.8,0-3.1,3-3.1,4.9
			C570.7,134.4,572.7,135.2,573.9,135.2z"/>
		<path class="st10" d="M586,124.7c3.7,0,5.3,3.1,5.3,6.1s-1.7,6.1-5.3,6.1c-3.7,0-5.3-3.1-5.3-6.1S582.3,124.7,586,124.7z
			 M586,135.2c2.8,0,3.3-2.9,3.3-4.4s-0.6-4.4-3.3-4.4c-2.8,0-3.3,2.9-3.3,4.4S583.2,135.2,586,135.2z"/>
		<path class="st10" d="M600.1,128.3c0-0.7-0.3-1.9-2.7-1.9c-0.6,0-2.3,0.2-2.3,1.6c0,0.9,0.6,1.2,2.1,1.5l1.9,0.5
			c2.4,0.6,3.2,1.5,3.2,3c0,2.4-2,3.8-4.6,3.8c-4.6,0-4.9-2.6-5-4h1.9c0.1,0.9,0.3,2.4,3.1,2.4c1.4,0,2.6-0.6,2.6-1.8
			c0-0.9-0.6-1.2-2.3-1.7l-2.2-0.6c-1.6-0.4-2.7-1.2-2.7-2.8c0-2.5,2.1-3.7,4.4-3.7c4.1,0,4.4,3,4.4,3.6H600.1z"/>
		<path class="st10" d="M474.5,163h-1.8v-1.6h0c-0.8,1.6-2.2,1.9-3.3,1.9c-3.9,0-5.1-3.7-5.1-6.4c0-3.2,1.7-5.7,4.8-5.7
			c2.1,0,3,1.3,3.4,2l0-0.2v-5.8h1.9V163z M469.4,161.6c1.2,0,3.1-0.8,3.1-3.9c0-1.9-0.3-4.9-3.1-4.9c-3,0-3.1,2.8-3.1,4.3
			C466.2,159.7,467.2,161.6,469.4,161.6z"/>
		<path class="st10" d="M486.9,159.4c-0.1,0.5-0.6,2.2-2,3.1c-0.5,0.4-1.3,0.8-3.1,0.8c-3.2,0-5.1-2.4-5.1-5.8
			c0-3.6,1.7-6.4,5.5-6.4c3.3,0,5,2.6,5,6.7h-8.4c0,2.4,1.1,3.8,3.3,3.8c1.8,0,2.9-1.4,3-2.3H486.9z M485.1,156.3
			c-0.1-1.8-0.9-3.4-3.2-3.4c-1.8,0-3.2,1.7-3.2,3.4H485.1z"/>
		<path class="st10" d="M503,163v-1.7l0,0c-0.8,1.3-1.8,2-3.7,2c-1.7,0-3.7-0.8-3.7-3.6v-8.3h1.9v7.6c0,1.9,1,2.5,2.2,2.5
			c2.4,0,3.2-2.2,3.2-3.8v-6.3h1.9V163H503z"/>
		<path class="st10" d="M514.3,154.7c0-0.7-0.3-1.9-2.7-1.9c-0.6,0-2.3,0.2-2.3,1.6c0,0.9,0.6,1.2,2.1,1.5l1.9,0.5
			c2.4,0.6,3.2,1.5,3.2,3c0,2.4-2,3.8-4.6,3.8c-4.6,0-4.9-2.6-5-4h1.9c0.1,0.9,0.3,2.4,3.1,2.4c1.4,0,2.6-0.6,2.6-1.8
			c0-0.9-0.6-1.2-2.3-1.7l-2.2-0.6c-1.6-0.4-2.7-1.2-2.7-2.8c0-2.5,2.1-3.7,4.4-3.7c4.1,0,4.4,3,4.4,3.6H514.3z"/>
		<path class="st10" d="M526.2,163v-1.7l0,0c-0.8,1.3-1.8,2-3.7,2c-1.7,0-3.7-0.8-3.7-3.6v-8.3h1.9v7.6c0,1.9,1,2.5,2.2,2.5
			c2.4,0,3.2-2.2,3.2-3.8v-6.3h1.9V163H526.2z"/>
		<path class="st10" d="M530.9,155c0.1-2.8,1.9-3.8,4.8-3.8c0.9,0,4.3,0.3,4.3,3.2v6.6c0,0.5,0.2,0.7,0.6,0.7c0.2,0,0.4,0,0.6-0.1
			v1.4c-0.3,0.1-0.6,0.2-1.1,0.2c-1.7,0-2-0.9-2-1.8c-0.7,0.8-1.9,1.9-4.2,1.9c-2.1,0-3.6-1.3-3.6-3.3c0-1,0.3-3.2,3.5-3.6l3.2-0.4
			c0.5,0,1-0.2,1-1.4c0-1.2-0.9-1.9-2.7-1.9c-2.2,0-2.5,1.3-2.6,2.2H530.9z M538,157.1c-0.3,0.2-0.8,0.4-3.2,0.7
			c-0.9,0.1-2.5,0.4-2.5,1.9c0,1.3,0.6,2,2.1,2c1.8,0,3.6-1.2,3.6-2.7V157.1z M536.1,149.9h-1.5l2-3.1h2.4L536.1,149.9z"/>
		<path class="st10" d="M545.4,163h-1.9v-11.5h1.8v1.9h0c0.8-1.3,1.8-2.2,3.2-2.2c0.2,0,0.4,0,0.5,0.1v2h-0.7
			c-1.8,0-2.9,1.4-2.9,3.1V163z"/>
		<path class="st10" d="M550.9,149.4v-2.2h1.9v2.2H550.9z M552.8,163h-1.9v-11.5h1.9V163z"/>
		<path class="st10" d="M560.4,151.1c3.7,0,5.3,3.1,5.3,6.1s-1.7,6.1-5.3,6.1c-3.7,0-5.3-3.1-5.3-6.1S556.7,151.1,560.4,151.1z
			 M560.4,161.6c2.8,0,3.3-2.9,3.3-4.4s-0.6-4.4-3.3-4.4s-3.3,2.9-3.3,4.4S557.6,161.6,560.4,161.6z"/>
		<path class="st10" d="M574.5,154.7c0-0.7-0.3-1.9-2.7-1.9c-0.6,0-2.3,0.2-2.3,1.6c0,0.9,0.6,1.2,2.1,1.5l1.9,0.5
			c2.4,0.6,3.2,1.5,3.2,3c0,2.4-2,3.8-4.6,3.8c-4.6,0-4.9-2.6-5-4h1.9c0.1,0.9,0.3,2.4,3.1,2.4c1.4,0,2.6-0.6,2.6-1.8
			c0-0.9-0.6-1.2-2.3-1.7l-2.2-0.6c-1.6-0.4-2.7-1.2-2.7-2.8c0-2.5,2.1-3.7,4.4-3.7c4.1,0,4.4,3,4.4,3.6H574.5z"/>
	</g>
</g>
<g transform="translate(-0.5 -0.5)">
	<g class="st9">
		<path class="st10" d="M1453.5,127.4l-1.7,4.6h-2.2l5.9-15.8h2.4l5.7,15.8h-2.3l-1.6-4.6H1453.5z M1459.1,125.5l-2.3-7h0l-2.5,7
			H1459.1z"/>
		<path class="st10" d="M1475,132h-1.8v-1.6h0c-0.8,1.6-2.2,1.9-3.3,1.9c-3.9,0-5.1-3.7-5.1-6.4c0-3.2,1.7-5.7,4.8-5.7
			c2.1,0,3,1.3,3.4,2l0-0.2v-5.8h1.9V132z M1469.9,130.7c1.2,0,3.1-0.8,3.1-3.9c0-1.9-0.3-4.9-3.1-4.9c-3,0-3.1,2.8-3.1,4.3
			C1466.8,128.8,1467.8,130.7,1469.9,130.7z"/>
		<path class="st10" d="M1477.7,118.4v-2.2h1.9v2.2H1477.7z M1479.6,132h-1.9v-11.5h1.9V132z"/>
		<path class="st10" d="M1489.7,124.4c-0.2-1.5-1.1-2.5-2.7-2.5c-2.4,0-3.2,2.3-3.2,4.3c0,2,0.5,4.4,3.1,4.4c1.3,0,2.4-1,2.8-2.7
			h1.9c-0.2,1.8-1.3,4.4-4.7,4.4c-3.2,0-5.1-2.4-5.1-5.8c0-3.6,1.7-6.4,5.5-6.4c3,0,4.2,2.2,4.3,4.2H1489.7z"/>
		<path class="st10" d="M1493.6,118.4v-2.2h1.9v2.2H1493.6z M1495.5,132h-1.9v-11.5h1.9V132z"/>
		<path class="st10" d="M1503.1,120.2c3.7,0,5.3,3.1,5.3,6.1s-1.7,6.1-5.3,6.1s-5.3-3.1-5.3-6.1S1499.4,120.2,1503.1,120.2z
			 M1503.1,130.7c2.8,0,3.3-2.9,3.3-4.4s-0.6-4.4-3.3-4.4s-3.3,2.9-3.3,4.4S1500.3,130.7,1503.1,130.7z"/>
		<path class="st10" d="M1520,132h-1.9v-7.1c0-2-0.6-3-2.5-3c-1.1,0-3,0.7-3,3.8v6.3h-1.9v-11.5h1.8v1.6h0c0.4-0.6,1.5-2,3.5-2
			c1.8,0,4,0.7,4,4V132z"/>
		<path class="st10" d="M1522.8,124c0.1-2.8,1.9-3.8,4.8-3.8c0.9,0,4.3,0.3,4.3,3.2v6.6c0,0.5,0.2,0.7,0.6,0.7c0.2,0,0.4,0,0.6-0.1
			v1.4c-0.3,0.1-0.6,0.2-1.1,0.2c-1.7,0-2-0.9-2-1.8c-0.7,0.8-1.9,1.9-4.2,1.9c-2.1,0-3.6-1.3-3.6-3.3c0-1,0.3-3.2,3.5-3.6l3.2-0.4
			c0.5,0,1-0.2,1-1.4c0-1.2-0.9-1.9-2.7-1.9c-2.2,0-2.5,1.3-2.6,2.2H1522.8z M1529.9,126.1c-0.3,0.2-0.8,0.4-3.2,0.7
			c-0.9,0.1-2.5,0.4-2.5,1.9c0,1.3,0.6,2,2.1,2c1.8,0,3.6-1.2,3.6-2.7V126.1z"/>
		<path class="st10" d="M1537.3,132h-1.9v-11.5h1.8v1.9h0c0.8-1.3,1.8-2.2,3.2-2.2c0.2,0,0.4,0,0.5,0.1v2h-0.7
			c-1.8,0-2.9,1.4-2.9,3.1V132z"/>
		<path class="st10" d="M1556.1,132v-1.7l0,0c-0.8,1.3-1.8,2-3.7,2c-1.7,0-3.7-0.8-3.7-3.6v-8.3h1.9v7.6c0,1.9,1,2.5,2.2,2.5
			c2.4,0,3.2-2.2,3.2-3.8v-6.3h1.9V132H1556.1z"/>
		<path class="st10" d="M1567.3,123.8c0-0.7-0.3-1.9-2.7-1.9c-0.6,0-2.3,0.2-2.3,1.6c0,0.9,0.6,1.2,2.1,1.5l1.9,0.5
			c2.4,0.6,3.2,1.5,3.2,3c0,2.4-2,3.8-4.6,3.8c-4.6,0-4.9-2.6-5-4h1.9c0.1,0.9,0.3,2.4,3.1,2.4c1.4,0,2.6-0.6,2.6-1.8
			c0-0.9-0.6-1.2-2.3-1.7l-2.2-0.6c-1.6-0.4-2.7-1.2-2.7-2.8c0-2.5,2.1-3.7,4.4-3.7c4.1,0,4.4,3,4.4,3.6H1567.3z"/>
		<path class="st10" d="M1579.3,132v-1.7l0,0c-0.8,1.3-1.8,2-3.7,2c-1.7,0-3.7-0.8-3.7-3.6v-8.3h1.9v7.6c0,1.9,1,2.5,2.2,2.5
			c2.4,0,3.2-2.2,3.2-3.8v-6.3h1.9V132H1579.3z"/>
		<path class="st10" d="M1584,124c0.1-2.8,1.9-3.8,4.8-3.8c0.9,0,4.3,0.3,4.3,3.2v6.6c0,0.5,0.2,0.7,0.6,0.7c0.2,0,0.4,0,0.6-0.1
			v1.4c-0.3,0.1-0.6,0.2-1.1,0.2c-1.7,0-2-0.9-2-1.8c-0.7,0.8-1.9,1.9-4.2,1.9c-2.1,0-3.6-1.3-3.6-3.3c0-1,0.3-3.2,3.5-3.6l3.2-0.4
			c0.5,0,1-0.2,1-1.4c0-1.2-0.9-1.9-2.7-1.9c-2.2,0-2.5,1.3-2.6,2.2H1584z M1591.1,126.1c-0.3,0.2-0.8,0.4-3.2,0.7
			c-0.9,0.1-2.5,0.4-2.5,1.9c0,1.3,0.6,2,2.1,2c1.8,0,3.6-1.2,3.6-2.7V126.1z M1589.2,119h-1.5l2-3.1h2.4L1589.2,119z"/>
		<path class="st10" d="M1598.5,132h-1.9v-11.5h1.8v1.9h0c0.8-1.3,1.8-2.2,3.2-2.2c0.2,0,0.4,0,0.5,0.1v2h-0.7
			c-1.8,0-2.9,1.4-2.9,3.1V132z"/>
		<path class="st10" d="M1604,118.4v-2.2h1.9v2.2H1604z M1605.9,132h-1.9v-11.5h1.9V132z"/>
		<path class="st10" d="M1613.5,120.2c3.7,0,5.3,3.1,5.3,6.1s-1.7,6.1-5.3,6.1s-5.3-3.1-5.3-6.1S1609.8,120.2,1613.5,120.2z
			 M1613.5,130.7c2.8,0,3.3-2.9,3.3-4.4s-0.6-4.4-3.3-4.4s-3.3,2.9-3.3,4.4S1610.7,130.7,1613.5,130.7z"/>
		<path class="st10" d="M1627.6,123.8c0-0.7-0.3-1.9-2.7-1.9c-0.6,0-2.3,0.2-2.3,1.6c0,0.9,0.6,1.2,2.1,1.5l1.9,0.5
			c2.4,0.6,3.2,1.5,3.2,3c0,2.4-2,3.8-4.6,3.8c-4.6,0-4.9-2.6-5-4h1.9c0.1,0.9,0.3,2.4,3.1,2.4c1.4,0,2.6-0.6,2.6-1.8
			c0-0.9-0.6-1.2-2.3-1.7l-2.2-0.6c-1.6-0.4-2.7-1.2-2.7-2.8c0-2.5,2.1-3.7,4.4-3.7c4.1,0,4.4,3,4.4,3.6H1627.6z"/>
		<path class="st10" d="M1498.5,150.4c0.1-2.8,1.9-3.8,4.8-3.8c0.9,0,4.3,0.3,4.3,3.2v6.6c0,0.5,0.2,0.7,0.6,0.7
			c0.2,0,0.4,0,0.6-0.1v1.4c-0.3,0.1-0.6,0.2-1.1,0.2c-1.7,0-2-0.9-2-1.8c-0.7,0.8-1.9,1.9-4.2,1.9c-2.1,0-3.6-1.3-3.6-3.3
			c0-1,0.3-3.2,3.5-3.6l3.2-0.4c0.5,0,1-0.2,1-1.4c0-1.2-0.9-1.9-2.7-1.9c-2.2,0-2.5,1.3-2.6,2.2H1498.5z M1505.6,152.5
			c-0.3,0.2-0.8,0.4-3.2,0.7c-0.9,0.1-2.5,0.4-2.5,1.9c0,1.3,0.6,2,2.1,2c1.8,0,3.6-1.2,3.6-2.7V152.5z"/>
		<path class="st10" d="M1526.4,157.5c0,1.7,0,5.8-5.3,5.8c-1.4,0-4-0.4-4.4-3.4h1.9c0.4,1.8,2.1,1.8,2.6,1.8c3.3,0,3.3-2.7,3.3-4
			v-0.5h0v0.1c-0.5,0.8-1.5,1.5-3.1,1.5c-3.9,0-5.1-3.7-5.1-6.4c0-3.2,1.7-5.7,4.8-5.7c2.1,0,3,1.3,3.4,2h0v-1.6h1.8V157.5z
			 M1521.4,157.1c1.2,0,3.1-0.8,3.1-3.9c0-1.9-0.3-4.9-3.1-4.9c-3,0-3.1,2.8-3.1,4.3C1518.3,155.2,1519.3,157.1,1521.4,157.1z"/>
		<path class="st10" d="M1531.1,158.4h-1.9v-11.5h1.8v1.9h0c0.8-1.3,1.8-2.2,3.2-2.2c0.2,0,0.4,0,0.5,0.1v2h-0.7
			c-1.8,0-2.9,1.4-2.9,3.1V158.4z"/>
		<path class="st10" d="M1544.1,158.4v-1.7l0,0c-0.8,1.3-1.8,2-3.7,2c-1.7,0-3.7-0.8-3.7-3.6v-8.3h1.9v7.6c0,1.9,1,2.5,2.2,2.5
			c2.4,0,3.2-2.2,3.2-3.8v-6.3h1.9v11.5H1544.1z"/>
		<path class="st10" d="M1548.6,146.9h1.8v1.6h0c0.5-0.7,1.3-2,3.4-2c3.1,0,4.8,2.5,4.8,5.7c0,2.8-1.1,6.4-5.1,6.4
			c-1.5,0-2.6-0.7-3.1-1.5h0v5.8h-1.9V146.9z M1553.6,157.1c2.1,0,3.1-1.9,3.1-4.4c0-1.5-0.2-4.3-3.1-4.3c-2.8,0-3.1,3-3.1,4.9
			C1550.5,156.3,1552.4,157.1,1553.6,157.1z"/>
		<path class="st10" d="M1565.7,146.6c3.7,0,5.3,3.1,5.3,6.1s-1.7,6.1-5.3,6.1s-5.3-3.1-5.3-6.1S1562,146.6,1565.7,146.6z
			 M1565.7,157.1c2.8,0,3.3-2.9,3.3-4.4s-0.6-4.4-3.3-4.4s-3.3,2.9-3.3,4.4S1562.9,157.1,1565.7,157.1z"/>
		<path class="st10" d="M1579.8,150.2c0-0.7-0.3-1.9-2.7-1.9c-0.6,0-2.3,0.2-2.3,1.6c0,0.9,0.6,1.2,2.1,1.5l1.9,0.5
			c2.4,0.6,3.2,1.5,3.2,3c0,2.4-2,3.8-4.6,3.8c-4.6,0-4.9-2.6-5-4h1.9c0.1,0.9,0.3,2.4,3.1,2.4c1.4,0,2.6-0.6,2.6-1.8
			c0-0.9-0.6-1.2-2.3-1.7l-2.2-0.6c-1.6-0.4-2.7-1.2-2.7-2.8c0-2.5,2.1-3.7,4.4-3.7c4.1,0,4.4,3,4.4,3.6H1579.8z"/>
	</g>
</g>
<g transform="translate(-0.5 -0.5)">
	<g class="st9">
		<path class="st10" d="M1142.5,385.6c-0.6-2.8-2.9-3.3-4.4-3.3c-2.9,0-5.2,2.1-5.2,6.3c0,3.7,1.3,6.6,5.2,6.6
			c1.4,0,3.8-0.7,4.5-4.3h2.1c-0.9,6-5.7,6.2-6.9,6.2c-3.6,0-7.1-2.3-7.1-8.4c0-4.9,2.8-8.2,7.4-8.2c4.1,0,6.2,2.5,6.5,5.2H1142.5z"
			/>
		<path class="st10" d="M1151.7,384.8c3.7,0,5.3,3.1,5.3,6.1s-1.7,6.1-5.3,6.1s-5.3-3.1-5.3-6.1S1148,384.8,1151.7,384.8z
			 M1151.7,395.3c2.8,0,3.3-2.9,3.3-4.4s-0.6-4.4-3.3-4.4s-3.3,2.9-3.3,4.4S1148.9,395.3,1151.7,395.3z"/>
		<path class="st10" d="M1168.6,396.7h-1.9v-7.1c0-2-0.6-3-2.5-3c-1.1,0-3,0.7-3,3.8v6.3h-1.9v-11.5h1.8v1.6h0c0.4-0.6,1.5-2,3.5-2
			c1.8,0,4,0.7,4,4V396.7z"/>
		<path class="st10" d="M1173.9,386.8v9.9h-1.9v-9.9h-1.6v-1.6h1.6v-2c0-1.7,1.1-2.5,3-2.5c0.3,0,0.6,0,0.9,0v1.7
			c-0.2,0-0.5,0-0.8,0c-0.8,0-1.1,0.4-1.1,1.3v1.4h1.9v1.6H1173.9z"/>
		<path class="st10" d="M1177.6,383.1v-2.2h1.9v2.2H1177.6z M1179.6,396.7h-1.9v-11.5h1.9V396.7z"/>
		<path class="st10" d="M1192,395.7c0,1.7,0,5.8-5.3,5.8c-1.4,0-4-0.4-4.4-3.4h1.9c0.4,1.8,2.1,1.8,2.6,1.8c3.3,0,3.3-2.7,3.3-4
			v-0.5h0v0.1c-0.5,0.8-1.5,1.5-3.1,1.5c-3.9,0-5.1-3.7-5.1-6.4c0-3.2,1.7-5.7,4.8-5.7c2.1,0,3,1.3,3.4,2h0v-1.6h1.8V395.7z
			 M1187,395.3c1.2,0,3.1-0.8,3.1-3.9c0-1.9-0.3-4.9-3.1-4.9c-3,0-3.1,2.8-3.1,4.3C1183.9,393.4,1184.9,395.3,1187,395.3z"/>
		<path class="st10" d="M1202.2,396.7V395l0,0c-0.8,1.3-1.8,2-3.7,2c-1.7,0-3.7-0.8-3.7-3.6v-8.3h1.9v7.6c0,1.9,1,2.5,2.2,2.5
			c2.4,0,3.2-2.2,3.2-3.8v-6.3h1.9v11.5H1202.2z"/>
		<path class="st10" d="M1209.1,396.7h-1.9v-11.5h1.8v1.9h0c0.8-1.3,1.8-2.2,3.2-2.2c0.2,0,0.4,0,0.5,0.1v2h-0.7
			c-1.8,0-2.9,1.4-2.9,3.1V396.7z"/>
		<path class="st10" d="M1214,388.7c0.1-2.8,1.9-3.8,4.8-3.8c0.9,0,4.3,0.3,4.3,3.2v6.6c0,0.5,0.2,0.7,0.6,0.7c0.2,0,0.4,0,0.6-0.1
			v1.4c-0.3,0.1-0.6,0.2-1.1,0.2c-1.7,0-2-0.9-2-1.8c-0.7,0.8-1.9,1.9-4.2,1.9c-2.1,0-3.6-1.3-3.6-3.3c0-1,0.3-3.2,3.5-3.6l3.2-0.4
			c0.5,0,1-0.2,1-1.4c0-1.2-0.9-1.9-2.7-1.9c-2.2,0-2.5,1.3-2.6,2.2H1214z M1221.1,390.8c-0.3,0.2-0.8,0.4-3.2,0.7
			c-0.9,0.1-2.5,0.4-2.5,1.9c0,1.3,0.6,2,2.1,2c1.8,0,3.6-1.2,3.6-2.7V390.8z"/>
		<path class="st10" d="M1228.5,396.7h-1.9v-11.5h1.8v1.9h0c0.8-1.3,1.8-2.2,3.2-2.2c0.2,0,0.4,0,0.5,0.1v2h-0.7
			c-1.8,0-2.9,1.4-2.9,3.1V396.7z"/>
		<path class="st10" d="M1125.7,411.6h1.8v1.6h0c0.5-0.7,1.3-2,3.4-2c3.1,0,4.8,2.5,4.8,5.7c0,2.8-1.1,6.4-5.1,6.4
			c-1.5,0-2.6-0.7-3.1-1.5h0v5.8h-1.9V411.6z M1130.7,421.7c2.1,0,3.1-1.9,3.1-4.4c0-1.5-0.2-4.3-3.1-4.3c-2.8,0-3.1,3-3.1,4.9
			C1127.6,420.9,1129.5,421.7,1130.7,421.7z"/>
		<path class="st10" d="M1147.9,419.5c-0.1,0.5-0.6,2.2-2,3.1c-0.5,0.4-1.3,0.8-3.1,0.8c-3.2,0-5.1-2.4-5.1-5.8
			c0-3.6,1.7-6.4,5.5-6.4c3.3,0,5,2.6,5,6.7h-8.4c0,2.4,1.1,3.8,3.3,3.8c1.8,0,2.9-1.4,3-2.3H1147.9z M1146,416.4
			c-0.1-1.8-0.9-3.4-3.2-3.4c-1.8,0-3.2,1.7-3.2,3.4H1146z"/>
		<path class="st10" d="M1152.5,423.1h-1.9v-11.5h1.8v1.9h0c0.8-1.3,1.8-2.2,3.2-2.2c0.2,0,0.4,0,0.5,0.1v2h-0.7
			c-1.8,0-2.9,1.4-2.9,3.1V423.1z"/>
		<path class="st10" d="M1158.2,411.6h1.8v1.6h0c0.4-0.6,1.4-2,3.5-2s2.7,1.3,3.1,1.9c1-1.1,1.7-1.9,3.5-1.9c1.2,0,3.6,0.6,3.6,3.9
			v8h-1.9v-7.4c0-1.6-0.5-2.7-2.1-2.7c-1.6,0-2.7,1.5-2.7,3.1v7h-1.9v-8c0-1-0.4-2.1-1.8-2.1c-1.1,0-3,0.7-3,3.8v6.3h-1.9V411.6z"/>
		<path class="st10" d="M1176.6,409.5v-2.2h1.9v2.2H1176.6z M1178.5,423.1h-1.9v-11.5h1.9V423.1z"/>
		<path class="st10" d="M1187.9,414.9c0-0.7-0.3-1.9-2.7-1.9c-0.6,0-2.3,0.2-2.3,1.6c0,0.9,0.6,1.2,2.1,1.5l1.9,0.5
			c2.4,0.6,3.2,1.5,3.2,3c0,2.4-2,3.8-4.6,3.8c-4.6,0-4.9-2.6-5-4h1.9c0.1,0.9,0.3,2.4,3.1,2.4c1.4,0,2.6-0.6,2.6-1.8
			c0-0.9-0.6-1.2-2.3-1.7l-2.2-0.6c-1.6-0.4-2.7-1.2-2.7-2.8c0-2.5,2.1-3.7,4.4-3.7c4.1,0,4.4,3,4.4,3.6H1187.9z"/>
		<path class="st10" d="M1198.9,414.9c0-0.7-0.3-1.9-2.7-1.9c-0.6,0-2.3,0.2-2.3,1.6c0,0.9,0.6,1.2,2.1,1.5l1.9,0.5
			c2.4,0.6,3.2,1.5,3.2,3c0,2.4-2,3.8-4.6,3.8c-4.6,0-4.9-2.6-5-4h1.9c0.1,0.9,0.3,2.4,3.1,2.4c1.4,0,2.6-0.6,2.6-1.8
			c0-0.9-0.6-1.2-2.3-1.7l-2.2-0.6c-1.6-0.4-2.7-1.2-2.7-2.8c0-2.5,2.1-3.7,4.4-3.7c4.1,0,4.4,3,4.4,3.6H1198.9z"/>
		<path class="st10" d="M1208.1,411.3c3.7,0,5.3,3.1,5.3,6.1s-1.7,6.1-5.3,6.1s-5.3-3.1-5.3-6.1S1204.4,411.3,1208.1,411.3z
			 M1211.9,407.2c-0.2,1.3-0.9,2.4-2.2,2.4c-0.4,0-0.7-0.1-1.3-0.3l-0.6-0.2c-0.8-0.3-1.1-0.3-1.3-0.3c-0.6,0-0.9,0.4-1,1h-1.1
			c0.2-1.3,0.8-2.4,2.3-2.4c0.6,0,1,0.2,1.5,0.3l0.5,0.2c0.4,0.2,0.9,0.3,1,0.3c0.9,0,1-0.6,1.1-1H1211.9z M1208.1,421.7
			c2.8,0,3.3-2.9,3.3-4.4s-0.6-4.4-3.3-4.4s-3.3,2.9-3.3,4.4S1205.3,421.7,1208.1,421.7z"/>
		<path class="st10" d="M1225.4,419.5c-0.1,0.5-0.6,2.2-2,3.1c-0.5,0.4-1.3,0.8-3.1,0.8c-3.2,0-5.1-2.4-5.1-5.8
			c0-3.6,1.7-6.4,5.5-6.4c3.3,0,5,2.6,5,6.7h-8.4c0,2.4,1.1,3.8,3.3,3.8c1.8,0,2.9-1.4,3-2.3H1225.4z M1223.6,416.4
			c-0.1-1.8-0.9-3.4-3.2-3.4c-1.8,0-3.2,1.7-3.2,3.4H1223.6z"/>
		<path class="st10" d="M1234.4,414.9c0-0.7-0.3-1.9-2.7-1.9c-0.6,0-2.3,0.2-2.3,1.6c0,0.9,0.6,1.2,2.1,1.5l1.9,0.5
			c2.4,0.6,3.2,1.5,3.2,3c0,2.4-2,3.8-4.6,3.8c-4.6,0-4.9-2.6-5-4h1.9c0.1,0.9,0.3,2.4,3.1,2.4c1.4,0,2.6-0.6,2.6-1.8
			c0-0.9-0.6-1.2-2.3-1.7l-2.2-0.6c-1.6-0.4-2.7-1.2-2.7-2.8c0-2.5,2.1-3.7,4.4-3.7c4.1,0,4.4,3,4.4,3.6H1234.4z"/>
	</g>
</g>
<g transform="translate(-0.5 -0.5)">
	<g class="st9">
		<path class="st10" d="M1221.7,549.6c-0.6-2.8-2.9-3.3-4.4-3.3c-2.9,0-5.2,2.1-5.2,6.3c0,3.7,1.3,6.6,5.2,6.6
			c1.4,0,3.8-0.7,4.5-4.3h2.1c-0.9,6-5.7,6.2-6.9,6.2c-3.6,0-7.1-2.3-7.1-8.4c0-4.9,2.8-8.2,7.4-8.2c4.1,0,6.2,2.5,6.5,5.2H1221.7z"
			/>
		<path class="st10" d="M1230.9,548.8c3.7,0,5.3,3.1,5.3,6.1s-1.7,6.1-5.3,6.1s-5.3-3.1-5.3-6.1S1227.2,548.8,1230.9,548.8z
			 M1230.9,559.3c2.8,0,3.3-2.9,3.3-4.4s-0.6-4.4-3.3-4.4s-3.3,2.9-3.3,4.4S1228.1,559.3,1230.9,559.3z"/>
		<path class="st10" d="M1247.8,560.7h-1.9v-7.1c0-2-0.6-3-2.5-3c-1.1,0-3,0.7-3,3.8v6.3h-1.9v-11.5h1.8v1.6h0c0.4-0.6,1.5-2,3.5-2
			c1.8,0,4,0.7,4,4V560.7z"/>
		<path class="st10" d="M1253.1,550.8v9.9h-1.9v-9.9h-1.6v-1.6h1.6v-2c0-1.7,1.1-2.5,3-2.5c0.3,0,0.6,0,0.9,0v1.7
			c-0.2,0-0.5,0-0.8,0c-0.8,0-1.1,0.4-1.1,1.3v1.4h1.9v1.6H1253.1z"/>
		<path class="st10" d="M1256.8,547.1v-2.2h1.9v2.2H1256.8z M1258.8,560.7h-1.9v-11.5h1.9V560.7z"/>
		<path class="st10" d="M1271.2,559.7c0,1.7,0,5.8-5.3,5.8c-1.4,0-4-0.4-4.4-3.4h1.9c0.4,1.8,2.1,1.8,2.6,1.8c3.3,0,3.3-2.7,3.3-4
			v-0.5h0v0.1c-0.5,0.8-1.5,1.5-3.1,1.5c-3.9,0-5.1-3.7-5.1-6.4c0-3.2,1.7-5.7,4.8-5.7c2.1,0,3,1.3,3.4,2h0v-1.6h1.8V559.7z
			 M1266.2,559.3c1.2,0,3.1-0.8,3.1-3.9c0-1.9-0.3-4.9-3.1-4.9c-3,0-3.1,2.8-3.1,4.3C1263.1,557.4,1264.1,559.3,1266.2,559.3z"/>
		<path class="st10" d="M1281.4,560.7V559l0,0c-0.8,1.3-1.8,2-3.7,2c-1.7,0-3.7-0.8-3.7-3.6v-8.3h1.9v7.6c0,1.9,1,2.5,2.2,2.5
			c2.4,0,3.2-2.2,3.2-3.8v-6.3h1.9v11.5H1281.4z"/>
		<path class="st10" d="M1288.3,560.7h-1.9v-11.5h1.8v1.9h0c0.8-1.3,1.8-2.2,3.2-2.2c0.2,0,0.4,0,0.5,0.1v2h-0.7
			c-1.8,0-2.9,1.4-2.9,3.1V560.7z"/>
		<path class="st10" d="M1293.2,552.7c0.1-2.8,1.9-3.8,4.8-3.8c0.9,0,4.3,0.3,4.3,3.2v6.6c0,0.5,0.2,0.7,0.6,0.7
			c0.2,0,0.4,0,0.6-0.1v1.4c-0.3,0.1-0.6,0.2-1.1,0.2c-1.7,0-2-0.9-2-1.8c-0.7,0.8-1.9,1.9-4.2,1.9c-2.1,0-3.6-1.3-3.6-3.3
			c0-1,0.3-3.2,3.5-3.6l3.2-0.4c0.5,0,1-0.2,1-1.4c0-1.2-0.9-1.9-2.7-1.9c-2.2,0-2.5,1.3-2.6,2.2H1293.2z M1300.3,554.8
			c-0.3,0.2-0.8,0.4-3.2,0.7c-0.9,0.1-2.5,0.4-2.5,1.9c0,1.3,0.6,2,2.1,2c1.8,0,3.6-1.2,3.6-2.7V554.8z"/>
		<path class="st10" d="M1307.7,560.7h-1.9v-11.5h1.8v1.9h0c0.8-1.3,1.8-2.2,3.2-2.2c0.2,0,0.4,0,0.5,0.1v2h-0.7
			c-1.8,0-2.9,1.4-2.9,3.1V560.7z"/>
		<path class="st10" d="M1209.6,577.2v9.9h-1.9v-9.9h-1.6v-1.6h1.6v-2c0-1.7,1.1-2.5,3-2.5c0.3,0,0.6,0,0.9,0v1.7
			c-0.2,0-0.5,0-0.8,0c-0.8,0-1.1,0.4-1.1,1.3v1.4h1.9v1.6H1209.6z"/>
		<path class="st10" d="M1217.3,575.3c3.7,0,5.3,3.1,5.3,6.1s-1.7,6.1-5.3,6.1c-3.7,0-5.3-3.1-5.3-6.1S1213.6,575.3,1217.3,575.3z
			 M1217.3,585.7c2.8,0,3.3-2.9,3.3-4.4s-0.6-4.4-3.3-4.4s-3.3,2.9-3.3,4.4S1214.5,585.7,1217.3,585.7z"/>
		<path class="st10" d="M1227.1,587.1h-1.9v-11.5h1.8v1.9h0c0.8-1.3,1.8-2.2,3.2-2.2c0.2,0,0.4,0,0.5,0.1v2h-0.7
			c-1.8,0-2.9,1.4-2.9,3.1V587.1z"/>
		<path class="st10" d="M1232.7,575.6h1.8v1.6h0c0.4-0.6,1.4-2,3.5-2s2.7,1.3,3.1,1.9c1-1.1,1.7-1.9,3.5-1.9c1.2,0,3.6,0.6,3.6,3.9
			v8h-1.9v-7.4c0-1.6-0.5-2.7-2.1-2.7c-1.6,0-2.7,1.5-2.7,3.1v7h-1.9v-8c0-1-0.4-2.1-1.8-2.1c-1.1,0-3,0.7-3,3.8v6.3h-1.9V575.6z"/>
		<path class="st10" d="M1258.3,587.1v-1.7l0,0c-0.8,1.3-1.8,2-3.7,2c-1.7,0-3.7-0.8-3.7-3.6v-8.3h1.9v7.6c0,1.9,1,2.5,2.2,2.5
			c2.4,0,3.2-2.2,3.2-3.8v-6.3h1.9v11.5H1258.3z"/>
		<path class="st10" d="M1265,587.1h-1.9v-15.8h1.9V587.1z"/>
		<path class="st10" d="M1267.9,579.1c0.1-2.8,1.9-3.8,4.8-3.8c0.9,0,4.3,0.3,4.3,3.2v6.6c0,0.5,0.2,0.7,0.6,0.7
			c0.2,0,0.4,0,0.6-0.1v1.4c-0.3,0.1-0.6,0.2-1.1,0.2c-1.7,0-2-0.9-2-1.8c-0.7,0.8-1.9,1.9-4.2,1.9c-2.1,0-3.6-1.3-3.6-3.3
			c0-1,0.3-3.2,3.5-3.6l3.2-0.4c0.5,0,1-0.2,1-1.4c0-1.2-0.9-1.9-2.7-1.9c-2.2,0-2.5,1.3-2.6,2.2H1267.9z M1275,581.2
			c-0.3,0.2-0.8,0.4-3.2,0.7c-0.9,0.1-2.5,0.4-2.5,1.9c0,1.3,0.6,2,2.1,2c1.8,0,3.6-1.2,3.6-2.7V581.2z M1273.1,574h-1.5l2-3.1h2.4
			L1273.1,574z"/>
		<path class="st10" d="M1282.4,587.1h-1.9v-11.5h1.8v1.9h0c0.8-1.3,1.8-2.2,3.2-2.2c0.2,0,0.4,0,0.5,0.1v2h-0.7
			c-1.8,0-2.9,1.4-2.9,3.1V587.1z"/>
		<path class="st10" d="M1287.9,573.5v-2.2h1.9v2.2H1287.9z M1289.8,587.1h-1.9v-11.5h1.9V587.1z"/>
		<path class="st10" d="M1297.4,575.3c3.7,0,5.3,3.1,5.3,6.1s-1.7,6.1-5.3,6.1c-3.7,0-5.3-3.1-5.3-6.1S1293.7,575.3,1297.4,575.3z
			 M1297.4,585.7c2.8,0,3.3-2.9,3.3-4.4s-0.6-4.4-3.3-4.4s-3.3,2.9-3.3,4.4S1294.6,585.7,1297.4,585.7z"/>
		<path class="st10" d="M1311.5,578.9c0-0.7-0.3-1.9-2.7-1.9c-0.6,0-2.3,0.2-2.3,1.6c0,0.9,0.6,1.2,2.1,1.5l1.9,0.5
			c2.4,0.6,3.2,1.5,3.2,3c0,2.4-2,3.8-4.6,3.8c-4.6,0-4.9-2.6-5-4h1.9c0.1,0.9,0.3,2.4,3.1,2.4c1.4,0,2.6-0.6,2.6-1.8
			c0-0.9-0.6-1.2-2.3-1.7l-2.2-0.6c-1.6-0.4-2.7-1.2-2.7-2.8c0-2.5,2.1-3.7,4.4-3.7c4.1,0,4.4,3,4.4,3.6H1311.5z"/>
		<path class="st10" d="M1201.4,613.5h-1.8v-1.6h0c-0.8,1.6-2.2,1.9-3.3,1.9c-3.9,0-5.1-3.7-5.1-6.4c0-3.2,1.7-5.7,4.8-5.7
			c2.1,0,3,1.3,3.4,2l0-0.2v-5.8h1.9V613.5z M1196.3,612.1c1.2,0,3.1-0.8,3.1-3.9c0-1.9-0.3-4.9-3.1-4.9c-3,0-3.1,2.8-3.1,4.3
			C1193.2,610.2,1194.2,612.1,1196.3,612.1z"/>
		<path class="st10" d="M1213.9,609.9c-0.1,0.5-0.6,2.2-2,3.1c-0.5,0.4-1.3,0.8-3.1,0.8c-3.2,0-5.1-2.4-5.1-5.8
			c0-3.6,1.7-6.4,5.5-6.4c3.3,0,5,2.6,5,6.7h-8.4c0,2.4,1.1,3.8,3.3,3.8c1.8,0,2.9-1.4,3-2.3H1213.9z M1212,606.8
			c-0.1-1.8-0.9-3.4-3.2-3.4c-1.8,0-3.2,1.7-3.2,3.4H1212z"/>
		<path class="st10" d="M1222.4,602h1.8v1.6h0c0.4-0.6,1.4-2,3.5-2s2.7,1.3,3.1,1.9c1-1.1,1.7-1.9,3.5-1.9c1.2,0,3.6,0.6,3.6,3.9v8
			h-1.9v-7.4c0-1.6-0.5-2.7-2.1-2.7c-1.6,0-2.7,1.5-2.7,3.1v7h-1.9v-8c0-1-0.4-2.1-1.8-2.1c-1.1,0-3,0.7-3,3.8v6.3h-1.9V602z"/>
		<path class="st10" d="M1250.5,609.9c-0.1,0.5-0.6,2.2-2,3.1c-0.5,0.4-1.3,0.8-3.1,0.8c-3.2,0-5.1-2.4-5.1-5.8
			c0-3.6,1.7-6.4,5.5-6.4c3.3,0,5,2.6,5,6.7h-8.4c0,2.4,1.1,3.8,3.3,3.8c1.8,0,2.9-1.4,3-2.3H1250.5z M1248.7,606.8
			c-0.1-1.8-0.9-3.4-3.2-3.4c-1.8,0-3.2,1.7-3.2,3.4H1248.7z"/>
		<path class="st10" d="M1255.4,603.6v7.5c0,0.9,0.8,0.9,1.2,0.9h0.7v1.5c-0.7,0.1-1.3,0.2-1.5,0.2c-1.9,0-2.3-1.1-2.3-2.5v-7.6
			h-1.6V602h1.6v-3.2h1.9v3.2h1.8v1.6H1255.4z"/>
		<path class="st10" d="M1259,605.5c0.1-2.8,1.9-3.8,4.8-3.8c0.9,0,4.3,0.3,4.3,3.2v6.6c0,0.5,0.2,0.7,0.6,0.7c0.2,0,0.4,0,0.6-0.1
			v1.4c-0.3,0.1-0.6,0.2-1.1,0.2c-1.7,0-2-0.9-2-1.8c-0.7,0.8-1.9,1.9-4.2,1.9c-2.1,0-3.6-1.3-3.6-3.3c0-1,0.3-3.2,3.5-3.6l3.2-0.4
			c0.5,0,1-0.2,1-1.4c0-1.2-0.9-1.9-2.7-1.9c-2.2,0-2.5,1.3-2.6,2.2H1259z M1266.1,607.6c-0.3,0.2-0.8,0.4-3.2,0.7
			c-0.9,0.1-2.5,0.4-2.5,1.9c0,1.3,0.6,2,2.1,2c1.8,0,3.6-1.2,3.6-2.7V607.6z"/>
		<path class="st10" d="M1280.9,613.5h-1.8v-1.6h0c-0.8,1.6-2.2,1.9-3.3,1.9c-3.9,0-5.1-3.7-5.1-6.4c0-3.2,1.7-5.7,4.8-5.7
			c2.1,0,3,1.3,3.4,2l0-0.2v-5.8h1.9V613.5z M1275.8,612.1c1.2,0,3.1-0.8,3.1-3.9c0-1.9-0.3-4.9-3.1-4.9c-3,0-3.1,2.8-3.1,4.3
			C1272.7,610.2,1273.7,612.1,1275.8,612.1z"/>
		<path class="st10" d="M1283.5,605.5c0.1-2.8,1.9-3.8,4.8-3.8c0.9,0,4.3,0.3,4.3,3.2v6.6c0,0.5,0.2,0.7,0.6,0.7
			c0.2,0,0.4,0,0.6-0.1v1.4c-0.3,0.1-0.6,0.2-1.1,0.2c-1.7,0-2-0.9-2-1.8c-0.7,0.8-1.9,1.9-4.2,1.9c-2.1,0-3.6-1.3-3.6-3.3
			c0-1,0.3-3.2,3.5-3.6l3.2-0.4c0.5,0,1-0.2,1-1.4c0-1.2-0.9-1.9-2.7-1.9c-2.2,0-2.5,1.3-2.6,2.2H1283.5z M1290.6,607.6
			c-0.3,0.2-0.8,0.4-3.2,0.7c-0.9,0.1-2.5,0.4-2.5,1.9c0,1.3,0.6,2,2.1,2c1.8,0,3.6-1.2,3.6-2.7V607.6z"/>
		<path class="st10" d="M1305.4,613.5h-1.8v-1.6h0c-0.8,1.6-2.2,1.9-3.3,1.9c-3.9,0-5.1-3.7-5.1-6.4c0-3.2,1.7-5.7,4.8-5.7
			c2.1,0,3,1.3,3.4,2l0-0.2v-5.8h1.9V613.5z M1300.2,612.1c1.2,0,3.1-0.8,3.1-3.9c0-1.9-0.3-4.9-3.1-4.9c-3,0-3.1,2.8-3.1,4.3
			C1297.1,610.2,1298.1,612.1,1300.2,612.1z"/>
		<path class="st10" d="M1312.7,601.7c3.7,0,5.3,3.1,5.3,6.1s-1.7,6.1-5.3,6.1c-3.7,0-5.3-3.1-5.3-6.1S1309,601.7,1312.7,601.7z
			 M1312.7,612.1c2.8,0,3.3-2.9,3.3-4.4s-0.6-4.4-3.3-4.4s-3.3,2.9-3.3,4.4S1309.9,612.1,1312.7,612.1z"/>
		<path class="st10" d="M1326.8,605.3c0-0.7-0.3-1.9-2.7-1.9c-0.6,0-2.3,0.2-2.3,1.6c0,0.9,0.6,1.2,2.1,1.5l1.9,0.5
			c2.4,0.6,3.2,1.5,3.2,3c0,2.4-2,3.8-4.6,3.8c-4.6,0-4.9-2.6-5-4h1.9c0.1,0.9,0.3,2.4,3.1,2.4c1.4,0,2.6-0.6,2.6-1.8
			c0-0.9-0.6-1.2-2.3-1.7l-2.2-0.6c-1.6-0.4-2.7-1.2-2.7-2.8c0-2.5,2.1-3.7,4.4-3.7c4.1,0,4.4,3,4.4,3.6H1326.8z"/>
	</g>
</g>
<g transform="translate(-0.5 -0.5)">
	<g class="st9">
		<path class="st10" d="M1542.3,560.6c-0.6-2.8-2.9-3.3-4.4-3.3c-2.9,0-5.2,2.1-5.2,6.3c0,3.7,1.3,6.6,5.2,6.6
			c1.4,0,3.8-0.7,4.5-4.3h2.1c-0.9,6-5.7,6.2-6.9,6.2c-3.6,0-7.1-2.3-7.1-8.4c0-4.9,2.8-8.2,7.4-8.2c4.1,0,6.2,2.5,6.5,5.2H1542.3z"
			/>
		<path class="st10" d="M1549.1,571.7h-1.9v-11.5h1.8v1.9h0c0.8-1.3,1.8-2.2,3.2-2.2c0.2,0,0.4,0,0.5,0.1v2h-0.7
			c-1.8,0-2.9,1.4-2.9,3.1V571.7z"/>
		<path class="st10" d="M1554.6,558.1v-2.2h1.9v2.2H1554.6z M1556.5,571.7h-1.9v-11.5h1.9V571.7z"/>
		<path class="st10" d="M1559.4,563.7c0.1-2.8,1.9-3.8,4.8-3.8c0.9,0,4.3,0.3,4.3,3.2v6.6c0,0.5,0.2,0.7,0.6,0.7
			c0.2,0,0.4,0,0.6-0.1v1.4c-0.3,0.1-0.6,0.2-1.1,0.2c-1.7,0-2-0.9-2-1.8c-0.7,0.8-1.9,1.9-4.2,1.9c-2.1,0-3.6-1.3-3.6-3.3
			c0-1,0.3-3.2,3.5-3.6l3.2-0.4c0.5,0,1-0.2,1-1.4c0-1.2-0.9-1.9-2.7-1.9c-2.2,0-2.5,1.3-2.6,2.2H1559.4z M1566.4,565.8
			c-0.3,0.2-0.8,0.4-3.2,0.7c-0.9,0.1-2.5,0.4-2.5,1.9c0,1.3,0.6,2,2.1,2c1.8,0,3.6-1.2,3.6-2.7V565.8z"/>
		<path class="st10" d="M1573.8,571.7h-1.9v-11.5h1.8v1.9h0c0.8-1.3,1.8-2.2,3.2-2.2c0.2,0,0.4,0,0.5,0.1v2h-0.7
			c-1.8,0-2.9,1.4-2.9,3.1V571.7z"/>
		<path class="st10" d="M1592.3,564.1c-0.2-1.5-1.1-2.5-2.7-2.5c-2.4,0-3.2,2.3-3.2,4.3c0,2,0.5,4.4,3.1,4.4c1.3,0,2.4-1,2.8-2.7
			h1.9c-0.2,1.8-1.3,4.4-4.7,4.4c-3.2,0-5.1-2.4-5.1-5.8c0-3.6,1.7-6.4,5.5-6.4c3,0,4.2,2.2,4.3,4.2H1592.3z"/>
		<path class="st10" d="M1600.8,559.8c3.7,0,5.3,3.1,5.3,6.1s-1.7,6.1-5.3,6.1c-3.7,0-5.3-3.1-5.3-6.1S1597.1,559.8,1600.8,559.8z
			 M1600.8,570.3c2.8,0,3.3-2.9,3.3-4.4s-0.6-4.4-3.3-4.4c-2.8,0-3.3,2.9-3.3,4.4S1598,570.3,1600.8,570.3z"/>
		<path class="st10" d="M1610.3,571.7h-1.9v-15.8h1.9V571.7z"/>
		<path class="st10" d="M1623,568.1c-0.1,0.5-0.6,2.2-2,3.1c-0.5,0.4-1.3,0.8-3.1,0.8c-3.2,0-5.1-2.4-5.1-5.8c0-3.6,1.7-6.4,5.5-6.4
			c3.3,0,5,2.6,5,6.7h-8.4c0,2.4,1.1,3.8,3.3,3.8c1.8,0,2.9-1.4,3-2.3H1623z M1621.1,565c-0.1-1.8-0.9-3.4-3.2-3.4
			c-1.8,0-3.2,1.7-3.2,3.4H1621.1z"/>
		<path class="st10" d="M1632.6,564.1c-0.2-1.5-1.1-2.5-2.7-2.5c-2.4,0-3.2,2.3-3.2,4.3c0,2,0.5,4.4,3.1,4.4c1.3,0,2.4-1,2.8-2.7
			h1.9c-0.2,1.8-1.3,4.4-4.7,4.4c-3.2,0-5.1-2.4-5.1-5.8c0-3.6,1.7-6.4,5.5-6.4c3,0,4.2,2.2,4.3,4.2H1632.6z M1629,571.7h1l-1,1.4
			c0.2,0,0.4-0.1,0.7-0.1c1.4,0,1.8,0.9,1.8,1.7c0,1.1-1,2-2.6,2c-0.8,0-1.5-0.2-2.1-0.5l0.4-0.9c0.5,0.2,0.9,0.3,1.4,0.3
			c0.4,0,1.2-0.1,1.2-0.9c0-0.7-0.7-0.9-1.1-0.9c-0.2,0-0.4,0-0.9,0.2l-0.4-0.4L1629,571.7z"/>
		<path class="st10" d="M1641.1,559.8c3.7,0,5.3,3.1,5.3,6.1s-1.7,6.1-5.3,6.1c-3.7,0-5.3-3.1-5.3-6.1S1637.5,559.8,1641.1,559.8z
			 M1644.9,555.8c-0.2,1.3-0.9,2.4-2.2,2.4c-0.4,0-0.7-0.1-1.3-0.3l-0.6-0.2c-0.8-0.3-1.1-0.3-1.3-0.3c-0.6,0-0.9,0.4-1,1h-1.1
			c0.2-1.3,0.8-2.4,2.3-2.4c0.6,0,1,0.2,1.5,0.3l0.5,0.2c0.4,0.2,0.9,0.3,1,0.3c0.9,0,1-0.6,1.1-1H1644.9z M1641.1,570.3
			c2.8,0,3.3-2.9,3.3-4.4s-0.6-4.4-3.3-4.4c-2.8,0-3.3,2.9-3.3,4.4S1638.4,570.3,1641.1,570.3z"/>
		<path class="st10" d="M1658.4,568.1c-0.1,0.5-0.6,2.2-2,3.1c-0.5,0.4-1.3,0.8-3.1,0.8c-3.2,0-5.1-2.4-5.1-5.8
			c0-3.6,1.7-6.4,5.5-6.4c3.3,0,5,2.6,5,6.7h-8.4c0,2.4,1.1,3.8,3.3,3.8c1.8,0,2.9-1.4,3-2.3H1658.4z M1656.6,565
			c-0.1-1.8-0.9-3.4-3.2-3.4c-1.8,0-3.2,1.7-3.2,3.4H1656.6z"/>
		<path class="st10" d="M1667.4,563.5c0-0.7-0.3-1.9-2.7-1.9c-0.6,0-2.3,0.2-2.3,1.6c0,0.9,0.6,1.2,2.1,1.5l1.9,0.5
			c2.4,0.6,3.2,1.5,3.2,3c0,2.4-2,3.8-4.6,3.8c-4.6,0-4.9-2.6-5-4h1.9c0.1,0.9,0.3,2.4,3.1,2.4c1.4,0,2.6-0.6,2.6-1.8
			c0-0.9-0.6-1.2-2.3-1.7l-2.2-0.6c-1.6-0.4-2.7-1.2-2.7-2.8c0-2.5,2.1-3.7,4.4-3.7c4.1,0,4.4,3,4.4,3.6H1667.4z"/>
		<path class="st10" d="M1561.2,586.6h1.8v1.6h0c0.5-0.7,1.3-2,3.4-2c3.1,0,4.8,2.5,4.8,5.7c0,2.8-1.1,6.4-5.1,6.4
			c-1.5,0-2.6-0.7-3.1-1.5h0v5.8h-1.9V586.6z M1566.2,596.7c2.1,0,3.1-1.9,3.1-4.4c0-1.5-0.2-4.3-3.1-4.3c-2.8,0-3.1,3-3.1,4.9
			C1563,595.9,1564.9,596.7,1566.2,596.7z"/>
		<path class="st10" d="M1581.1,598.1v-1.7l0,0c-0.8,1.3-1.8,2-3.7,2c-1.7,0-3.7-0.8-3.7-3.6v-8.3h1.9v7.6c0,1.9,1,2.5,2.2,2.5
			c2.4,0,3.2-2.2,3.2-3.8v-6.3h1.9v11.5H1581.1z M1578.7,585h-1.5l2-3.1h2.4L1578.7,585z"/>
		<path class="st10" d="M1585.6,598.1v-15.8h1.9v5.7h0c0.8-1.2,2-1.8,3.3-1.8c3.1,0,4.8,2.5,4.8,5.7c0,2.8-1.1,6.4-5.1,6.4
			c-2,0-2.8-1.1-3.2-1.8h0v1.4H1585.6z M1590.6,588c-2.8,0-3.1,3-3.1,4.9c0,3.1,1.9,3.9,3.1,3.9c2.1,0,3.1-1.9,3.1-4.4
			C1593.7,590.8,1593.6,588,1590.6,588z"/>
		<path class="st10" d="M1599.6,598.1h-1.9v-15.8h1.9V598.1z"/>
		<path class="st10" d="M1602.5,584.5v-2.2h1.9v2.2H1602.5z M1604.4,598.1h-1.9v-11.5h1.9V598.1z"/>
		<path class="st10" d="M1614.5,590.5c-0.2-1.5-1.1-2.5-2.7-2.5c-2.4,0-3.2,2.3-3.2,4.3c0,2,0.5,4.4,3.1,4.4c1.3,0,2.4-1,2.8-2.7
			h1.9c-0.2,1.8-1.3,4.4-4.7,4.4c-3.2,0-5.1-2.4-5.1-5.8c0-3.6,1.7-6.4,5.5-6.4c3,0,4.2,2.2,4.3,4.2H1614.5z"/>
		<path class="st10" d="M1618.3,590.1c0.1-2.8,1.9-3.8,4.8-3.8c0.9,0,4.3,0.3,4.3,3.2v6.6c0,0.5,0.2,0.7,0.6,0.7
			c0.2,0,0.4,0,0.6-0.1v1.4c-0.3,0.1-0.6,0.2-1.1,0.2c-1.7,0-2-0.9-2-1.8c-0.7,0.8-1.9,1.9-4.2,1.9c-2.1,0-3.6-1.3-3.6-3.3
			c0-1,0.3-3.2,3.5-3.6l3.2-0.4c0.5,0,1-0.2,1-1.4c0-1.2-0.9-1.9-2.7-1.9c-2.2,0-2.5,1.3-2.6,2.2H1618.3z M1625.4,592.2
			c-0.3,0.2-0.8,0.4-3.2,0.7c-0.9,0.1-2.5,0.4-2.5,1.9c0,1.3,0.6,2,2.1,2c1.8,0,3.6-1.2,3.6-2.7V592.2z"/>
		<path class="st10" d="M1637.1,589.9c0-0.7-0.3-1.9-2.7-1.9c-0.6,0-2.3,0.2-2.3,1.6c0,0.9,0.6,1.2,2.1,1.5l1.9,0.5
			c2.4,0.6,3.2,1.5,3.2,3c0,2.4-2,3.8-4.6,3.8c-4.6,0-4.9-2.6-5-4h1.9c0.1,0.9,0.3,2.4,3.1,2.4c1.4,0,2.6-0.6,2.6-1.8
			c0-0.9-0.6-1.2-2.3-1.7l-2.2-0.6c-1.6-0.4-2.7-1.2-2.7-2.8c0-2.5,2.1-3.7,4.4-3.7c4.1,0,4.4,3,4.4,3.6H1637.1z"/>
	</g>
</g>
<g transform="translate(-0.5 -0.5)">
	<g class="st9">
		<path class="st10" d="M781,396.4h-2.1v-15.8h10.9v1.9H781v4.8h7.7v1.9H781V396.4z"/>
		<path class="st10" d="M790.7,388.4c0.1-2.8,1.9-3.8,4.8-3.8c0.9,0,4.3,0.3,4.3,3.2v6.6c0,0.5,0.2,0.7,0.6,0.7c0.2,0,0.4,0,0.6-0.1
			v1.4c-0.3,0.1-0.6,0.2-1.1,0.2c-1.7,0-2-0.9-2-1.8c-0.7,0.8-1.9,1.9-4.2,1.9c-2.1,0-3.6-1.3-3.6-3.3c0-1,0.3-3.2,3.5-3.6l3.2-0.4
			c0.5,0,1-0.2,1-1.4c0-1.2-0.9-1.9-2.7-1.9c-2.2,0-2.5,1.3-2.6,2.2H790.7z M797.8,390.5c-0.3,0.2-0.8,0.4-3.2,0.7
			c-0.9,0.1-2.5,0.4-2.5,1.9c0,1.3,0.6,2,2.1,2c1.8,0,3.6-1.2,3.6-2.7V390.5z"/>
		<path class="st10" d="M804.8,394.8h7.1v1.6h-9.6v-1.5l6.9-8.4h-6.4v-1.6h8.9v1.6L804.8,394.8z"/>
		<path class="st10" d="M823.5,392.8c-0.1,0.5-0.6,2.2-2,3.1c-0.5,0.4-1.3,0.8-3.1,0.8c-3.2,0-5.1-2.4-5.1-5.8
			c0-3.6,1.7-6.4,5.5-6.4c3.3,0,5,2.6,5,6.7h-8.4c0,2.4,1.1,3.8,3.3,3.8c1.8,0,2.9-1.4,3-2.3H823.5z M821.6,389.7
			c-0.1-1.8-0.9-3.4-3.2-3.4c-1.8,0-3.2,1.7-3.2,3.4H821.6z"/>
		<path class="st10" d="M828.1,396.4h-1.9v-11.5h1.8v1.9h0c0.8-1.3,1.8-2.2,3.2-2.2c0.2,0,0.4,0,0.5,0.1v2h-0.7
			c-1.8,0-2.9,1.4-2.9,3.1V396.4z"/>
		<path class="st10" d="M846.9,396.4v-1.7l0,0c-0.8,1.3-1.8,2-3.7,2c-1.7,0-3.7-0.8-3.7-3.6v-8.3h1.9v7.6c0,1.9,1,2.5,2.2,2.5
			c2.4,0,3.2-2.2,3.2-3.8v-6.3h1.9v11.5H846.9z"/>
		<path class="st10" d="M851.4,384.9h1.8v1.6h0c0.5-0.7,1.3-2,3.4-2c3.1,0,4.8,2.5,4.8,5.7c0,2.8-1.1,6.4-5.1,6.4
			c-1.5,0-2.6-0.7-3.1-1.5h0v5.8h-1.9V384.9z M856.4,395.1c2.1,0,3.1-1.9,3.1-4.4c0-1.5-0.2-4.3-3.1-4.3c-2.8,0-3.1,3-3.1,4.9
			C853.3,394.2,855.2,395.1,856.4,395.1z"/>
		<path class="st10" d="M865.8,396.4h-1.9v-15.8h1.9V396.4z"/>
		<path class="st10" d="M873.4,384.6c3.7,0,5.3,3.1,5.3,6.1s-1.7,6.1-5.3,6.1c-3.7,0-5.3-3.1-5.3-6.1S869.7,384.6,873.4,384.6z
			 M873.4,395c2.8,0,3.3-2.9,3.3-4.4s-0.6-4.4-3.3-4.4s-3.3,2.9-3.3,4.4S870.6,395,873.4,395z"/>
		<path class="st10" d="M880.9,388.4c0.1-2.8,1.9-3.8,4.8-3.8c0.9,0,4.3,0.3,4.3,3.2v6.6c0,0.5,0.2,0.7,0.6,0.7c0.2,0,0.4,0,0.6-0.1
			v1.4c-0.3,0.1-0.6,0.2-1.1,0.2c-1.7,0-2-0.9-2-1.8c-0.7,0.8-1.9,1.9-4.2,1.9c-2.1,0-3.6-1.3-3.6-3.3c0-1,0.3-3.2,3.5-3.6l3.2-0.4
			c0.5,0,1-0.2,1-1.4c0-1.2-0.9-1.9-2.7-1.9c-2.2,0-2.5,1.3-2.6,2.2H880.9z M888,390.5c-0.3,0.2-0.8,0.4-3.2,0.7
			c-0.9,0.1-2.5,0.4-2.5,1.9c0,1.3,0.6,2,2.1,2c1.8,0,3.6-1.2,3.6-2.7V390.5z"/>
		<path class="st10" d="M902.7,396.4h-1.8v-1.6h0c-0.8,1.6-2.2,1.9-3.3,1.9c-3.9,0-5.1-3.7-5.1-6.4c0-3.2,1.7-5.7,4.8-5.7
			c2.1,0,3,1.3,3.4,2l0-0.2v-5.8h1.9V396.4z M897.6,395.1c1.2,0,3.1-0.8,3.1-3.9c0-1.9-0.3-4.9-3.1-4.9c-3,0-3.1,2.8-3.1,4.3
			C894.5,393.1,895.5,395.1,897.6,395.1z"/>
		<path class="st10" d="M807.7,422.8h-1.8v-1.6h0c-0.8,1.6-2.2,1.9-3.3,1.9c-3.9,0-5.1-3.7-5.1-6.4c0-3.2,1.7-5.7,4.8-5.7
			c2.1,0,3,1.3,3.4,2l0-0.2V407h1.9V422.8z M802.6,421.5c1.2,0,3.1-0.8,3.1-3.9c0-1.9-0.3-4.9-3.1-4.9c-3,0-3.1,2.8-3.1,4.3
			C799.5,419.5,800.5,421.5,802.6,421.5z"/>
		<path class="st10" d="M820.2,419.2c-0.1,0.5-0.6,2.2-2,3.1c-0.5,0.4-1.3,0.8-3.1,0.8c-3.2,0-5.1-2.4-5.1-5.8
			c0-3.6,1.7-6.4,5.5-6.4c3.3,0,5,2.6,5,6.7h-8.4c0,2.4,1.1,3.8,3.3,3.8c1.8,0,2.9-1.4,3-2.3H820.2z M818.3,416.1
			c-0.1-1.8-0.9-3.4-3.2-3.4c-1.8,0-3.2,1.7-3.2,3.4H818.3z"/>
		<path class="st10" d="M828.7,414.8c0.1-2.8,1.9-3.8,4.8-3.8c0.9,0,4.3,0.3,4.3,3.2v6.6c0,0.5,0.2,0.7,0.6,0.7c0.2,0,0.4,0,0.6-0.1
			v1.4c-0.3,0.1-0.6,0.2-1.1,0.2c-1.7,0-2-0.9-2-1.8c-0.7,0.8-1.9,1.9-4.2,1.9c-2.1,0-3.6-1.3-3.6-3.3c0-1,0.3-3.2,3.5-3.6l3.2-0.4
			c0.5,0,1-0.2,1-1.4c0-1.2-0.9-1.9-2.7-1.9c-2.2,0-2.5,1.3-2.6,2.2H828.7z M835.8,416.9c-0.3,0.2-0.8,0.4-3.2,0.7
			c-0.9,0.1-2.5,0.4-2.5,1.9c0,1.3,0.6,2,2.1,2c1.8,0,3.6-1.2,3.6-2.7V416.9z"/>
		<path class="st10" d="M843.4,412.9v7.5c0,0.9,0.8,0.9,1.2,0.9h0.7v1.5c-0.7,0.1-1.3,0.2-1.5,0.2c-1.9,0-2.3-1.1-2.3-2.5v-7.6h-1.6
			v-1.6h1.6v-3.2h1.9v3.2h1.8v1.6H843.4z"/>
		<path class="st10" d="M847.2,409.2V407h1.9v2.2H847.2z M849.1,422.8h-1.9v-11.5h1.9V422.8z"/>
		<path class="st10" d="M859.3,411.3h2.1l-4.4,11.5h-2.1l-4.2-11.5h2.2l3,9.4h0L859.3,411.3z"/>
		<path class="st10" d="M867.1,411c3.7,0,5.3,3.1,5.3,6.1s-1.7,6.1-5.3,6.1c-3.7,0-5.3-3.1-5.3-6.1S863.5,411,867.1,411z
			 M867.1,421.4c2.8,0,3.3-2.9,3.3-4.4s-0.6-4.4-3.3-4.4s-3.3,2.9-3.3,4.4S864.4,421.4,867.1,421.4z"/>
		<path class="st10" d="M881.2,414.6c0-0.7-0.3-1.9-2.7-1.9c-0.6,0-2.3,0.2-2.3,1.6c0,0.9,0.6,1.2,2.1,1.5l1.9,0.5
			c2.4,0.6,3.2,1.5,3.2,3c0,2.4-2,3.8-4.6,3.8c-4.6,0-4.9-2.6-5-4h1.9c0.1,0.9,0.3,2.4,3.1,2.4c1.4,0,2.6-0.6,2.6-1.8
			c0-0.9-0.6-1.2-2.3-1.7l-2.2-0.6c-1.6-0.4-2.7-1.2-2.7-2.8c0-2.5,2.1-3.7,4.4-3.7c4.1,0,4.4,3,4.4,3.6H881.2z"/>
	</g>
</g>
<g transform="translate(-0.5 -0.5)">
	<g class="st9">
		<path class="st10" d="M462.3,384.1c-0.6-2.8-2.9-3.3-4.4-3.3c-2.9,0-5.2,2.1-5.2,6.3c0,3.7,1.3,6.6,5.2,6.6c1.4,0,3.8-0.7,4.5-4.3
			h2.1c-0.9,6-5.7,6.2-6.9,6.2c-3.6,0-7.1-2.3-7.1-8.4c0-4.9,2.8-8.2,7.4-8.2c4.1,0,6.2,2.5,6.5,5.2H462.3z"/>
		<path class="st10" d="M469,395.2h-1.9v-11.5h1.8v1.9h0c0.8-1.3,1.8-2.2,3.2-2.2c0.2,0,0.4,0,0.5,0.1v2H472c-1.8,0-2.9,1.4-2.9,3.1
			V395.2z"/>
		<path class="st10" d="M474.5,381.6v-2.2h1.9v2.2H474.5z M476.5,395.2h-1.9v-11.5h1.9V395.2z"/>
		<path class="st10" d="M479.3,387.2c0.1-2.8,1.9-3.8,4.8-3.8c0.9,0,4.3,0.3,4.3,3.2v6.6c0,0.5,0.2,0.7,0.6,0.7c0.2,0,0.4,0,0.6-0.1
			v1.4c-0.3,0.1-0.6,0.2-1.1,0.2c-1.7,0-2-0.9-2-1.8c-0.7,0.8-1.9,1.9-4.2,1.9c-2.1,0-3.6-1.3-3.6-3.3c0-1,0.3-3.2,3.5-3.6l3.2-0.4
			c0.5,0,1-0.2,1-1.4c0-1.2-0.9-1.9-2.7-1.9c-2.2,0-2.5,1.3-2.6,2.2H479.3z M486.4,389.3c-0.3,0.2-0.8,0.4-3.2,0.7
			c-0.9,0.1-2.5,0.4-2.5,1.9c0,1.3,0.6,2,2.1,2c1.8,0,3.6-1.2,3.6-2.7V389.3z"/>
		<path class="st10" d="M493.8,395.2h-1.9v-11.5h1.8v1.9h0c0.8-1.3,1.8-2.2,3.2-2.2c0.2,0,0.4,0,0.5,0.1v2h-0.7
			c-1.8,0-2.9,1.4-2.9,3.1V395.2z"/>
		<path class="st10" d="M514.8,391.6c-0.1,0.5-0.6,2.2-2,3.1c-0.5,0.4-1.3,0.8-3.1,0.8c-3.2,0-5.1-2.4-5.1-5.8
			c0-3.6,1.7-6.4,5.5-6.4c3.3,0,5,2.6,5,6.7h-8.4c0,2.4,1.1,3.8,3.3,3.8c1.8,0,2.9-1.4,3-2.3H514.8z M513,388.5
			c-0.1-1.8-0.9-3.4-3.2-3.4c-1.8,0-3.2,1.7-3.2,3.4H513z"/>
		<path class="st10" d="M523.8,387c0-0.7-0.3-1.9-2.7-1.9c-0.6,0-2.3,0.2-2.3,1.6c0,0.9,0.6,1.2,2.1,1.5l1.9,0.5
			c2.4,0.6,3.2,1.5,3.2,3c0,2.4-2,3.8-4.6,3.8c-4.6,0-4.9-2.6-5-4h1.9c0.1,0.9,0.3,2.4,3.1,2.4c1.4,0,2.6-0.6,2.6-1.8
			c0-0.9-0.6-1.2-2.3-1.7l-2.2-0.6c-1.6-0.4-2.7-1.2-2.7-2.8c0-2.5,2.1-3.7,4.4-3.7c4.1,0,4.4,3,4.4,3.6H523.8z"/>
		<path class="st10" d="M530.7,385.3v7.5c0,0.9,0.8,0.9,1.2,0.9h0.7v1.5c-0.7,0.1-1.3,0.2-1.5,0.2c-1.9,0-2.3-1.1-2.3-2.5v-7.6h-1.6
			v-1.6h1.6v-3.2h1.9v3.2h1.8v1.6H530.7z"/>
		<path class="st10" d="M536.6,395.2h-1.9v-11.5h1.8v1.9h0c0.8-1.3,1.8-2.2,3.2-2.2c0.2,0,0.4,0,0.5,0.1v2h-0.7
			c-1.8,0-2.9,1.4-2.9,3.1V395.2z"/>
		<path class="st10" d="M549.5,395.2v-1.7l0,0c-0.8,1.3-1.8,2-3.7,2c-1.7,0-3.7-0.8-3.7-3.6v-8.3h1.9v7.6c0,1.9,1,2.5,2.2,2.5
			c2.4,0,3.2-2.2,3.2-3.8v-6.3h1.9v11.5H549.5z"/>
		<path class="st10" d="M556.7,385.3v7.5c0,0.9,0.8,0.9,1.2,0.9h0.7v1.5c-0.7,0.1-1.3,0.2-1.5,0.2c-1.9,0-2.3-1.1-2.3-2.5v-7.6h-1.6
			v-1.6h1.6v-3.2h1.9v3.2h1.8v1.6H556.7z"/>
		<path class="st10" d="M567.9,395.2v-1.7l0,0c-0.8,1.3-1.8,2-3.7,2c-1.7,0-3.7-0.8-3.7-3.6v-8.3h1.9v7.6c0,1.9,1,2.5,2.2,2.5
			c2.4,0,3.2-2.2,3.2-3.8v-6.3h1.9v11.5H567.9z"/>
		<path class="st10" d="M574.8,395.2h-1.9v-11.5h1.8v1.9h0c0.8-1.3,1.8-2.2,3.2-2.2c0.2,0,0.4,0,0.5,0.1v2h-0.7
			c-1.8,0-2.9,1.4-2.9,3.1V395.2z"/>
		<path class="st10" d="M579.7,387.2c0.1-2.8,1.9-3.8,4.8-3.8c0.9,0,4.3,0.3,4.3,3.2v6.6c0,0.5,0.2,0.7,0.6,0.7c0.2,0,0.4,0,0.6-0.1
			v1.4c-0.3,0.1-0.6,0.2-1.1,0.2c-1.7,0-2-0.9-2-1.8c-0.7,0.8-1.9,1.9-4.2,1.9c-2.1,0-3.6-1.3-3.6-3.3c0-1,0.3-3.2,3.5-3.6l3.2-0.4
			c0.5,0,1-0.2,1-1.4c0-1.2-0.9-1.9-2.7-1.9c-2.2,0-2.5,1.3-2.6,2.2H579.7z M586.8,389.3c-0.3,0.2-0.8,0.4-3.2,0.7
			c-0.9,0.1-2.5,0.4-2.5,1.9c0,1.3,0.6,2,2.1,2c1.8,0,3.6-1.2,3.6-2.7V389.3z"/>
		<path class="st10" d="M483.3,421.6h-1.8V420h0c-0.8,1.6-2.2,1.9-3.3,1.9c-3.9,0-5.1-3.7-5.1-6.4c0-3.2,1.7-5.7,4.8-5.7
			c2.1,0,3,1.3,3.4,2l0-0.2v-5.8h1.9V421.6z M478.2,420.2c1.2,0,3.1-0.8,3.1-3.9c0-1.9-0.3-4.9-3.1-4.9c-3,0-3.1,2.8-3.1,4.3
			C475.1,418.3,476.1,420.2,478.2,420.2z"/>
		<path class="st10" d="M495.8,418c-0.1,0.5-0.6,2.2-2,3.1c-0.5,0.4-1.3,0.8-3.1,0.8c-3.2,0-5.1-2.4-5.1-5.8c0-3.6,1.7-6.4,5.5-6.4
			c3.3,0,5,2.6,5,6.7h-8.4c0,2.4,1.1,3.8,3.3,3.8c1.8,0,2.9-1.4,3-2.3H495.8z M493.9,414.9c-0.1-1.8-0.9-3.4-3.2-3.4
			c-1.8,0-3.2,1.7-3.2,3.4H493.9z"/>
		<path class="st10" d="M504.2,410.1h1.8v1.6h0c0.5-0.7,1.3-2,3.4-2c3.1,0,4.8,2.5,4.8,5.7c0,2.8-1.1,6.4-5.1,6.4
			c-1.5,0-2.6-0.7-3.1-1.5h0v5.8h-1.9V410.1z M509.2,420.2c2.1,0,3.1-1.9,3.1-4.4c0-1.5-0.2-4.3-3.1-4.3c-2.8,0-3.1,3-3.1,4.9
			C506,419.4,507.9,420.2,509.2,420.2z"/>
		<path class="st10" d="M516.5,413.6c0.1-2.8,1.9-3.8,4.8-3.8c0.9,0,4.3,0.3,4.3,3.2v6.6c0,0.5,0.2,0.7,0.6,0.7c0.2,0,0.4,0,0.6-0.1
			v1.4c-0.3,0.1-0.6,0.2-1.1,0.2c-1.7,0-2-0.9-2-1.8c-0.7,0.8-1.9,1.9-4.2,1.9c-2.1,0-3.6-1.3-3.6-3.3c0-1,0.3-3.2,3.5-3.6l3.2-0.4
			c0.5,0,1-0.2,1-1.4c0-1.2-0.9-1.9-2.7-1.9c-2.2,0-2.5,1.3-2.6,2.2H516.5z M523.6,415.7c-0.3,0.2-0.8,0.4-3.2,0.7
			c-0.9,0.1-2.5,0.4-2.5,1.9c0,1.3,0.6,2,2.1,2c1.8,0,3.6-1.2,3.6-2.7V415.7z"/>
		<path class="st10" d="M535.3,413.4c0-0.7-0.3-1.9-2.7-1.9c-0.6,0-2.3,0.2-2.3,1.6c0,0.9,0.6,1.2,2.1,1.5l1.9,0.5
			c2.4,0.6,3.2,1.5,3.2,3c0,2.4-2,3.8-4.6,3.8c-4.6,0-4.9-2.6-5-4h1.9c0.1,0.9,0.3,2.4,3.1,2.4c1.4,0,2.6-0.6,2.6-1.8
			c0-0.9-0.6-1.2-2.3-1.7l-2.2-0.6c-1.6-0.4-2.7-1.2-2.7-2.8c0-2.5,2.1-3.7,4.4-3.7c4.1,0,4.4,3,4.4,3.6H535.3z"/>
		<path class="st10" d="M542.2,411.7v7.5c0,0.9,0.8,0.9,1.2,0.9h0.7v1.5c-0.7,0.1-1.3,0.2-1.5,0.2c-1.9,0-2.3-1.1-2.3-2.5v-7.6h-1.6
			v-1.6h1.6v-3.2h1.9v3.2h1.8v1.6H542.2z"/>
		<path class="st10" d="M545.9,413.6c0.1-2.8,1.9-3.8,4.8-3.8c0.9,0,4.3,0.3,4.3,3.2v6.6c0,0.5,0.2,0.7,0.6,0.7c0.2,0,0.4,0,0.6-0.1
			v1.4c-0.3,0.1-0.6,0.2-1.1,0.2c-1.7,0-2-0.9-2-1.8c-0.7,0.8-1.9,1.9-4.2,1.9c-2.1,0-3.6-1.3-3.6-3.3c0-1,0.3-3.2,3.5-3.6l3.2-0.4
			c0.5,0,1-0.2,1-1.4c0-1.2-0.9-1.9-2.7-1.9c-2.2,0-2.5,1.3-2.6,2.2H545.9z M552.9,415.7c-0.3,0.2-0.8,0.4-3.2,0.7
			c-0.9,0.1-2.5,0.4-2.5,1.9c0,1.3,0.6,2,2.1,2c1.8,0,3.6-1.2,3.6-2.7V415.7z"/>
		<path class="st10" d="M564.7,413.4c0-0.7-0.3-1.9-2.7-1.9c-0.6,0-2.3,0.2-2.3,1.6c0,0.9,0.6,1.2,2.1,1.5l1.9,0.5
			c2.4,0.6,3.2,1.5,3.2,3c0,2.4-2,3.8-4.6,3.8c-4.6,0-4.9-2.6-5-4h1.9c0.1,0.9,0.3,2.4,3.1,2.4c1.4,0,2.6-0.6,2.6-1.8
			c0-0.9-0.6-1.2-2.3-1.7l-2.2-0.6c-1.6-0.4-2.7-1.2-2.7-2.8c0-2.5,2.1-3.7,4.4-3.7c4.1,0,4.4,3,4.4,3.6H564.7z"/>
	</g>
</g>
<g transform="translate(-0.5 -0.5)">
	<g class="st9">
		<path class="st10" d="M945.5,107.9L944,112h-2l5.4-14.4h2.2l5.2,14.4h-2.1l-1.4-4.2H945.5z M950.6,106.1l-2.1-6.3h0l-2.3,6.3
			H950.6z"/>
		<path class="st10" d="M965.1,112h-1.7v-1.4h0c-0.8,1.4-2,1.7-3,1.7c-3.6,0-4.6-3.3-4.6-5.8c0-2.9,1.6-5.2,4.4-5.2
			c1.9,0,2.7,1.2,3.1,1.8l0-0.1v-5.2h1.8V112z M960.4,110.8c1.1,0,2.9-0.7,2.9-3.5c0-1.7-0.3-4.4-2.8-4.4c-2.7,0-2.9,2.6-2.9,3.9
			C957.6,109.1,958.5,110.8,960.4,110.8z"/>
		<path class="st10" d="M967.5,99.7v-2h1.8v2H967.5z M969.3,112h-1.8v-10.5h1.8V112z"/>
		<path class="st10" d="M978.5,105.1c-0.2-1.4-1-2.2-2.5-2.2c-2.2,0-2.9,2.1-2.9,3.9c0,1.8,0.4,4,2.9,4c1.2,0,2.2-0.9,2.5-2.5h1.7
			c-0.2,1.7-1.2,4-4.3,4c-2.9,0-4.7-2.2-4.7-5.2c0-3.2,1.6-5.8,5-5.8c2.7,0,3.8,2,3.9,3.8H978.5z"/>
		<path class="st10" d="M982,99.7v-2h1.8v2H982z M983.7,112H982v-10.5h1.8V112z"/>
		<path class="st10" d="M990.6,101.3c3.3,0,4.9,2.8,4.9,5.5s-1.5,5.5-4.9,5.5c-3.3,0-4.9-2.8-4.9-5.5S987.3,101.3,990.6,101.3z
			 M990.6,110.8c2.5,0,3-2.6,3-4s-0.5-4-3-4s-3,2.6-3,4S988.1,110.8,990.6,110.8z"/>
		<path class="st10" d="M1006,112h-1.8v-6.4c0-1.8-0.5-2.7-2.2-2.7c-1,0-2.8,0.6-2.8,3.5v5.7h-1.8v-10.5h1.7v1.5h0
			c0.4-0.6,1.4-1.8,3.2-1.8c1.6,0,3.7,0.7,3.7,3.6V112z"/>
		<path class="st10" d="M1008.6,104.8c0.1-2.5,1.7-3.5,4.3-3.5c0.8,0,3.9,0.2,3.9,2.9v6c0,0.4,0.2,0.6,0.6,0.6c0.2,0,0.4,0,0.6-0.1
			v1.3c-0.3,0.1-0.6,0.2-1,0.2c-1.6,0-1.8-0.8-1.9-1.6c-0.7,0.7-1.7,1.7-3.8,1.7c-1.9,0-3.3-1.2-3.3-3c0-0.9,0.3-2.9,3.2-3.3
			l2.9-0.4c0.4,0,0.9-0.2,0.9-1.2c0-1.1-0.8-1.7-2.5-1.7c-2,0-2.3,1.2-2.4,2H1008.6z M1015,106.7c-0.3,0.2-0.7,0.4-2.9,0.7
			c-0.9,0.1-2.2,0.4-2.2,1.7c0,1.1,0.6,1.8,1.9,1.8c1.6,0,3.2-1.1,3.2-2.5V106.7z"/>
		<path class="st10" d="M1021.7,112h-1.8v-10.5h1.7v1.7h0c0.7-1.2,1.6-2,2.9-2c0.2,0,0.3,0,0.5,0.1v1.8h-0.7c-1.6,0-2.7,1.3-2.7,2.8
			V112z"/>
		<path class="st10" d="M1040.6,111.2c0,1.5,0,5.3-4.9,5.3c-1.2,0-3.7-0.3-4-3.1h1.8c0.3,1.7,1.9,1.7,2.4,1.7c3,0,3-2.4,3-3.7v-0.4
			h0v0.1c-0.5,0.7-1.4,1.4-2.8,1.4c-3.6,0-4.6-3.3-4.6-5.8c0-2.9,1.6-5.2,4.4-5.2c1.9,0,2.7,1.2,3.1,1.8h0v-1.5h1.7V111.2z
			 M1036.1,110.8c1.1,0,2.9-0.7,2.9-3.5c0-1.7-0.3-4.4-2.8-4.4c-2.7,0-2.9,2.6-2.9,3.9C1033.3,109.1,1034.2,110.8,1036.1,110.8z"/>
		<path class="st10" d="M1044.9,112h-1.8v-10.5h1.7v1.7h0c0.7-1.2,1.6-2,2.9-2c0.2,0,0.3,0,0.5,0.1v1.8h-0.7c-1.6,0-2.7,1.3-2.7,2.8
			V112z"/>
		<path class="st10" d="M1056.7,112v-1.5l0,0c-0.7,1.2-1.6,1.9-3.3,1.9c-1.5,0-3.4-0.7-3.4-3.2v-7.5h1.8v6.9c0,1.7,0.9,2.3,2,2.3
			c2.2,0,2.9-2,2.9-3.5v-5.8h1.8V112H1056.7z"/>
		<path class="st10" d="M1060.8,101.6h1.7v1.5h0c0.4-0.6,1.2-1.8,3.1-1.8c2.8,0,4.4,2.3,4.4,5.2c0,2.5-1,5.8-4.6,5.8
			c-1.4,0-2.3-0.7-2.8-1.4h0v5.2h-1.8V101.6z M1065.4,110.8c1.9,0,2.8-1.7,2.8-4c0-1.3-0.1-3.9-2.9-3.9c-2.5,0-2.8,2.7-2.8,4.4
			C1062.5,110.1,1064.2,110.8,1065.4,110.8z"/>
		<path class="st10" d="M1076.3,101.3c3.3,0,4.9,2.8,4.9,5.5s-1.5,5.5-4.9,5.5c-3.3,0-4.9-2.8-4.9-5.5S1073,101.3,1076.3,101.3z
			 M1076.3,110.8c2.5,0,3-2.6,3-4s-0.5-4-3-4s-3,2.6-3,4S1073.8,110.8,1076.3,110.8z"/>
		<path class="st10" d="M1089.1,104.6c0-0.7-0.3-1.8-2.5-1.8c-0.5,0-2.1,0.2-2.1,1.5c0,0.9,0.5,1.1,1.9,1.4l1.8,0.4
			c2.2,0.5,2.9,1.3,2.9,2.8c0,2.2-1.8,3.5-4.1,3.5c-4.1,0-4.4-2.4-4.5-3.7h1.7c0.1,0.8,0.3,2.1,2.8,2.1c1.3,0,2.4-0.5,2.4-1.7
			c0-0.8-0.6-1.1-2.1-1.5l-2-0.5c-1.5-0.4-2.4-1.1-2.4-2.5c0-2.3,1.9-3.3,4-3.3c3.7,0,4,2.8,4,3.3H1089.1z"/>
		<path class="st10" d="M1107.4,112h-1.7v-1.4h0c-0.8,1.4-2,1.7-3,1.7c-3.6,0-4.6-3.3-4.6-5.8c0-2.9,1.6-5.2,4.4-5.2
			c1.9,0,2.7,1.2,3.1,1.8l0-0.1v-5.2h1.8V112z M1102.8,110.8c1.1,0,2.9-0.7,2.9-3.5c0-1.7-0.3-4.4-2.8-4.4c-2.7,0-2.9,2.6-2.9,3.9
			C1100,109.1,1100.9,110.8,1102.8,110.8z"/>
		<path class="st10" d="M1118.8,108.8c-0.1,0.5-0.5,2-1.9,2.9c-0.5,0.3-1.2,0.7-2.8,0.7c-2.9,0-4.7-2.2-4.7-5.2c0-3.2,1.6-5.8,5-5.8
			c3,0,4.5,2.4,4.5,6.1h-7.6c0,2.2,1,3.4,3,3.4c1.7,0,2.6-1.3,2.7-2.1H1118.8z M1117.1,106c-0.1-1.6-0.8-3.1-2.9-3.1
			c-1.6,0-2.9,1.5-2.9,3.1H1117.1z"/>
		<path class="st10" d="M951.4,136v-1.5l0,0c-0.7,1.2-1.6,1.9-3.3,1.9c-1.5,0-3.4-0.7-3.4-3.2v-7.5h1.8v6.9c0,1.7,0.9,2.3,2,2.3
			c2.2,0,2.9-2,2.9-3.5v-5.8h1.8V136H951.4z"/>
		<path class="st10" d="M961.7,128.6c0-0.7-0.3-1.8-2.5-1.8c-0.5,0-2.1,0.2-2.1,1.5c0,0.9,0.5,1.1,1.9,1.4l1.8,0.4
			c2.2,0.5,2.9,1.3,2.9,2.8c0,2.2-1.8,3.5-4.1,3.5c-4.1,0-4.4-2.4-4.5-3.7h1.7c0.1,0.8,0.3,2.1,2.8,2.1c1.3,0,2.4-0.5,2.4-1.7
			c0-0.8-0.6-1.1-2.1-1.5l-2-0.5c-1.5-0.4-2.4-1.1-2.4-2.5c0-2.3,1.9-3.3,4-3.3c3.7,0,4,2.8,4,3.3H961.7z"/>
		<path class="st10" d="M972.6,136v-1.5l0,0c-0.7,1.2-1.6,1.9-3.3,1.9c-1.5,0-3.4-0.7-3.4-3.2v-7.5h1.8v6.9c0,1.7,0.9,2.3,2,2.3
			c2.2,0,2.9-2,2.9-3.5v-5.8h1.8V136H972.6z"/>
		<path class="st10" d="M976.8,128.8c0.1-2.5,1.7-3.5,4.3-3.5c0.8,0,3.9,0.2,3.9,2.9v6c0,0.4,0.2,0.6,0.6,0.6c0.2,0,0.4,0,0.6-0.1
			v1.3c-0.3,0.1-0.6,0.2-1,0.2c-1.6,0-1.8-0.8-1.9-1.6c-0.7,0.7-1.7,1.7-3.8,1.7c-1.9,0-3.3-1.2-3.3-3c0-0.9,0.3-2.9,3.2-3.3
			l2.9-0.4c0.4,0,0.9-0.2,0.9-1.2c0-1.1-0.8-1.7-2.5-1.7c-2,0-2.3,1.2-2.4,2H976.8z M983.2,130.7c-0.3,0.2-0.7,0.4-2.9,0.7
			c-0.9,0.1-2.2,0.4-2.2,1.7c0,1.1,0.6,1.8,1.9,1.8c1.6,0,3.2-1.1,3.2-2.5V130.7z M981.6,124.2h-1.3l1.8-2.8h2.2L981.6,124.2z"/>
		<path class="st10" d="M990,136h-1.8v-10.5h1.7v1.7h0c0.7-1.2,1.6-2,2.9-2c0.2,0,0.3,0,0.5,0.1v1.8h-0.7c-1.6,0-2.7,1.3-2.7,2.8
			V136z"/>
		<path class="st10" d="M995,123.7v-2h1.8v2H995z M996.7,136H995v-10.5h1.8V136z"/>
		<path class="st10" d="M1003.6,125.3c3.3,0,4.9,2.8,4.9,5.5s-1.5,5.5-4.9,5.5c-3.3,0-4.9-2.8-4.9-5.5S1000.3,125.3,1003.6,125.3z
			 M1003.6,134.8c2.5,0,3-2.6,3-4s-0.5-4-3-4s-3,2.6-3,4S1001.1,134.8,1003.6,134.8z"/>
		<path class="st10" d="M1016.4,128.6c0-0.7-0.3-1.8-2.5-1.8c-0.5,0-2.1,0.2-2.1,1.5c0,0.9,0.5,1.1,1.9,1.4l1.8,0.4
			c2.2,0.5,2.9,1.3,2.9,2.8c0,2.2-1.8,3.5-4.1,3.5c-4.1,0-4.4-2.4-4.5-3.7h1.7c0.1,0.8,0.3,2.1,2.8,2.1c1.3,0,2.4-0.5,2.4-1.7
			c0-0.8-0.6-1.1-2.1-1.5l-2-0.5c-1.5-0.4-2.4-1.1-2.4-2.5c0-2.3,1.9-3.3,4-3.3c3.7,0,4,2.8,4,3.3H1016.4z"/>
		<path class="st10" d="M1026,128.8c0.1-2.5,1.7-3.5,4.3-3.5c0.8,0,3.9,0.2,3.9,2.9v6c0,0.4,0.2,0.6,0.6,0.6c0.2,0,0.4,0,0.6-0.1
			v1.3c-0.3,0.1-0.6,0.2-1,0.2c-1.6,0-1.8-0.8-1.9-1.6c-0.7,0.7-1.7,1.7-3.8,1.7c-1.9,0-3.3-1.2-3.3-3c0-0.9,0.3-2.9,3.2-3.3
			l2.9-0.4c0.4,0,0.9-0.2,0.9-1.2c0-1.1-0.8-1.7-2.5-1.7c-2,0-2.3,1.2-2.4,2H1026z M1032.4,130.7c-0.3,0.2-0.7,0.4-2.9,0.7
			c-0.9,0.1-2.2,0.4-2.2,1.7c0,1.1,0.6,1.8,1.9,1.8c1.6,0,3.2-1.1,3.2-2.5V130.7z"/>
		<path class="st10" d="M1042.6,125.6h1.7v1.5h0c0.4-0.6,1.2-1.8,3.1-1.8c2.8,0,4.4,2.3,4.4,5.2c0,2.5-1,5.8-4.6,5.8
			c-1.4,0-2.3-0.7-2.8-1.4h0v5.2h-1.8V125.6z M1047.1,134.8c1.9,0,2.8-1.7,2.8-4c0-1.3-0.1-3.9-2.9-3.9c-2.5,0-2.8,2.7-2.8,4.4
			C1044.3,134.1,1046,134.8,1047.1,134.8z"/>
		<path class="st10" d="M1062.7,132.8c-0.1,0.5-0.5,2-1.9,2.9c-0.5,0.3-1.2,0.7-2.8,0.7c-2.9,0-4.7-2.2-4.7-5.2c0-3.2,1.6-5.8,5-5.8
			c3,0,4.5,2.4,4.5,6.1h-7.6c0,2.2,1,3.4,3,3.4c1.7,0,2.6-1.3,2.7-2.1H1062.7z M1061.1,130c-0.1-1.6-0.8-3.1-2.9-3.1
			c-1.6,0-2.9,1.5-2.9,3.1H1061.1z"/>
		<path class="st10" d="M1067,136h-1.8v-10.5h1.7v1.7h0c0.7-1.2,1.6-2,2.9-2c0.2,0,0.3,0,0.5,0.1v1.8h-0.7c-1.6,0-2.7,1.3-2.7,2.8
			V136z"/>
		<path class="st10" d="M1073.8,127v9h-1.8v-9h-1.4v-1.5h1.4v-1.8c0-1.6,1-2.3,2.7-2.3c0.3,0,0.5,0,0.8,0v1.6c-0.2,0-0.5,0-0.7,0
			c-0.8,0-1,0.4-1,1.2v1.3h1.8v1.5H1073.8z"/>
		<path class="st10" d="M1077.2,123.7v-2h1.8v2H1077.2z M1079,136h-1.8v-10.5h1.8V136z"/>
		<path class="st10" d="M1087.6,128.6c0-0.7-0.3-1.8-2.5-1.8c-0.5,0-2.1,0.2-2.1,1.5c0,0.9,0.5,1.1,1.9,1.4l1.8,0.4
			c2.2,0.5,2.9,1.3,2.9,2.8c0,2.2-1.8,3.5-4.1,3.5c-4.1,0-4.4-2.4-4.5-3.7h1.7c0.1,0.8,0.3,2.1,2.8,2.1c1.3,0,2.4-0.5,2.4-1.7
			c0-0.8-0.6-1.1-2.1-1.5l-2-0.5c-1.5-0.4-2.4-1.1-2.4-2.5c0-2.3,1.9-3.3,4-3.3c3.7,0,4,2.8,4,3.3H1087.6z"/>
		<path class="st10" d="M1105.9,136h-1.7v-1.4h0c-0.8,1.4-2,1.7-3,1.7c-3.6,0-4.6-3.3-4.6-5.8c0-2.9,1.6-5.2,4.4-5.2
			c1.9,0,2.7,1.2,3.1,1.8l0-0.1v-5.2h1.8V136z M1101.2,134.8c1.1,0,2.9-0.7,2.9-3.5c0-1.7-0.3-4.4-2.8-4.4c-2.7,0-2.9,2.6-2.9,3.9
			C1098.4,133.1,1099.3,134.8,1101.2,134.8z"/>
		<path class="st10" d="M1117.2,132.8c-0.1,0.5-0.5,2-1.9,2.9c-0.5,0.3-1.2,0.7-2.8,0.7c-2.9,0-4.7-2.2-4.7-5.2c0-3.2,1.6-5.8,5-5.8
			c3,0,4.5,2.4,4.5,6.1h-7.6c0,2.2,1,3.4,3,3.4c1.7,0,2.6-1.3,2.7-2.1H1117.2z M1115.5,130c-0.1-1.6-0.8-3.1-2.9-3.1
			c-1.6,0-2.9,1.5-2.9,3.1H1115.5z"/>
		<path class="st10" d="M951.3,149.6h1.7v1.5h0c0.4-0.6,1.2-1.8,3.1-1.8c2.8,0,4.4,2.3,4.4,5.2c0,2.5-1,5.8-4.6,5.8
			c-1.4,0-2.3-0.7-2.8-1.4h0v5.2h-1.8V149.6z M955.8,158.8c1.9,0,2.8-1.7,2.8-4c0-1.3-0.1-3.9-2.9-3.9c-2.5,0-2.8,2.7-2.8,4.4
			C953,158.1,954.7,158.8,955.8,158.8z"/>
		<path class="st10" d="M964.5,160h-1.8v-10.5h1.7v1.7h0c0.7-1.2,1.6-2,2.9-2c0.2,0,0.3,0,0.5,0.1v1.8h-0.7c-1.6,0-2.7,1.3-2.7,2.8
			V160z"/>
		<path class="st10" d="M973.5,149.3c3.3,0,4.9,2.8,4.9,5.5s-1.5,5.5-4.9,5.5s-4.9-2.8-4.9-5.5S970.1,149.3,973.5,149.3z
			 M973.5,158.8c2.5,0,3-2.6,3-4s-0.5-4-3-4s-3,2.6-3,4S970.9,158.8,973.5,158.8z"/>
		<path class="st10" d="M989,160h-1.7v-1.4h0c-0.8,1.4-2,1.7-3,1.7c-3.6,0-4.6-3.3-4.6-5.8c0-2.9,1.6-5.2,4.4-5.2
			c1.9,0,2.7,1.2,3.1,1.8l0-0.1v-5.2h1.8V160z M984.4,158.8c1.1,0,2.9-0.7,2.9-3.5c0-1.7-0.3-4.4-2.8-4.4c-2.7,0-2.9,2.6-2.9,3.9
			C981.5,157.1,982.4,158.8,984.4,158.8z"/>
		<path class="st10" d="M998.3,160v-1.5l0,0c-0.7,1.2-1.6,1.9-3.3,1.9c-1.5,0-3.4-0.7-3.4-3.2v-7.5h1.8v6.9c0,1.7,0.9,2.3,2,2.3
			c2.2,0,2.9-2,2.9-3.5v-5.8h1.8V160H998.3z"/>
		<path class="st10" d="M1004.7,151v6.8c0,0.8,0.7,0.8,1.1,0.8h0.6v1.4c-0.6,0.1-1.1,0.1-1.3,0.1c-1.7,0-2.1-1-2.1-2.2V151h-1.4
			v-1.5h1.4v-2.9h1.8v2.9h1.7v1.5H1004.7z"/>
		<path class="st10" d="M1012.4,149.3c3.3,0,4.9,2.8,4.9,5.5s-1.5,5.5-4.9,5.5c-3.3,0-4.9-2.8-4.9-5.5S1009,149.3,1012.4,149.3z
			 M1012.4,158.8c2.5,0,3-2.6,3-4s-0.5-4-3-4s-3,2.6-3,4S1009.9,158.8,1012.4,158.8z"/>
		<path class="st10" d="M1033.5,160h-1.7v-1.4h0c-0.8,1.4-2,1.7-3,1.7c-3.6,0-4.6-3.3-4.6-5.8c0-2.9,1.6-5.2,4.4-5.2
			c1.9,0,2.7,1.2,3.1,1.8l0-0.1v-5.2h1.8V160z M1028.8,158.8c1.1,0,2.9-0.7,2.9-3.5c0-1.7-0.3-4.4-2.8-4.4c-2.7,0-2.9,2.6-2.9,3.9
			C1026,157.1,1026.9,158.8,1028.8,158.8z"/>
		<path class="st10" d="M1040.2,149.3c3.3,0,4.9,2.8,4.9,5.5s-1.5,5.5-4.9,5.5s-4.9-2.8-4.9-5.5S1036.8,149.3,1040.2,149.3z
			 M1040.2,158.8c2.5,0,3-2.6,3-4s-0.5-4-3-4s-3,2.6-3,4S1037.7,158.8,1040.2,158.8z"/>
		<path class="st10" d="M1055.1,155.9l-1.5,4.2h-2l5.4-14.4h2.2l5.2,14.4h-2.1l-1.4-4.2H1055.1z M1060.1,154.1l-2.1-6.3h0l-2.3,6.3
			H1060.1z"/>
		<path class="st10" d="M1071.9,152.6c0-0.7-0.3-1.8-2.5-1.8c-0.5,0-2.1,0.2-2.1,1.5c0,0.9,0.5,1.1,1.9,1.4l1.8,0.4
			c2.2,0.5,2.9,1.3,2.9,2.8c0,2.2-1.8,3.5-4.1,3.5c-4.1,0-4.4-2.4-4.5-3.7h1.7c0.1,0.8,0.3,2.1,2.8,2.1c1.3,0,2.4-0.5,2.4-1.7
			c0-0.8-0.6-1.1-2.1-1.5l-2-0.5c-1.5-0.4-2.4-1.1-2.4-2.5c0-2.3,1.9-3.3,4-3.3c3.7,0,4,2.8,4,3.3H1071.9z"/>
		<path class="st10" d="M1081.9,152.6c0-0.7-0.3-1.8-2.5-1.8c-0.5,0-2.1,0.2-2.1,1.5c0,0.9,0.5,1.1,1.9,1.4l1.8,0.4
			c2.2,0.5,2.9,1.3,2.9,2.8c0,2.2-1.8,3.5-4.1,3.5c-4.1,0-4.4-2.4-4.5-3.7h1.7c0.1,0.8,0.3,2.1,2.8,2.1c1.3,0,2.4-0.5,2.4-1.7
			c0-0.8-0.6-1.1-2.1-1.5l-2-0.5c-1.5-0.4-2.4-1.1-2.4-2.5c0-2.3,1.9-3.3,4-3.3c3.7,0,4,2.8,4,3.3H1081.9z"/>
		<path class="st10" d="M1094.8,156.8c-0.1,0.5-0.5,2-1.9,2.9c-0.5,0.3-1.2,0.7-2.8,0.7c-2.9,0-4.7-2.2-4.7-5.2c0-3.2,1.6-5.8,5-5.8
			c3,0,4.5,2.4,4.5,6.1h-7.6c0,2.2,1,3.4,3,3.4c1.7,0,2.6-1.3,2.7-2.1H1094.8z M1093.1,154c-0.1-1.6-0.8-3.1-2.9-3.1
			c-1.6,0-2.9,1.5-2.9,3.1H1093.1z"/>
		<path class="st10" d="M1099.2,151v6.8c0,0.8,0.7,0.8,1.1,0.8h0.6v1.4c-0.6,0.1-1.1,0.1-1.3,0.1c-1.7,0-2.1-1-2.1-2.2V151h-1.4
			v-1.5h1.4v-2.9h1.8v2.9h1.7v1.5H1099.2z"/>
		<path class="st10" d="M1108.6,152.6c0-0.7-0.3-1.8-2.5-1.8c-0.5,0-2.1,0.2-2.1,1.5c0,0.9,0.5,1.1,1.9,1.4l1.8,0.4
			c2.2,0.5,2.9,1.3,2.9,2.8c0,2.2-1.8,3.5-4.1,3.5c-4.1,0-4.4-2.4-4.5-3.7h1.7c0.1,0.8,0.3,2.1,2.8,2.1c1.3,0,2.4-0.5,2.4-1.7
			c0-0.8-0.6-1.1-2.1-1.5l-2-0.5c-1.5-0.4-2.4-1.1-2.4-2.5c0-2.3,1.9-3.3,4-3.3c3.7,0,4,2.8,4,3.3H1108.6z"/>
		<path class="st10" d="M997.5,184h-10.6v-14.4h10.5v1.7h-8.5v4.4h7.9v1.7h-7.9v4.8h8.7V184z"/>
		<path class="st10" d="M1005.7,176.6c0-0.7-0.3-1.8-2.5-1.8c-0.5,0-2.1,0.2-2.1,1.5c0,0.9,0.5,1.1,1.9,1.4l1.8,0.4
			c2.2,0.5,2.9,1.3,2.9,2.8c0,2.2-1.8,3.5-4.1,3.5c-4.1,0-4.4-2.4-4.5-3.7h1.7c0.1,0.8,0.3,2.1,2.8,2.1c1.3,0,2.4-0.5,2.4-1.7
			c0-0.8-0.6-1.1-2.1-1.5l-2-0.5c-1.5-0.4-2.4-1.1-2.4-2.5c0-2.3,1.9-3.3,4-3.3c3.7,0,4,2.8,4,3.3H1005.7z"/>
		<path class="st10" d="M1015.7,176.6c0-0.7-0.3-1.8-2.5-1.8c-0.5,0-2.1,0.2-2.1,1.5c0,0.9,0.5,1.1,1.9,1.4l1.8,0.4
			c2.2,0.5,2.9,1.3,2.9,2.8c0,2.2-1.8,3.5-4.1,3.5c-4.1,0-4.4-2.4-4.5-3.7h1.7c0.1,0.8,0.3,2.1,2.8,2.1c1.3,0,2.4-0.5,2.4-1.7
			c0-0.8-0.6-1.1-2.1-1.5l-2-0.5c-1.5-0.4-2.4-1.1-2.4-2.5c0-2.3,1.9-3.3,4-3.3c3.7,0,4,2.8,4,3.3H1015.7z"/>
		<path class="st10" d="M1028.7,180.8c-0.1,0.5-0.5,2-1.9,2.9c-0.5,0.3-1.2,0.7-2.8,0.7c-2.9,0-4.7-2.2-4.7-5.2c0-3.2,1.6-5.8,5-5.8
			c3,0,4.5,2.4,4.5,6.1h-7.6c0,2.2,1,3.4,3,3.4c1.7,0,2.6-1.3,2.7-2.1H1028.7z M1027,178c-0.1-1.6-0.8-3.1-2.9-3.1
			c-1.6,0-2.9,1.5-2.9,3.1H1027z"/>
		<path class="st10" d="M1039.4,184h-1.8v-6.4c0-1.8-0.5-2.7-2.2-2.7c-1,0-2.8,0.6-2.8,3.5v5.7h-1.8v-10.5h1.7v1.5h0
			c0.4-0.6,1.4-1.8,3.2-1.8c1.6,0,3.7,0.7,3.7,3.6V184z"/>
		<path class="st10" d="M1044.2,175v6.8c0,0.8,0.7,0.8,1.1,0.8h0.6v1.4c-0.6,0.1-1.1,0.1-1.3,0.1c-1.7,0-2.1-1-2.1-2.2V175h-1.4
			v-1.5h1.4v-2.9h1.8v2.9h1.7v1.5H1044.2z"/>
		<path class="st10" d="M1047.6,171.7v-2h1.8v2H1047.6z M1049.4,184h-1.8v-10.5h1.8V184z"/>
		<path class="st10" d="M1052,176.8c0.1-2.5,1.7-3.5,4.3-3.5c0.8,0,3.9,0.2,3.9,2.9v6c0,0.4,0.2,0.6,0.6,0.6c0.2,0,0.4,0,0.6-0.1
			v1.3c-0.3,0.1-0.6,0.2-1,0.2c-1.6,0-1.8-0.8-1.9-1.6c-0.7,0.7-1.7,1.7-3.8,1.7c-1.9,0-3.3-1.2-3.3-3c0-0.9,0.3-2.9,3.2-3.3
			l2.9-0.4c0.4,0,0.9-0.2,0.9-1.2c0-1.1-0.8-1.7-2.5-1.7c-2,0-2.3,1.2-2.4,2H1052z M1058.4,178.7c-0.3,0.2-0.7,0.4-2.9,0.7
			c-0.9,0.1-2.2,0.4-2.2,1.7c0,1.1,0.6,1.8,1.9,1.8c1.6,0,3.2-1.1,3.2-2.5V178.7z"/>
		<path class="st10" d="M1065,184h-1.8v-14.4h1.8V184z"/>
		<path class="st10" d="M1073.5,176.6c0-0.7-0.3-1.8-2.5-1.8c-0.5,0-2.1,0.2-2.1,1.5c0,0.9,0.5,1.1,1.9,1.4l1.8,0.4
			c2.2,0.5,2.9,1.3,2.9,2.8c0,2.2-1.8,3.5-4.1,3.5c-4.1,0-4.4-2.4-4.5-3.7h1.7c0.1,0.8,0.3,2.1,2.8,2.1c1.3,0,2.4-0.5,2.4-1.7
			c0-0.8-0.6-1.1-2.1-1.5l-2-0.5c-1.5-0.4-2.4-1.1-2.4-2.5c0-2.3,1.9-3.3,4-3.3c3.7,0,4,2.8,4,3.3H1073.5z"/>
	</g>
</g>
<g transform="translate(-0.5 -0.5)">
	<g class="st9">
		<path class="st10" d="M131.8,451h-3.5l5.6-15.8h3.8l5.6,15.8h-3.6l-1-3.3h-5.8L131.8,451z M133.8,445h4l-2-6.2h0L133.8,445z"/>
		<path class="st10" d="M155.9,451h-3v-1.5h0c-0.7,1.3-2.1,1.8-3.4,1.8c-3.5,0-4.9-3.1-4.9-6.3c0-4,2.3-6,4.9-6c2,0,2.9,1.1,3.4,1.8
			h0v-5.6h3.1V451z M150.3,448.8c2,0,2.7-1.6,2.7-3.4c0-1.9-0.5-3.8-2.6-3.8c-2,0-2.6,1.7-2.6,3.6
			C147.7,446.6,148.3,448.8,150.3,448.8z"/>
		<path class="st10" d="M175.4,451h-3.1v-7.1c0-1.7-0.8-2.3-1.7-2.3c-1.5,0-2.1,1-2.1,2.4v7h-3.1v-7c0-1,0-2.4-1.8-2.4
			c-1.5,0-1.9,1-1.9,2.3v7.1h-3.1v-11.7h2.9v1.7h0c0.4-0.8,1.3-2,3.3-2c1.7,0,2.5,0.6,3.3,1.9c0.4-0.6,1.3-1.9,3.1-1.9
			c2.3,0,4.1,1.3,4.1,3.9V451z"/>
		<path class="st10" d="M181.4,437.9h-3.1v-2.9h3.1V437.9z M181.4,439.3V451h-3.1v-11.7H181.4z"/>
		<path class="st10" d="M194.9,451h-3.1v-7.1c0-0.9,0-2.3-2-2.3c-1.4,0-2.4,0.9-2.4,2.7v6.7h-3.1v-11.7h2.9v1.7h0
			c0.4-0.7,1.3-2,3.5-2c2.3,0,4.1,1.3,4.1,3.9V451z"/>
		<path class="st10" d="M201,437.9h-3.1v-2.9h3.1V437.9z M201,439.3V451h-3.1v-11.7H201z"/>
		<path class="st10" d="M210.5,442.9c-0.1-0.7-0.4-1.5-2.1-1.5s-1.9,0.6-1.9,1.1c0,1.8,7.3,0.5,7.3,4.8c0,3.4-3.3,4-5.1,4
			c-2.7,0-5.5-0.9-5.6-4h3.2c0,1,0.6,1.7,2.6,1.7c1.6,0,2-0.8,2-1.2c0-2-7.3-0.5-7.3-4.9c0-1.7,1.1-3.9,4.7-3.9c2.3,0,5,0.6,5.3,3.9
			H210.5z"/>
		<path class="st10" d="M219.6,439.3h1.9v2.2h-1.9v6.4c0,0.7,0,0.9,1.3,0.9c0.2,0,0.4,0,0.6,0v2.3c-0.5,0-1,0-1.5,0h-0.4
			c-2.7,0-3.1-1-3.1-2.5v-7.1h-1.6v-2.2h1.6v-3.2h3.1V439.3z"/>
		<path class="st10" d="M223.5,439.3h2.9v2h0c0.6-1.2,1.3-2.3,3.2-2.3c0.2,0,0.4,0,0.6,0v3.1c-0.3,0-0.6,0-0.9,0
			c-2.4,0-2.8,1.5-2.8,2.8v6.1h-3.1V439.3z"/>
		<path class="st10" d="M241.5,448.7c0,1.4,0.3,1.7,0.7,1.8v0.5h-3.3c-0.2-0.5-0.2-0.7-0.3-1.4c-0.7,0.7-1.7,1.7-3.8,1.7
			c-1.8,0-3.6-1-3.6-3.4c0-2.3,1.5-3.5,3.4-3.7l2.8-0.4c0.5-0.1,1.1-0.3,1.1-0.9c0-1.3-1.2-1.4-2-1.4c-1.5,0-1.8,0.9-1.9,1.6h-3
			c0.4-3.6,2.8-4.1,5.2-4.1c1.6,0,4.7,0.5,4.7,3.4V448.7z M238.5,445.3c-0.3,0.2-0.8,0.4-2.1,0.6c-1.1,0.2-2.1,0.5-2.1,1.8
			c0,1.1,0.8,1.4,1.4,1.4c1.4,0,2.8-0.9,2.8-2.3V445.3z"/>
		<path class="st10" d="M255,451h-3v-1.5h0c-0.7,1.3-2.1,1.8-3.4,1.8c-3.5,0-4.9-3.1-4.9-6.3c0-4,2.3-6,4.9-6c2,0,2.9,1.1,3.4,1.8h0
			v-5.6h3.1V451z M249.3,448.8c2,0,2.7-1.6,2.7-3.4c0-1.9-0.5-3.8-2.6-3.8c-2,0-2.6,1.7-2.6,3.6
			C246.8,446.6,247.3,448.8,249.3,448.8z"/>
		<path class="st10" d="M263,451.3c-3.1,0-6-1.9-6-6.2s2.8-6.2,6-6.2s6,1.9,6,6.2S266.2,451.3,263,451.3z M263,441.6
			c-2.4,0-2.8,2.1-2.8,3.6s0.4,3.6,2.8,3.6s2.8-2.1,2.8-3.6S265.4,441.6,263,441.6z"/>
		<path class="st10" d="M271.1,439.3h2.9v2h0c0.6-1.2,1.3-2.3,3.2-2.3c0.2,0,0.4,0,0.6,0v3.1c-0.3,0-0.6,0-0.9,0
			c-2.4,0-2.8,1.5-2.8,2.8v6.1h-3.1V439.3z"/>
		<path class="st10" d="M296.5,451h-3v-1.5h0c-0.7,1.3-2.1,1.8-3.4,1.8c-3.5,0-4.9-3.1-4.9-6.3c0-4,2.3-6,4.9-6c2,0,2.9,1.1,3.4,1.8
			h0v-5.6h3.1V451z M290.8,448.8c2,0,2.7-1.6,2.7-3.4c0-1.9-0.5-3.8-2.6-3.8c-2,0-2.6,1.7-2.6,3.6
			C288.3,446.6,288.9,448.8,290.8,448.8z"/>
		<path class="st10" d="M304.6,451.3c-3.1,0-6-1.9-6-6.2s2.8-6.2,6-6.2s6,1.9,6,6.2S307.7,451.3,304.6,451.3z M304.6,441.6
			c-2.4,0-2.8,2.1-2.8,3.6s0.4,3.6,2.8,3.6s2.8-2.1,2.8-3.6S306.9,441.6,304.6,441.6z"/>
		<path class="st10" d="M141,475.1c0,1.4,0.3,1.7,0.7,1.8v0.5h-3.3c-0.2-0.5-0.2-0.7-0.3-1.4c-0.7,0.7-1.7,1.7-3.8,1.7
			c-1.8,0-3.6-1-3.6-3.4c0-2.3,1.5-3.5,3.4-3.7l2.8-0.4c0.5-0.1,1.1-0.3,1.1-0.9c0-1.3-1.2-1.4-2-1.4c-1.5,0-1.8,0.9-1.9,1.6h-3
			c0.4-3.6,2.8-4.1,5.2-4.1c1.6,0,4.7,0.5,4.7,3.4V475.1z M138,471.7c-0.3,0.2-0.8,0.4-2.1,0.6c-1.1,0.2-2.1,0.5-2.1,1.8
			c0,1.1,0.8,1.4,1.4,1.4c1.4,0,2.8-0.9,2.8-2.3V471.7z"/>
		<path class="st10" d="M146.6,467.4L146.6,467.4c0.6-0.9,1.5-2,3.5-2c2.6,0,4.9,2,4.9,6c0,3.2-1.5,6.3-4.9,6.3
			c-2.2,0-2.9-1.2-3.3-1.8h0v6.1h-3.1v-16.3h2.9V467.4z M149.3,475.2c2,0,2.5-2.2,2.5-3.5c0-1.8-0.7-3.6-2.6-3.6
			c-2.1,0-2.6,1.9-2.6,3.8C146.6,473.6,147.4,475.2,149.3,475.2z"/>
		<path class="st10" d="M160.3,477.4h-3.1v-15.8h3.1V477.4z"/>
		<path class="st10" d="M166.5,464.3h-3.1v-2.9h3.1V464.3z M166.5,465.7v11.7h-3.1v-11.7H166.5z"/>
		<path class="st10" d="M179.5,473.1c-0.1,1.2-1.1,4.6-5.3,4.6c-4.4,0-5.4-3.4-5.4-5.8c0-3.8,1.7-6.5,5.6-6.5c1.8,0,4.9,0.8,5.2,4.5
			h-3.1c-0.1-0.8-0.6-2-2-1.9c-1.9,0-2.4,1.9-2.4,3.4c0,1.3,0,3.8,2.4,3.8c1.6,0,2.1-1.5,2.1-2H179.5z"/>
		<path class="st10" d="M191.1,475.1c0,1.4,0.3,1.7,0.7,1.8v0.5h-3.3c-0.2-0.5-0.2-0.7-0.3-1.4c-0.7,0.7-1.7,1.7-3.8,1.7
			c-1.8,0-3.6-1-3.6-3.4c0-2.3,1.5-3.5,3.4-3.7l2.8-0.4c0.5-0.1,1.1-0.3,1.1-0.9c0-1.3-1.2-1.4-2-1.4c-1.5,0-1.8,0.9-1.9,1.6h-3
			c0.4-3.6,2.8-4.1,5.2-4.1c1.6,0,4.7,0.5,4.7,3.4V475.1z M188.1,471.7c-0.3,0.2-0.8,0.4-2.1,0.6c-1.1,0.2-2.1,0.5-2.1,1.8
			c0,1.1,0.8,1.4,1.4,1.4c1.4,0,2.8-0.9,2.8-2.3V471.7z"/>
		<path class="st10" d="M197.3,465.7h1.9v2.2h-1.9v6.4c0,0.7,0,0.9,1.3,0.9c0.2,0,0.4,0,0.6,0v2.3c-0.5,0-1,0-1.5,0h-0.4
			c-2.7,0-3.1-1-3.1-2.5v-7.1h-1.6v-2.2h1.6v-3.2h3.1V465.7z"/>
		<path class="st10" d="M204.4,464.3h-3.1v-2.9h3.1V464.3z M204.4,465.7v11.7h-3.1v-11.7H204.4z"/>
		<path class="st10" d="M213.6,477.4h-3.2l-4.2-11.7h3.4l2.4,8.6h0l2.5-8.6h3.3L213.6,477.4z"/>
		<path class="st10" d="M224.2,477.7c-3.1,0-6-1.9-6-6.2s2.8-6.2,6-6.2s6,1.9,6,6.2S227.3,477.7,224.2,477.7z M224.2,468
			c-2.4,0-2.8,2.1-2.8,3.6s0.4,3.6,2.8,3.6s2.8-2.1,2.8-3.6S226.6,468,224.2,468z"/>
		<path class="st10" d="M240.9,477.4h-3.5l5.6-15.8h3.8l5.6,15.8h-3.6l-1-3.3H242L240.9,477.4z M242.9,471.4h4l-2-6.2h0L242.9,471.4
			z"/>
		<path class="st10" d="M260.9,469.3c-0.1-0.7-0.4-1.5-2.1-1.5s-1.9,0.6-1.9,1.1c0,1.8,7.3,0.5,7.3,4.8c0,3.4-3.3,4-5.1,4
			c-2.7,0-5.5-0.9-5.6-4h3.2c0,1,0.6,1.7,2.6,1.7c1.6,0,2-0.8,2-1.2c0-2-7.3-0.5-7.3-4.9c0-1.7,1.1-3.9,4.7-3.9c2.3,0,5,0.6,5.3,3.9
			H260.9z"/>
		<path class="st10" d="M273.2,469.3c-0.1-0.7-0.4-1.5-2.1-1.5s-1.9,0.6-1.9,1.1c0,1.8,7.3,0.5,7.3,4.8c0,3.4-3.3,4-5.1,4
			c-2.7,0-5.5-0.9-5.6-4h3.2c0,1,0.6,1.7,2.6,1.7c1.6,0,2-0.8,2-1.2c0-2-7.3-0.5-7.3-4.9c0-1.7,1.1-3.9,4.7-3.9c2.3,0,5,0.6,5.3,3.9
			H273.2z"/>
		<path class="st10" d="M288.8,474c-0.8,2.8-3.1,3.7-5.1,3.7c-3.3,0-5.8-1.6-5.8-6.4c0-1.4,0.5-5.9,5.6-5.9c2.3,0,5.5,1.1,5.5,6.4
			v0.5h-8c0.1,0.9,0.3,2.9,2.8,2.9c0.9,0,1.7-0.4,2-1.3H288.8z M285.8,470.4c-0.2-1.9-1.4-2.5-2.4-2.5c-1.5,0-2.2,0.9-2.4,2.5H285.8
			z"/>
		<path class="st10" d="M294.5,465.7h1.9v2.2h-1.9v6.4c0,0.7,0,0.9,1.3,0.9c0.2,0,0.4,0,0.6,0v2.3c-0.5,0-1,0-1.5,0h-0.4
			c-2.7,0-3.1-1-3.1-2.5v-7.1h-1.6v-2.2h1.6v-3.2h3.1V465.7z"/>
		<path class="st10" d="M305,469.3c-0.1-0.7-0.4-1.5-2.1-1.5s-1.9,0.6-1.9,1.1c0,1.8,7.3,0.5,7.3,4.8c0,3.4-3.3,4-5.1,4
			c-2.7,0-5.5-0.9-5.6-4h3.2c0,1,0.6,1.7,2.6,1.7c1.6,0,2-0.8,2-1.2c0-2-7.3-0.5-7.3-4.9c0-1.7,1.1-3.9,4.7-3.9c2.3,0,5,0.6,5.3,3.9
			H305z"/>
		<path class="st10" d="M178.5,490.8h-8.4v3.3h7.7v2.8h-7.7v4.1h8.8v2.8h-12V488h11.6V490.8z"/>
		<path class="st10" d="M187.9,495.7c-0.1-0.7-0.4-1.5-2.1-1.5s-1.9,0.6-1.9,1.1c0,1.8,7.3,0.5,7.3,4.8c0,3.4-3.3,4-5.1,4
			c-2.7,0-5.5-0.9-5.6-4h3.2c0,1,0.6,1.7,2.6,1.7c1.6,0,2-0.8,2-1.2c0-2-7.3-0.5-7.3-4.9c0-1.7,1.1-3.9,4.7-3.9c2.3,0,5,0.6,5.3,3.9
			H187.9z"/>
		<path class="st10" d="M200.1,495.7c-0.1-0.7-0.4-1.5-2.1-1.5s-1.9,0.6-1.9,1.1c0,1.8,7.3,0.5,7.3,4.8c0,3.4-3.3,4-5.1,4
			c-2.7,0-5.5-0.9-5.6-4h3.2c0,1,0.6,1.7,2.6,1.7c1.6,0,2-0.8,2-1.2c0-2-7.3-0.5-7.3-4.9c0-1.7,1.1-3.9,4.7-3.9c2.3,0,5,0.6,5.3,3.9
			H200.1z"/>
		<path class="st10" d="M215.8,500.4c-0.8,2.8-3.1,3.7-5.1,3.7c-3.3,0-5.8-1.6-5.8-6.4c0-1.4,0.5-5.9,5.6-5.9c2.3,0,5.5,1.1,5.5,6.4
			v0.5h-8c0.1,0.9,0.3,2.9,2.8,2.9c0.9,0,1.7-0.4,2-1.3H215.8z M212.8,496.8c-0.2-1.9-1.4-2.5-2.4-2.5c-1.5,0-2.2,0.9-2.4,2.5H212.8
			z"/>
		<path class="st10" d="M228.6,503.8h-3.1v-7.1c0-0.9,0-2.3-2-2.3c-1.4,0-2.4,0.9-2.4,2.7v6.7H218v-11.7h2.9v1.7h0
			c0.4-0.7,1.3-2,3.5-2c2.3,0,4.1,1.3,4.1,3.9V503.8z"/>
		<path class="st10" d="M234.9,492.1h1.9v2.2h-1.9v6.4c0,0.7,0,0.9,1.3,0.9c0.2,0,0.4,0,0.6,0v2.3c-0.5,0-1,0-1.5,0H235
			c-2.7,0-3.1-1-3.1-2.5v-7.1h-1.6v-2.2h1.6v-3.2h3.1V492.1z"/>
		<path class="st10" d="M241.9,490.7h-3.1v-2.9h3.1V490.7z M241.9,492.1v11.7h-3.1v-11.7H241.9z"/>
		<path class="st10" d="M254.4,501.5c0,1.4,0.3,1.7,0.7,1.8v0.5h-3.3c-0.2-0.5-0.2-0.7-0.3-1.4c-0.7,0.7-1.7,1.7-3.8,1.7
			c-1.8,0-3.6-1-3.6-3.4c0-2.3,1.5-3.5,3.4-3.7l2.8-0.4c0.5-0.1,1.1-0.3,1.1-0.9c0-1.3-1.2-1.4-2-1.4c-1.5,0-1.8,0.9-1.9,1.6h-3
			c0.4-3.6,2.8-4.1,5.2-4.1c1.6,0,4.7,0.5,4.7,3.4V501.5z M251.3,498.1c-0.3,0.2-0.8,0.4-2.1,0.6c-1.1,0.2-2.1,0.5-2.1,1.8
			c0,1.1,0.8,1.4,1.4,1.4c1.4,0,2.8-0.9,2.8-2.3V498.1z"/>
		<path class="st10" d="M260.3,503.8h-3.1V488h3.1V503.8z"/>
		<path class="st10" d="M269.8,495.7c-0.1-0.7-0.4-1.5-2.1-1.5s-1.9,0.6-1.9,1.1c0,1.8,7.3,0.5,7.3,4.8c0,3.4-3.3,4-5.1,4
			c-2.7,0-5.5-0.9-5.6-4h3.2c0,1,0.6,1.7,2.6,1.7c1.6,0,2-0.8,2-1.2c0-2-7.3-0.5-7.3-4.9c0-1.7,1.1-3.9,4.7-3.9c2.3,0,5,0.6,5.3,3.9
			H269.8z"/>
	</g>
</g>
<g transform="translate(-0.5 -0.5)">
	<g class="st9">
		<path class="st10" d="M130.9,284.8c-0.3-0.9-0.8-2.7-3.5-2.7c-1.6,0-3.9,1.1-3.9,5.5c0,2.8,1.1,5.4,3.9,5.4c1.8,0,3.1-1,3.5-3h3.3
			c-0.7,3.4-2.9,5.8-6.9,5.8c-4.2,0-7.2-2.8-7.2-8.3c0-5.5,3.2-8.3,7.3-8.3c4.7,0,6.6,3.3,6.8,5.6H130.9z"/>
		<path class="st10" d="M136.4,283.7h2.9v2h0c0.6-1.2,1.3-2.3,3.2-2.3c0.2,0,0.4,0,0.6,0v3.1c-0.3,0-0.6,0-0.9,0
			c-2.4,0-2.8,1.5-2.8,2.8v6.1h-3.1V283.7z"/>
		<path class="st10" d="M148.1,282.3h-3.1v-2.9h3.1V282.3z M148.1,283.7v11.7h-3.1v-11.7H148.1z"/>
		<path class="st10" d="M160.6,293.1c0,1.4,0.3,1.7,0.7,1.8v0.5h-3.3c-0.2-0.5-0.2-0.7-0.3-1.4c-0.7,0.7-1.7,1.7-3.8,1.7
			c-1.8,0-3.6-1-3.6-3.4c0-2.3,1.5-3.5,3.4-3.7l2.8-0.4c0.5-0.1,1.1-0.3,1.1-0.9c0-1.3-1.2-1.4-2-1.4c-1.5,0-1.8,0.9-1.9,1.6h-3
			c0.4-3.6,2.8-4.1,5.2-4.1c1.6,0,4.7,0.5,4.7,3.4V293.1z M157.6,289.7c-0.3,0.2-0.8,0.4-2.1,0.6c-1.1,0.2-2.1,0.5-2.1,1.8
			c0,1.1,0.8,1.4,1.4,1.4c1.4,0,2.8-0.9,2.8-2.3V289.7z"/>
	</g>
</g>
</svg>
