<?xml version="1.0" encoding="utf-8"?>
<!-- Generator: Adobe Illustrator 26.5.2, SVG Export Plug-In . SVG Version: 6.00 Build 0)  -->
<svg version="1.1" id="Layer_1" xmlns="http://www.w3.org/2000/svg" xmlns:xlink="http://www.w3.org/1999/xlink" x="0px" y="0px"
	 width="517px" height="390px" viewBox="0 0 517 390" style="enable-background:new 0 0 517 390;" xml:space="preserve">
<style type="text/css">
	.st0{fill:#FFFFFF;}
	.st1{fill:none;}
	.st2{fill:#FFB366;}
	.st3{enable-background:new    ;}
	.st4{fill:#7EA6E0;}
	.st5{fill:#7EA6E0;stroke:#000000;stroke-miterlimit:10;}
	.st6{fill:#FFB366;stroke:#000000;stroke-miterlimit:10;}
	.st7{fill:none;stroke:#000000;stroke-miterlimit:10;}
	.st8{stroke:#000000;stroke-miterlimit:10;}
	.st9{fill:#EDED00;}
</style>
<rect x="-5.4" y="-9.6" class="st0" width="536.6" height="410.7"/>
<rect x="332.5" y="192.5" pointer-events="all" class="st1" width="130" height="120"/>
<path pointer-events="all" class="st2" d="M433.7,275.9c1.4,0,3.4-1.1,3.4-3.5c0-1.8-1.6-3.3-3.5-3.3c-1.7,0-3.4,1.4-3.4,3.4
	C430.2,274.4,431.7,275.9,433.7,275.9z M433.6,308.8l4.8-4.8l-3.3-3.3l3.5-3.6l-3.9-4.1l3.1-3.2v-4.5c4.2-2.1,6.6-5.9,6.6-9.9
	c0-5.1-3.9-10.8-11.1-10.8c-4.7,0.2-9.9,3.3-10.7,10.7c0,4.7,3,8.4,6.6,10.1v19L433.6,308.8z M411.4,312.5c-2.8,0-4.9-2.1-4.9-4.6
	v-44.9c0-2.8,2.4-4.7,4.8-4.7h46.4c2.9,0,4.9,2.3,4.9,4.7v44.9c0,2.7-2.3,4.7-4.9,4.7H411.4z M411.2,253.4c-2,0-5.2,0.8-7,3.2
	c-1.6-4.1-4.5-6.5-7.9-8.4c-2.1-1.2-4.2-2.3-6.3-3.4c0.5-1.8,1.1-3.3,1.8-4.4c1-1.9,2.5-3.2,4.6-4.5l5.7-3.1c2.2-1.2,4.2-1.9,6-0.1
	c10,7.1,19.9,6.7,29.2-0.3c1.1-1.1,2.9-1,4.7-0.1c3.5,1.9,7.8,4,8.8,5c2.3,1.8,3.5,4.3,4.3,7.2c0.8,3.1,1.4,6,1.8,8.7H411.2z
	 M422.7,230.2c-9.3,0-17.4-8.3-17.4-18.6c0-12.2,9.3-19.1,17.2-19.1c10.1,0,17.8,8.5,17.8,19.2C440.2,221.9,432.2,230.2,422.7,230.2
	z M368.5,247.1c-9.7,0-17.7-8.2-17.7-19.1c0-9.9,7.9-18.6,17.4-18.6c10.3,0,17.6,9.3,17.6,18.8C385.8,239.6,376.9,247.1,368.5,247.1
	z M332.5,285.2c0.9-9.2,1.9-21.6,4-26.1c1-2.4,2.3-4.3,5-5.9l6.3-3.5c2-1.1,4.1-1.6,5.4-0.4c8.5,6.4,19,8.2,29.7,0
	c1-0.9,2.5-0.9,3.9-0.3c2,0.8,4.9,2.5,7.4,3.9c3.4,1.9,5.2,4.4,6.5,9c0.3,1,0.5,2,0.7,3v20.3H332.5z"/>
<g class="st3">
	<path d="M319,326.4h3.6v4.6h-1.2l-0.2-1.1c-0.5,0.5-1.1,1.3-2.7,1.3c-2.1,0-4-1.5-4-4.5c0-2.4,1.3-4.6,4.2-4.6
		c2.6,0,3.7,1.7,3.8,2.9h-1.8c0-0.3-0.6-1.4-1.9-1.4c-1.3,0-2.5,0.9-2.5,3.1c0,2.4,1.3,3,2.5,3c0.4,0,1.7-0.2,2.1-1.9h-2V326.4z"/>
	<path d="M324.2,324.6h1.6v1.1h0c0.3-0.6,0.7-1.3,1.8-1.3c0.1,0,0.2,0,0.3,0v1.7c-0.1,0-0.3,0-0.5,0c-1.3,0-1.5,0.8-1.5,1.5v3.3
		h-1.7V324.6z"/>
	<path d="M334.6,331H333v-0.9h0c-0.4,0.7-1.1,1.1-1.9,1.1c-1.3,0-2.2-0.7-2.2-2.4v-4.2h1.7v4c0,1,0.6,1.2,1.1,1.2
		c0.6,0,1.3-0.3,1.3-1.5v-3.7h1.7V331z"/>
	<path d="M337.7,325.5L337.7,325.5c0.3-0.5,0.8-1.1,1.9-1.1c1.4,0,2.7,1.1,2.7,3.3c0,1.8-0.8,3.4-2.7,3.4c-1.2,0-1.6-0.6-1.8-1h0
		v3.3h-1.7v-8.9h1.6V325.5z M339.2,329.8c1.1,0,1.4-1.2,1.4-1.9c0-1-0.4-2-1.4-2c-1.2,0-1.4,1-1.4,2.1
		C337.7,328.9,338.1,329.8,339.2,329.8z"/>
	<path d="M346.4,331.2c-1.7,0-3.3-1.1-3.3-3.4s1.5-3.4,3.3-3.4s3.3,1.1,3.3,3.4S348.1,331.2,346.4,331.2z M346.4,325.9
		c-1.3,0-1.5,1.1-1.5,1.9s0.2,1.9,1.5,1.9c1.3,0,1.5-1.1,1.5-1.9S347.7,325.9,346.4,325.9z"/>
	<path d="M360,331h-1.6v-0.8h0c-0.4,0.7-1.2,1-1.8,1c-1.9,0-2.7-1.7-2.7-3.4c0-2.2,1.2-3.3,2.7-3.3c1.1,0,1.6,0.6,1.8,1h0v-3.1h1.7
		V331z M356.9,329.8c1.1,0,1.5-0.9,1.5-1.8c0-1-0.3-2.1-1.4-2.1c-1.1,0-1.4,0.9-1.4,2C355.5,328.6,355.8,329.8,356.9,329.8z"/>
	<path d="M367,329.1c-0.4,1.5-1.7,2-2.8,2c-1.8,0-3.2-0.9-3.2-3.5c0-0.8,0.3-3.2,3.1-3.2c1.3,0,3,0.6,3,3.5v0.3h-4.4
		c0,0.5,0.1,1.6,1.5,1.6c0.5,0,0.9-0.2,1.1-0.7H367z M365.3,327.2c-0.1-1-0.8-1.3-1.3-1.3c-0.8,0-1.2,0.5-1.3,1.3H365.3z"/>
	<path d="M377.3,331h-1.6v-0.9h0c-0.4,0.7-1.1,1.1-1.9,1.1c-1.3,0-2.2-0.7-2.2-2.4v-4.2h1.7v4c0,1,0.6,1.2,1.1,1.2
		c0.6,0,1.3-0.3,1.3-1.5v-3.7h1.7V331z"/>
	<path d="M382.4,326.6c-0.1-0.4-0.2-0.8-1.1-0.8c-0.9,0-1,0.3-1,0.6c0,1,4,0.3,4,2.6c0,1.9-1.8,2.2-2.8,2.2c-1.5,0-3-0.5-3.1-2.2
		h1.7c0,0.5,0.3,0.9,1.4,0.9c0.9,0,1.1-0.4,1.1-0.7c0-1.1-4-0.3-4-2.7c0-0.9,0.6-2.1,2.6-2.1c1.2,0,2.7,0.3,2.9,2.1H382.4z"/>
	<path d="M391.3,331h-1.6v-0.9h0c-0.4,0.7-1.1,1.1-1.9,1.1c-1.3,0-2.2-0.7-2.2-2.4v-4.2h1.7v4c0,1,0.6,1.2,1.1,1.2
		c0.6,0,1.3-0.3,1.3-1.5v-3.7h1.7V331z"/>
	<path d="M398,329.8c0,0.8,0.2,0.9,0.4,1v0.3h-1.8c-0.1-0.3-0.1-0.4-0.2-0.8c-0.4,0.4-0.9,0.9-2.1,0.9c-1,0-1.9-0.5-1.9-1.9
		c0-1.2,0.8-1.9,1.9-2l1.5-0.2c0.3,0,0.6-0.1,0.6-0.5c0-0.7-0.7-0.7-1.1-0.7c-0.8,0-1,0.5-1,0.9h-1.6c0.2-2,1.5-2.2,2.9-2.2
		c0.9,0,2.5,0.3,2.5,1.8V329.8z M396.4,327.9c-0.2,0.1-0.4,0.2-1.1,0.3c-0.6,0.1-1.1,0.3-1.1,1c0,0.6,0.5,0.8,0.8,0.8
		c0.7,0,1.5-0.5,1.5-1.3V327.9z M395.9,323.8h-1.2l1.1-1.8h1.8L395.9,323.8z"/>
	<path d="M399.5,324.6h1.6v1.1h0c0.3-0.6,0.7-1.3,1.8-1.3c0.1,0,0.2,0,0.3,0v1.7c-0.1,0-0.3,0-0.5,0c-1.3,0-1.5,0.8-1.5,1.5v3.3
		h-1.7V324.6z"/>
	<path d="M405.9,323.9h-1.7v-1.6h1.7V323.9z M405.9,324.6v6.4h-1.7v-6.4H405.9z"/>
	<path d="M410.4,331.2c-1.7,0-3.3-1.1-3.3-3.4s1.5-3.4,3.3-3.4s3.3,1.1,3.3,3.4S412.1,331.2,410.4,331.2z M410.4,325.9
		c-1.3,0-1.5,1.1-1.5,1.9s0.2,1.9,1.5,1.9c1.3,0,1.5-1.1,1.5-1.9S411.7,325.9,410.4,325.9z"/>
	<path d="M418.5,326.6c-0.1-0.4-0.2-0.8-1.1-0.8c-0.9,0-1,0.3-1,0.6c0,1,4,0.3,4,2.6c0,1.9-1.8,2.2-2.8,2.2c-1.5,0-3-0.5-3.1-2.2
		h1.7c0,0.5,0.3,0.9,1.4,0.9c0.9,0,1.1-0.4,1.1-0.7c0-1.1-4-0.3-4-2.7c0-0.9,0.6-2.1,2.6-2.1c1.2,0,2.7,0.3,2.9,2.1H418.5z"/>
	<path d="M433.3,331h-1.7v-7.2h0l-1.6,7.2h-1.8l-1.6-7.2h0v7.2h-1.7v-8.6h2.6l1.6,6.8h0l1.5-6.8h2.6V331z"/>
	<path d="M440,329.8c0,0.8,0.2,0.9,0.4,1v0.3h-1.8c-0.1-0.3-0.1-0.4-0.2-0.8c-0.4,0.4-0.9,0.9-2.1,0.9c-1,0-1.9-0.5-1.9-1.9
		c0-1.2,0.8-1.9,1.9-2l1.5-0.2c0.3,0,0.6-0.1,0.6-0.5c0-0.7-0.7-0.7-1.1-0.7c-0.8,0-1,0.5-1,0.9h-1.6c0.2-2,1.5-2.2,2.9-2.2
		c0.9,0,2.5,0.3,2.5,1.8V329.8z M438.4,327.9c-0.2,0.1-0.4,0.2-1.1,0.3c-0.6,0.1-1.1,0.3-1.1,1c0,0.6,0.5,0.8,0.8,0.8
		c0.7,0,1.5-0.5,1.5-1.3V327.9z"/>
	<path d="M441.5,324.6h1.6v1.1h0c0.3-0.6,0.7-1.3,1.8-1.3c0.1,0,0.2,0,0.3,0v1.7c-0.1,0-0.3,0-0.5,0c-1.3,0-1.5,0.8-1.5,1.5v3.3
		h-1.7V324.6z"/>
	<path d="M447.9,331h-1.7v-8.6h1.7v4.7l2.1-2.4h2.1l-2.3,2.5l2.3,3.9h-2l-1.5-2.7l-0.7,0.7V331z"/>
	<path d="M458.3,329.1c-0.4,1.5-1.7,2-2.8,2c-1.8,0-3.2-0.9-3.2-3.5c0-0.8,0.3-3.2,3.1-3.2c1.3,0,3,0.6,3,3.5v0.3H454
		c0,0.5,0.1,1.6,1.5,1.6c0.5,0,0.9-0.2,1.1-0.7H458.3z M456.7,327.2c-0.1-1-0.8-1.3-1.3-1.3c-0.8,0-1.2,0.5-1.3,1.3H456.7z"/>
	<path d="M461.4,324.6h1v1.2h-1v3.5c0,0.4,0,0.5,0.7,0.5c0.1,0,0.2,0,0.3,0v1.3c-0.3,0-0.5,0-0.8,0h-0.2c-1.5,0-1.7-0.6-1.7-1.4
		v-3.9h-0.9v-1.2h0.9v-1.7h1.7V324.6z"/>
	<path d="M465.3,323.9h-1.7v-1.6h1.7V323.9z M465.3,324.6v6.4h-1.7v-6.4H465.3z"/>
	<path d="M472.6,331H471v-3.9c0-0.5,0-1.3-1.1-1.3c-0.7,0-1.3,0.5-1.3,1.5v3.7h-1.7v-6.4h1.6v0.9h0c0.2-0.4,0.7-1.1,1.9-1.1
		c1.2,0,2.2,0.7,2.2,2.1V331z"/>
	<path d="M480.1,324.6v6c0,1.1-0.1,2.9-3.2,2.9c-1.3,0-2.7-0.6-2.8-1.9h1.8c0.1,0.3,0.2,0.6,1.2,0.6c0.9,0,1.3-0.4,1.3-1.5v-0.8l0,0
		c-0.3,0.5-0.7,1-1.7,1c-1.5,0-2.7-1.1-2.7-3.3c0-2.2,1.2-3.3,2.7-3.3c1.2,0,1.7,0.7,1.9,1.1h0v-0.9H480.1z M477,329.6
		c1.1,0,1.4-1,1.4-1.8c0-1-0.5-1.9-1.4-1.9c-0.6,0-1.3,0.5-1.3,1.9C475.6,328.7,476,329.6,477,329.6z"/>
</g>
<rect x="140.5" y="72.5" pointer-events="all" class="st1" width="130" height="90"/>
<path pointer-events="all" class="st4" d="M140.5,150.7c0.6-7.6,1.5-15.1,2.8-22.7c0.6-2.3,1.3-4.5,2.2-6.8c0.9-2.3,2.5-4.2,4.6-5.7
	c2.6-1.7,5.6-2.9,8.7-3.6c1.3-0.5,2.7-0.5,3.9,0c9.1,7.9,23.3,7.9,32.4,0c1.1-0.4,2.4-0.4,3.5,0c3.6,1.1,7.1,2.6,10.3,4.4
	c-4,0.4-7.9,1.5-11.5,3.2c-5.5,2.7-9.7,7.3-11.5,12.8l-2.8,18.3L140.5,150.7z M178,108.1c-4.8,0.1-9.4-1.8-12.6-5.1
	c-3.3-3.4-5-8-4.8-12.7c-0.1-4.6,1.7-9.1,5-12.4c3.3-3.3,7.8-5.1,12.5-5c4.8-0.4,9.6,1.3,13.1,4.6c3.5,3.3,5.4,8,5.3,12.8
	c0.3,4.9-1.6,9.7-5.1,13.1C187.8,106.8,182.9,108.5,178,108.1z M188.5,162.5c0.6-6.7,1.4-13.4,2.5-20.1c0.5-3,1.2-6,2.1-8.9
	c0.6-3.1,2.5-5.9,5.3-7.7c3.2-1.8,6.5-3.3,10-4.5c1.6-0.4,3.3-0.2,4.6,0.8c2,1.8,4.2,3.3,6.7,4.4c6.2,2.5,13.3,2.5,19.6,0
	c2.5-1.1,4.8-2.6,6.9-4.2c1.7-1.2,3.9-1.4,5.7-0.5c3,0.9,5.8,2.2,8.4,3.9c2.4,1.5,4.2,3.7,5.1,6.2c1.6,4.7,2.7,9.6,3.3,14.5
	c0.8,5.4,1.4,10.8,1.8,16.2H188.5z M230.6,117.5c-11.5,0.2-21.1-9.2-21.4-21.2c0.1-5.8,2.4-11.3,6.4-15.3c4-4,9.4-6.2,15-6.1
	c10.9,0.8,19.4,10.1,19.5,21.5C249.9,107.5,241.4,116.7,230.6,117.5z"/>
<g class="st3">
	<path d="M113.2,181h-1.8v-7.1h-2.6v-1.5h7v1.5h-2.6V181z"/>
	<path d="M118.6,181.2c-1.7,0-3.3-1.1-3.3-3.4s1.5-3.4,3.3-3.4c1.7,0,3.3,1.1,3.3,3.4S120.4,181.2,118.6,181.2z M118.6,175.9
		c-1.3,0-1.5,1.1-1.5,1.9s0.2,1.9,1.5,1.9s1.5-1.1,1.5-1.9S119.9,175.9,118.6,175.9z"/>
	<path d="M128.9,181h-1.6v-0.8h0c-0.4,0.7-1.2,1-1.8,1c-1.9,0-2.7-1.7-2.7-3.4c0-2.2,1.2-3.3,2.7-3.3c1.1,0,1.6,0.6,1.8,1h0v-3.1
		h1.7V181z M125.8,179.8c1.1,0,1.5-0.9,1.5-1.8c0-1-0.3-2.1-1.4-2.1c-1.1,0-1.4,0.9-1.4,2C124.4,178.6,124.7,179.8,125.8,179.8z"/>
	<path d="M133.3,181.2c-1.7,0-3.3-1.1-3.3-3.4s1.5-3.4,3.3-3.4c1.7,0,3.3,1.1,3.3,3.4S135,181.2,133.3,181.2z M133.3,175.9
		c-1.3,0-1.5,1.1-1.5,1.9s0.2,1.9,1.5,1.9s1.5-1.1,1.5-1.9S134.6,175.9,133.3,175.9z"/>
	<path d="M141.4,176.6c-0.1-0.4-0.2-0.8-1.1-0.8s-1,0.3-1,0.6c0,1,4,0.3,4,2.6c0,1.9-1.8,2.2-2.8,2.2c-1.5,0-3-0.5-3.1-2.2h1.7
		c0,0.5,0.3,0.9,1.4,0.9c0.9,0,1.1-0.4,1.1-0.7c0-1.1-4-0.3-4-2.7c0-0.9,0.6-2.1,2.6-2.1c1.2,0,2.7,0.3,2.9,2.1H141.4z"/>
	<path d="M150.6,181.2c-1.7,0-3.3-1.1-3.3-3.4s1.5-3.4,3.3-3.4c1.7,0,3.3,1.1,3.3,3.4S152.4,181.2,150.6,181.2z M150.6,175.9
		c-1.3,0-1.5,1.1-1.5,1.9s0.2,1.9,1.5,1.9s1.5-1.1,1.5-1.9S151.9,175.9,150.6,175.9z"/>
	<path d="M158.7,176.6c-0.1-0.4-0.2-0.8-1.1-0.8s-1,0.3-1,0.6c0,1,4,0.3,4,2.6c0,1.9-1.8,2.2-2.8,2.2c-1.5,0-3-0.5-3.1-2.2h1.7
		c0,0.5,0.3,0.9,1.4,0.9c0.9,0,1.1-0.4,1.1-0.7c0-1.1-4-0.3-4-2.7c0-0.9,0.6-2.1,2.6-2.1c1.2,0,2.7,0.3,2.9,2.1H158.7z"/>
	<path d="M170.9,181h-1.6v-0.9h0c-0.4,0.7-1.1,1.1-1.9,1.1c-1.3,0-2.2-0.7-2.2-2.4v-4.2h1.7v4c0,1,0.6,1.2,1.1,1.2
		c0.6,0,1.3-0.3,1.3-1.5v-3.7h1.7V181z"/>
	<path d="M176,176.6c-0.1-0.4-0.2-0.8-1.1-0.8s-1,0.3-1,0.6c0,1,4,0.3,4,2.6c0,1.9-1.8,2.2-2.8,2.2c-1.5,0-3-0.5-3.1-2.2h1.7
		c0,0.5,0.3,0.9,1.4,0.9c0.9,0,1.1-0.4,1.1-0.7c0-1.1-4-0.3-4-2.7c0-0.9,0.6-2.1,2.6-2.1c1.2,0,2.7,0.3,2.9,2.1H176z"/>
	<path d="M184.9,181h-1.6v-0.9h0c-0.4,0.7-1.1,1.1-1.9,1.1c-1.3,0-2.2-0.7-2.2-2.4v-4.2h1.7v4c0,1,0.6,1.2,1.1,1.2
		c0.6,0,1.3-0.3,1.3-1.5v-3.7h1.7V181z"/>
	<path d="M191.6,179.8c0,0.8,0.2,0.9,0.4,1v0.3h-1.8c-0.1-0.3-0.1-0.4-0.2-0.8c-0.4,0.4-0.9,0.9-2.1,0.9c-1,0-1.9-0.5-1.9-1.9
		c0-1.2,0.8-1.9,1.9-2l1.5-0.2c0.3,0,0.6-0.1,0.6-0.5c0-0.7-0.7-0.7-1.1-0.7c-0.8,0-1,0.5-1,0.9h-1.6c0.2-2,1.5-2.2,2.9-2.2
		c0.9,0,2.5,0.3,2.5,1.8V179.8z M190,177.9c-0.2,0.1-0.4,0.2-1.1,0.3c-0.6,0.1-1.1,0.3-1.1,1c0,0.6,0.5,0.8,0.8,0.8
		c0.7,0,1.5-0.5,1.5-1.3V177.9z M189.5,173.8h-1.2l1.1-1.8h1.8L189.5,173.8z"/>
	<path d="M193.1,174.6h1.6v1.1h0c0.3-0.6,0.7-1.3,1.8-1.3c0.1,0,0.2,0,0.3,0v1.7c-0.1,0-0.3,0-0.5,0c-1.3,0-1.5,0.8-1.5,1.5v3.3
		h-1.7V174.6z"/>
	<path d="M199.5,173.9h-1.7v-1.6h1.7V173.9z M199.5,174.6v6.4h-1.7v-6.4H199.5z"/>
	<path d="M204,181.2c-1.7,0-3.3-1.1-3.3-3.4s1.5-3.4,3.3-3.4c1.7,0,3.3,1.1,3.3,3.4S205.7,181.2,204,181.2z M204,175.9
		c-1.3,0-1.5,1.1-1.5,1.9s0.2,1.9,1.5,1.9s1.5-1.1,1.5-1.9S205.3,175.9,204,175.9z"/>
	<path d="M212,176.6c-0.1-0.4-0.2-0.8-1.1-0.8s-1,0.3-1,0.6c0,1,4,0.3,4,2.6c0,1.9-1.8,2.2-2.8,2.2c-1.5,0-3-0.5-3.1-2.2h1.7
		c0,0.5,0.3,0.9,1.4,0.9c0.9,0,1.1-0.4,1.1-0.7c0-1.1-4-0.3-4-2.7c0-0.9,0.6-2.1,2.6-2.1c1.2,0,2.7,0.3,2.9,2.1H212z"/>
	<path d="M223.6,179.8c0,0.8,0.2,0.9,0.4,1v0.3h-1.8c-0.1-0.3-0.1-0.4-0.2-0.8c-0.4,0.4-0.9,0.9-2.1,0.9c-1,0-1.9-0.5-1.9-1.9
		c0-1.2,0.8-1.9,1.9-2l1.5-0.2c0.3,0,0.6-0.1,0.6-0.5c0-0.7-0.7-0.7-1.1-0.7c-0.8,0-1,0.5-1,0.9h-1.6c0.2-2,1.5-2.2,2.9-2.2
		c0.9,0,2.5,0.3,2.5,1.8V179.8z M222,177.9c-0.2,0.1-0.4,0.2-1.1,0.3c-0.6,0.1-1.1,0.3-1.1,1c0,0.6,0.5,0.8,0.8,0.8
		c0.7,0,1.5-0.5,1.5-1.3V177.9z"/>
	<path d="M230.9,181h-1.6v-0.9h0c-0.4,0.7-1.1,1.1-1.9,1.1c-1.3,0-2.2-0.7-2.2-2.4v-4.2h1.7v4c0,1,0.6,1.2,1.1,1.2
		c0.6,0,1.3-0.3,1.3-1.5v-3.7h1.7V181z"/>
	<path d="M234.3,174.6h1v1.2h-1v3.5c0,0.4,0,0.5,0.7,0.5c0.1,0,0.2,0,0.3,0v1.3c-0.3,0-0.5,0-0.8,0h-0.2c-1.5,0-1.7-0.6-1.7-1.4
		v-3.9h-0.9v-1.2h0.9v-1.7h1.7V174.6z"/>
	<path d="M241.9,179.1c-0.4,1.5-1.7,2-2.8,2c-1.8,0-3.2-0.9-3.2-3.5c0-0.8,0.3-3.2,3.1-3.2c1.3,0,3,0.6,3,3.5v0.3h-4.4
		c0,0.5,0.1,1.6,1.5,1.6c0.5,0,0.9-0.2,1.1-0.7H241.9z M240.3,177.2c-0.1-1-0.8-1.3-1.3-1.3c-0.8,0-1.2,0.5-1.3,1.3H240.3z"/>
	<path d="M248.9,181h-1.7v-3.9c0-0.5,0-1.3-1.1-1.3c-0.7,0-1.3,0.5-1.3,1.5v3.7h-1.7v-6.4h1.6v0.9h0c0.2-0.4,0.7-1.1,1.9-1.1
		c1.2,0,2.2,0.7,2.2,2.1V181z"/>
	<path d="M252.3,174.6h1v1.2h-1v3.5c0,0.4,0,0.5,0.7,0.5c0.1,0,0.2,0,0.3,0v1.3c-0.3,0-0.5,0-0.8,0h-0.2c-1.5,0-1.7-0.6-1.7-1.4
		v-3.9h-0.9v-1.2h0.9v-1.7h1.7V174.6z"/>
	<path d="M256.2,173.9h-1.7v-1.6h1.7V173.9z M256.2,174.6v6.4h-1.7v-6.4H256.2z"/>
	<path d="M263.3,178.7c-0.1,0.7-0.6,2.5-2.9,2.5c-2.4,0-3-1.8-3-3.2c0-2.1,0.9-3.5,3.1-3.5c1,0,2.7,0.5,2.8,2.4h-1.7
		c-0.1-0.4-0.3-1.1-1.1-1c-1.1,0-1.3,1.1-1.3,1.8c0,0.7,0,2.1,1.3,2.1c0.9,0,1.1-0.8,1.1-1.1H263.3z"/>
	<path d="M269.6,179.8c0,0.8,0.2,0.9,0.4,1v0.3h-1.8c-0.1-0.3-0.1-0.4-0.2-0.8c-0.4,0.4-0.9,0.9-2.1,0.9c-1,0-1.9-0.5-1.9-1.9
		c0-1.2,0.8-1.9,1.9-2l1.5-0.2c0.3,0,0.6-0.1,0.6-0.5c0-0.7-0.7-0.7-1.1-0.7c-0.8,0-1,0.5-1,0.9h-1.6c0.2-2,1.5-2.2,2.9-2.2
		c0.9,0,2.5,0.3,2.5,1.8V179.8z M268,177.9c-0.2,0.1-0.4,0.2-1.1,0.3c-0.6,0.1-1.1,0.3-1.1,1c0,0.6,0.5,0.8,0.8,0.8
		c0.7,0,1.5-0.5,1.5-1.3V177.9z"/>
	<path d="M277,181h-1.6v-0.8h0c-0.4,0.7-1.2,1-1.8,1c-1.9,0-2.7-1.7-2.7-3.4c0-2.2,1.2-3.3,2.7-3.3c1.1,0,1.6,0.6,1.8,1h0v-3.1h1.7
		V181z M273.9,179.8c1.1,0,1.5-0.9,1.5-1.8c0-1-0.3-2.1-1.4-2.1c-1.1,0-1.4,0.9-1.4,2C272.5,178.6,272.8,179.8,273.9,179.8z"/>
	<path d="M281.3,181.2c-1.7,0-3.3-1.1-3.3-3.4s1.5-3.4,3.3-3.4c1.7,0,3.3,1.1,3.3,3.4S283.1,181.2,281.3,181.2z M281.3,175.9
		c-1.3,0-1.5,1.1-1.5,1.9s0.2,1.9,1.5,1.9c1.3,0,1.5-1.1,1.5-1.9S282.6,175.9,281.3,175.9z"/>
	<path d="M289.4,176.6c-0.1-0.4-0.2-0.8-1.1-0.8c-0.9,0-1,0.3-1,0.6c0,1,4,0.3,4,2.6c0,1.9-1.8,2.2-2.8,2.2c-1.5,0-3-0.5-3.1-2.2
		h1.7c0,0.5,0.3,0.9,1.4,0.9c0.9,0,1.1-0.4,1.1-0.7c0-1.1-4-0.3-4-2.7c0-0.9,0.6-2.1,2.6-2.1c1.2,0,2.7,0.3,2.9,2.1H289.4z"/>
	<path d="M294.2,181h-1.8v-1.8h1.8V181z"/>
	<path d="M297.6,181h-1.8v-1.8h1.8V181z"/>
	<path d="M300.9,181h-1.8v-1.8h1.8V181z"/>
</g>
<path pointer-events="all" class="st5" d="M212.5,2.5h120v50h-40l-20,30v-30h-60V2.5z"/>
<g transform="translate(-0.5 -0.5)">
	<g class="st3">
		<path class="st0" d="M240,24.5h-1.8v-8.6h3.9c1.7,0,2.7,1.1,2.7,2.8c0,0.8-0.4,2.7-2.7,2.7H240V24.5z M241.6,19.9
			c1.3,0,1.3-1,1.3-1.3c0-0.8-0.5-1.2-1.6-1.2H240v2.5H241.6z"/>
		<path class="st0" d="M251.2,22.6c-0.4,1.5-1.7,2-2.8,2c-1.8,0-3.2-0.9-3.2-3.5c0-0.8,0.3-3.2,3.1-3.2c1.3,0,3,0.6,3,3.5v0.3h-4.4
			c0,0.5,0.1,1.6,1.5,1.6c0.5,0,0.9-0.2,1.1-0.7H251.2z M249.5,20.7c-0.1-1-0.8-1.3-1.3-1.3c-0.8,0-1.2,0.5-1.3,1.3H249.5z"/>
		<path class="st0" d="M252.3,18.1h1.6v1.1h0c0.3-0.6,0.7-1.3,1.8-1.3c0.1,0,0.2,0,0.3,0v1.7c-0.1,0-0.3,0-0.5,0
			c-1.3,0-1.5,0.8-1.5,1.5v3.3h-1.7V18.1z"/>
		<path class="st0" d="M266.1,24.5h-1.7v-3.9c0-0.9-0.4-1.3-0.9-1.3c-0.8,0-1.1,0.6-1.1,1.3v3.8h-1.7v-3.8c0-0.5,0-1.3-1-1.3
			c-0.8,0-1,0.6-1,1.2v3.9H257v-6.4h1.6v0.9h0c0.2-0.4,0.7-1.1,1.8-1.1c0.9,0,1.3,0.3,1.8,1c0.2-0.3,0.7-1,1.7-1
			c1.2,0,2.2,0.7,2.2,2.1V24.5z"/>
		<path class="st0" d="M269.4,17.4h-1.7v-1.6h1.7V17.4z M269.4,18.1v6.4h-1.7v-6.4H269.4z"/>
		<path class="st0" d="M274.6,20.1c-0.1-0.4-0.2-0.8-1.1-0.8c-0.9,0-1,0.3-1,0.6c0,1,4,0.3,4,2.6c0,1.9-1.8,2.2-2.8,2.2
			c-1.5,0-3-0.5-3.1-2.2h1.7c0,0.5,0.3,0.9,1.4,0.9c0.9,0,1.1-0.4,1.1-0.7c0-1.1-4-0.3-4-2.7c0-0.9,0.6-2.1,2.6-2.1
			c1.2,0,2.7,0.3,2.9,2.1H274.6z"/>
		<path class="st0" d="M281.3,20.1c-0.1-0.4-0.2-0.8-1.1-0.8c-0.9,0-1,0.3-1,0.6c0,1,4,0.3,4,2.6c0,1.9-1.8,2.2-2.8,2.2
			c-1.5,0-3-0.5-3.1-2.2h1.7c0,0.5,0.3,0.9,1.4,0.9c0.9,0,1.1-0.4,1.1-0.7c0-1.1-4-0.3-4-2.7c0-0.9,0.6-2.1,2.6-2.1
			c1.2,0,2.7,0.3,2.9,2.1H281.3z"/>
		<path class="st0" d="M287.3,24.7c-1.7,0-3.3-1.1-3.3-3.4s1.5-3.4,3.3-3.4c1.7,0,3.3,1.1,3.3,3.4S289,24.7,287.3,24.7z M289.4,15.7
			c-0.1,0.4-0.3,1.4-1.3,1.4c-0.3,0-0.7-0.1-0.9-0.2c-0.4-0.1-0.6-0.2-0.9-0.2c-0.4,0-0.5,0.4-0.6,0.5H285c0-0.2,0.1-0.6,0.3-0.9
			c0.2-0.3,0.6-0.6,1.1-0.6c0.3,0,0.5,0.1,0.9,0.2c0.4,0.2,0.6,0.2,0.7,0.2c0.4,0,0.5-0.3,0.6-0.5H289.4z M287.3,19.4
			c-1.3,0-1.5,1.1-1.5,1.9s0.2,1.9,1.5,1.9c1.3,0,1.5-1.1,1.5-1.9S288.5,19.4,287.3,19.4z"/>
		<path class="st0" d="M297.2,22.6c-0.4,1.5-1.7,2-2.8,2c-1.8,0-3.2-0.9-3.2-3.5c0-0.8,0.3-3.2,3.1-3.2c1.3,0,3,0.6,3,3.5v0.3h-4.4
			c0,0.5,0.1,1.6,1.5,1.6c0.5,0,0.9-0.2,1.1-0.7H297.2z M295.5,20.7c-0.1-1-0.8-1.3-1.3-1.3c-0.8,0-1.2,0.5-1.3,1.3H295.5z"/>
		<path class="st0" d="M302,20.1c-0.1-0.4-0.2-0.8-1.1-0.8c-0.9,0-1,0.3-1,0.6c0,1,4,0.3,4,2.6c0,1.9-1.8,2.2-2.8,2.2
			c-1.5,0-3-0.5-3.1-2.2h1.7c0,0.5,0.3,0.9,1.4,0.9c0.9,0,1.1-0.4,1.1-0.7c0-1.1-4-0.3-4-2.7c0-0.9,0.6-2.1,2.6-2.1
			c1.2,0,2.7,0.3,2.9,2.1H302z"/>
		<path class="st0" d="M231.7,38.9h-1.8v-8.6h3.9c1.7,0,2.7,1.1,2.7,2.8c0,0.8-0.4,2.7-2.7,2.7h-2.1V38.9z M233.4,34.3
			c1.3,0,1.3-1,1.3-1.3c0-0.8-0.5-1.2-1.6-1.2h-1.4v2.5H233.4z"/>
		<path class="st0" d="M240.2,39.1c-1.7,0-3.3-1.1-3.3-3.4s1.5-3.4,3.3-3.4c1.7,0,3.3,1.1,3.3,3.4S241.9,39.1,240.2,39.1z
			 M240.2,33.8c-1.3,0-1.5,1.1-1.5,1.9s0.2,1.9,1.5,1.9s1.5-1.1,1.5-1.9S241.5,33.8,240.2,33.8z"/>
		<path class="st0" d="M250.4,38.9h-1.6v-0.8h0c-0.4,0.7-1.2,1-1.8,1c-1.9,0-2.7-1.7-2.7-3.4c0-2.2,1.2-3.3,2.7-3.3
			c1.1,0,1.6,0.6,1.8,1h0v-3.1h1.7V38.9z M247.3,37.7c1.1,0,1.5-0.9,1.5-1.8c0-1-0.3-2.1-1.4-2.1c-1.1,0-1.4,0.9-1.4,2
			C246,36.5,246.3,37.7,247.3,37.7z"/>
		<path class="st0" d="M257.4,37c-0.4,1.5-1.7,2-2.8,2c-1.8,0-3.2-0.9-3.2-3.5c0-0.8,0.3-3.2,3.1-3.2c1.3,0,3,0.6,3,3.5v0.3h-4.4
			c0,0.5,0.1,1.6,1.5,1.6c0.5,0,0.9-0.2,1.1-0.7H257.4z M255.8,35.1c-0.1-1-0.8-1.3-1.3-1.3c-0.8,0-1.2,0.5-1.3,1.3H255.8z"/>
		<path class="st0" d="M265.4,38.9h-1.8l-2.3-6.4h1.9l1.3,4.7h0l1.4-4.7h1.8L265.4,38.9z"/>
		<path class="st0" d="M270.4,31.8h-1.7v-1.6h1.7V31.8z M270.4,32.5v6.4h-1.7v-6.4H270.4z"/>
		<path class="st0" d="M275.6,34.5c-0.1-0.4-0.2-0.8-1.1-0.8c-0.9,0-1,0.3-1,0.6c0,1,4,0.3,4,2.6c0,1.9-1.8,2.2-2.8,2.2
			c-1.5,0-3-0.5-3.1-2.2h1.7c0,0.5,0.3,0.9,1.4,0.9c0.9,0,1.1-0.4,1.1-0.7c0-1.1-4-0.3-4-2.7c0-0.9,0.6-2.1,2.6-2.1
			c1.2,0,2.7,0.3,2.9,2.1H275.6z"/>
		<path class="st0" d="M284.4,38.9h-1.6V38h0c-0.4,0.7-1.1,1.1-1.9,1.1c-1.3,0-2.2-0.7-2.2-2.4v-4.2h1.7v4c0,1,0.6,1.2,1.1,1.2
			c0.6,0,1.3-0.3,1.3-1.5v-3.7h1.7V38.9z"/>
		<path class="st0" d="M291.1,37.7c0,0.8,0.2,0.9,0.4,1v0.3h-1.8c-0.1-0.3-0.1-0.4-0.2-0.8c-0.4,0.4-0.9,0.9-2.1,0.9
			c-1,0-1.9-0.5-1.9-1.9c0-1.2,0.8-1.9,1.9-2l1.5-0.2c0.3,0,0.6-0.1,0.6-0.5c0-0.7-0.7-0.7-1.1-0.7c-0.8,0-1,0.5-1,0.9h-1.6
			c0.2-2,1.5-2.2,2.9-2.2c0.9,0,2.5,0.3,2.5,1.8V37.7z M289.5,35.8c-0.2,0.1-0.4,0.2-1.1,0.3c-0.6,0.1-1.1,0.3-1.1,1
			c0,0.6,0.5,0.8,0.8,0.8c0.7,0,1.5-0.5,1.5-1.3V35.8z"/>
		<path class="st0" d="M294.4,38.9h-1.7v-8.6h1.7V38.9z"/>
		<path class="st0" d="M297.7,31.8H296v-1.6h1.7V31.8z M297.7,32.5v6.4H296v-6.4H297.7z"/>
		<path class="st0" d="M300.9,37.5h3.3v1.4h-5.5v-1.3l3.3-3.7h-3v-1.3h5.2v1.4L300.9,37.5z"/>
		<path class="st0" d="M310.5,37.7c0,0.8,0.2,0.9,0.4,1v0.3H309c-0.1-0.3-0.1-0.4-0.2-0.8c-0.4,0.4-0.9,0.9-2.1,0.9
			c-1,0-1.9-0.5-1.9-1.9c0-1.2,0.8-1.9,1.9-2l1.5-0.2c0.3,0,0.6-0.1,0.6-0.5c0-0.7-0.7-0.7-1.1-0.7c-0.8,0-1,0.5-1,0.9h-1.6
			c0.2-2,1.5-2.2,2.9-2.2c0.9,0,2.5,0.3,2.5,1.8V37.7z M308.8,35.8c-0.2,0.1-0.4,0.2-1.1,0.3c-0.6,0.1-1.1,0.3-1.1,1
			c0,0.6,0.5,0.8,0.8,0.8c0.7,0,1.5-0.5,1.5-1.3V35.8z"/>
		<path class="st0" d="M312,32.5h1.6v1.1h0c0.3-0.6,0.7-1.3,1.8-1.3c0.1,0,0.2,0,0.3,0v1.7c-0.1,0-0.3,0-0.5,0
			c-1.3,0-1.5,0.8-1.5,1.5v3.3H312V32.5z"/>
	</g>
</g>
<path pointer-events="all" class="st6" d="M394.5,102.5h120v50h-40l-20,30v-30h-60V102.5z"/>
<g transform="translate(-0.5 -0.5)">
	<g class="st3">
		<path class="st0" d="M422.2,124.5h-1.8v-8.6h3.9c1.7,0,2.7,1.1,2.7,2.8c0,0.8-0.4,2.7-2.7,2.7h-2.1V124.5z M423.9,119.9
			c1.3,0,1.3-1,1.3-1.3c0-0.8-0.5-1.2-1.6-1.2h-1.4v2.5H423.9z"/>
		<path class="st0" d="M433.4,122.6c-0.4,1.5-1.7,2-2.8,2c-1.8,0-3.2-0.9-3.2-3.5c0-0.8,0.3-3.2,3.1-3.2c1.3,0,3,0.6,3,3.5v0.3h-4.4
			c0,0.5,0.1,1.6,1.5,1.6c0.5,0,0.9-0.2,1.1-0.7H433.4z M431.7,120.7c-0.1-1-0.8-1.3-1.3-1.3c-0.8,0-1.2,0.5-1.3,1.3H431.7z"/>
		<path class="st0" d="M434.6,118.1h1.6v1.1h0c0.3-0.6,0.7-1.3,1.8-1.3c0.1,0,0.2,0,0.3,0v1.7c-0.1,0-0.3,0-0.5,0
			c-1.3,0-1.5,0.8-1.5,1.5v3.3h-1.7V118.1z"/>
		<path class="st0" d="M448.4,124.5h-1.7v-3.9c0-0.9-0.4-1.3-0.9-1.3c-0.8,0-1.1,0.6-1.1,1.3v3.8H443v-3.8c0-0.5,0-1.3-1-1.3
			c-0.8,0-1,0.6-1,1.2v3.9h-1.7v-6.4h1.6v0.9h0c0.2-0.4,0.7-1.1,1.8-1.1c0.9,0,1.3,0.3,1.8,1c0.2-0.3,0.7-1,1.7-1
			c1.2,0,2.2,0.7,2.2,2.1V124.5z"/>
		<path class="st0" d="M451.7,117.4H450v-1.6h1.7V117.4z M451.7,118.1v6.4H450v-6.4H451.7z"/>
		<path class="st0" d="M456.9,120.1c-0.1-0.4-0.2-0.8-1.1-0.8c-0.9,0-1,0.3-1,0.6c0,1,4,0.3,4,2.6c0,1.9-1.8,2.2-2.8,2.2
			c-1.5,0-3-0.5-3.1-2.2h1.7c0,0.5,0.3,0.9,1.4,0.9c0.9,0,1.1-0.4,1.1-0.7c0-1.1-4-0.3-4-2.7c0-0.9,0.6-2.1,2.6-2.1
			c1.2,0,2.7,0.3,2.9,2.1H456.9z"/>
		<path class="st0" d="M463.5,120.1c-0.1-0.4-0.2-0.8-1.1-0.8c-0.9,0-1,0.3-1,0.6c0,1,4,0.3,4,2.6c0,1.9-1.8,2.2-2.8,2.2
			c-1.5,0-3-0.5-3.1-2.2h1.7c0,0.5,0.3,0.9,1.4,0.9c0.9,0,1.1-0.4,1.1-0.7c0-1.1-4-0.3-4-2.7c0-0.9,0.6-2.1,2.6-2.1
			c1.2,0,2.7,0.3,2.9,2.1H463.5z"/>
		<path class="st0" d="M469.5,124.7c-1.7,0-3.3-1.1-3.3-3.4s1.5-3.4,3.3-3.4c1.7,0,3.3,1.1,3.3,3.4S471.2,124.7,469.5,124.7z
			 M471.7,115.7c-0.1,0.4-0.3,1.4-1.3,1.4c-0.3,0-0.7-0.1-0.9-0.2c-0.4-0.1-0.6-0.2-0.9-0.2c-0.4,0-0.5,0.4-0.6,0.5h-0.8
			c0-0.2,0.1-0.6,0.3-0.9c0.2-0.3,0.6-0.6,1.1-0.6c0.3,0,0.5,0.1,0.9,0.2c0.4,0.2,0.6,0.2,0.7,0.2c0.4,0,0.5-0.3,0.6-0.5H471.7z
			 M469.5,119.4c-1.3,0-1.5,1.1-1.5,1.9s0.2,1.9,1.5,1.9c1.3,0,1.5-1.1,1.5-1.9S470.8,119.4,469.5,119.4z"/>
		<path class="st0" d="M479.4,122.6c-0.4,1.5-1.7,2-2.8,2c-1.8,0-3.2-0.9-3.2-3.5c0-0.8,0.3-3.2,3.1-3.2c1.3,0,3,0.6,3,3.5v0.3h-4.4
			c0,0.5,0.1,1.6,1.5,1.6c0.5,0,0.9-0.2,1.1-0.7H479.4z M477.8,120.7c-0.1-1-0.8-1.3-1.3-1.3c-0.8,0-1.2,0.5-1.3,1.3H477.8z"/>
		<path class="st0" d="M484.2,120.1c-0.1-0.4-0.2-0.8-1.1-0.8c-0.9,0-1,0.3-1,0.6c0,1,4,0.3,4,2.6c0,1.9-1.8,2.2-2.8,2.2
			c-1.5,0-3-0.5-3.1-2.2h1.7c0,0.5,0.3,0.9,1.4,0.9c0.9,0,1.1-0.4,1.1-0.7c0-1.1-4-0.3-4-2.7c0-0.9,0.6-2.1,2.6-2.1
			c1.2,0,2.7,0.3,2.9,2.1H484.2z"/>
		<path class="st0" d="M424.9,138.9h-1.8v-8.6h3.9c1.7,0,2.7,1.1,2.7,2.8c0,0.8-0.4,2.7-2.7,2.7h-2.1V138.9z M426.6,134.3
			c1.3,0,1.3-1,1.3-1.3c0-0.8-0.5-1.2-1.6-1.2h-1.4v2.5H426.6z"/>
		<path class="st0" d="M433.4,139.1c-1.7,0-3.3-1.1-3.3-3.4s1.5-3.4,3.3-3.4c1.7,0,3.3,1.1,3.3,3.4S435.1,139.1,433.4,139.1z
			 M433.4,133.8c-1.3,0-1.5,1.1-1.5,1.9s0.2,1.9,1.5,1.9c1.3,0,1.5-1.1,1.5-1.9S434.7,133.8,433.4,133.8z"/>
		<path class="st0" d="M443.7,138.9h-1.6v-0.8h0c-0.4,0.7-1.2,1-1.8,1c-1.9,0-2.7-1.7-2.7-3.4c0-2.2,1.2-3.3,2.7-3.3
			c1.1,0,1.6,0.6,1.8,1h0v-3.1h1.7V138.9z M440.6,137.7c1.1,0,1.5-0.9,1.5-1.8c0-1-0.3-2.1-1.4-2.1c-1.1,0-1.4,0.9-1.4,2
			C439.2,136.5,439.5,137.7,440.6,137.7z"/>
		<path class="st0" d="M450.7,137c-0.4,1.5-1.7,2-2.8,2c-1.8,0-3.2-0.9-3.2-3.5c0-0.8,0.3-3.2,3.1-3.2c1.3,0,3,0.6,3,3.5v0.3h-4.4
			c0,0.5,0.1,1.6,1.5,1.6c0.5,0,0.9-0.2,1.1-0.7H450.7z M449,135.1c-0.1-1-0.8-1.3-1.3-1.3c-0.8,0-1.2,0.5-1.3,1.3H449z"/>
		<path class="st0" d="M460.7,137c-0.4,1.5-1.7,2-2.8,2c-1.8,0-3.2-0.9-3.2-3.5c0-0.8,0.3-3.2,3.1-3.2c1.3,0,3,0.6,3,3.5v0.3h-4.4
			c0,0.5,0.1,1.6,1.5,1.6c0.5,0,0.9-0.2,1.1-0.7H460.7z M459,135.1c-0.1-1-0.8-1.3-1.3-1.3c-0.8,0-1.2,0.5-1.3,1.3H459z"/>
		<path class="st0" d="M467.7,138.9h-1.6v-0.8h0c-0.4,0.7-1.2,1-1.8,1c-1.9,0-2.7-1.7-2.7-3.4c0-2.2,1.2-3.3,2.7-3.3
			c1.1,0,1.6,0.6,1.8,1h0v-3.1h1.7V138.9z M464.6,137.7c1.1,0,1.5-0.9,1.5-1.8c0-1-0.3-2.1-1.4-2.1c-1.1,0-1.4,0.9-1.4,2
			C463.2,136.5,463.5,137.7,464.6,137.7z"/>
		<path class="st0" d="M470.9,131.8h-1.7v-1.6h1.7V131.8z M470.9,132.5v6.4h-1.7v-6.4H470.9z"/>
		<path class="st0" d="M474.4,132.5h1v1.2h-1v3.5c0,0.4,0,0.5,0.7,0.5c0.1,0,0.2,0,0.3,0v1.3c-0.3,0-0.5,0-0.8,0h-0.2
			c-1.5,0-1.7-0.6-1.7-1.4v-3.9h-0.9v-1.2h0.9v-1.7h1.7V132.5z"/>
		<path class="st0" d="M481.7,137.7c0,0.8,0.2,0.9,0.4,1v0.3h-1.8c-0.1-0.3-0.1-0.4-0.2-0.8c-0.4,0.4-0.9,0.9-2.1,0.9
			c-1,0-1.9-0.5-1.9-1.9c0-1.2,0.8-1.9,1.9-2l1.5-0.2c0.3,0,0.6-0.1,0.6-0.5c0-0.7-0.7-0.7-1.1-0.7c-0.8,0-1,0.5-1,0.9h-1.6
			c0.2-2,1.5-2.2,2.9-2.2c0.9,0,2.5,0.3,2.5,1.8V137.7z M480.1,135.8c-0.2,0.1-0.4,0.2-1.1,0.3c-0.6,0.1-1.1,0.3-1.1,1
			c0,0.6,0.5,0.8,0.8,0.8c0.7,0,1.5-0.5,1.5-1.3V135.8z"/>
		<path class="st0" d="M483.2,132.5h1.6v1.1h0c0.3-0.6,0.7-1.3,1.8-1.3c0.1,0,0.2,0,0.3,0v1.7c-0.1,0-0.3,0-0.5,0
			c-1.3,0-1.5,0.8-1.5,1.5v3.3h-1.7V132.5z"/>
	</g>
</g>
<g transform="translate(-0.5 -0.5)">
	<g>
		<g class="st3">
			<path d="M5.4,344.9h4.4c2.3,0,2.7,1.7,2.7,2.4c0,0.9-0.5,1.8-1.3,2.1c0.7,0.3,1.1,0.6,1.1,2.2c0,1.3,0,1.6,0.4,1.7v0.2h-2
				c-0.1-0.4-0.2-0.9-0.2-1.7c0-1.2-0.1-1.6-1.4-1.6H7.2v3.4H5.4V344.9z M9.3,348.7c0.9,0,1.4-0.3,1.4-1.2c0-0.5-0.2-1.1-1.3-1.1
				H7.2v2.3H9.3z"/>
			<path d="M19.4,351.6c-0.4,1.5-1.7,2-2.8,2c-1.8,0-3.2-0.9-3.2-3.5c0-0.8,0.3-3.2,3.1-3.2c1.3,0,3,0.6,3,3.5v0.3h-4.4
				c0,0.5,0.1,1.6,1.5,1.6c0.5,0,0.9-0.2,1.1-0.7H19.4z M17.8,349.7c-0.1-1-0.8-1.3-1.3-1.3c-0.8,0-1.2,0.5-1.3,1.3H17.8z"/>
			<path d="M24.2,349.1c-0.1-0.4-0.2-0.8-1.1-0.8s-1,0.3-1,0.6c0,1,4,0.3,4,2.6c0,1.9-1.8,2.2-2.8,2.2c-1.5,0-3-0.5-3.1-2.2h1.7
				c0,0.5,0.3,0.9,1.4,0.9c0.9,0,1.1-0.4,1.1-0.7c0-1.1-4-0.3-4-2.7c0-0.9,0.6-2.1,2.6-2.1c1.2,0,2.7,0.3,2.9,2.1H24.2z"/>
			<path d="M33,353.5h-1.6v-0.9h0c-0.4,0.7-1.1,1.1-1.9,1.1c-1.3,0-2.2-0.7-2.2-2.4v-4.2H29v4c0,1,0.6,1.2,1.1,1.2
				c0.6,0,1.3-0.3,1.3-1.5v-3.7H33V353.5z"/>
			<path d="M36.3,353.5h-1.7v-8.6h1.7V353.5z"/>
			<path d="M39.8,347.1h1v1.2h-1v3.5c0,0.4,0,0.5,0.7,0.5c0.1,0,0.2,0,0.3,0v1.3c-0.3,0-0.5,0-0.8,0h-0.2c-1.5,0-1.7-0.6-1.7-1.4
				v-3.9h-0.9v-1.2h0.9v-1.7h1.7V347.1z"/>
			<path d="M47.1,352.3c0,0.8,0.2,0.9,0.4,1v0.3h-1.8c-0.1-0.3-0.1-0.4-0.2-0.8c-0.4,0.4-0.9,0.9-2.1,0.9c-1,0-1.9-0.5-1.9-1.9
				c0-1.2,0.8-1.9,1.9-2l1.5-0.2c0.3,0,0.6-0.1,0.6-0.5c0-0.7-0.7-0.7-1.1-0.7c-0.8,0-1,0.5-1,0.9h-1.6c0.2-2,1.5-2.2,2.9-2.2
				c0.9,0,2.5,0.3,2.5,1.8V352.3z M45.5,350.4c-0.2,0.1-0.4,0.2-1.1,0.3c-0.6,0.1-1.1,0.3-1.1,1c0,0.6,0.5,0.8,0.8,0.8
				c0.7,0,1.5-0.5,1.5-1.3V350.4z"/>
			<path d="M54.5,353.5h-1.6v-0.8h0c-0.4,0.7-1.2,1-1.8,1c-1.9,0-2.7-1.7-2.7-3.4c0-2.2,1.2-3.3,2.7-3.3c1.1,0,1.6,0.6,1.8,1h0v-3.1
				h1.7V353.5z M51.4,352.3c1.1,0,1.5-0.9,1.5-1.8c0-1-0.3-2.1-1.4-2.1c-1.1,0-1.4,0.9-1.4,2C50,351.1,50.3,352.3,51.4,352.3z"/>
			<path d="M58.8,353.7c-1.7,0-3.3-1.1-3.3-3.4s1.5-3.4,3.3-3.4c1.7,0,3.3,1.1,3.3,3.4S60.6,353.7,58.8,353.7z M58.8,348.4
				c-1.3,0-1.5,1.1-1.5,1.9s0.2,1.9,1.5,1.9s1.5-1.1,1.5-1.9S60.1,348.4,58.8,348.4z"/>
			<path d="M65.4,349.1h-1.8v-1.8h1.8V349.1z M65.4,353.5h-1.8v-1.8h1.8V353.5z"/>
			<path d="M72,347.1h1v1.2h-1v3.5c0,0.4,0,0.5,0.7,0.5c0.1,0,0.2,0,0.3,0v1.3c-0.3,0-0.5,0-0.8,0h-0.2c-1.5,0-1.7-0.6-1.7-1.4v-3.9
				h-0.9v-1.2h0.9v-1.7H72V347.1z"/>
			<path d="M77,353.7c-1.7,0-3.3-1.1-3.3-3.4s1.5-3.4,3.3-3.4c1.7,0,3.3,1.1,3.3,3.4S78.7,353.7,77,353.7z M77,348.4
				c-1.3,0-1.5,1.1-1.5,1.9s0.2,1.9,1.5,1.9s1.5-1.1,1.5-1.9S78.3,348.4,77,348.4z"/>
			<path d="M87.3,353.5h-1.6v-0.8h0c-0.4,0.7-1.2,1-1.8,1c-1.9,0-2.7-1.7-2.7-3.4c0-2.2,1.2-3.3,2.7-3.3c1.1,0,1.6,0.6,1.8,1h0v-3.1
				h1.7V353.5z M84.2,352.3c1.1,0,1.5-0.9,1.5-1.8c0-1-0.3-2.1-1.4-2.1c-1.1,0-1.4,0.9-1.4,2C82.8,351.1,83.1,352.3,84.2,352.3z"/>
			<path d="M91.7,353.7c-1.7,0-3.3-1.1-3.3-3.4s1.5-3.4,3.3-3.4c1.7,0,3.3,1.1,3.3,3.4S93.4,353.7,91.7,353.7z M91.7,348.4
				c-1.3,0-1.5,1.1-1.5,1.9s0.2,1.9,1.5,1.9s1.5-1.1,1.5-1.9S93,348.4,91.7,348.4z"/>
			<path d="M99.7,349.1c-0.1-0.4-0.2-0.8-1.1-0.8s-1,0.3-1,0.6c0,1,4,0.3,4,2.6c0,1.9-1.8,2.2-2.8,2.2c-1.5,0-3-0.5-3.1-2.2h1.7
				c0,0.5,0.3,0.9,1.4,0.9c0.9,0,1.1-0.4,1.1-0.7c0-1.1-4-0.3-4-2.7c0-0.9,0.6-2.1,2.6-2.1c1.2,0,2.7,0.3,2.9,2.1H99.7z"/>
			<path d="M109,353.7c-1.7,0-3.3-1.1-3.3-3.4s1.5-3.4,3.3-3.4c1.7,0,3.3,1.1,3.3,3.4S110.7,353.7,109,353.7z M109,348.4
				c-1.3,0-1.5,1.1-1.5,1.9s0.2,1.9,1.5,1.9s1.5-1.1,1.5-1.9S110.3,348.4,109,348.4z"/>
			<path d="M117.1,349.1c-0.1-0.4-0.2-0.8-1.1-0.8s-1,0.3-1,0.6c0,1,4,0.3,4,2.6c0,1.9-1.8,2.2-2.8,2.2c-1.5,0-3-0.5-3.1-2.2h1.7
				c0,0.5,0.3,0.9,1.4,0.9c0.9,0,1.1-0.4,1.1-0.7c0-1.1-4-0.3-4-2.7c0-0.9,0.6-2.1,2.6-2.1c1.2,0,2.7,0.3,2.9,2.1H117.1z"/>
			<path d="M129.2,353.5h-1.6v-0.9h0c-0.4,0.7-1.1,1.1-1.9,1.1c-1.3,0-2.2-0.7-2.2-2.4v-4.2h1.7v4c0,1,0.6,1.2,1.1,1.2
				c0.6,0,1.3-0.3,1.3-1.5v-3.7h1.7V353.5z"/>
			<path d="M134.4,349.1c-0.1-0.4-0.2-0.8-1.1-0.8s-1,0.3-1,0.6c0,1,4,0.3,4,2.6c0,1.9-1.8,2.2-2.8,2.2c-1.5,0-3-0.5-3.1-2.2h1.7
				c0,0.5,0.3,0.9,1.4,0.9c0.9,0,1.1-0.4,1.1-0.7c0-1.1-4-0.3-4-2.7c0-0.9,0.6-2.1,2.6-2.1c1.2,0,2.7,0.3,2.9,2.1H134.4z"/>
			<path d="M143.2,353.5h-1.6v-0.9h0c-0.4,0.7-1.1,1.1-1.9,1.1c-1.3,0-2.2-0.7-2.2-2.4v-4.2h1.7v4c0,1,0.6,1.2,1.1,1.2
				c0.6,0,1.3-0.3,1.3-1.5v-3.7h1.7V353.5z"/>
			<path d="M150,352.3c0,0.8,0.2,0.9,0.4,1v0.3h-1.8c-0.1-0.3-0.1-0.4-0.2-0.8c-0.4,0.4-0.9,0.9-2.1,0.9c-1,0-1.9-0.5-1.9-1.9
				c0-1.2,0.8-1.9,1.9-2l1.5-0.2c0.3,0,0.6-0.1,0.6-0.5c0-0.7-0.7-0.7-1.1-0.7c-0.8,0-1,0.5-1,0.9h-1.6c0.2-2,1.5-2.2,2.9-2.2
				c0.9,0,2.5,0.3,2.5,1.8V352.3z M148.3,350.4c-0.2,0.1-0.4,0.2-1.1,0.3c-0.6,0.1-1.1,0.3-1.1,1c0,0.6,0.5,0.8,0.8,0.8
				c0.7,0,1.5-0.5,1.5-1.3V350.4z M147.9,346.3h-1.2l1.1-1.8h1.8L147.9,346.3z"/>
			<path d="M151.5,347.1h1.6v1.1h0c0.3-0.6,0.7-1.3,1.8-1.3c0.1,0,0.2,0,0.3,0v1.7c-0.1,0-0.3,0-0.5,0c-1.3,0-1.5,0.8-1.5,1.5v3.3
				h-1.7V347.1z"/>
			<path d="M157.9,346.4h-1.7v-1.6h1.7V346.4z M157.9,347.1v6.4h-1.7v-6.4H157.9z"/>
			<path d="M162.4,353.7c-1.7,0-3.3-1.1-3.3-3.4s1.5-3.4,3.3-3.4c1.7,0,3.3,1.1,3.3,3.4S164.1,353.7,162.4,353.7z M162.4,348.4
				c-1.3,0-1.5,1.1-1.5,1.9s0.2,1.9,1.5,1.9s1.5-1.1,1.5-1.9S163.7,348.4,162.4,348.4z"/>
			<path d="M170.4,349.1c-0.1-0.4-0.2-0.8-1.1-0.8s-1,0.3-1,0.6c0,1,4,0.3,4,2.6c0,1.9-1.8,2.2-2.8,2.2c-1.5,0-3-0.5-3.1-2.2h1.7
				c0,0.5,0.3,0.9,1.4,0.9c0.9,0,1.1-0.4,1.1-0.7c0-1.1-4-0.3-4-2.7c0-0.9,0.6-2.1,2.6-2.1c1.2,0,2.7,0.3,2.9,2.1H170.4z"/>
			<path d="M182,352.3c0,0.8,0.2,0.9,0.4,1v0.3h-1.8c-0.1-0.3-0.1-0.4-0.2-0.8c-0.4,0.4-0.9,0.9-2.1,0.9c-1,0-1.9-0.5-1.9-1.9
				c0-1.2,0.8-1.9,1.9-2l1.5-0.2c0.3,0,0.6-0.1,0.6-0.5c0-0.7-0.7-0.7-1.1-0.7c-0.8,0-1,0.5-1,0.9h-1.6c0.2-2,1.5-2.2,2.9-2.2
				c0.9,0,2.5,0.3,2.5,1.8V352.3z M180.4,350.4c-0.2,0.1-0.4,0.2-1.1,0.3c-0.6,0.1-1.1,0.3-1.1,1c0,0.6,0.5,0.8,0.8,0.8
				c0.7,0,1.5-0.5,1.5-1.3V350.4z"/>
			<path d="M189.3,353.5h-1.6v-0.9h0c-0.4,0.7-1.1,1.1-1.9,1.1c-1.3,0-2.2-0.7-2.2-2.4v-4.2h1.7v4c0,1,0.6,1.2,1.1,1.2
				c0.6,0,1.3-0.3,1.3-1.5v-3.7h1.7V353.5z"/>
			<path d="M192.7,347.1h1v1.2h-1v3.5c0,0.4,0,0.5,0.7,0.5c0.1,0,0.2,0,0.3,0v1.3c-0.3,0-0.5,0-0.8,0h-0.2c-1.5,0-1.7-0.6-1.7-1.4
				v-3.9h-0.9v-1.2h0.9v-1.7h1.7V347.1z"/>
			<path d="M200.3,351.6c-0.4,1.5-1.7,2-2.8,2c-1.8,0-3.2-0.9-3.2-3.5c0-0.8,0.3-3.2,3.1-3.2c1.3,0,3,0.6,3,3.5v0.3H196
				c0,0.5,0.1,1.6,1.5,1.6c0.5,0,0.9-0.2,1.1-0.7H200.3z M198.7,349.7c-0.1-1-0.8-1.3-1.3-1.3c-0.8,0-1.2,0.5-1.3,1.3H198.7z"/>
			<path d="M207.3,353.5h-1.7v-3.9c0-0.5,0-1.3-1.1-1.3c-0.7,0-1.3,0.5-1.3,1.5v3.7h-1.7v-6.4h1.6v0.9h0c0.2-0.4,0.7-1.1,1.9-1.1
				c1.2,0,2.2,0.7,2.2,2.1V353.5z"/>
			<path d="M210.7,347.1h1v1.2h-1v3.5c0,0.4,0,0.5,0.7,0.5c0.1,0,0.2,0,0.3,0v1.3c-0.3,0-0.5,0-0.8,0h-0.2c-1.5,0-1.7-0.6-1.7-1.4
				v-3.9h-0.9v-1.2h0.9v-1.7h1.7V347.1z"/>
			<path d="M214.6,346.4h-1.7v-1.6h1.7V346.4z M214.6,347.1v6.4h-1.7v-6.4H214.6z"/>
			<path d="M221.7,351.2c-0.1,0.7-0.6,2.5-2.9,2.5c-2.4,0-3-1.8-3-3.2c0-2.1,0.9-3.5,3.1-3.5c1,0,2.7,0.5,2.8,2.4H220
				c-0.1-0.4-0.3-1.1-1.1-1c-1.1,0-1.3,1.1-1.3,1.8c0,0.7,0,2.1,1.3,2.1c0.9,0,1.1-0.8,1.1-1.1H221.7z"/>
			<path d="M228,352.3c0,0.8,0.2,0.9,0.4,1v0.3h-1.8c-0.1-0.3-0.1-0.4-0.2-0.8c-0.4,0.4-0.9,0.9-2.1,0.9c-1,0-1.9-0.5-1.9-1.9
				c0-1.2,0.8-1.9,1.9-2l1.5-0.2c0.3,0,0.6-0.1,0.6-0.5c0-0.7-0.7-0.7-1.1-0.7c-0.8,0-1,0.5-1,0.9h-1.6c0.2-2,1.5-2.2,2.9-2.2
				c0.9,0,2.5,0.3,2.5,1.8V352.3z M226.4,350.4c-0.2,0.1-0.4,0.2-1.1,0.3c-0.6,0.1-1.1,0.3-1.1,1c0,0.6,0.5,0.8,0.8,0.8
				c0.7,0,1.5-0.5,1.5-1.3V350.4z"/>
			<path d="M235.3,353.5h-1.6v-0.8h0c-0.4,0.7-1.2,1-1.8,1c-1.9,0-2.7-1.7-2.7-3.4c0-2.2,1.2-3.3,2.7-3.3c1.1,0,1.6,0.6,1.8,1h0
				v-3.1h1.7V353.5z M232.2,352.3c1.1,0,1.5-0.9,1.5-1.8c0-1-0.3-2.1-1.4-2.1c-1.1,0-1.4,0.9-1.4,2
				C230.9,351.1,231.2,352.3,232.2,352.3z"/>
			<path d="M239.7,353.7c-1.7,0-3.3-1.1-3.3-3.4s1.5-3.4,3.3-3.4c1.7,0,3.3,1.1,3.3,3.4S241.4,353.7,239.7,353.7z M239.7,348.4
				c-1.3,0-1.5,1.1-1.5,1.9s0.2,1.9,1.5,1.9s1.5-1.1,1.5-1.9S241,348.4,239.7,348.4z"/>
			<path d="M247.8,349.1c-0.1-0.4-0.2-0.8-1.1-0.8s-1,0.3-1,0.6c0,1,4,0.3,4,2.6c0,1.9-1.8,2.2-2.8,2.2c-1.5,0-3-0.5-3.1-2.2h1.7
				c0,0.5,0.3,0.9,1.4,0.9c0.9,0,1.1-0.4,1.1-0.7c0-1.1-4-0.3-4-2.7c0-0.9,0.6-2.1,2.6-2.1c1.2,0,2.7,0.3,2.9,2.1H247.8z"/>
			<path d="M256.1,347.1h1v1.2h-1v3.5c0,0.4,0,0.5,0.7,0.5c0.1,0,0.2,0,0.3,0v1.3c-0.3,0-0.5,0-0.8,0h-0.2c-1.5,0-1.7-0.6-1.7-1.4
				v-3.9h-0.9v-1.2h0.9v-1.7h1.7V347.1z"/>
			<path d="M263.7,351.6c-0.4,1.5-1.7,2-2.8,2c-1.8,0-3.2-0.9-3.2-3.5c0-0.8,0.3-3.2,3.1-3.2c1.3,0,3,0.6,3,3.5v0.3h-4.4
				c0,0.5,0.1,1.6,1.5,1.6c0.5,0,0.9-0.2,1.1-0.7H263.7z M262.9,346.3h-1.4l-0.8-1l-0.8,1h-1.4l1.4-1.8h1.5L262.9,346.3z M262,349.7
				c-0.1-1-0.8-1.3-1.3-1.3c-0.8,0-1.2,0.5-1.3,1.3H262z"/>
			<path d="M274,353.5h-1.7v-3.9c0-0.9-0.4-1.3-0.9-1.3c-0.8,0-1.1,0.6-1.1,1.3v3.8h-1.7v-3.8c0-0.5,0-1.3-1-1.3c-0.8,0-1,0.6-1,1.2
				v3.9h-1.7v-6.4h1.6v0.9h0c0.2-0.4,0.7-1.1,1.8-1.1c0.9,0,1.3,0.3,1.8,1c0.2-0.3,0.7-1,1.7-1c1.2,0,2.2,0.7,2.2,2.1V353.5z"/>
			<path d="M6.9,362.4L6.9,362.4c0.3-0.5,0.8-1.1,1.9-1.1c1.4,0,2.7,1.1,2.7,3.3c0,1.8-0.8,3.4-2.7,3.4c-1.2,0-1.6-0.6-1.8-1h0v3.3
				H5.2v-8.9h1.6V362.4z M8.3,366.7c1.1,0,1.4-1.2,1.4-1.9c0-1-0.4-2-1.4-2c-1.2,0-1.4,1-1.4,2.1C6.9,365.8,7.3,366.7,8.3,366.7z"/>
			<path d="M18.1,366c-0.4,1.5-1.7,2-2.8,2c-1.8,0-3.2-0.9-3.2-3.5c0-0.8,0.3-3.2,3.1-3.2c1.3,0,3,0.6,3,3.5v0.3h-4.4
				c0,0.5,0.1,1.6,1.5,1.6c0.5,0,0.9-0.2,1.1-0.7H18.1z M16.4,364.1c-0.1-1-0.8-1.3-1.3-1.3c-0.8,0-1.2,0.5-1.3,1.3H16.4z"/>
			<path d="M19.3,361.5h1.6v1.1h0c0.3-0.6,0.7-1.3,1.8-1.3c0.1,0,0.2,0,0.3,0v1.7c-0.1,0-0.3,0-0.5,0c-1.3,0-1.5,0.8-1.5,1.5v3.3
				h-1.7V361.5z"/>
			<path d="M33.1,367.9h-1.7V364c0-0.9-0.4-1.3-0.9-1.3c-0.8,0-1.1,0.6-1.1,1.3v3.8h-1.7v-3.8c0-0.5,0-1.3-1-1.3c-0.8,0-1,0.6-1,1.2
				v3.9h-1.7v-6.4h1.6v0.9h0c0.2-0.4,0.7-1.1,1.8-1.1c0.9,0,1.3,0.3,1.8,1c0.2-0.3,0.7-1,1.7-1c1.2,0,2.2,0.7,2.2,2.1V367.9z"/>
			<path d="M36.3,360.8h-1.7v-1.6h1.7V360.8z M36.3,361.5v6.4h-1.7v-6.4H36.3z"/>
			<path d="M41.6,363.5c-0.1-0.4-0.2-0.8-1.1-0.8s-1,0.3-1,0.6c0,1,4,0.3,4,2.6c0,1.9-1.8,2.2-2.8,2.2c-1.5,0-3-0.5-3.1-2.2h1.7
				c0,0.5,0.3,0.9,1.4,0.9c0.9,0,1.1-0.4,1.1-0.7c0-1.1-4-0.3-4-2.7c0-0.9,0.6-2.1,2.6-2.1c1.2,0,2.7,0.3,2.9,2.1H41.6z"/>
			<path d="M48.2,363.5c-0.1-0.4-0.2-0.8-1.1-0.8s-1,0.3-1,0.6c0,1,4,0.3,4,2.6c0,1.9-1.8,2.2-2.8,2.2c-1.5,0-3-0.5-3.1-2.2h1.7
				c0,0.5,0.3,0.9,1.4,0.9c0.9,0,1.1-0.4,1.1-0.7c0-1.1-4-0.3-4-2.7c0-0.9,0.6-2.1,2.6-2.1c1.2,0,2.7,0.3,2.9,2.1H48.2z"/>
			<path d="M56.5,366.7c0,0.8,0.2,0.9,0.4,1v0.3H55c-0.1-0.3-0.1-0.4-0.2-0.8c-0.4,0.4-0.9,0.9-2.1,0.9c-1,0-1.9-0.5-1.9-1.9
				c0-1.2,0.8-1.9,1.9-2l1.5-0.2c0.3,0,0.6-0.1,0.6-0.5c0-0.7-0.7-0.7-1.1-0.7c-0.8,0-1,0.5-1,0.9h-1.6c0.2-2,1.5-2.2,2.9-2.2
				c0.9,0,2.5,0.3,2.5,1.8V366.7z M56.1,359.1c-0.1,0.4-0.3,1.4-1.3,1.4c-0.3,0-0.7-0.1-0.9-0.2c-0.4-0.1-0.6-0.2-0.9-0.2
				c-0.4,0-0.5,0.4-0.6,0.5h-0.8c0-0.2,0.1-0.6,0.3-0.9c0.2-0.3,0.6-0.6,1.1-0.6c0.3,0,0.5,0.1,0.9,0.2c0.4,0.2,0.6,0.2,0.7,0.2
				c0.4,0,0.5-0.3,0.6-0.5H56.1z M54.8,364.8c-0.2,0.1-0.4,0.2-1.1,0.3c-0.6,0.1-1.1,0.3-1.1,1c0,0.6,0.5,0.8,0.8,0.8
				c0.7,0,1.5-0.5,1.5-1.3V364.8z"/>
			<path d="M60.9,368.1c-1.7,0-3.3-1.1-3.3-3.4s1.5-3.4,3.3-3.4c1.7,0,3.3,1.1,3.3,3.4S62.6,368.1,60.9,368.1z M60.9,362.8
				c-1.3,0-1.5,1.1-1.5,1.9s0.2,1.9,1.5,1.9s1.5-1.1,1.5-1.9S62.2,362.8,60.9,362.8z"/>
			<path d="M70.2,362.4L70.2,362.4c0.3-0.5,0.8-1.1,1.9-1.1c1.4,0,2.7,1.1,2.7,3.3c0,1.8-0.8,3.4-2.7,3.4c-1.2,0-1.6-0.6-1.8-1h0
				v3.3h-1.7v-8.9h1.6V362.4z M71.7,366.7c1.1,0,1.4-1.2,1.4-1.9c0-1-0.4-2-1.4-2c-1.2,0-1.4,1-1.4,2.1
				C70.2,365.8,70.6,366.7,71.7,366.7z"/>
			<path d="M81.1,366.7c0,0.8,0.2,0.9,0.4,1v0.3h-1.8c-0.1-0.3-0.1-0.4-0.2-0.8c-0.4,0.4-0.9,0.9-2.1,0.9c-1,0-1.9-0.5-1.9-1.9
				c0-1.2,0.8-1.9,1.9-2l1.5-0.2c0.3,0,0.6-0.1,0.6-0.5c0-0.7-0.7-0.7-1.1-0.7c-0.8,0-1,0.5-1,0.9h-1.6c0.2-2,1.5-2.2,2.9-2.2
				c0.9,0,2.5,0.3,2.5,1.8V366.7z M79.5,364.8c-0.2,0.1-0.4,0.2-1.1,0.3c-0.6,0.1-1.1,0.3-1.1,1c0,0.6,0.5,0.8,0.8,0.8
				c0.7,0,1.5-0.5,1.5-1.3V364.8z"/>
			<path d="M82.6,361.5h1.6v1.1h0c0.3-0.6,0.7-1.3,1.8-1.3c0.1,0,0.2,0,0.3,0v1.7c-0.1,0-0.3,0-0.5,0c-1.3,0-1.5,0.8-1.5,1.5v3.3
				h-1.7V361.5z"/>
			<path d="M92.5,366.7c0,0.8,0.2,0.9,0.4,1v0.3H91c-0.1-0.3-0.1-0.4-0.2-0.8c-0.4,0.4-0.9,0.9-2.1,0.9c-1,0-1.9-0.5-1.9-1.9
				c0-1.2,0.8-1.9,1.9-2l1.5-0.2c0.3,0,0.6-0.1,0.6-0.5c0-0.7-0.7-0.7-1.1-0.7c-0.8,0-1,0.5-1,0.9h-1.6c0.2-2,1.5-2.2,2.9-2.2
				c0.9,0,2.5,0.3,2.5,1.8V366.7z M90.8,364.8c-0.2,0.1-0.4,0.2-1.1,0.3c-0.6,0.1-1.1,0.3-1.1,1c0,0.6,0.5,0.8,0.8,0.8
				c0.7,0,1.5-0.5,1.5-1.3V364.8z"/>
			<path d="M100.7,367.9H99l-2.3-6.4h1.9l1.3,4.7h0l1.4-4.7h1.8L100.7,367.9z"/>
			<path d="M105.7,360.8H104v-1.6h1.7V360.8z M105.7,361.5v6.4H104v-6.4H105.7z"/>
			<path d="M110.9,363.5c-0.1-0.4-0.2-0.8-1.1-0.8s-1,0.3-1,0.6c0,1,4,0.3,4,2.6c0,1.9-1.8,2.2-2.8,2.2c-1.5,0-3-0.5-3.1-2.2h1.7
				c0,0.5,0.3,0.9,1.4,0.9c0.9,0,1.1-0.4,1.1-0.7c0-1.1-4-0.3-4-2.7c0-0.9,0.6-2.1,2.6-2.1c1.2,0,2.7,0.3,2.9,2.1H110.9z"/>
			<path d="M119.8,367.9h-1.6V367h0c-0.4,0.7-1.1,1.1-1.9,1.1c-1.3,0-2.2-0.7-2.2-2.4v-4.2h1.7v4c0,1,0.6,1.2,1.1,1.2
				c0.6,0,1.3-0.3,1.3-1.5v-3.7h1.7V367.9z"/>
			<path d="M126.5,366.7c0,0.8,0.2,0.9,0.4,1v0.3h-1.8c-0.1-0.3-0.1-0.4-0.2-0.8c-0.4,0.4-0.9,0.9-2.1,0.9c-1,0-1.9-0.5-1.9-1.9
				c0-1.2,0.8-1.9,1.9-2l1.5-0.2c0.3,0,0.6-0.1,0.6-0.5c0-0.7-0.7-0.7-1.1-0.7c-0.8,0-1,0.5-1,0.9h-1.6c0.2-2,1.5-2.2,2.9-2.2
				c0.9,0,2.5,0.3,2.5,1.8V366.7z M124.9,364.8c-0.2,0.1-0.4,0.2-1.1,0.3c-0.6,0.1-1.1,0.3-1.1,1c0,0.6,0.5,0.8,0.8,0.8
				c0.7,0,1.5-0.5,1.5-1.3V364.8z"/>
			<path d="M129.7,367.9h-1.7v-8.6h1.7V367.9z"/>
			<path d="M133.1,360.8h-1.7v-1.6h1.7V360.8z M133.1,361.5v6.4h-1.7v-6.4H133.1z"/>
			<path d="M136.3,366.5h3.3v1.4h-5.5v-1.3l3.3-3.7h-3v-1.3h5.2v1.4L136.3,366.5z"/>
			<path d="M145.8,366.7c0,0.8,0.2,0.9,0.4,1v0.3h-1.8c-0.1-0.3-0.1-0.4-0.2-0.8c-0.4,0.4-0.9,0.9-2.1,0.9c-1,0-1.9-0.5-1.9-1.9
				c0-1.2,0.8-1.9,1.9-2l1.5-0.2c0.3,0,0.6-0.1,0.6-0.5c0-0.7-0.7-0.7-1.1-0.7c-0.8,0-1,0.5-1,0.9h-1.6c0.2-2,1.5-2.2,2.9-2.2
				c0.9,0,2.5,0.3,2.5,1.8V366.7z M144.2,364.8c-0.2,0.1-0.4,0.2-1.1,0.3c-0.6,0.1-1.1,0.3-1.1,1c0,0.6,0.5,0.8,0.8,0.8
				c0.7,0,1.5-0.5,1.5-1.3V364.8z"/>
			<path d="M147.3,361.5h1.6v1.1h0c0.3-0.6,0.7-1.3,1.8-1.3c0.1,0,0.2,0,0.3,0v1.7c-0.1,0-0.3,0-0.5,0c-1.3,0-1.5,0.8-1.5,1.5v3.3
				h-1.7V361.5z"/>
			<path d="M160.5,366.7c0,0.8,0.2,0.9,0.4,1v0.3h-1.8c-0.1-0.3-0.1-0.4-0.2-0.8c-0.4,0.4-0.9,0.9-2.1,0.9c-1,0-1.9-0.5-1.9-1.9
				c0-1.2,0.8-1.9,1.9-2l1.5-0.2c0.3,0,0.6-0.1,0.6-0.5c0-0.7-0.7-0.7-1.1-0.7c-0.8,0-1,0.5-1,0.9h-1.6c0.2-2,1.5-2.2,2.9-2.2
				c0.9,0,2.5,0.3,2.5,1.8V366.7z M158.9,364.8c-0.2,0.1-0.4,0.2-1.1,0.3c-0.6,0.1-1.1,0.3-1.1,1c0,0.6,0.5,0.8,0.8,0.8
				c0.7,0,1.5-0.5,1.5-1.3V364.8z"/>
			<path d="M166.9,362.4L166.9,362.4c0.3-0.5,0.8-1.1,1.9-1.1c1.4,0,2.7,1.1,2.7,3.3c0,1.8-0.8,3.4-2.7,3.4c-1.2,0-1.6-0.6-1.8-1h0
				v3.3h-1.7v-8.9h1.6V362.4z M168.4,366.7c1.1,0,1.4-1.2,1.4-1.9c0-1-0.4-2-1.4-2c-1.2,0-1.4,1-1.4,2.1
				C166.9,365.8,167.3,366.7,168.4,366.7z"/>
			<path d="M177.9,366.7c0,0.8,0.2,0.9,0.4,1v0.3h-1.8c-0.1-0.3-0.1-0.4-0.2-0.8c-0.4,0.4-0.9,0.9-2.1,0.9c-1,0-1.9-0.5-1.9-1.9
				c0-1.2,0.8-1.9,1.9-2l1.5-0.2c0.3,0,0.6-0.1,0.6-0.5c0-0.7-0.7-0.7-1.1-0.7c-0.8,0-1,0.5-1,0.9h-1.6c0.2-2,1.5-2.2,2.9-2.2
				c0.9,0,2.5,0.3,2.5,1.8V366.7z M176.2,364.8c-0.2,0.1-0.4,0.2-1.1,0.3c-0.6,0.1-1.1,0.3-1.1,1c0,0.6,0.5,0.8,0.8,0.8
				c0.7,0,1.5-0.5,1.5-1.3V364.8z"/>
			<path d="M183,363.5c-0.1-0.4-0.2-0.8-1.1-0.8s-1,0.3-1,0.6c0,1,4,0.3,4,2.6c0,1.9-1.8,2.2-2.8,2.2c-1.5,0-3-0.5-3.1-2.2h1.7
				c0,0.5,0.3,0.9,1.4,0.9c0.9,0,1.1-0.4,1.1-0.7c0-1.1-4-0.3-4-2.7c0-0.9,0.6-2.1,2.6-2.1c1.2,0,2.7,0.3,2.9,2.1H183z"/>
			<path d="M187.9,361.5h1v1.2h-1v3.5c0,0.4,0,0.5,0.7,0.5c0.1,0,0.2,0,0.3,0v1.3c-0.3,0-0.5,0-0.8,0H188c-1.5,0-1.7-0.6-1.7-1.4
				v-3.9h-0.9v-1.2h0.9v-1.7h1.7V361.5z"/>
			<path d="M195.2,366.7c0,0.8,0.2,0.9,0.4,1v0.3h-1.8c-0.1-0.3-0.1-0.4-0.2-0.8c-0.4,0.4-0.9,0.9-2.1,0.9c-1,0-1.9-0.5-1.9-1.9
				c0-1.2,0.8-1.9,1.9-2l1.5-0.2c0.3,0,0.6-0.1,0.6-0.5c0-0.7-0.7-0.7-1.1-0.7c-0.8,0-1,0.5-1,0.9h-1.6c0.2-2,1.5-2.2,2.9-2.2
				c0.9,0,2.5,0.3,2.5,1.8V366.7z M193.6,364.8c-0.2,0.1-0.4,0.2-1.1,0.3c-0.6,0.1-1.1,0.3-1.1,1c0,0.6,0.5,0.8,0.8,0.8
				c0.7,0,1.5-0.5,1.5-1.3V364.8z"/>
			<path d="M208.4,367.9h-1.7v-7.2h0l-1.6,7.2h-1.8l-1.6-7.2h0v7.2h-1.7v-8.6h2.6l1.6,6.8h0l1.5-6.8h2.6V367.9z"/>
			<path d="M215.2,366.7c0,0.8,0.2,0.9,0.4,1v0.3h-1.8c-0.1-0.3-0.1-0.4-0.2-0.8c-0.4,0.4-0.9,0.9-2.1,0.9c-1,0-1.9-0.5-1.9-1.9
				c0-1.2,0.8-1.9,1.9-2l1.5-0.2c0.3,0,0.6-0.1,0.6-0.5c0-0.7-0.7-0.7-1.1-0.7c-0.8,0-1,0.5-1,0.9h-1.6c0.2-2,1.5-2.2,2.9-2.2
				c0.9,0,2.5,0.3,2.5,1.8V366.7z M213.6,364.8c-0.2,0.1-0.4,0.2-1.1,0.3c-0.6,0.1-1.1,0.3-1.1,1c0,0.6,0.5,0.8,0.8,0.8
				c0.7,0,1.5-0.5,1.5-1.3V364.8z"/>
			<path d="M216.7,361.5h1.6v1.1h0c0.3-0.6,0.7-1.3,1.8-1.3c0.1,0,0.2,0,0.3,0v1.7c-0.1,0-0.3,0-0.5,0c-1.3,0-1.5,0.8-1.5,1.5v3.3
				h-1.7V361.5z"/>
			<path d="M223.1,367.9h-1.7v-8.6h1.7v4.7l2.1-2.4h2.1L225,364l2.3,3.9h-2l-1.5-2.7l-0.7,0.7V367.9z"/>
			<path d="M233.5,366c-0.4,1.5-1.7,2-2.8,2c-1.8,0-3.2-0.9-3.2-3.5c0-0.8,0.3-3.2,3.1-3.2c1.3,0,3,0.6,3,3.5v0.3h-4.4
				c0,0.5,0.1,1.6,1.5,1.6c0.5,0,0.9-0.2,1.1-0.7H233.5z M231.9,364.1c-0.1-1-0.8-1.3-1.3-1.3c-0.8,0-1.2,0.5-1.3,1.3H231.9z"/>
			<path d="M236.6,361.5h1v1.2h-1v3.5c0,0.4,0,0.5,0.7,0.5c0.1,0,0.2,0,0.3,0v1.3c-0.3,0-0.5,0-0.8,0h-0.2c-1.5,0-1.7-0.6-1.7-1.4
				v-3.9h-0.9v-1.2h0.9v-1.7h1.7V361.5z"/>
			<path d="M240.4,360.8h-1.7v-1.6h1.7V360.8z M240.4,361.5v6.4h-1.7v-6.4H240.4z"/>
			<path d="M247.8,367.9h-1.7V364c0-0.5,0-1.3-1.1-1.3c-0.7,0-1.3,0.5-1.3,1.5v3.7H242v-6.4h1.6v0.9h0c0.2-0.4,0.7-1.1,1.9-1.1
				c1.2,0,2.2,0.7,2.2,2.1V367.9z"/>
			<path d="M255.2,361.5v6c0,1.1-0.1,2.9-3.2,2.9c-1.3,0-2.7-0.6-2.8-1.9h1.8c0.1,0.3,0.2,0.6,1.2,0.6c0.9,0,1.3-0.4,1.3-1.5V367
				l0,0c-0.3,0.5-0.7,1-1.7,1c-1.5,0-2.7-1.1-2.7-3.3c0-2.2,1.2-3.3,2.7-3.3c1.2,0,1.7,0.7,1.9,1.1h0v-0.9H255.2z M252.1,366.5
				c1.1,0,1.4-1,1.4-1.8c0-1-0.5-1.9-1.4-1.9c-0.6,0-1.3,0.5-1.3,1.9C250.8,365.6,251.1,366.5,252.1,366.5z"/>
			<path d="M258.5,367.9h-1.8v-1.8h1.8V367.9z"/>
			<path d="M266.8,359.1c1.1,0,4.1,0.5,4.1,4.5s-3,4.5-4.1,4.5c-1.1,0-4.1-0.5-4.1-4.5S265.7,359.1,266.8,359.1z M266.8,366.6
				c1,0,2.3-0.6,2.3-3s-1.4-3-2.3-3c-1,0-2.3,0.6-2.3,3S265.8,366.6,266.8,366.6z"/>
			<path d="M281.4,361.5v6c0,1.1-0.1,2.9-3.2,2.9c-1.3,0-2.7-0.6-2.8-1.9h1.8c0.1,0.3,0.2,0.6,1.2,0.6c0.9,0,1.3-0.4,1.3-1.5V367
				l0,0c-0.3,0.5-0.7,1-1.7,1c-1.5,0-2.7-1.1-2.7-3.3c0-2.2,1.2-3.3,2.7-3.3c1.2,0,1.7,0.7,1.9,1.1h0v-0.9H281.4z M278.3,366.5
				c1.1,0,1.4-1,1.4-1.8c0-1-0.5-1.9-1.4-1.9c-0.6,0-1.3,0.5-1.3,1.9C277,365.6,277.3,366.5,278.3,366.5z"/>
			<path d="M282.9,361.5h1.6v1.1h0c0.3-0.6,0.7-1.3,1.8-1.3c0.1,0,0.2,0,0.3,0v1.7c-0.1,0-0.3,0-0.5,0c-1.3,0-1.5,0.8-1.5,1.5v3.3
				h-1.7V361.5z"/>
			<path d="M293.3,367.9h-1.6V367h0c-0.4,0.7-1.1,1.1-1.9,1.1c-1.3,0-2.2-0.7-2.2-2.4v-4.2h1.7v4c0,1,0.6,1.2,1.1,1.2
				c0.6,0,1.3-0.3,1.3-1.5v-3.7h1.7V367.9z"/>
			<path d="M296.5,362.4L296.5,362.4c0.3-0.5,0.8-1.1,1.9-1.1c1.4,0,2.7,1.1,2.7,3.3c0,1.8-0.8,3.4-2.7,3.4c-1.2,0-1.6-0.6-1.8-1h0
				v3.3h-1.7v-8.9h1.6V362.4z M298,366.7c1.1,0,1.4-1.2,1.4-1.9c0-1-0.4-2-1.4-2c-1.2,0-1.4,1-1.4,2.1
				C296.5,365.8,296.9,366.7,298,366.7z"/>
			<path d="M305.1,368.1c-1.7,0-3.3-1.1-3.3-3.4s1.5-3.4,3.3-3.4c1.7,0,3.3,1.1,3.3,3.4S306.8,368.1,305.1,368.1z M305.1,362.8
				c-1.3,0-1.5,1.1-1.5,1.9s0.2,1.9,1.5,1.9c1.3,0,1.5-1.1,1.5-1.9S306.4,362.8,305.1,362.8z"/>
			<path d="M11.1,382.3H9.5v-0.8h0c-0.4,0.7-1.2,1-1.8,1c-1.9,0-2.7-1.7-2.7-3.4c0-2.2,1.2-3.3,2.7-3.3c1.1,0,1.6,0.6,1.8,1h0v-3.1
				h1.7V382.3z M8,381.1c1.1,0,1.5-0.9,1.5-1.8c0-1-0.3-2.1-1.4-2.1c-1.1,0-1.4,0.9-1.4,2C6.6,379.9,6.9,381.1,8,381.1z"/>
			<path d="M18.1,380.4c-0.4,1.5-1.7,2-2.8,2c-1.8,0-3.2-0.9-3.2-3.5c0-0.8,0.3-3.2,3.1-3.2c1.3,0,3,0.6,3,3.5v0.3h-4.4
				c0,0.5,0.1,1.6,1.5,1.6c0.5,0,0.9-0.2,1.1-0.7H18.1z M16.4,378.5c-0.1-1-0.8-1.3-1.3-1.3c-0.8,0-1.2,0.5-1.3,1.3H16.4z"/>
			<path d="M28.4,382.3h-1.6v-0.9h0c-0.4,0.7-1.1,1.1-1.9,1.1c-1.3,0-2.2-0.7-2.2-2.4v-4.2h1.7v4c0,1,0.6,1.2,1.1,1.2
				c0.6,0,1.3-0.3,1.3-1.5v-3.7h1.7V382.3z"/>
			<path d="M33.6,377.9c-0.1-0.4-0.2-0.8-1.1-0.8s-1,0.3-1,0.6c0,1,4,0.3,4,2.6c0,1.9-1.8,2.2-2.8,2.2c-1.5,0-3-0.5-3.1-2.2h1.7
				c0,0.5,0.3,0.9,1.4,0.9c0.9,0,1.1-0.4,1.1-0.7c0-1.1-4-0.3-4-2.7c0-0.9,0.6-2.1,2.6-2.1c1.2,0,2.7,0.3,2.9,2.1H33.6z"/>
			<path d="M42.4,382.3h-1.6v-0.9h0c-0.4,0.7-1.1,1.1-1.9,1.1c-1.3,0-2.2-0.7-2.2-2.4v-4.2h1.7v4c0,1,0.6,1.2,1.1,1.2
				c0.6,0,1.3-0.3,1.3-1.5v-3.7h1.7V382.3z"/>
			<path d="M49.1,381.1c0,0.8,0.2,0.9,0.4,1v0.3h-1.8c-0.1-0.3-0.1-0.4-0.2-0.8c-0.4,0.4-0.9,0.9-2.1,0.9c-1,0-1.9-0.5-1.9-1.9
				c0-1.2,0.8-1.9,1.9-2l1.5-0.2c0.3,0,0.6-0.1,0.6-0.5c0-0.7-0.7-0.7-1.1-0.7c-0.8,0-1,0.5-1,0.9h-1.6c0.2-2,1.5-2.2,2.9-2.2
				c0.9,0,2.5,0.3,2.5,1.8V381.1z M47.5,379.2c-0.2,0.1-0.4,0.2-1.1,0.3c-0.6,0.1-1.1,0.3-1.1,1c0,0.6,0.5,0.8,0.8,0.8
				c0.7,0,1.5-0.5,1.5-1.3V379.2z M47,375.1h-1.2l1.1-1.8h1.8L47,375.1z"/>
			<path d="M50.6,375.9h1.6v1.1h0c0.3-0.6,0.7-1.3,1.8-1.3c0.1,0,0.2,0,0.3,0v1.7c-0.1,0-0.3,0-0.5,0c-1.3,0-1.5,0.8-1.5,1.5v3.3
				h-1.7V375.9z"/>
			<path d="M57,375.2h-1.7v-1.6H57V375.2z M57,375.9v6.4h-1.7v-6.4H57z"/>
			<path d="M61.5,382.5c-1.7,0-3.3-1.1-3.3-3.4s1.5-3.4,3.3-3.4c1.7,0,3.3,1.1,3.3,3.4S63.2,382.5,61.5,382.5z M61.5,377.2
				c-1.3,0-1.5,1.1-1.5,1.9s0.2,1.9,1.5,1.9s1.5-1.1,1.5-1.9S62.8,377.2,61.5,377.2z"/>
			<path d="M69.6,377.9c-0.1-0.4-0.2-0.8-1.1-0.8s-1,0.3-1,0.6c0,1,4,0.3,4,2.6c0,1.9-1.8,2.2-2.8,2.2c-1.5,0-3-0.5-3.1-2.2h1.7
				c0,0.5,0.3,0.9,1.4,0.9c0.9,0,1.1-0.4,1.1-0.7c0-1.1-4-0.3-4-2.7c0-0.9,0.6-2.1,2.6-2.1c1.2,0,2.7,0.3,2.9,2.1H69.6z"/>
			<path d="M81.8,382.3h-1.6v-0.8h0c-0.4,0.7-1.2,1-1.8,1c-1.9,0-2.7-1.7-2.7-3.4c0-2.2,1.2-3.3,2.7-3.3c1.1,0,1.6,0.6,1.8,1h0v-3.1
				h1.7V382.3z M78.7,381.1c1.1,0,1.5-0.9,1.5-1.8c0-1-0.3-2.1-1.4-2.1c-1.1,0-1.4,0.9-1.4,2C77.3,379.9,77.6,381.1,78.7,381.1z"/>
			<path d="M88.8,380.4c-0.4,1.5-1.7,2-2.8,2c-1.8,0-3.2-0.9-3.2-3.5c0-0.8,0.3-3.2,3.1-3.2c1.3,0,3,0.6,3,3.5v0.3h-4.4
				c0,0.5,0.1,1.6,1.5,1.6c0.5,0,0.9-0.2,1.1-0.7H88.8z M87.1,378.5c-0.1-1-0.8-1.3-1.3-1.3c-0.8,0-1.2,0.5-1.3,1.3H87.1z"/>
			<path d="M102.4,382.3h-1.7v-3.9c0-0.9-0.4-1.3-0.9-1.3c-0.8,0-1.1,0.6-1.1,1.3v3.8H97v-3.8c0-0.5,0-1.3-1-1.3c-0.8,0-1,0.6-1,1.2
				v3.9h-1.7v-6.4h1.6v0.9h0c0.2-0.4,0.7-1.1,1.8-1.1c0.9,0,1.3,0.3,1.8,1c0.2-0.3,0.7-1,1.7-1c1.2,0,2.2,0.7,2.2,2.1V382.3z"/>
			<path d="M109.1,381.1c0,0.8,0.2,0.9,0.4,1v0.3h-1.8c-0.1-0.3-0.1-0.4-0.2-0.8c-0.4,0.4-0.9,0.9-2.1,0.9c-1,0-1.9-0.5-1.9-1.9
				c0-1.2,0.8-1.9,1.9-2l1.5-0.2c0.3,0,0.6-0.1,0.6-0.5c0-0.7-0.7-0.7-1.1-0.7c-0.8,0-1,0.5-1,0.9h-1.6c0.2-2,1.5-2.2,2.9-2.2
				c0.9,0,2.5,0.3,2.5,1.8V381.1z M107.5,379.2c-0.2,0.1-0.4,0.2-1.1,0.3c-0.6,0.1-1.1,0.3-1.1,1c0,0.6,0.5,0.8,0.8,0.8
				c0.7,0,1.5-0.5,1.5-1.3V379.2z"/>
			<path d="M110.6,375.9h1.6v1.1h0c0.3-0.6,0.7-1.3,1.8-1.3c0.1,0,0.2,0,0.3,0v1.7c-0.1,0-0.3,0-0.5,0c-1.3,0-1.5,0.8-1.5,1.5v3.3
				h-1.7V375.9z"/>
			<path d="M117,382.3h-1.7v-8.6h1.7v4.7l2.1-2.4h2.1l-2.3,2.5l2.3,3.9h-2l-1.5-2.7l-0.7,0.7V382.3z"/>
			<path d="M127.5,380.4c-0.4,1.5-1.7,2-2.8,2c-1.8,0-3.2-0.9-3.2-3.5c0-0.8,0.3-3.2,3.1-3.2c1.3,0,3,0.6,3,3.5v0.3h-4.4
				c0,0.5,0.1,1.6,1.5,1.6c0.5,0,0.9-0.2,1.1-0.7H127.5z M125.8,378.5c-0.1-1-0.8-1.3-1.3-1.3c-0.8,0-1.2,0.5-1.3,1.3H125.8z"/>
			<path d="M130.5,375.9h1v1.2h-1v3.5c0,0.4,0,0.5,0.7,0.5c0.1,0,0.2,0,0.3,0v1.3c-0.3,0-0.5,0-0.8,0h-0.2c-1.5,0-1.7-0.6-1.7-1.4
				v-3.9H128v-1.2h0.9v-1.7h1.7V375.9z"/>
			<path d="M134.4,375.2h-1.7v-1.6h1.7V375.2z M134.4,375.9v6.4h-1.7v-6.4H134.4z"/>
			<path d="M141.8,382.3h-1.7v-3.9c0-0.5,0-1.3-1.1-1.3c-0.7,0-1.3,0.5-1.3,1.5v3.7H136v-6.4h1.6v0.9h0c0.2-0.4,0.7-1.1,1.9-1.1
				c1.2,0,2.2,0.7,2.2,2.1V382.3z"/>
			<path d="M149.2,375.9v6c0,1.1-0.1,2.9-3.2,2.9c-1.3,0-2.7-0.6-2.8-1.9h1.8c0.1,0.3,0.2,0.6,1.2,0.6c0.9,0,1.3-0.4,1.3-1.5v-0.8
				l0,0c-0.3,0.5-0.7,1-1.7,1c-1.5,0-2.7-1.1-2.7-3.3c0-2.2,1.2-3.3,2.7-3.3c1.2,0,1.7,0.7,1.9,1.1h0v-0.9H149.2z M146.1,380.9
				c1.1,0,1.4-1,1.4-1.8c0-1-0.5-1.9-1.4-1.9c-0.6,0-1.3,0.5-1.3,1.9C144.8,380,145.1,380.9,146.1,380.9z"/>
			<path d="M155.9,375.9h1v1.2h-1v3.5c0,0.4,0,0.5,0.7,0.5c0.1,0,0.2,0,0.3,0v1.3c-0.3,0-0.5,0-0.8,0h-0.2c-1.5,0-1.7-0.6-1.7-1.4
				v-3.9h-0.9v-1.2h0.9v-1.7h1.7V375.9z"/>
			<path d="M163.5,380.4c-0.4,1.5-1.7,2-2.8,2c-1.8,0-3.2-0.9-3.2-3.5c0-0.8,0.3-3.2,3.1-3.2c1.3,0,3,0.6,3,3.5v0.3h-4.4
				c0,0.5,0.1,1.6,1.5,1.6c0.5,0,0.9-0.2,1.1-0.7H163.5z M161.8,378.5c-0.1-1-0.8-1.3-1.3-1.3c-0.8,0-1.2,0.5-1.3,1.3H161.8z"/>
			<path d="M173.8,382.3h-1.7v-3.9c0-0.9-0.4-1.3-0.9-1.3c-0.8,0-1.1,0.6-1.1,1.3v3.8h-1.7v-3.8c0-0.5,0-1.3-1-1.3
				c-0.8,0-1,0.6-1,1.2v3.9h-1.7v-6.4h1.6v0.9h0c0.2-0.4,0.7-1.1,1.8-1.1c0.9,0,1.3,0.3,1.8,1c0.2-0.3,0.7-1,1.7-1
				c1.2,0,2.2,0.7,2.2,2.1V382.3z"/>
			<path d="M180.2,376.8L180.2,376.8c0.3-0.5,0.8-1.1,1.9-1.1c1.4,0,2.7,1.1,2.7,3.3c0,1.8-0.8,3.4-2.7,3.4c-1.2,0-1.6-0.6-1.8-1h0
				v3.3h-1.7v-8.9h1.6V376.8z M181.7,381.1c1.1,0,1.4-1.2,1.4-1.9c0-1-0.4-2-1.4-2c-1.2,0-1.4,1-1.4,2.1
				C180.2,380.2,180.6,381.1,181.7,381.1z"/>
			<path d="M191.5,380.4c-0.4,1.5-1.7,2-2.8,2c-1.8,0-3.2-0.9-3.2-3.5c0-0.8,0.3-3.2,3.1-3.2c1.3,0,3,0.6,3,3.5v0.3h-4.4
				c0,0.5,0.1,1.6,1.5,1.6c0.5,0,0.9-0.2,1.1-0.7H191.5z M189.8,378.5c-0.1-1-0.8-1.3-1.3-1.3c-0.8,0-1.2,0.5-1.3,1.3H189.8z"/>
			<path d="M192.7,375.9h1.6v1.1h0c0.3-0.6,0.7-1.3,1.8-1.3c0.1,0,0.2,0,0.3,0v1.7c-0.1,0-0.3,0-0.5,0c-1.3,0-1.5,0.8-1.5,1.5v3.3
				h-1.7V375.9z"/>
			<path d="M206.5,382.3h-1.7v-3.9c0-0.9-0.4-1.3-0.9-1.3c-0.8,0-1.1,0.6-1.1,1.3v3.8h-1.7v-3.8c0-0.5,0-1.3-1-1.3
				c-0.8,0-1,0.6-1,1.2v3.9h-1.7v-6.4h1.6v0.9h0c0.2-0.4,0.7-1.1,1.8-1.1c0.9,0,1.3,0.3,1.8,1c0.2-0.3,0.7-1,1.7-1
				c1.2,0,2.2,0.7,2.2,2.1V382.3z"/>
			<path d="M209.7,375.2h-1.7v-1.6h1.7V375.2z M209.7,375.9v6.4h-1.7v-6.4H209.7z"/>
			<path d="M215,377.9c-0.1-0.4-0.2-0.8-1.1-0.8s-1,0.3-1,0.6c0,1,4,0.3,4,2.6c0,1.9-1.8,2.2-2.8,2.2c-1.5,0-3-0.5-3.1-2.2h1.7
				c0,0.5,0.3,0.9,1.4,0.9c0.9,0,1.1-0.4,1.1-0.7c0-1.1-4-0.3-4-2.7c0-0.9,0.6-2.1,2.6-2.1c1.2,0,2.7,0.3,2.9,2.1H215z"/>
			<path d="M221.6,377.9c-0.1-0.4-0.2-0.8-1.1-0.8s-1,0.3-1,0.6c0,1,4,0.3,4,2.6c0,1.9-1.8,2.2-2.8,2.2c-1.5,0-3-0.5-3.1-2.2h1.7
				c0,0.5,0.3,0.9,1.4,0.9c0.9,0,1.1-0.4,1.1-0.7c0-1.1-4-0.3-4-2.7c0-0.9,0.6-2.1,2.6-2.1c1.2,0,2.7,0.3,2.9,2.1H221.6z"/>
			<path d="M227.6,382.5c-1.7,0-3.3-1.1-3.3-3.4s1.5-3.4,3.3-3.4c1.7,0,3.3,1.1,3.3,3.4S229.3,382.5,227.6,382.5z M229.8,373.5
				c-0.1,0.4-0.3,1.4-1.3,1.4c-0.3,0-0.7-0.1-0.9-0.2c-0.4-0.1-0.6-0.2-0.9-0.2c-0.4,0-0.5,0.4-0.6,0.5h-0.8c0-0.2,0.1-0.6,0.3-0.9
				c0.2-0.3,0.6-0.6,1.1-0.6c0.3,0,0.5,0.1,0.9,0.2c0.4,0.2,0.6,0.2,0.7,0.2c0.4,0,0.5-0.3,0.6-0.5H229.8z M227.6,377.2
				c-1.3,0-1.5,1.1-1.5,1.9s0.2,1.9,1.5,1.9s1.5-1.1,1.5-1.9S228.9,377.2,227.6,377.2z"/>
			<path d="M237.5,380.4c-0.4,1.5-1.7,2-2.8,2c-1.8,0-3.2-0.9-3.2-3.5c0-0.8,0.3-3.2,3.1-3.2c1.3,0,3,0.6,3,3.5v0.3h-4.4
				c0,0.5,0.1,1.6,1.5,1.6c0.5,0,0.9-0.2,1.1-0.7H237.5z M235.8,378.5c-0.1-1-0.8-1.3-1.3-1.3c-0.8,0-1.2,0.5-1.3,1.3H235.8z"/>
			<path d="M242.3,377.9c-0.1-0.4-0.2-0.8-1.1-0.8s-1,0.3-1,0.6c0,1,4,0.3,4,2.6c0,1.9-1.8,2.2-2.8,2.2c-1.5,0-3-0.5-3.1-2.2h1.7
				c0,0.5,0.3,0.9,1.4,0.9c0.9,0,1.1-0.4,1.1-0.7c0-1.1-4-0.3-4-2.7c0-0.9,0.6-2.1,2.6-2.1c1.2,0,2.7,0.3,2.9,2.1H242.3z"/>
			<path d="M250.3,376.8L250.3,376.8c0.3-0.5,0.8-1.1,1.9-1.1c1.4,0,2.7,1.1,2.7,3.3c0,1.8-0.8,3.4-2.7,3.4c-1.2,0-1.6-0.6-1.8-1h0
				v3.3h-1.7v-8.9h1.6V376.8z M251.7,381.1c1.1,0,1.4-1.2,1.4-1.9c0-1-0.4-2-1.4-2c-1.2,0-1.4,1-1.4,2.1
				C250.3,380.2,250.7,381.1,251.7,381.1z"/>
			<path d="M261.2,381.1c0,0.8,0.2,0.9,0.4,1v0.3h-1.8c-0.1-0.3-0.1-0.4-0.2-0.8c-0.4,0.4-0.9,0.9-2.1,0.9c-1,0-1.9-0.5-1.9-1.9
				c0-1.2,0.8-1.9,1.9-2l1.5-0.2c0.3,0,0.6-0.1,0.6-0.5c0-0.7-0.7-0.7-1.1-0.7c-0.8,0-1,0.5-1,0.9h-1.6c0.2-2,1.5-2.2,2.9-2.2
				c0.9,0,2.5,0.3,2.5,1.8V381.1z M259.6,379.2c-0.2,0.1-0.4,0.2-1.1,0.3c-0.6,0.1-1.1,0.3-1.1,1c0,0.6,0.5,0.8,0.8,0.8
				c0.7,0,1.5-0.5,1.5-1.3V379.2z"/>
			<path d="M262.7,375.9h1.6v1.1h0c0.3-0.6,0.7-1.3,1.8-1.3c0.1,0,0.2,0,0.3,0v1.7c-0.1,0-0.3,0-0.5,0c-1.3,0-1.5,0.8-1.5,1.5v3.3
				h-1.7V375.9z"/>
			<path d="M272.5,381.1c0,0.8,0.2,0.9,0.4,1v0.3h-1.8c-0.1-0.3-0.1-0.4-0.2-0.8c-0.4,0.4-0.9,0.9-2.1,0.9c-1,0-1.9-0.5-1.9-1.9
				c0-1.2,0.8-1.9,1.9-2l1.5-0.2c0.3,0,0.6-0.1,0.6-0.5c0-0.7-0.7-0.7-1.1-0.7c-0.8,0-1,0.5-1,0.9h-1.6c0.2-2,1.5-2.2,2.9-2.2
				c0.9,0,2.5,0.3,2.5,1.8V381.1z M270.9,379.2c-0.2,0.1-0.4,0.2-1.1,0.3c-0.6,0.1-1.1,0.3-1.1,1c0,0.6,0.5,0.8,0.8,0.8
				c0.7,0,1.5-0.5,1.5-1.3V379.2z"/>
			<path d="M282.9,380.4c-0.4,1.5-1.7,2-2.8,2c-1.8,0-3.2-0.9-3.2-3.5c0-0.8,0.3-3.2,3.1-3.2c1.3,0,3,0.6,3,3.5v0.3h-4.4
				c0,0.5,0.1,1.6,1.5,1.6c0.5,0,0.9-0.2,1.1-0.7H282.9z M281.2,378.5c-0.1-1-0.8-1.3-1.3-1.3c-0.8,0-1.2,0.5-1.3,1.3H281.2z"/>
			<path d="M289.9,382.3h-1.6v-0.8h0c-0.4,0.7-1.2,1-1.8,1c-1.9,0-2.7-1.7-2.7-3.4c0-2.2,1.2-3.3,2.7-3.3c1.1,0,1.6,0.6,1.8,1h0
				v-3.1h1.7V382.3z M286.8,381.1c1.1,0,1.5-0.9,1.5-1.8c0-1-0.3-2.1-1.4-2.1c-1.1,0-1.4,0.9-1.4,2
				C285.4,379.9,285.7,381.1,286.8,381.1z"/>
			<path d="M293.1,375.2h-1.7v-1.6h1.7V375.2z M293.1,375.9v6.4h-1.7v-6.4H293.1z"/>
			<path d="M296.6,375.9h1v1.2h-1v3.5c0,0.4,0,0.5,0.7,0.5c0.1,0,0.2,0,0.3,0v1.3c-0.3,0-0.5,0-0.8,0h-0.2c-1.5,0-1.7-0.6-1.7-1.4
				v-3.9h-0.9v-1.2h0.9v-1.7h1.7V375.9z"/>
			<path d="M303.9,381.1c0,0.8,0.2,0.9,0.4,1v0.3h-1.8c-0.1-0.3-0.1-0.4-0.2-0.8c-0.4,0.4-0.9,0.9-2.1,0.9c-1,0-1.9-0.5-1.9-1.9
				c0-1.2,0.8-1.9,1.9-2l1.5-0.2c0.3,0,0.6-0.1,0.6-0.5c0-0.7-0.7-0.7-1.1-0.7c-0.8,0-1,0.5-1,0.9h-1.6c0.2-2,1.5-2.2,2.9-2.2
				c0.9,0,2.5,0.3,2.5,1.8V381.1z M302.2,379.2c-0.2,0.1-0.4,0.2-1.1,0.3c-0.6,0.1-1.1,0.3-1.1,1c0,0.6,0.5,0.8,0.8,0.8
				c0.7,0,1.5-0.5,1.5-1.3V379.2z"/>
			<path d="M305.4,375.9h1.6v1.1h0c0.3-0.6,0.7-1.3,1.8-1.3c0.1,0,0.2,0,0.3,0v1.7c-0.1,0-0.3,0-0.5,0c-1.3,0-1.5,0.8-1.5,1.5v3.3
				h-1.7V375.9z"/>
			<path d="M311.1,382.3h-1.8v-1.8h1.8V382.3z"/>
		</g>
	</g>
</g>
<path pointer-events="stroke" class="st7" d="M78.5,224.5v-142"/>
<path pointer-events="stroke" class="st7" d="M79.5,82.5l54-0.3"/>
<path pointer-events="all" class="st8" d="M138.7,82.1l-7,3.5l1.7-3.5l-1.8-3.5L138.7,82.1z"/>
<path pointer-events="stroke" class="st7" d="M113.2,251.2l212.9,0.9"/>
<path pointer-events="all" class="st8" d="M331.4,252.2l-7,3.5l1.8-3.5l-1.7-3.5L331.4,252.2z"/>
<rect x="22.5" y="222.5" pointer-events="all" class="st1" width="90" height="70"/>
<path pointer-events="all" class="st9" d="M70.2,231.8l10.3-8.2c0.9-0.7,2-1.1,3.3-1.1h23.3c2.4,0,5.3,1.7,5.3,4.7v4.6H70.2z
	 M22.5,292.5v-52.6c0-2.6,2.7-4.6,5.3-4.6h84.7v57.2H22.5z"/>
<g class="st3">
	<path d="M48.5,311h-1.7v-7.2h0l-1.6,7.2h-1.8l-1.6-7.2h0v7.2h-1.7v-8.6h2.6l1.6,6.8h0l1.5-6.8h2.6V311z"/>
	<path d="M55.3,309.8c0,0.8,0.2,0.9,0.4,1v0.3h-1.8c-0.1-0.3-0.1-0.4-0.2-0.8c-0.4,0.4-0.9,0.9-2.1,0.9c-1,0-1.9-0.5-1.9-1.9
		c0-1.2,0.8-1.9,1.9-2l1.5-0.2c0.3,0,0.6-0.1,0.6-0.5c0-0.7-0.7-0.7-1.1-0.7c-0.8,0-1,0.5-1,0.9h-1.6c0.2-2,1.5-2.2,2.9-2.2
		c0.9,0,2.5,0.3,2.5,1.8V309.8z M53.7,307.9c-0.2,0.1-0.4,0.2-1.1,0.3c-0.6,0.1-1.1,0.3-1.1,1c0,0.6,0.5,0.8,0.8,0.8
		c0.7,0,1.5-0.5,1.5-1.3V307.9z"/>
	<path d="M56.8,304.6h1.6v1.1h0c0.3-0.6,0.7-1.3,1.8-1.3c0.1,0,0.2,0,0.3,0v1.7c-0.1,0-0.3,0-0.5,0c-1.3,0-1.5,0.8-1.5,1.5v3.3h-1.7
		V304.6z"/>
	<path d="M63.2,311h-1.7v-8.6h1.7v4.7l2.1-2.4h2.1l-2.3,2.5l2.3,3.9h-2l-1.5-2.7l-0.7,0.7V311z"/>
	<path d="M73.6,309.1c-0.4,1.5-1.7,2-2.8,2c-1.8,0-3.2-0.9-3.2-3.5c0-0.8,0.3-3.2,3.1-3.2c1.3,0,3,0.6,3,3.5v0.3h-4.4
		c0,0.5,0.1,1.6,1.5,1.6c0.5,0,0.9-0.2,1.1-0.7H73.6z M72,307.2c-0.1-1-0.8-1.3-1.3-1.3c-0.8,0-1.2,0.5-1.3,1.3H72z"/>
	<path d="M76.7,304.6h1v1.2h-1v3.5c0,0.4,0,0.5,0.7,0.5c0.1,0,0.2,0,0.3,0v1.3c-0.3,0-0.5,0-0.8,0h-0.2c-1.5,0-1.7-0.6-1.7-1.4v-3.9
		h-0.9v-1.2H75v-1.7h1.7V304.6z"/>
	<path d="M80.5,303.9h-1.7v-1.6h1.7V303.9z M80.5,304.6v6.4h-1.7v-6.4H80.5z"/>
	<path d="M87.9,311h-1.7v-3.9c0-0.5,0-1.3-1.1-1.3c-0.7,0-1.3,0.5-1.3,1.5v3.7h-1.7v-6.4h1.6v0.9h0c0.2-0.4,0.7-1.1,1.9-1.1
		c1.2,0,2.2,0.7,2.2,2.1V311z"/>
	<path d="M95.3,304.6v6c0,1.1-0.1,2.9-3.2,2.9c-1.3,0-2.7-0.6-2.8-1.9h1.8c0.1,0.3,0.2,0.6,1.2,0.6c0.9,0,1.3-0.4,1.3-1.5v-0.8l0,0
		c-0.3,0.5-0.7,1-1.7,1c-1.5,0-2.7-1.1-2.7-3.3c0-2.2,1.2-3.3,2.7-3.3c1.2,0,1.7,0.7,1.9,1.1h0v-0.9H95.3z M92.2,309.6
		c1.1,0,1.4-1,1.4-1.8c0-1-0.5-1.9-1.4-1.9c-0.6,0-1.3,0.5-1.3,1.9C90.9,308.7,91.2,309.6,92.2,309.6z"/>
</g>
</svg>
