<?xml version="1.0" encoding="utf-8"?>
<!-- Generator: Adobe Illustrator 26.5.2, SVG Export Plug-In . SVG Version: 6.00 Build 0)  -->
<svg version="1.1" id="Layer_1" xmlns="http://www.w3.org/2000/svg" xmlns:xlink="http://www.w3.org/1999/xlink" x="0px" y="0px"
	 width="493px" height="356px" viewBox="0 0 493 356" style="enable-background:new 0 0 493 356;" xml:space="preserve">
<style type="text/css">
	.st0{fill:#FFFFFF;}
	.st1{fill:#FFB366;}
	.st2{enable-background:new    ;}
	.st3{fill:none;stroke:#000000;stroke-miterlimit:10;}
	.st4{stroke:#000000;stroke-miterlimit:10;}
	.st5{fill:none;}
	.st6{fill:#EDED00;}
</style>
<rect x="-7.9" y="-12.5" class="st0" width="521.4" height="381.1"/>
<path pointer-events="all" class="st1" d="M421.9,35.1c-5.3,0.2-9.1-1.6-11.4-3.7c2.5-3.6,3-7.5,0.9-11.5c2.9-2.1,6.4-2.9,9.7-2.9
	c7.6,0.2,13,4.6,12.5,9.7C433.4,30.3,429.5,34.6,421.9,35.1z M415,53.3c0.1-2.1,0.3-4.4,0.1-6.1c-0.4-3.4-2.4-7.1-6.3-10
	c0.8-0.8,1.5-1.4,2.3-1.8c4.4,2.3,12.4,3.5,19.5,0c3.3,2.2,4.7,4.8,4.8,7.4c0.1,2.3-0.1,4.3-0.4,6c-0.3,3.5-3.5,4.5-9,4.5L415,53.3z
	 M392.9,37.4c-9.3,0-17.7-5-17.7-12.8c0-6.5,8.1-12.1,17.4-12.1c9.4,0,17.8,5.1,17.8,12.5C410.4,32.3,401.8,37.4,392.9,37.4z
	 M383.2,62.3c-6.5-0.3-10.3-2.1-10.5-5.7c-0.3-3.6,0-6.1,0-9c0.5-4.5,3.3-7.6,6.6-9.8c9.4,4.7,20.4,3.4,26.9,0
	c3.7,2.4,6.3,5.8,6.6,9.7c0.1,3.5-0.1,6.9-0.6,9.6c-0.2,1.6-1.6,3.2-3.7,4.1c-1.8,0.7-4.2,1-7,1.1c-1.2,0.1-10.6,0-14.9,0
	C385.6,62.4,384.5,62.4,383.2,62.3z"/>
<g transform="translate(-0.5 -0.5)">
	<g class="st2">
		<path d="M369,76.9h3.6v4.6h-1.2l-0.2-1.1c-0.5,0.5-1.1,1.3-2.7,1.3c-2.1,0-4-1.5-4-4.5c0-2.4,1.3-4.6,4.2-4.6
			c2.6,0,3.7,1.7,3.8,2.9h-1.8c0-0.3-0.6-1.4-1.9-1.4c-1.3,0-2.5,0.9-2.5,3.1c0,2.4,1.3,3,2.5,3c0.4,0,1.7-0.2,2.1-1.9h-2V76.9z"/>
		<path d="M374.1,75.1h1.6v1.1h0c0.3-0.6,0.7-1.3,1.8-1.3c0.1,0,0.2,0,0.3,0v1.7c-0.1,0-0.3,0-0.5,0c-1.3,0-1.5,0.8-1.5,1.5v3.3
			h-1.7V75.1z"/>
		<path d="M384.6,81.5H383v-0.9h0c-0.4,0.7-1.1,1.1-1.9,1.1c-1.3,0-2.2-0.7-2.2-2.4v-4.2h1.7v4c0,1,0.6,1.2,1.1,1.2
			c0.6,0,1.3-0.3,1.3-1.5v-3.7h1.7V81.5z"/>
		<path d="M387.7,76L387.7,76c0.3-0.5,0.8-1.1,1.9-1.1c1.4,0,2.7,1.1,2.7,3.3c0,1.8-0.8,3.4-2.7,3.4c-1.2,0-1.6-0.6-1.8-1h0V84h-1.7
			v-8.9h1.6V76z M389.2,80.3c1.1,0,1.4-1.2,1.4-1.9c0-1-0.4-2-1.4-2c-1.2,0-1.4,1-1.4,2.1C387.7,79.4,388.1,80.3,389.2,80.3z"/>
		<path d="M396.4,81.7c-1.7,0-3.3-1.1-3.3-3.4s1.5-3.4,3.3-3.4c1.7,0,3.3,1.1,3.3,3.4S398.1,81.7,396.4,81.7z M396.4,76.4
			c-1.3,0-1.5,1.1-1.5,1.9s0.2,1.9,1.5,1.9c1.3,0,1.5-1.1,1.5-1.9S397.7,76.4,396.4,76.4z"/>
		<path d="M406.7,81.5h-1.8v-7.1h-2.6v-1.5h7v1.5h-2.6V81.5z"/>
		<path d="M412.2,81.7c-1.7,0-3.3-1.1-3.3-3.4s1.5-3.4,3.3-3.4c1.7,0,3.3,1.1,3.3,3.4S413.9,81.7,412.2,81.7z M412.2,76.4
			c-1.3,0-1.5,1.1-1.5,1.9s0.2,1.9,1.5,1.9c1.3,0,1.5-1.1,1.5-1.9S413.5,76.4,412.2,76.4z"/>
		<path d="M422.5,81.5h-1.6v-0.8h0c-0.4,0.7-1.2,1-1.8,1c-1.9,0-2.7-1.7-2.7-3.4c0-2.2,1.2-3.3,2.7-3.3c1.1,0,1.6,0.6,1.8,1h0v-3.1
			h1.7V81.5z M419.4,80.3c1.1,0,1.5-0.9,1.5-1.8c0-1-0.3-2.1-1.4-2.1c-1.1,0-1.4,0.9-1.4,2C418,79.1,418.3,80.3,419.4,80.3z"/>
		<path d="M426.9,81.7c-1.7,0-3.3-1.1-3.3-3.4s1.5-3.4,3.3-3.4c1.7,0,3.3,1.1,3.3,3.4S428.6,81.7,426.9,81.7z M426.9,76.4
			c-1.3,0-1.5,1.1-1.5,1.9s0.2,1.9,1.5,1.9c1.3,0,1.5-1.1,1.5-1.9S428.2,76.4,426.9,76.4z"/>
		<path d="M434.9,77.1c-0.1-0.4-0.2-0.8-1.1-0.8c-0.9,0-1,0.3-1,0.6c0,1,4,0.3,4,2.6c0,1.9-1.8,2.2-2.8,2.2c-1.5,0-3-0.5-3.1-2.2
			h1.7c0,0.5,0.3,0.9,1.4,0.9c0.9,0,1.1-0.4,1.1-0.7c0-1.1-4-0.3-4-2.7c0-0.9,0.6-2.1,2.6-2.1c1.2,0,2.7,0.3,2.9,2.1H434.9z"/>
		<path d="M333.6,96.1c-1.7,0-3.3-1.1-3.3-3.4s1.5-3.4,3.3-3.4c1.7,0,3.3,1.1,3.3,3.4S335.3,96.1,333.6,96.1z M333.6,90.8
			c-1.3,0-1.5,1.1-1.5,1.9s0.2,1.9,1.5,1.9c1.3,0,1.5-1.1,1.5-1.9S334.9,90.8,333.6,90.8z"/>
		<path d="M341.7,91.5c-0.1-0.4-0.2-0.8-1.1-0.8c-0.9,0-1,0.3-1,0.6c0,1,4,0.3,4,2.6c0,1.9-1.8,2.2-2.8,2.2c-1.5,0-3-0.5-3.1-2.2
			h1.7c0,0.5,0.3,0.9,1.4,0.9c0.9,0,1.1-0.4,1.1-0.7c0-1.1-4-0.3-4-2.7c0-0.9,0.6-2.1,2.6-2.1c1.2,0,2.7,0.3,2.9,2.1H341.7z"/>
		<path d="M353.8,95.9h-1.6V95h0c-0.4,0.7-1.1,1.1-1.9,1.1c-1.3,0-2.2-0.7-2.2-2.4v-4.2h1.7v4c0,1,0.6,1.2,1.1,1.2
			c0.6,0,1.3-0.3,1.3-1.5v-3.7h1.7V95.9z"/>
		<path d="M359,91.5c-0.1-0.4-0.2-0.8-1.1-0.8c-0.9,0-1,0.3-1,0.6c0,1,4,0.3,4,2.6c0,1.9-1.8,2.2-2.8,2.2c-1.5,0-3-0.5-3.1-2.2h1.7
			c0,0.5,0.3,0.9,1.4,0.9c0.9,0,1.1-0.4,1.1-0.7c0-1.1-4-0.3-4-2.7c0-0.9,0.6-2.1,2.6-2.1c1.2,0,2.7,0.3,2.9,2.1H359z"/>
		<path d="M367.8,95.9h-1.6V95h0c-0.4,0.7-1.1,1.1-1.9,1.1c-1.3,0-2.2-0.7-2.2-2.4v-4.2h1.7v4c0,1,0.6,1.2,1.1,1.2
			c0.6,0,1.3-0.3,1.3-1.5v-3.7h1.7V95.9z"/>
		<path d="M374.6,94.7c0,0.8,0.2,0.9,0.4,1v0.3h-1.8c-0.1-0.3-0.1-0.4-0.2-0.8c-0.4,0.4-0.9,0.9-2.1,0.9c-1,0-1.9-0.5-1.9-1.9
			c0-1.2,0.8-1.9,1.9-2l1.5-0.2c0.3,0,0.6-0.1,0.6-0.5c0-0.7-0.7-0.7-1.1-0.7c-0.8,0-1,0.5-1,0.9h-1.6c0.2-2,1.5-2.2,2.9-2.2
			c0.9,0,2.5,0.3,2.5,1.8V94.7z M372.9,92.8c-0.2,0.1-0.4,0.2-1.1,0.3c-0.6,0.1-1.1,0.3-1.1,1c0,0.6,0.5,0.8,0.8,0.8
			c0.7,0,1.5-0.5,1.5-1.3V92.8z M372.5,88.7h-1.2l1.1-1.8h1.8L372.5,88.7z"/>
		<path d="M376,89.5h1.6v1.1h0c0.3-0.6,0.7-1.3,1.8-1.3c0.1,0,0.2,0,0.3,0v1.7c-0.1,0-0.3,0-0.5,0c-1.3,0-1.5,0.8-1.5,1.5v3.3H376
			V89.5z"/>
		<path d="M382.5,88.8h-1.7v-1.6h1.7V88.8z M382.5,89.5v6.4h-1.7v-6.4H382.5z"/>
		<path d="M387,96.1c-1.7,0-3.3-1.1-3.3-3.4s1.5-3.4,3.3-3.4c1.7,0,3.3,1.1,3.3,3.4S388.7,96.1,387,96.1z M387,90.8
			c-1.3,0-1.5,1.1-1.5,1.9s0.2,1.9,1.5,1.9c1.3,0,1.5-1.1,1.5-1.9S388.2,90.8,387,90.8z"/>
		<path d="M395,91.5c-0.1-0.4-0.2-0.8-1.1-0.8c-0.9,0-1,0.3-1,0.6c0,1,4,0.3,4,2.6c0,1.9-1.8,2.2-2.8,2.2c-1.5,0-3-0.5-3.1-2.2h1.7
			c0,0.5,0.3,0.9,1.4,0.9c0.9,0,1.1-0.4,1.1-0.7c0-1.1-4-0.3-4-2.7c0-0.9,0.6-2.1,2.6-2.1c1.2,0,2.7,0.3,2.9,2.1H395z"/>
		<path d="M406.6,94.7c0,0.8,0.2,0.9,0.4,1v0.3h-1.8c-0.1-0.3-0.1-0.4-0.2-0.8c-0.4,0.4-0.9,0.9-2.1,0.9c-1,0-1.9-0.5-1.9-1.9
			c0-1.2,0.8-1.9,1.9-2l1.5-0.2c0.3,0,0.6-0.1,0.6-0.5c0-0.7-0.7-0.7-1.1-0.7c-0.8,0-1,0.5-1,0.9h-1.6c0.2-2,1.5-2.2,2.9-2.2
			c0.9,0,2.5,0.3,2.5,1.8V94.7z M404.9,92.8c-0.2,0.1-0.4,0.2-1.1,0.3c-0.6,0.1-1.1,0.3-1.1,1c0,0.6,0.5,0.8,0.8,0.8
			c0.7,0,1.5-0.5,1.5-1.3V92.8z"/>
		<path d="M413.8,95.9h-1.6V95h0c-0.4,0.7-1.1,1.1-1.9,1.1c-1.3,0-2.2-0.7-2.2-2.4v-4.2h1.7v4c0,1,0.6,1.2,1.1,1.2
			c0.6,0,1.3-0.3,1.3-1.5v-3.7h1.7V95.9z"/>
		<path d="M417.3,89.5h1v1.2h-1v3.5c0,0.4,0,0.5,0.7,0.5c0.1,0,0.2,0,0.3,0v1.3c-0.3,0-0.5,0-0.8,0h-0.2c-1.5,0-1.7-0.6-1.7-1.4
			v-3.9h-0.9v-1.2h0.9v-1.7h1.7V89.5z"/>
		<path d="M424.9,94c-0.4,1.5-1.7,2-2.8,2c-1.8,0-3.2-0.9-3.2-3.5c0-0.8,0.3-3.2,3.1-3.2c1.3,0,3,0.6,3,3.5v0.3h-4.4
			c0,0.5,0.1,1.6,1.5,1.6c0.5,0,0.9-0.2,1.1-0.7H424.9z M423.2,92.1c-0.1-1-0.8-1.3-1.3-1.3c-0.8,0-1.2,0.5-1.3,1.3H423.2z"/>
		<path d="M431.8,95.9h-1.7V92c0-0.5,0-1.3-1.1-1.3c-0.7,0-1.3,0.5-1.3,1.5v3.7h-1.7v-6.4h1.6v0.9h0c0.2-0.4,0.7-1.1,1.9-1.1
			c1.2,0,2.2,0.7,2.2,2.1V95.9z"/>
		<path d="M435.3,89.5h1v1.2h-1v3.5c0,0.4,0,0.5,0.7,0.5c0.1,0,0.2,0,0.3,0v1.3c-0.3,0-0.5,0-0.8,0h-0.2c-1.5,0-1.7-0.6-1.7-1.4
			v-3.9h-0.9v-1.2h0.9v-1.7h1.7V89.5z"/>
		<path d="M439.1,88.8h-1.7v-1.6h1.7V88.8z M439.1,89.5v6.4h-1.7v-6.4H439.1z"/>
		<path d="M446.2,93.6c-0.1,0.7-0.6,2.5-2.9,2.5c-2.4,0-3-1.8-3-3.2c0-2.1,0.9-3.5,3.1-3.5c1,0,2.7,0.5,2.8,2.4h-1.7
			c-0.1-0.4-0.3-1.1-1.1-1c-1.1,0-1.3,1.1-1.3,1.8c0,0.7,0,2.1,1.3,2.1c0.9,0,1.1-0.8,1.1-1.1H446.2z"/>
		<path d="M452.6,94.7c0,0.8,0.2,0.9,0.4,1v0.3h-1.8c-0.1-0.3-0.1-0.4-0.2-0.8c-0.4,0.4-0.9,0.9-2.1,0.9c-1,0-1.9-0.5-1.9-1.9
			c0-1.2,0.8-1.9,1.9-2l1.5-0.2c0.3,0,0.6-0.1,0.6-0.5c0-0.7-0.7-0.7-1.1-0.7c-0.8,0-1,0.5-1,0.9h-1.6c0.2-2,1.5-2.2,2.9-2.2
			c0.9,0,2.5,0.3,2.5,1.8V94.7z M450.9,92.8c-0.2,0.1-0.4,0.2-1.1,0.3c-0.6,0.1-1.1,0.3-1.1,1c0,0.6,0.5,0.8,0.8,0.8
			c0.7,0,1.5-0.5,1.5-1.3V92.8z"/>
		<path d="M459.9,95.9h-1.6v-0.8h0c-0.4,0.7-1.2,1-1.8,1c-1.9,0-2.7-1.7-2.7-3.4c0-2.2,1.2-3.3,2.7-3.3c1.1,0,1.6,0.6,1.8,1h0v-3.1
			h1.7V95.9z M456.8,94.7c1.1,0,1.5-0.9,1.5-1.8c0-1-0.3-2.1-1.4-2.1c-1.1,0-1.4,0.9-1.4,2C455.4,93.5,455.7,94.7,456.8,94.7z"/>
		<path d="M464.3,96.1c-1.7,0-3.3-1.1-3.3-3.4s1.5-3.4,3.3-3.4c1.7,0,3.3,1.1,3.3,3.4S466,96.1,464.3,96.1z M464.3,90.8
			c-1.3,0-1.5,1.1-1.5,1.9s0.2,1.9,1.5,1.9c1.3,0,1.5-1.1,1.5-1.9S465.6,90.8,464.3,90.8z"/>
		<path d="M472.4,91.5c-0.1-0.4-0.2-0.8-1.1-0.8c-0.9,0-1,0.3-1,0.6c0,1,4,0.3,4,2.6c0,1.9-1.8,2.2-2.8,2.2c-1.5,0-3-0.5-3.1-2.2
			h1.7c0,0.5,0.3,0.9,1.4,0.9c0.9,0,1.1-0.4,1.1-0.7c0-1.1-4-0.3-4-2.7c0-0.9,0.6-2.1,2.6-2.1c1.2,0,2.7,0.3,2.9,2.1H472.4z"/>
	</g>
</g>
<path pointer-events="stroke" class="st3" d="M342.5,52.5h-63.6"/>
<path pointer-events="all" class="st4" d="M273.6,52.5l7-3.5l-1.8,3.5l1.8,3.5L273.6,52.5z"/>
<path pointer-events="all" class="st1" d="M421.9,195.1c-5.3,0.2-9.1-1.6-11.4-3.7c2.5-3.6,3-7.5,0.9-11.5c2.9-2.1,6.4-2.9,9.7-2.9
	c7.6,0.2,13,4.6,12.5,9.7C433.4,190.3,429.5,194.6,421.9,195.1z M415,213.3c0.1-2.1,0.3-4.3,0.1-6.1c-0.4-3.4-2.4-7.1-6.3-10
	c0.8-0.8,1.5-1.4,2.3-1.8c4.4,2.3,12.4,3.5,19.5,0c3.3,2.2,4.7,4.8,4.8,7.4c0.1,2.3-0.1,4.3-0.4,6c-0.3,3.5-3.5,4.5-9,4.5L415,213.3
	z M392.9,197.4c-9.3,0-17.7-5-17.7-12.8c0-6.5,8.1-12.1,17.4-12.1c9.4,0,17.8,5.1,17.8,12.5C410.4,192.3,401.8,197.4,392.9,197.4z
	 M383.2,222.3c-6.5-0.3-10.3-2.1-10.5-5.7c-0.3-3.6,0-6.1,0-9c0.5-4.5,3.3-7.6,6.6-9.8c9.4,4.7,20.4,3.4,26.9,0
	c3.7,2.4,6.3,5.8,6.6,9.7c0.1,3.5-0.1,6.9-0.6,9.6c-0.2,1.6-1.6,3.2-3.7,4.1c-1.8,0.7-4.2,1-7,1.1c-1.2,0.1-10.6,0-14.9,0
	C385.6,222.4,384.5,222.4,383.2,222.3z"/>
<g transform="translate(-0.5 -0.5)">
	<g class="st2">
		<path d="M356.2,236.9h3.6v4.6h-1.2l-0.2-1.1c-0.5,0.5-1.1,1.3-2.7,1.3c-2.1,0-4-1.5-4-4.5c0-2.4,1.3-4.6,4.2-4.6
			c2.6,0,3.7,1.7,3.8,2.9H358c0-0.3-0.6-1.4-1.9-1.4c-1.3,0-2.5,0.9-2.5,3.1c0,2.4,1.3,3,2.5,3c0.4,0,1.7-0.2,2.1-1.9h-2V236.9z"/>
		<path d="M361.4,235.1h1.6v1.1h0c0.3-0.6,0.7-1.3,1.8-1.3c0.1,0,0.2,0,0.3,0v1.7c-0.1,0-0.3,0-0.5,0c-1.3,0-1.5,0.8-1.5,1.5v3.3
			h-1.7V235.1z"/>
		<path d="M371.8,241.5h-1.6v-0.9h0c-0.4,0.7-1.1,1.1-1.9,1.1c-1.3,0-2.2-0.7-2.2-2.4v-4.2h1.7v4c0,1,0.6,1.2,1.1,1.2
			c0.6,0,1.3-0.3,1.3-1.5v-3.7h1.7V241.5z"/>
		<path d="M375,236L375,236c0.3-0.5,0.8-1.1,1.9-1.1c1.4,0,2.7,1.1,2.7,3.3c0,1.8-0.8,3.4-2.7,3.4c-1.2,0-1.6-0.6-1.8-1h0v3.3h-1.7
			v-8.9h1.6V236z M376.4,240.3c1.1,0,1.4-1.2,1.4-1.9c0-1-0.4-2-1.4-2c-1.2,0-1.4,1-1.4,2.1C375,239.4,375.4,240.3,376.4,240.3z"/>
		<path d="M383.6,241.7c-1.7,0-3.3-1.1-3.3-3.4s1.5-3.4,3.3-3.4s3.3,1.1,3.3,3.4S385.3,241.7,383.6,241.7z M383.6,236.4
			c-1.3,0-1.5,1.1-1.5,1.9s0.2,1.9,1.5,1.9c1.3,0,1.5-1.1,1.5-1.9S384.9,236.4,383.6,236.4z"/>
		<path d="M397.2,241.5h-1.6v-0.8h0c-0.4,0.7-1.2,1-1.8,1c-1.9,0-2.7-1.7-2.7-3.4c0-2.2,1.2-3.3,2.7-3.3c1.1,0,1.6,0.6,1.8,1h0v-3.1
			h1.7V241.5z M394.1,240.3c1.1,0,1.5-0.9,1.5-1.8c0-1-0.3-2.1-1.4-2.1c-1.1,0-1.4,0.9-1.4,2C392.7,239.1,393,240.3,394.1,240.3z"/>
		<path d="M404.2,239.6c-0.4,1.5-1.7,2-2.8,2c-1.8,0-3.2-0.9-3.2-3.5c0-0.8,0.3-3.2,3.1-3.2c1.3,0,3,0.6,3,3.5v0.3h-4.4
			c0,0.5,0.1,1.6,1.5,1.6c0.5,0,0.9-0.2,1.1-0.7H404.2z M402.5,237.7c-0.1-1-0.8-1.3-1.3-1.3c-0.8,0-1.2,0.5-1.3,1.3H402.5z"/>
		<path d="M414.5,241.5h-1.6v-0.9h0c-0.4,0.7-1.1,1.1-1.9,1.1c-1.3,0-2.2-0.7-2.2-2.4v-4.2h1.7v4c0,1,0.6,1.2,1.1,1.2
			c0.6,0,1.3-0.3,1.3-1.5v-3.7h1.7V241.5z"/>
		<path d="M419.7,237.1c-0.1-0.4-0.2-0.8-1.1-0.8c-0.9,0-1,0.3-1,0.6c0,1,4,0.3,4,2.6c0,1.9-1.8,2.2-2.8,2.2c-1.5,0-3-0.5-3.1-2.2
			h1.7c0,0.5,0.3,0.9,1.4,0.9c0.9,0,1.1-0.4,1.1-0.7c0-1.1-4-0.3-4-2.7c0-0.9,0.6-2.1,2.6-2.1c1.2,0,2.7,0.3,2.9,2.1H419.7z"/>
		<path d="M428.5,241.5h-1.6v-0.9h0c-0.4,0.7-1.1,1.1-1.9,1.1c-1.3,0-2.2-0.7-2.2-2.4v-4.2h1.7v4c0,1,0.6,1.2,1.1,1.2
			c0.6,0,1.3-0.3,1.3-1.5v-3.7h1.7V241.5z"/>
		<path d="M435.2,240.3c0,0.8,0.2,0.9,0.4,1v0.3h-1.8c-0.1-0.3-0.1-0.4-0.2-0.8c-0.4,0.4-0.9,0.9-2.1,0.9c-1,0-1.9-0.5-1.9-1.9
			c0-1.2,0.8-1.9,1.9-2l1.5-0.2c0.3,0,0.6-0.1,0.6-0.5c0-0.7-0.7-0.7-1.1-0.7c-0.8,0-1,0.5-1,0.9h-1.6c0.2-2,1.5-2.2,2.9-2.2
			c0.9,0,2.5,0.3,2.5,1.8V240.3z M433.6,238.4c-0.2,0.1-0.4,0.2-1.1,0.3c-0.6,0.1-1.1,0.3-1.1,1c0,0.6,0.5,0.8,0.8,0.8
			c0.7,0,1.5-0.5,1.5-1.3V238.4z M433.1,234.3h-1.2l1.1-1.8h1.8L433.1,234.3z"/>
		<path d="M436.7,235.1h1.6v1.1h0c0.3-0.6,0.7-1.3,1.8-1.3c0.1,0,0.2,0,0.3,0v1.7c-0.1,0-0.3,0-0.5,0c-1.3,0-1.5,0.8-1.5,1.5v3.3
			h-1.7V235.1z"/>
		<path d="M443.1,234.4h-1.7v-1.6h1.7V234.4z M443.1,235.1v6.4h-1.7v-6.4H443.1z"/>
		<path d="M447.6,241.7c-1.7,0-3.3-1.1-3.3-3.4s1.5-3.4,3.3-3.4s3.3,1.1,3.3,3.4S449.3,241.7,447.6,241.7z M447.6,236.4
			c-1.3,0-1.5,1.1-1.5,1.9s0.2,1.9,1.5,1.9c1.3,0,1.5-1.1,1.5-1.9S448.9,236.4,447.6,236.4z"/>
		<path d="M455.7,237.1c-0.1-0.4-0.2-0.8-1.1-0.8c-0.9,0-1,0.3-1,0.6c0,1,4,0.3,4,2.6c0,1.9-1.8,2.2-2.8,2.2c-1.5,0-3-0.5-3.1-2.2
			h1.7c0,0.5,0.3,0.9,1.4,0.9c0.9,0,1.1-0.4,1.1-0.7c0-1.1-4-0.3-4-2.7c0-0.9,0.6-2.1,2.6-2.1c1.2,0,2.7,0.3,2.9,2.1H455.7z"/>
		<path d="M387.1,255.9h-1.7v-7.2h0l-1.6,7.2h-1.8l-1.6-7.2h0v7.2h-1.7v-8.6h2.6l1.6,6.8h0l1.5-6.8h2.6V255.9z"/>
		<path d="M393.9,254.7c0,0.8,0.2,0.9,0.4,1v0.3h-1.8c-0.1-0.3-0.1-0.4-0.2-0.8c-0.4,0.4-0.9,0.9-2.1,0.9c-1,0-1.9-0.5-1.9-1.9
			c0-1.2,0.8-1.9,1.9-2l1.5-0.2c0.3,0,0.6-0.1,0.6-0.5c0-0.7-0.7-0.7-1.1-0.7c-0.8,0-1,0.5-1,0.9h-1.6c0.2-2,1.5-2.2,2.9-2.2
			c0.9,0,2.5,0.3,2.5,1.8V254.7z M392.3,252.8c-0.2,0.1-0.4,0.2-1.1,0.3c-0.6,0.1-1.1,0.3-1.1,1c0,0.6,0.5,0.8,0.8,0.8
			c0.7,0,1.5-0.5,1.5-1.3V252.8z"/>
		<path d="M395.4,249.5h1.6v1.1h0c0.3-0.6,0.7-1.3,1.8-1.3c0.1,0,0.2,0,0.3,0v1.7c-0.1,0-0.3,0-0.5,0c-1.3,0-1.5,0.8-1.5,1.5v3.3
			h-1.7V249.5z"/>
		<path d="M401.8,255.9h-1.7v-8.6h1.7v4.7l2.1-2.4h2.1l-2.3,2.5l2.3,3.9h-2l-1.5-2.7l-0.7,0.7V255.9z"/>
		<path d="M412.2,254c-0.4,1.5-1.7,2-2.8,2c-1.8,0-3.2-0.9-3.2-3.5c0-0.8,0.3-3.2,3.1-3.2c1.3,0,3,0.6,3,3.5v0.3h-4.4
			c0,0.5,0.1,1.6,1.5,1.6c0.5,0,0.9-0.2,1.1-0.7H412.2z M410.6,252.1c-0.1-1-0.8-1.3-1.3-1.3c-0.8,0-1.2,0.5-1.3,1.3H410.6z"/>
		<path d="M415.3,249.5h1v1.2h-1v3.5c0,0.4,0,0.5,0.7,0.5c0.1,0,0.2,0,0.3,0v1.3c-0.3,0-0.5,0-0.8,0h-0.2c-1.5,0-1.7-0.6-1.7-1.4
			v-3.9h-0.9v-1.2h0.9v-1.7h1.7V249.5z"/>
		<path d="M419.1,248.8h-1.7v-1.6h1.7V248.8z M419.1,249.5v6.4h-1.7v-6.4H419.1z"/>
		<path d="M426.5,255.9h-1.7V252c0-0.5,0-1.3-1.1-1.3c-0.7,0-1.3,0.5-1.3,1.5v3.7h-1.7v-6.4h1.6v0.9h0c0.2-0.4,0.7-1.1,1.9-1.1
			c1.2,0,2.2,0.7,2.2,2.1V255.9z"/>
		<path d="M433.9,249.5v6c0,1.1-0.1,2.9-3.2,2.9c-1.3,0-2.7-0.6-2.8-1.9h1.8c0.1,0.3,0.2,0.6,1.2,0.6c0.9,0,1.3-0.4,1.3-1.5V255l0,0
			c-0.3,0.5-0.7,1-1.7,1c-1.5,0-2.7-1.1-2.7-3.3c0-2.2,1.2-3.3,2.7-3.3c1.2,0,1.7,0.7,1.9,1.1h0v-0.9H433.9z M430.8,254.5
			c1.1,0,1.4-1,1.4-1.8c0-1-0.5-1.9-1.4-1.9c-0.6,0-1.3,0.5-1.3,1.9C429.5,253.6,429.8,254.5,430.8,254.5z"/>
	</g>
</g>
<path pointer-events="stroke" class="st3" d="M342.5,197h-63.6"/>
<path pointer-events="all" class="st4" d="M273.6,197l7-3.5l-1.8,3.5l1.8,3.5L273.6,197z"/>
<rect x="276.5" y="22.5" pointer-events="all" class="st5" width="60" height="30"/>
<g transform="translate(-0.5 -0.5)">
	<g class="st2">
		<path d="M267.1,41.5h-1.8v-8.6h3.9c1.7,0,2.7,1.1,2.7,2.8c0,0.8-0.4,2.7-2.7,2.7h-2.1V41.5z M268.8,36.9c1.3,0,1.3-1,1.3-1.3
			c0-0.8-0.5-1.2-1.6-1.2h-1.4v2.5H268.8z"/>
		<path d="M275.6,41.7c-1.7,0-3.3-1.1-3.3-3.4s1.5-3.4,3.3-3.4s3.3,1.1,3.3,3.4S277.3,41.7,275.6,41.7z M275.6,36.4
			c-1.3,0-1.5,1.1-1.5,1.9s0.2,1.9,1.5,1.9c1.3,0,1.5-1.1,1.5-1.9S276.9,36.4,275.6,36.4z"/>
		<path d="M285.9,41.5h-1.6v-0.8h0c-0.4,0.7-1.2,1-1.8,1c-1.9,0-2.7-1.7-2.7-3.4c0-2.2,1.2-3.3,2.7-3.3c1.1,0,1.6,0.6,1.8,1h0v-3.1
			h1.7V41.5z M282.8,40.3c1.1,0,1.5-0.9,1.5-1.8c0-1-0.3-2.1-1.4-2.1c-1.1,0-1.4,0.9-1.4,2C281.4,39.1,281.7,40.3,282.8,40.3z"/>
		<path d="M292.9,39.6c-0.4,1.5-1.7,2-2.8,2c-1.8,0-3.2-0.9-3.2-3.5c0-0.8,0.3-3.2,3.1-3.2c1.3,0,3,0.6,3,3.5v0.3h-4.4
			c0,0.5,0.1,1.6,1.5,1.6c0.5,0,0.9-0.2,1.1-0.7H292.9z M291.2,37.7c-0.1-1-0.8-1.3-1.3-1.3c-0.8,0-1.2,0.5-1.3,1.3H291.2z"/>
		<path d="M300.8,41.5h-1.8l-2.3-6.4h1.9l1.3,4.7h0l1.4-4.7h1.8L300.8,41.5z"/>
		<path d="M305.8,34.4h-1.7v-1.6h1.7V34.4z M305.8,35.1v6.4h-1.7v-6.4H305.8z"/>
		<path d="M311,37.1c-0.1-0.4-0.2-0.8-1.1-0.8c-0.9,0-1,0.3-1,0.6c0,1,4,0.3,4,2.6c0,1.9-1.8,2.2-2.8,2.2c-1.5,0-3-0.5-3.1-2.2h1.7
			c0,0.5,0.3,0.9,1.4,0.9c0.9,0,1.1-0.4,1.1-0.7c0-1.1-4-0.3-4-2.7c0-0.9,0.6-2.1,2.6-2.1c1.2,0,2.7,0.3,2.9,2.1H311z"/>
		<path d="M319.8,41.5h-1.6v-0.9h0c-0.4,0.7-1.1,1.1-1.9,1.1c-1.3,0-2.2-0.7-2.2-2.4v-4.2h1.7v4c0,1,0.6,1.2,1.1,1.2
			c0.6,0,1.3-0.3,1.3-1.5v-3.7h1.7V41.5z"/>
		<path d="M326.6,40.3c0,0.8,0.2,0.9,0.4,1v0.3h-1.8c-0.1-0.3-0.1-0.4-0.2-0.8c-0.4,0.4-0.9,0.9-2.1,0.9c-1,0-1.9-0.5-1.9-1.9
			c0-1.2,0.8-1.9,1.9-2l1.5-0.2c0.3,0,0.6-0.1,0.6-0.5c0-0.7-0.7-0.7-1.1-0.7c-0.8,0-1,0.5-1,0.9h-1.6c0.2-2,1.5-2.2,2.9-2.2
			c0.9,0,2.5,0.3,2.5,1.8V40.3z M324.9,38.4c-0.2,0.1-0.4,0.2-1.1,0.3c-0.6,0.1-1.1,0.3-1.1,1c0,0.6,0.5,0.8,0.8,0.8
			c0.7,0,1.5-0.5,1.5-1.3V38.4z"/>
		<path d="M329.8,41.5h-1.7v-8.6h1.7V41.5z"/>
		<path d="M333.1,34.4h-1.7v-1.6h1.7V34.4z M333.1,35.1v6.4h-1.7v-6.4H333.1z"/>
		<path d="M336.4,40.1h3.3v1.4h-5.5v-1.3l3.3-3.7h-3v-1.3h5.2v1.4L336.4,40.1z"/>
		<path d="M345.9,40.3c0,0.8,0.2,0.9,0.4,1v0.3h-1.8c-0.1-0.3-0.1-0.4-0.2-0.8c-0.4,0.4-0.9,0.9-2.1,0.9c-1,0-1.9-0.5-1.9-1.9
			c0-1.2,0.8-1.9,1.9-2l1.5-0.2c0.3,0,0.6-0.1,0.6-0.5c0-0.7-0.7-0.7-1.1-0.7c-0.8,0-1,0.5-1,0.9h-1.6c0.2-2,1.5-2.2,2.9-2.2
			c0.9,0,2.5,0.3,2.5,1.8V40.3z M344.3,38.4c-0.2,0.1-0.4,0.2-1.1,0.3c-0.6,0.1-1.1,0.3-1.1,1c0,0.6,0.5,0.8,0.8,0.8
			c0.7,0,1.5-0.5,1.5-1.3V38.4z"/>
		<path d="M347.4,35.1h1.6v1.1h0c0.3-0.6,0.7-1.3,1.8-1.3c0.1,0,0.2,0,0.3,0v1.7c-0.1,0-0.3,0-0.5,0c-1.3,0-1.5,0.8-1.5,1.5v3.3
			h-1.7V35.1z"/>
	</g>
</g>
<rect x="272.5" y="162.5" pointer-events="all" class="st5" width="60" height="30"/>
<g transform="translate(-0.5 -0.5)">
	<g class="st2">
		<path d="M274.1,181.5h-1.8v-8.6h3.9c1.7,0,2.7,1.1,2.7,2.8c0,0.8-0.4,2.7-2.7,2.7h-2.1V181.5z M275.8,176.9c1.3,0,1.3-1,1.3-1.3
			c0-0.8-0.5-1.2-1.6-1.2h-1.4v2.5H275.8z"/>
		<path d="M282.6,181.7c-1.7,0-3.3-1.1-3.3-3.4s1.5-3.4,3.3-3.4c1.7,0,3.3,1.1,3.3,3.4S284.3,181.7,282.6,181.7z M282.6,176.4
			c-1.3,0-1.5,1.1-1.5,1.9s0.2,1.9,1.5,1.9c1.3,0,1.5-1.1,1.5-1.9S283.9,176.4,282.6,176.4z"/>
		<path d="M292.9,181.5h-1.6v-0.8h0c-0.4,0.7-1.2,1-1.8,1c-1.9,0-2.7-1.7-2.7-3.4c0-2.2,1.2-3.3,2.7-3.3c1.1,0,1.6,0.6,1.8,1h0v-3.1
			h1.7V181.5z M289.8,180.3c1.1,0,1.5-0.9,1.5-1.8c0-1-0.3-2.1-1.4-2.1c-1.1,0-1.4,0.9-1.4,2C288.4,179.1,288.7,180.3,289.8,180.3z"
			/>
		<path d="M299.8,179.6c-0.4,1.5-1.7,2-2.8,2c-1.8,0-3.2-0.9-3.2-3.5c0-0.8,0.3-3.2,3.1-3.2c1.3,0,3,0.6,3,3.5v0.3h-4.4
			c0,0.5,0.1,1.6,1.5,1.6c0.5,0,0.9-0.2,1.1-0.7H299.8z M298.2,177.7c-0.1-1-0.8-1.3-1.3-1.3c-0.8,0-1.2,0.5-1.3,1.3H298.2z"/>
		<path d="M309.8,179.6c-0.4,1.5-1.7,2-2.8,2c-1.8,0-3.2-0.9-3.2-3.5c0-0.8,0.3-3.2,3.1-3.2c1.3,0,3,0.6,3,3.5v0.3h-4.4
			c0,0.5,0.1,1.6,1.5,1.6c0.5,0,0.9-0.2,1.1-0.7H309.8z M308.2,177.7c-0.1-1-0.8-1.3-1.3-1.3c-0.8,0-1.2,0.5-1.3,1.3H308.2z"/>
		<path d="M316.9,181.5h-1.6v-0.8h0c-0.4,0.7-1.2,1-1.8,1c-1.9,0-2.7-1.7-2.7-3.4c0-2.2,1.2-3.3,2.7-3.3c1.1,0,1.6,0.6,1.8,1h0v-3.1
			h1.7V181.5z M313.8,180.3c1.1,0,1.5-0.9,1.5-1.8c0-1-0.3-2.1-1.4-2.1c-1.1,0-1.4,0.9-1.4,2C312.4,179.1,312.7,180.3,313.8,180.3z"
			/>
		<path d="M320.1,174.4h-1.7v-1.6h1.7V174.4z M320.1,175.1v6.4h-1.7v-6.4H320.1z"/>
		<path d="M323.6,175.1h1v1.2h-1v3.5c0,0.4,0,0.5,0.7,0.5c0.1,0,0.2,0,0.3,0v1.3c-0.3,0-0.5,0-0.8,0h-0.2c-1.5,0-1.7-0.6-1.7-1.4
			v-3.9H321v-1.2h0.9v-1.7h1.7V175.1z"/>
		<path d="M330.9,180.3c0,0.8,0.2,0.9,0.4,1v0.3h-1.8c-0.1-0.3-0.1-0.4-0.2-0.8c-0.4,0.4-0.9,0.9-2.1,0.9c-1,0-1.9-0.5-1.9-1.9
			c0-1.2,0.8-1.9,1.9-2l1.5-0.2c0.3,0,0.6-0.1,0.6-0.5c0-0.7-0.7-0.7-1.1-0.7c-0.8,0-1,0.5-1,0.9h-1.6c0.2-2,1.5-2.2,2.9-2.2
			c0.9,0,2.5,0.3,2.5,1.8V180.3z M329.2,178.4c-0.2,0.1-0.4,0.2-1.1,0.3c-0.6,0.1-1.1,0.3-1.1,1c0,0.6,0.5,0.8,0.8,0.8
			c0.7,0,1.5-0.5,1.5-1.3V178.4z"/>
		<path d="M332.4,175.1h1.6v1.1h0c0.3-0.6,0.7-1.3,1.8-1.3c0.1,0,0.2,0,0.3,0v1.7c-0.1,0-0.3,0-0.5,0c-1.3,0-1.5,0.8-1.5,1.5v3.3
			h-1.7V175.1z"/>
	</g>
</g>
<rect x="2.5" y="272.5" pointer-events="all" class="st5" width="290" height="75"/>
<g transform="translate(-0.5 -0.5)">
	<g>
		<g class="st2">
			<path d="M5.4,274.9h4.4c2.3,0,2.7,1.7,2.7,2.4c0,0.9-0.5,1.8-1.3,2.1c0.7,0.3,1.1,0.6,1.1,2.2c0,1.3,0,1.6,0.4,1.7v0.2h-2
				c-0.1-0.4-0.2-0.9-0.2-1.7c0-1.2-0.1-1.6-1.4-1.6H7.2v3.4H5.4V274.9z M9.3,278.7c0.9,0,1.4-0.3,1.4-1.2c0-0.5-0.2-1.1-1.3-1.1
				H7.2v2.3H9.3z"/>
			<path d="M19.4,281.6c-0.4,1.5-1.7,2-2.8,2c-1.8,0-3.2-0.9-3.2-3.5c0-0.8,0.3-3.2,3.1-3.2c1.3,0,3,0.6,3,3.5v0.3h-4.4
				c0,0.5,0.1,1.6,1.5,1.6c0.5,0,0.9-0.2,1.1-0.7H19.4z M17.8,279.7c-0.1-1-0.8-1.3-1.3-1.3c-0.8,0-1.2,0.5-1.3,1.3H17.8z"/>
			<path d="M24.2,279.1c-0.1-0.4-0.2-0.8-1.1-0.8s-1,0.3-1,0.6c0,1,4,0.3,4,2.6c0,1.9-1.8,2.2-2.8,2.2c-1.5,0-3-0.5-3.1-2.2h1.7
				c0,0.5,0.3,0.9,1.4,0.9c0.9,0,1.1-0.4,1.1-0.7c0-1.1-4-0.3-4-2.7c0-0.9,0.6-2.1,2.6-2.1c1.2,0,2.7,0.3,2.9,2.1H24.2z"/>
			<path d="M33,283.5h-1.6v-0.9h0c-0.4,0.7-1.1,1.1-1.9,1.1c-1.3,0-2.2-0.7-2.2-2.4v-4.2H29v4c0,1,0.6,1.2,1.1,1.2
				c0.6,0,1.3-0.3,1.3-1.5v-3.7H33V283.5z"/>
			<path d="M36.3,283.5h-1.7v-8.6h1.7V283.5z"/>
			<path d="M39.8,277.1h1v1.2h-1v3.5c0,0.4,0,0.5,0.7,0.5c0.1,0,0.2,0,0.3,0v1.3c-0.3,0-0.5,0-0.8,0h-0.2c-1.5,0-1.7-0.6-1.7-1.4
				v-3.9h-0.9v-1.2h0.9v-1.7h1.7V277.1z"/>
			<path d="M47.1,282.3c0,0.8,0.2,0.9,0.4,1v0.3h-1.8c-0.1-0.3-0.1-0.4-0.2-0.8c-0.4,0.4-0.9,0.9-2.1,0.9c-1,0-1.9-0.5-1.9-1.9
				c0-1.2,0.8-1.9,1.9-2l1.5-0.2c0.3,0,0.6-0.1,0.6-0.5c0-0.7-0.7-0.7-1.1-0.7c-0.8,0-1,0.5-1,0.9h-1.6c0.2-2,1.5-2.2,2.9-2.2
				c0.9,0,2.5,0.3,2.5,1.8V282.3z M45.5,280.4c-0.2,0.1-0.4,0.2-1.1,0.3c-0.6,0.1-1.1,0.3-1.1,1c0,0.6,0.5,0.8,0.8,0.8
				c0.7,0,1.5-0.5,1.5-1.3V280.4z"/>
			<path d="M54.5,283.5h-1.6v-0.8h0c-0.4,0.7-1.2,1-1.8,1c-1.9,0-2.7-1.7-2.7-3.4c0-2.2,1.2-3.3,2.7-3.3c1.1,0,1.6,0.6,1.8,1h0v-3.1
				h1.7V283.5z M51.4,282.3c1.1,0,1.5-0.9,1.5-1.8c0-1-0.3-2.1-1.4-2.1c-1.1,0-1.4,0.9-1.4,2C50,281.1,50.3,282.3,51.4,282.3z"/>
			<path d="M58.8,283.7c-1.7,0-3.3-1.1-3.3-3.4s1.5-3.4,3.3-3.4c1.7,0,3.3,1.1,3.3,3.4S60.6,283.7,58.8,283.7z M58.8,278.4
				c-1.3,0-1.5,1.1-1.5,1.9s0.2,1.9,1.5,1.9s1.5-1.1,1.5-1.9S60.1,278.4,58.8,278.4z"/>
			<path d="M65.4,279.1h-1.8v-1.8h1.8V279.1z M65.4,283.5h-1.8v-1.8h1.8V283.5z"/>
			<path d="M73,283.7c-1.7,0-3.3-1.1-3.3-3.4s1.5-3.4,3.3-3.4c1.7,0,3.3,1.1,3.3,3.4S74.7,283.7,73,283.7z M73,278.4
				c-1.3,0-1.5,1.1-1.5,1.9s0.2,1.9,1.5,1.9s1.5-1.1,1.5-1.9S74.3,278.4,73,278.4z"/>
			<path d="M86.7,277.1v6c0,1.1-0.1,2.9-3.2,2.9c-1.3,0-2.7-0.6-2.8-1.9h1.8c0.1,0.3,0.2,0.6,1.2,0.6c0.9,0,1.3-0.4,1.3-1.5v-0.8
				l0,0c-0.3,0.5-0.7,1-1.7,1c-1.5,0-2.7-1.1-2.7-3.3c0-2.2,1.2-3.3,2.7-3.3c1.2,0,1.7,0.7,1.9,1.1h0v-0.9H86.7z M83.6,282.1
				c1.1,0,1.4-1,1.4-1.8c0-1-0.5-1.9-1.4-1.9c-0.6,0-1.3,0.5-1.3,1.9C82.2,281.2,82.6,282.1,83.6,282.1z"/>
			<path d="M88.1,277.1h1.6v1.1h0c0.3-0.6,0.7-1.3,1.8-1.3c0.1,0,0.2,0,0.3,0v1.7c-0.1,0-0.3,0-0.5,0c-1.3,0-1.5,0.8-1.5,1.5v3.3
				h-1.7V277.1z"/>
			<path d="M98.6,283.5H97v-0.9h0c-0.4,0.7-1.1,1.1-1.9,1.1c-1.3,0-2.2-0.7-2.2-2.4v-4.2h1.7v4c0,1,0.6,1.2,1.1,1.2
				c0.6,0,1.3-0.3,1.3-1.5v-3.7h1.7V283.5z"/>
			<path d="M101.7,278L101.7,278c0.3-0.5,0.8-1.1,1.9-1.1c1.4,0,2.7,1.1,2.7,3.3c0,1.8-0.8,3.4-2.7,3.4c-1.2,0-1.6-0.6-1.8-1h0v3.3
				h-1.7v-8.9h1.6V278z M103.2,282.3c1.1,0,1.4-1.2,1.4-1.9c0-1-0.4-2-1.4-2c-1.2,0-1.4,1-1.4,2.1
				C101.7,281.4,102.1,282.3,103.2,282.3z"/>
			<path d="M110.4,283.7c-1.7,0-3.3-1.1-3.3-3.4s1.5-3.4,3.3-3.4c1.7,0,3.3,1.1,3.3,3.4S112.1,283.7,110.4,283.7z M110.4,278.4
				c-1.3,0-1.5,1.1-1.5,1.9s0.2,1.9,1.5,1.9s1.5-1.1,1.5-1.9S111.7,278.4,110.4,278.4z"/>
			<path d="M120.7,283.5h-1.8v-7.1h-2.6v-1.5h7v1.5h-2.6V283.5z"/>
			<path d="M126.2,283.7c-1.7,0-3.3-1.1-3.3-3.4s1.5-3.4,3.3-3.4c1.7,0,3.3,1.1,3.3,3.4S127.9,283.7,126.2,283.7z M126.2,278.4
				c-1.3,0-1.5,1.1-1.5,1.9s0.2,1.9,1.5,1.9s1.5-1.1,1.5-1.9S127.5,278.4,126.2,278.4z"/>
			<path d="M136.5,283.5h-1.6v-0.8h0c-0.4,0.7-1.2,1-1.8,1c-1.9,0-2.7-1.7-2.7-3.4c0-2.2,1.2-3.3,2.7-3.3c1.1,0,1.6,0.6,1.8,1h0
				v-3.1h1.7V283.5z M133.4,282.3c1.1,0,1.5-0.9,1.5-1.8c0-1-0.3-2.1-1.4-2.1c-1.1,0-1.4,0.9-1.4,2
				C132,281.1,132.3,282.3,133.4,282.3z"/>
			<path d="M140.9,283.7c-1.7,0-3.3-1.1-3.3-3.4s1.5-3.4,3.3-3.4c1.7,0,3.3,1.1,3.3,3.4S142.6,283.7,140.9,283.7z M140.9,278.4
				c-1.3,0-1.5,1.1-1.5,1.9s0.2,1.9,1.5,1.9s1.5-1.1,1.5-1.9S142.2,278.4,140.9,278.4z"/>
			<path d="M148.9,279.1c-0.1-0.4-0.2-0.8-1.1-0.8s-1,0.3-1,0.6c0,1,4,0.3,4,2.6c0,1.9-1.8,2.2-2.8,2.2c-1.5,0-3-0.5-3.1-2.2h1.7
				c0,0.5,0.3,0.9,1.4,0.9c0.9,0,1.1-0.4,1.1-0.7c0-1.1-4-0.3-4-2.7c0-0.9,0.6-2.1,2.6-2.1c1.2,0,2.7,0.3,2.9,2.1H148.9z"/>
			<path d="M158.2,283.7c-1.7,0-3.3-1.1-3.3-3.4s1.5-3.4,3.3-3.4c1.7,0,3.3,1.1,3.3,3.4S159.9,283.7,158.2,283.7z M158.2,278.4
				c-1.3,0-1.5,1.1-1.5,1.9s0.2,1.9,1.5,1.9s1.5-1.1,1.5-1.9S159.5,278.4,158.2,278.4z"/>
			<path d="M166.3,279.1c-0.1-0.4-0.2-0.8-1.1-0.8s-1,0.3-1,0.6c0,1,4,0.3,4,2.6c0,1.9-1.8,2.2-2.8,2.2c-1.5,0-3-0.5-3.1-2.2h1.7
				c0,0.5,0.3,0.9,1.4,0.9c0.9,0,1.1-0.4,1.1-0.7c0-1.1-4-0.3-4-2.7c0-0.9,0.6-2.1,2.6-2.1c1.2,0,2.7,0.3,2.9,2.1H166.3z"/>
			<path d="M178.4,283.5h-1.6v-0.9h0c-0.4,0.7-1.1,1.1-1.9,1.1c-1.3,0-2.2-0.7-2.2-2.4v-4.2h1.7v4c0,1,0.6,1.2,1.1,1.2
				c0.6,0,1.3-0.3,1.3-1.5v-3.7h1.7V283.5z"/>
			<path d="M183.6,279.1c-0.1-0.4-0.2-0.8-1.1-0.8s-1,0.3-1,0.6c0,1,4,0.3,4,2.6c0,1.9-1.8,2.2-2.8,2.2c-1.5,0-3-0.5-3.1-2.2h1.7
				c0,0.5,0.3,0.9,1.4,0.9c0.9,0,1.1-0.4,1.1-0.7c0-1.1-4-0.3-4-2.7c0-0.9,0.6-2.1,2.6-2.1c1.2,0,2.7,0.3,2.9,2.1H183.6z"/>
			<path d="M192.4,283.5h-1.6v-0.9h0c-0.4,0.7-1.1,1.1-1.9,1.1c-1.3,0-2.2-0.7-2.2-2.4v-4.2h1.7v4c0,1,0.6,1.2,1.1,1.2
				c0.6,0,1.3-0.3,1.3-1.5v-3.7h1.7V283.5z"/>
			<path d="M199.2,282.3c0,0.8,0.2,0.9,0.4,1v0.3h-1.8c-0.1-0.3-0.1-0.4-0.2-0.8c-0.4,0.4-0.9,0.9-2.1,0.9c-1,0-1.9-0.5-1.9-1.9
				c0-1.2,0.8-1.9,1.9-2l1.5-0.2c0.3,0,0.6-0.1,0.6-0.5c0-0.7-0.7-0.7-1.1-0.7c-0.8,0-1,0.5-1,0.9h-1.6c0.2-2,1.5-2.2,2.9-2.2
				c0.9,0,2.5,0.3,2.5,1.8V282.3z M197.5,280.4c-0.2,0.1-0.4,0.2-1.1,0.3c-0.6,0.1-1.1,0.3-1.1,1c0,0.6,0.5,0.8,0.8,0.8
				c0.7,0,1.5-0.5,1.5-1.3V280.4z M197.1,276.3h-1.2l1.1-1.8h1.8L197.1,276.3z"/>
			<path d="M200.7,277.1h1.6v1.1h0c0.3-0.6,0.7-1.3,1.8-1.3c0.1,0,0.2,0,0.3,0v1.7c-0.1,0-0.3,0-0.5,0c-1.3,0-1.5,0.8-1.5,1.5v3.3
				h-1.7V277.1z"/>
			<path d="M207.1,276.4h-1.7v-1.6h1.7V276.4z M207.1,277.1v6.4h-1.7v-6.4H207.1z"/>
			<path d="M211.6,283.7c-1.7,0-3.3-1.1-3.3-3.4s1.5-3.4,3.3-3.4c1.7,0,3.3,1.1,3.3,3.4S213.3,283.7,211.6,283.7z M211.6,278.4
				c-1.3,0-1.5,1.1-1.5,1.9s0.2,1.9,1.5,1.9s1.5-1.1,1.5-1.9S212.9,278.4,211.6,278.4z"/>
			<path d="M219.6,279.1c-0.1-0.4-0.2-0.8-1.1-0.8s-1,0.3-1,0.6c0,1,4,0.3,4,2.6c0,1.9-1.8,2.2-2.8,2.2c-1.5,0-3-0.5-3.1-2.2h1.7
				c0,0.5,0.3,0.9,1.4,0.9c0.9,0,1.1-0.4,1.1-0.7c0-1.1-4-0.3-4-2.7c0-0.9,0.6-2.1,2.6-2.1c1.2,0,2.7,0.3,2.9,2.1H219.6z"/>
			<path d="M231.2,282.3c0,0.8,0.2,0.9,0.4,1v0.3h-1.8c-0.1-0.3-0.1-0.4-0.2-0.8c-0.4,0.4-0.9,0.9-2.1,0.9c-1,0-1.9-0.5-1.9-1.9
				c0-1.2,0.8-1.9,1.9-2l1.5-0.2c0.3,0,0.6-0.1,0.6-0.5c0-0.7-0.7-0.7-1.1-0.7c-0.8,0-1,0.5-1,0.9h-1.6c0.2-2,1.5-2.2,2.9-2.2
				c0.9,0,2.5,0.3,2.5,1.8V282.3z M229.5,280.4c-0.2,0.1-0.4,0.2-1.1,0.3c-0.6,0.1-1.1,0.3-1.1,1c0,0.6,0.5,0.8,0.8,0.8
				c0.7,0,1.5-0.5,1.5-1.3V280.4z"/>
			<path d="M238.4,283.5h-1.6v-0.9h0c-0.4,0.7-1.1,1.1-1.9,1.1c-1.3,0-2.2-0.7-2.2-2.4v-4.2h1.7v4c0,1,0.6,1.2,1.1,1.2
				c0.6,0,1.3-0.3,1.3-1.5v-3.7h1.7V283.5z"/>
			<path d="M241.9,277.1h1v1.2h-1v3.5c0,0.4,0,0.5,0.7,0.5c0.1,0,0.2,0,0.3,0v1.3c-0.3,0-0.5,0-0.8,0h-0.2c-1.5,0-1.7-0.6-1.7-1.4
				v-3.9h-0.9v-1.2h0.9v-1.7h1.7V277.1z"/>
			<path d="M249.5,281.6c-0.4,1.5-1.7,2-2.8,2c-1.8,0-3.2-0.9-3.2-3.5c0-0.8,0.3-3.2,3.1-3.2c1.3,0,3,0.6,3,3.5v0.3h-4.4
				c0,0.5,0.1,1.6,1.5,1.6c0.5,0,0.9-0.2,1.1-0.7H249.5z M247.8,279.7c-0.1-1-0.8-1.3-1.3-1.3c-0.8,0-1.2,0.5-1.3,1.3H247.8z"/>
			<path d="M256.4,283.5h-1.7v-3.9c0-0.5,0-1.3-1.1-1.3c-0.7,0-1.3,0.5-1.3,1.5v3.7h-1.7v-6.4h1.6v0.9h0c0.2-0.4,0.7-1.1,1.9-1.1
				c1.2,0,2.2,0.7,2.2,2.1V283.5z"/>
			<path d="M259.9,277.1h1v1.2h-1v3.5c0,0.4,0,0.5,0.7,0.5c0.1,0,0.2,0,0.3,0v1.3c-0.3,0-0.5,0-0.8,0h-0.2c-1.5,0-1.7-0.6-1.7-1.4
				v-3.9h-0.9v-1.2h0.9v-1.7h1.7V277.1z"/>
			<path d="M263.7,276.4h-1.7v-1.6h1.7V276.4z M263.7,277.1v6.4h-1.7v-6.4H263.7z"/>
			<path d="M270.8,281.2c-0.1,0.7-0.6,2.5-2.9,2.5c-2.4,0-3-1.8-3-3.2c0-2.1,0.9-3.5,3.1-3.5c1,0,2.7,0.5,2.8,2.4h-1.7
				c-0.1-0.4-0.3-1.1-1.1-1c-1.1,0-1.3,1.1-1.3,1.8c0,0.7,0,2.1,1.3,2.1c0.9,0,1.1-0.8,1.1-1.1H270.8z"/>
			<path d="M277.2,282.3c0,0.8,0.2,0.9,0.4,1v0.3h-1.8c-0.1-0.3-0.1-0.4-0.2-0.8c-0.4,0.4-0.9,0.9-2.1,0.9c-1,0-1.9-0.5-1.9-1.9
				c0-1.2,0.8-1.9,1.9-2l1.5-0.2c0.3,0,0.6-0.1,0.6-0.5c0-0.7-0.7-0.7-1.1-0.7c-0.8,0-1,0.5-1,0.9h-1.6c0.2-2,1.5-2.2,2.9-2.2
				c0.9,0,2.5,0.3,2.5,1.8V282.3z M275.5,280.4c-0.2,0.1-0.4,0.2-1.1,0.3c-0.6,0.1-1.1,0.3-1.1,1c0,0.6,0.5,0.8,0.8,0.8
				c0.7,0,1.5-0.5,1.5-1.3V280.4z"/>
			<path d="M284.5,283.5h-1.6v-0.8h0c-0.4,0.7-1.2,1-1.8,1c-1.9,0-2.7-1.7-2.7-3.4c0-2.2,1.2-3.3,2.7-3.3c1.1,0,1.6,0.6,1.8,1h0
				v-3.1h1.7V283.5z M281.4,282.3c1.1,0,1.5-0.9,1.5-1.8c0-1-0.3-2.1-1.4-2.1c-1.1,0-1.4,0.9-1.4,2
				C280,281.1,280.3,282.3,281.4,282.3z"/>
			<path d="M288.9,283.7c-1.7,0-3.3-1.1-3.3-3.4s1.5-3.4,3.3-3.4c1.7,0,3.3,1.1,3.3,3.4S290.6,283.7,288.9,283.7z M288.9,278.4
				c-1.3,0-1.5,1.1-1.5,1.9s0.2,1.9,1.5,1.9s1.5-1.1,1.5-1.9S290.2,278.4,288.9,278.4z"/>
			<path d="M297,279.1c-0.1-0.4-0.2-0.8-1.1-0.8c-0.9,0-1,0.3-1,0.6c0,1,4,0.3,4,2.6c0,1.9-1.8,2.2-2.8,2.2c-1.5,0-3-0.5-3.1-2.2
				h1.7c0,0.5,0.3,0.9,1.4,0.9c0.9,0,1.1-0.4,1.1-0.7c0-1.1-4-0.3-4-2.7c0-0.9,0.6-2.1,2.6-2.1c1.2,0,2.7,0.3,2.9,2.1H297z"/>
			<path d="M305.2,277.1h1v1.2h-1v3.5c0,0.4,0,0.5,0.7,0.5c0.1,0,0.2,0,0.3,0v1.3c-0.3,0-0.5,0-0.8,0h-0.2c-1.5,0-1.7-0.6-1.7-1.4
				v-3.9h-0.9v-1.2h0.9v-1.7h1.7V277.1z"/>
			<path d="M312.8,281.6c-0.4,1.5-1.7,2-2.8,2c-1.8,0-3.2-0.9-3.2-3.5c0-0.8,0.3-3.2,3.1-3.2c1.3,0,3,0.6,3,3.5v0.3h-4.4
				c0,0.5,0.1,1.6,1.5,1.6c0.5,0,0.9-0.2,1.1-0.7H312.8z M311.2,279.7c-0.1-1-0.8-1.3-1.3-1.3c-0.8,0-1.2,0.5-1.3,1.3H311.2z"/>
			<path d="M323.2,283.5h-1.7v-3.9c0-0.9-0.4-1.3-0.9-1.3c-0.8,0-1.1,0.6-1.1,1.3v3.8h-1.7v-3.8c0-0.5,0-1.3-1-1.3
				c-0.8,0-1,0.6-1,1.2v3.9H314v-6.4h1.6v0.9h0c0.2-0.4,0.7-1.1,1.8-1.1c0.9,0,1.3,0.3,1.8,1c0.2-0.3,0.7-1,1.7-1
				c1.2,0,2.2,0.7,2.2,2.1V283.5z"/>
			<path d="M6.9,292.4L6.9,292.4c0.3-0.5,0.8-1.1,1.9-1.1c1.4,0,2.7,1.1,2.7,3.3c0,1.8-0.8,3.4-2.7,3.4c-1.2,0-1.6-0.6-1.8-1h0v3.3
				H5.2v-8.9h1.6V292.4z M8.3,296.7c1.1,0,1.4-1.2,1.4-1.9c0-1-0.4-2-1.4-2c-1.2,0-1.4,1-1.4,2.1C6.9,295.8,7.3,296.7,8.3,296.7z"/>
			<path d="M18.1,296c-0.4,1.5-1.7,2-2.8,2c-1.8,0-3.2-0.9-3.2-3.5c0-0.8,0.3-3.2,3.1-3.2c1.3,0,3,0.6,3,3.5v0.3h-4.4
				c0,0.5,0.1,1.6,1.5,1.6c0.5,0,0.9-0.2,1.1-0.7H18.1z M16.4,294.1c-0.1-1-0.8-1.3-1.3-1.3c-0.8,0-1.2,0.5-1.3,1.3H16.4z"/>
			<path d="M19.3,291.5h1.6v1.1h0c0.3-0.6,0.7-1.3,1.8-1.3c0.1,0,0.2,0,0.3,0v1.7c-0.1,0-0.3,0-0.5,0c-1.3,0-1.5,0.8-1.5,1.5v3.3
				h-1.7V291.5z"/>
			<path d="M33.1,297.9h-1.7V294c0-0.9-0.4-1.3-0.9-1.3c-0.8,0-1.1,0.6-1.1,1.3v3.8h-1.7v-3.8c0-0.5,0-1.3-1-1.3c-0.8,0-1,0.6-1,1.2
				v3.9h-1.7v-6.4h1.6v0.9h0c0.2-0.4,0.7-1.1,1.8-1.1c0.9,0,1.3,0.3,1.8,1c0.2-0.3,0.7-1,1.7-1c1.2,0,2.2,0.7,2.2,2.1V297.9z"/>
			<path d="M36.3,290.8h-1.7v-1.6h1.7V290.8z M36.3,291.5v6.4h-1.7v-6.4H36.3z"/>
			<path d="M41.6,293.5c-0.1-0.4-0.2-0.8-1.1-0.8s-1,0.3-1,0.6c0,1,4,0.3,4,2.6c0,1.9-1.8,2.2-2.8,2.2c-1.5,0-3-0.5-3.1-2.2h1.7
				c0,0.5,0.3,0.9,1.4,0.9c0.9,0,1.1-0.4,1.1-0.7c0-1.1-4-0.3-4-2.7c0-0.9,0.6-2.1,2.6-2.1c1.2,0,2.7,0.3,2.9,2.1H41.6z"/>
			<path d="M48.2,293.5c-0.1-0.4-0.2-0.8-1.1-0.8s-1,0.3-1,0.6c0,1,4,0.3,4,2.6c0,1.9-1.8,2.2-2.8,2.2c-1.5,0-3-0.5-3.1-2.2h1.7
				c0,0.5,0.3,0.9,1.4,0.9c0.9,0,1.1-0.4,1.1-0.7c0-1.1-4-0.3-4-2.7c0-0.9,0.6-2.1,2.6-2.1c1.2,0,2.7,0.3,2.9,2.1H48.2z"/>
			<path d="M54.2,298.1c-1.7,0-3.3-1.1-3.3-3.4s1.5-3.4,3.3-3.4c1.7,0,3.3,1.1,3.3,3.4S55.9,298.1,54.2,298.1z M56.4,289.1
				c-0.1,0.4-0.3,1.4-1.3,1.4c-0.3,0-0.7-0.1-0.9-0.2c-0.4-0.1-0.6-0.2-0.9-0.2c-0.4,0-0.5,0.4-0.6,0.5H52c0-0.2,0.1-0.6,0.3-0.9
				c0.2-0.3,0.6-0.6,1.1-0.6c0.3,0,0.5,0.1,0.9,0.2c0.4,0.2,0.6,0.2,0.7,0.2c0.4,0,0.5-0.3,0.6-0.5H56.4z M54.2,292.8
				c-1.3,0-1.5,1.1-1.5,1.9s0.2,1.9,1.5,1.9s1.5-1.1,1.5-1.9S55.5,292.8,54.2,292.8z"/>
			<path d="M64.1,296c-0.4,1.5-1.7,2-2.8,2c-1.8,0-3.2-0.9-3.2-3.5c0-0.8,0.3-3.2,3.1-3.2c1.3,0,3,0.6,3,3.5v0.3h-4.4
				c0,0.5,0.1,1.6,1.5,1.6c0.5,0,0.9-0.2,1.1-0.7H64.1z M62.5,294.1c-0.1-1-0.8-1.3-1.3-1.3c-0.8,0-1.2,0.5-1.3,1.3H62.5z"/>
			<path d="M68.9,293.5c-0.1-0.4-0.2-0.8-1.1-0.8s-1,0.3-1,0.6c0,1,4,0.3,4,2.6c0,1.9-1.8,2.2-2.8,2.2c-1.5,0-3-0.5-3.1-2.2h1.7
				c0,0.5,0.3,0.9,1.4,0.9c0.9,0,1.1-0.4,1.1-0.7c0-1.1-4-0.3-4-2.7c0-0.9,0.6-2.1,2.6-2.1c1.2,0,2.7,0.3,2.9,2.1H68.9z"/>
			<path d="M76.9,292.4L76.9,292.4c0.3-0.5,0.8-1.1,1.9-1.1c1.4,0,2.7,1.1,2.7,3.3c0,1.8-0.8,3.4-2.7,3.4c-1.2,0-1.6-0.6-1.8-1h0
				v3.3h-1.7v-8.9h1.6V292.4z M78.4,296.7c1.1,0,1.4-1.2,1.4-1.9c0-1-0.4-2-1.4-2c-1.2,0-1.4,1-1.4,2.1
				C76.9,295.8,77.3,296.7,78.4,296.7z"/>
			<path d="M87.8,296.7c0,0.8,0.2,0.9,0.4,1v0.3h-1.8c-0.1-0.3-0.1-0.4-0.2-0.8c-0.4,0.4-0.9,0.9-2.1,0.9c-1,0-1.9-0.5-1.9-1.9
				c0-1.2,0.8-1.9,1.9-2l1.5-0.2c0.3,0,0.6-0.1,0.6-0.5c0-0.7-0.7-0.7-1.1-0.7c-0.8,0-1,0.5-1,0.9h-1.6c0.2-2,1.5-2.2,2.9-2.2
				c0.9,0,2.5,0.3,2.5,1.8V296.7z M86.2,294.8c-0.2,0.1-0.4,0.2-1.1,0.3c-0.6,0.1-1.1,0.3-1.1,1c0,0.6,0.5,0.8,0.8,0.8
				c0.7,0,1.5-0.5,1.5-1.3V294.8z"/>
			<path d="M89.3,291.5h1.6v1.1h0c0.3-0.6,0.7-1.3,1.8-1.3c0.1,0,0.2,0,0.3,0v1.7c-0.1,0-0.3,0-0.5,0c-1.3,0-1.5,0.8-1.5,1.5v3.3
				h-1.7V291.5z"/>
			<path d="M99.2,296.7c0,0.8,0.2,0.9,0.4,1v0.3h-1.8c-0.1-0.3-0.1-0.4-0.2-0.8c-0.4,0.4-0.9,0.9-2.1,0.9c-1,0-1.9-0.5-1.9-1.9
				c0-1.2,0.8-1.9,1.9-2l1.5-0.2c0.3,0,0.6-0.1,0.6-0.5c0-0.7-0.7-0.7-1.1-0.7c-0.8,0-1,0.5-1,0.9h-1.6c0.2-2,1.5-2.2,2.9-2.2
				c0.9,0,2.5,0.3,2.5,1.8V296.7z M97.5,294.8c-0.2,0.1-0.4,0.2-1.1,0.3c-0.6,0.1-1.1,0.3-1.1,1c0,0.6,0.5,0.8,0.8,0.8
				c0.7,0,1.5-0.5,1.5-1.3V294.8z"/>
			<path d="M107.4,297.9h-1.8l-2.3-6.4h1.9l1.3,4.7h0l1.4-4.7h1.8L107.4,297.9z"/>
			<path d="M112.4,290.8h-1.7v-1.6h1.7V290.8z M112.4,291.5v6.4h-1.7v-6.4H112.4z"/>
			<path d="M117.6,293.5c-0.1-0.4-0.2-0.8-1.1-0.8s-1,0.3-1,0.6c0,1,4,0.3,4,2.6c0,1.9-1.8,2.2-2.8,2.2c-1.5,0-3-0.5-3.1-2.2h1.7
				c0,0.5,0.3,0.9,1.4,0.9c0.9,0,1.1-0.4,1.1-0.7c0-1.1-4-0.3-4-2.7c0-0.9,0.6-2.1,2.6-2.1c1.2,0,2.7,0.3,2.9,2.1H117.6z"/>
			<path d="M126.4,297.9h-1.6V297h0c-0.4,0.7-1.1,1.1-1.9,1.1c-1.3,0-2.2-0.7-2.2-2.4v-4.2h1.7v4c0,1,0.6,1.2,1.1,1.2
				c0.6,0,1.3-0.3,1.3-1.5v-3.7h1.7V297.9z"/>
			<path d="M133.2,296.7c0,0.8,0.2,0.9,0.4,1v0.3h-1.8c-0.1-0.3-0.1-0.4-0.2-0.8c-0.4,0.4-0.9,0.9-2.1,0.9c-1,0-1.9-0.5-1.9-1.9
				c0-1.2,0.8-1.9,1.9-2l1.5-0.2c0.3,0,0.6-0.1,0.6-0.5c0-0.7-0.7-0.7-1.1-0.7c-0.8,0-1,0.5-1,0.9h-1.6c0.2-2,1.5-2.2,2.9-2.2
				c0.9,0,2.5,0.3,2.5,1.8V296.7z M131.5,294.8c-0.2,0.1-0.4,0.2-1.1,0.3c-0.6,0.1-1.1,0.3-1.1,1c0,0.6,0.5,0.8,0.8,0.8
				c0.7,0,1.5-0.5,1.5-1.3V294.8z"/>
			<path d="M136.4,297.9h-1.7v-8.6h1.7V297.9z"/>
			<path d="M139.7,290.8h-1.7v-1.6h1.7V290.8z M139.7,291.5v6.4h-1.7v-6.4H139.7z"/>
			<path d="M143,296.5h3.3v1.4h-5.5v-1.3l3.3-3.7h-3v-1.3h5.2v1.4L143,296.5z"/>
			<path d="M152.5,296.7c0,0.8,0.2,0.9,0.4,1v0.3h-1.8c-0.1-0.3-0.1-0.4-0.2-0.8c-0.4,0.4-0.9,0.9-2.1,0.9c-1,0-1.9-0.5-1.9-1.9
				c0-1.2,0.8-1.9,1.9-2l1.5-0.2c0.3,0,0.6-0.1,0.6-0.5c0-0.7-0.7-0.7-1.1-0.7c-0.8,0-1,0.5-1,0.9h-1.6c0.2-2,1.5-2.2,2.9-2.2
				c0.9,0,2.5,0.3,2.5,1.8V296.7z M150.9,294.8c-0.2,0.1-0.4,0.2-1.1,0.3c-0.6,0.1-1.1,0.3-1.1,1c0,0.6,0.5,0.8,0.8,0.8
				c0.7,0,1.5-0.5,1.5-1.3V294.8z"/>
			<path d="M154,291.5h1.6v1.1h0c0.3-0.6,0.7-1.3,1.8-1.3c0.1,0,0.2,0,0.3,0v1.7c-0.1,0-0.3,0-0.5,0c-1.3,0-1.5,0.8-1.5,1.5v3.3H154
				V291.5z"/>
			<path d="M167.2,296.7c0,0.8,0.2,0.9,0.4,1v0.3h-1.8c-0.1-0.3-0.1-0.4-0.2-0.8c-0.4,0.4-0.9,0.9-2.1,0.9c-1,0-1.9-0.5-1.9-1.9
				c0-1.2,0.8-1.9,1.9-2l1.5-0.2c0.3,0,0.6-0.1,0.6-0.5c0-0.7-0.7-0.7-1.1-0.7c-0.8,0-1,0.5-1,0.9h-1.6c0.2-2,1.5-2.2,2.9-2.2
				c0.9,0,2.5,0.3,2.5,1.8V296.7z M165.5,294.8c-0.2,0.1-0.4,0.2-1.1,0.3c-0.6,0.1-1.1,0.3-1.1,1c0,0.6,0.5,0.8,0.8,0.8
				c0.7,0,1.5-0.5,1.5-1.3V294.8z"/>
			<path d="M173.6,292.4L173.6,292.4c0.3-0.5,0.8-1.1,1.9-1.1c1.4,0,2.7,1.1,2.7,3.3c0,1.8-0.8,3.4-2.7,3.4c-1.2,0-1.6-0.6-1.8-1h0
				v3.3H172v-8.9h1.6V292.4z M175.1,296.7c1.1,0,1.4-1.2,1.4-1.9c0-1-0.4-2-1.4-2c-1.2,0-1.4,1-1.4,2.1
				C173.6,295.8,174,296.7,175.1,296.7z"/>
			<path d="M184.5,296.7c0,0.8,0.2,0.9,0.4,1v0.3h-1.8c-0.1-0.3-0.1-0.4-0.2-0.8c-0.4,0.4-0.9,0.9-2.1,0.9c-1,0-1.9-0.5-1.9-1.9
				c0-1.2,0.8-1.9,1.9-2l1.5-0.2c0.3,0,0.6-0.1,0.6-0.5c0-0.7-0.7-0.7-1.1-0.7c-0.8,0-1,0.5-1,0.9h-1.6c0.2-2,1.5-2.2,2.9-2.2
				c0.9,0,2.5,0.3,2.5,1.8V296.7z M182.9,294.8c-0.2,0.1-0.4,0.2-1.1,0.3c-0.6,0.1-1.1,0.3-1.1,1c0,0.6,0.5,0.8,0.8,0.8
				c0.7,0,1.5-0.5,1.5-1.3V294.8z"/>
			<path d="M189.6,293.5c-0.1-0.4-0.2-0.8-1.1-0.8s-1,0.3-1,0.6c0,1,4,0.3,4,2.6c0,1.9-1.8,2.2-2.8,2.2c-1.5,0-3-0.5-3.1-2.2h1.7
				c0,0.5,0.3,0.9,1.4,0.9c0.9,0,1.1-0.4,1.1-0.7c0-1.1-4-0.3-4-2.7c0-0.9,0.6-2.1,2.6-2.1c1.2,0,2.7,0.3,2.9,2.1H189.6z"/>
			<path d="M194.6,291.5h1v1.2h-1v3.5c0,0.4,0,0.5,0.7,0.5c0.1,0,0.2,0,0.3,0v1.3c-0.3,0-0.5,0-0.8,0h-0.2c-1.5,0-1.7-0.6-1.7-1.4
				v-3.9H192v-1.2h0.9v-1.7h1.7V291.5z"/>
			<path d="M201.9,296.7c0,0.8,0.2,0.9,0.4,1v0.3h-1.8c-0.1-0.3-0.1-0.4-0.2-0.8c-0.4,0.4-0.9,0.9-2.1,0.9c-1,0-1.9-0.5-1.9-1.9
				c0-1.2,0.8-1.9,1.9-2l1.5-0.2c0.3,0,0.6-0.1,0.6-0.5c0-0.7-0.7-0.7-1.1-0.7c-0.8,0-1,0.5-1,0.9h-1.6c0.2-2,1.5-2.2,2.9-2.2
				c0.9,0,2.5,0.3,2.5,1.8V296.7z M200.2,294.8c-0.2,0.1-0.4,0.2-1.1,0.3c-0.6,0.1-1.1,0.3-1.1,1c0,0.6,0.5,0.8,0.8,0.8
				c0.7,0,1.5-0.5,1.5-1.3V294.8z"/>
			<path d="M215.1,297.9h-1.7v-7.2h0l-1.6,7.2H210l-1.6-7.2h0v7.2h-1.7v-8.6h2.6l1.6,6.8h0l1.5-6.8h2.6V297.9z"/>
			<path d="M221.9,296.7c0,0.8,0.2,0.9,0.4,1v0.3h-1.8c-0.1-0.3-0.1-0.4-0.2-0.8c-0.4,0.4-0.9,0.9-2.1,0.9c-1,0-1.9-0.5-1.9-1.9
				c0-1.2,0.8-1.9,1.9-2l1.5-0.2c0.3,0,0.6-0.1,0.6-0.5c0-0.7-0.7-0.7-1.1-0.7c-0.8,0-1,0.5-1,0.9h-1.6c0.2-2,1.5-2.2,2.9-2.2
				c0.9,0,2.5,0.3,2.5,1.8V296.7z M220.2,294.8c-0.2,0.1-0.4,0.2-1.1,0.3c-0.6,0.1-1.1,0.3-1.1,1c0,0.6,0.5,0.8,0.8,0.8
				c0.7,0,1.5-0.5,1.5-1.3V294.8z"/>
			<path d="M223.4,291.5h1.6v1.1h0c0.3-0.6,0.7-1.3,1.8-1.3c0.1,0,0.2,0,0.3,0v1.7c-0.1,0-0.3,0-0.5,0c-1.3,0-1.5,0.8-1.5,1.5v3.3
				h-1.7V291.5z"/>
			<path d="M229.8,297.9h-1.7v-8.6h1.7v4.7l2.1-2.4h2.1l-2.3,2.5l2.3,3.9h-2l-1.5-2.7l-0.7,0.7V297.9z"/>
			<path d="M240.2,296c-0.4,1.5-1.7,2-2.8,2c-1.8,0-3.2-0.9-3.2-3.5c0-0.8,0.3-3.2,3.1-3.2c1.3,0,3,0.6,3,3.5v0.3h-4.4
				c0,0.5,0.1,1.6,1.5,1.6c0.5,0,0.9-0.2,1.1-0.7H240.2z M238.5,294.1c-0.1-1-0.8-1.3-1.3-1.3c-0.8,0-1.2,0.5-1.3,1.3H238.5z"/>
			<path d="M243.3,291.5h1v1.2h-1v3.5c0,0.4,0,0.5,0.7,0.5c0.1,0,0.2,0,0.3,0v1.3c-0.3,0-0.5,0-0.8,0h-0.2c-1.5,0-1.7-0.6-1.7-1.4
				v-3.9h-0.9v-1.2h0.9v-1.7h1.7V291.5z"/>
			<path d="M247.1,290.8h-1.7v-1.6h1.7V290.8z M247.1,291.5v6.4h-1.7v-6.4H247.1z"/>
			<path d="M254.5,297.9h-1.7V294c0-0.5,0-1.3-1.1-1.3c-0.7,0-1.3,0.5-1.3,1.5v3.7h-1.7v-6.4h1.6v0.9h0c0.2-0.4,0.7-1.1,1.9-1.1
				c1.2,0,2.2,0.7,2.2,2.1V297.9z"/>
			<path d="M261.9,291.5v6c0,1.1-0.1,2.9-3.2,2.9c-1.3,0-2.7-0.6-2.8-1.9h1.8c0.1,0.3,0.2,0.6,1.2,0.6c0.9,0,1.3-0.4,1.3-1.5V297
				l0,0c-0.3,0.5-0.7,1-1.7,1c-1.5,0-2.7-1.1-2.7-3.3c0-2.2,1.2-3.3,2.7-3.3c1.2,0,1.7,0.7,1.9,1.1h0v-0.9H261.9z M258.8,296.5
				c1.1,0,1.4-1,1.4-1.8c0-1-0.5-1.9-1.4-1.9c-0.6,0-1.3,0.5-1.3,1.9C257.5,295.6,257.8,296.5,258.8,296.5z"/>
			<path d="M272.2,295.6c-0.1,0.7-0.6,2.5-2.9,2.5c-2.4,0-3-1.8-3-3.2c0-2.1,0.9-3.5,3.1-3.5c1,0,2.7,0.5,2.8,2.4h-1.7
				c-0.1-0.4-0.3-1.1-1.1-1c-1.1,0-1.3,1.1-1.3,1.8c0,0.7,0,2.1,1.3,2.1c0.9,0,1.1-0.8,1.1-1.1H272.2z"/>
			<path d="M276.3,298.1c-1.7,0-3.3-1.1-3.3-3.4s1.5-3.4,3.3-3.4s3.3,1.1,3.3,3.4S278,298.1,276.3,298.1z M276.3,292.8
				c-1.3,0-1.5,1.1-1.5,1.9s0.2,1.9,1.5,1.9s1.5-1.1,1.5-1.9S277.6,292.8,276.3,292.8z"/>
			<path d="M289.9,297.9h-1.7V294c0-0.9-0.4-1.3-0.9-1.3c-0.8,0-1.1,0.6-1.1,1.3v3.8h-1.7v-3.8c0-0.5,0-1.3-1-1.3
				c-0.8,0-1,0.6-1,1.2v3.9h-1.7v-6.4h1.6v0.9h0c0.2-0.4,0.7-1.1,1.8-1.1c0.9,0,1.3,0.3,1.8,1c0.2-0.3,0.7-1,1.7-1
				c1.2,0,2.2,0.7,2.2,2.1V297.9z"/>
			<path d="M296.4,292.3L296.4,292.3c0.3-0.4,0.8-1,1.9-1c1.4,0,2.7,1.1,2.7,3.3c0,1.8-0.8,3.4-2.7,3.4c-0.7,0-1.4-0.3-1.8-1h0v0.8
				h-1.6v-8.6h1.7V292.3z M297.7,292.8c-1.2,0-1.4,1-1.4,2.1c0,0.9,0.4,1.8,1.5,1.8c1.1,0,1.4-1.2,1.4-1.9
				C299.2,293.8,298.8,292.8,297.7,292.8z"/>
			<path d="M307.2,296.7c0,0.8,0.2,0.9,0.4,1v0.3h-1.8c-0.1-0.3-0.1-0.4-0.2-0.8c-0.4,0.4-0.9,0.9-2.1,0.9c-1,0-1.9-0.5-1.9-1.9
				c0-1.2,0.8-1.9,1.9-2l1.5-0.2c0.3,0,0.6-0.1,0.6-0.5c0-0.7-0.7-0.7-1.1-0.7c-0.8,0-1,0.5-1,0.9h-1.6c0.2-2,1.5-2.2,2.9-2.2
				c0.9,0,2.5,0.3,2.5,1.8V296.7z M305.6,294.8c-0.2,0.1-0.4,0.2-1.1,0.3c-0.6,0.1-1.1,0.3-1.1,1c0,0.6,0.5,0.8,0.8,0.8
				c0.7,0,1.5-0.5,1.5-1.3V294.8z"/>
			<path d="M312.3,293.5c-0.1-0.4-0.2-0.8-1.1-0.8c-0.9,0-1,0.3-1,0.6c0,1,4,0.3,4,2.6c0,1.9-1.8,2.2-2.8,2.2c-1.5,0-3-0.5-3.1-2.2
				h1.7c0,0.5,0.3,0.9,1.4,0.9c0.9,0,1.1-0.4,1.1-0.7c0-1.1-4-0.3-4-2.7c0-0.9,0.6-2.1,2.6-2.1c1.2,0,2.7,0.3,2.9,2.1H312.3z"/>
			<path d="M320.9,296c-0.4,1.5-1.7,2-2.8,2c-1.8,0-3.2-0.9-3.2-3.5c0-0.8,0.3-3.2,3.1-3.2c1.3,0,3,0.6,3,3.5v0.3h-4.4
				c0,0.5,0.1,1.6,1.5,1.6c0.5,0,0.9-0.2,1.1-0.7H320.9z M319.2,294.1c-0.1-1-0.8-1.3-1.3-1.3c-0.8,0-1.2,0.5-1.3,1.3H319.2z"/>
			<path d="M11,312.3H9.4v-3.9c0-0.5,0-1.3-1.1-1.3c-0.7,0-1.3,0.5-1.3,1.5v3.7H5.3v-6.4h1.6v0.9h0c0.2-0.4,0.7-1.1,1.9-1.1
				c1.2,0,2.2,0.7,2.2,2.1V312.3z"/>
			<path d="M17.8,311.1c0,0.8,0.2,0.9,0.4,1v0.3h-1.8c-0.1-0.3-0.1-0.4-0.2-0.8c-0.4,0.4-0.9,0.9-2.1,0.9c-1,0-1.9-0.5-1.9-1.9
				c0-1.2,0.8-1.9,1.9-2l1.5-0.2c0.3,0,0.6-0.1,0.6-0.5c0-0.7-0.7-0.7-1.1-0.7c-0.8,0-1,0.5-1,0.9h-1.6c0.2-2,1.5-2.2,2.9-2.2
				c0.9,0,2.5,0.3,2.5,1.8V311.1z M16.1,309.2c-0.2,0.1-0.4,0.2-1.1,0.3c-0.6,0.1-1.1,0.3-1.1,1c0,0.6,0.5,0.8,0.8,0.8
				c0.7,0,1.5-0.5,1.5-1.3V309.2z"/>
			<path d="M28.4,312.3h-1.7v-3.9c0-0.5,0-1.3-1.1-1.3c-0.7,0-1.3,0.5-1.3,1.5v3.7h-1.7v-8.6h1.7v3.1h0c0.2-0.5,0.9-1,1.8-1
				c1.2,0,2.2,0.7,2.2,2.1V312.3z"/>
			<path d="M35.4,310.4c-0.4,1.5-1.7,2-2.8,2c-1.8,0-3.2-0.9-3.2-3.5c0-0.8,0.3-3.2,3.1-3.2c1.3,0,3,0.6,3,3.5v0.3h-4.4
				c0,0.5,0.1,1.6,1.5,1.6c0.5,0,0.9-0.2,1.1-0.7H35.4z M33.8,308.5c-0.1-1-0.8-1.3-1.3-1.3c-0.8,0-1.2,0.5-1.3,1.3H33.8z"/>
			<path d="M36.6,305.9h1.6v1.1h0c0.3-0.6,0.7-1.3,1.8-1.3c0.1,0,0.2,0,0.3,0v1.7c-0.1,0-0.3,0-0.5,0c-1.3,0-1.5,0.8-1.5,1.5v3.3
				h-1.7V305.9z"/>
			<path d="M46.5,311.1c0,0.8,0.2,0.9,0.4,1v0.3H45c-0.1-0.3-0.1-0.4-0.2-0.8c-0.4,0.4-0.9,0.9-2.1,0.9c-1,0-1.9-0.5-1.9-1.9
				c0-1.2,0.8-1.9,1.9-2l1.5-0.2c0.3,0,0.6-0.1,0.6-0.5c0-0.7-0.7-0.7-1.1-0.7c-0.8,0-1,0.5-1,0.9h-1.6c0.2-2,1.5-2.2,2.9-2.2
				c0.9,0,2.5,0.3,2.5,1.8V311.1z M44.8,309.2c-0.2,0.1-0.4,0.2-1.1,0.3c-0.6,0.1-1.1,0.3-1.1,1c0,0.6,0.5,0.8,0.8,0.8
				c0.7,0,1.5-0.5,1.5-1.3V309.2z"/>
			<path d="M53.7,312.3h-1.7v-3.9c0-0.5,0-1.3-1.1-1.3c-0.7,0-1.3,0.5-1.3,1.5v3.7H48v-6.4h1.6v0.9h0c0.2-0.4,0.7-1.1,1.9-1.1
				c1.2,0,2.2,0.7,2.2,2.1V312.3z"/>
			<path d="M60.8,310c-0.1,0.7-0.6,2.5-2.9,2.5c-2.4,0-3-1.8-3-3.2c0-2.1,0.9-3.5,3.1-3.5c1,0,2.7,0.5,2.8,2.4h-1.7
				c-0.1-0.4-0.3-1.1-1.1-1c-1.1,0-1.3,1.1-1.3,1.8c0,0.7,0,2.1,1.3,2.1c0.9,0,1.1-0.8,1.1-1.1H60.8z M57.4,312.3h0.7l-0.5,0.7
				c0.1,0,0.2,0,0.4,0c0.3,0,1,0.2,1,0.9c0,0.7-0.6,1.2-1.5,1.2c-0.5,0-0.7-0.1-1.4-0.3l0.3-0.6c0.3,0.1,0.7,0.2,0.9,0.2
				c0.3,0,0.6-0.2,0.6-0.5c0-0.3-0.2-0.4-0.5-0.4c-0.1,0-0.3,0-0.5,0.1l-0.3-0.2L57.4,312.3z"/>
			<path d="M67.1,311.1c0,0.8,0.2,0.9,0.4,1v0.3h-1.8c-0.1-0.3-0.1-0.4-0.2-0.8c-0.4,0.4-0.9,0.9-2.1,0.9c-1,0-1.9-0.5-1.9-1.9
				c0-1.2,0.8-1.9,1.9-2l1.5-0.2c0.3,0,0.6-0.1,0.6-0.5c0-0.7-0.7-0.7-1.1-0.7c-0.8,0-1,0.5-1,0.9h-1.6c0.2-2,1.5-2.2,2.9-2.2
				c0.9,0,2.5,0.3,2.5,1.8V311.1z M65.5,309.2c-0.2,0.1-0.4,0.2-1.1,0.3c-0.6,0.1-1.1,0.3-1.1,1c0,0.6,0.5,0.8,0.8,0.8
				c0.7,0,1.5-0.5,1.5-1.3V309.2z"/>
			<path d="M70.4,312.3h-1.8v-1.8h1.8V312.3z"/>
			<path d="M78.7,303.5c1.1,0,4.1,0.5,4.1,4.5s-3,4.5-4.1,4.5c-1.1,0-4.1-0.5-4.1-4.5S77.6,303.5,78.7,303.5z M78.7,311
				c1,0,2.3-0.6,2.3-3s-1.4-3-2.3-3c-1,0-2.3,0.6-2.3,3S77.7,311,78.7,311z"/>
			<path d="M93.4,305.9v6c0,1.1-0.1,2.9-3.2,2.9c-1.3,0-2.7-0.6-2.8-1.9h1.8c0.1,0.3,0.2,0.6,1.2,0.6c0.9,0,1.3-0.4,1.3-1.5v-0.8
				l0,0c-0.3,0.5-0.7,1-1.7,1c-1.5,0-2.7-1.1-2.7-3.3c0-2.2,1.2-3.3,2.7-3.3c1.2,0,1.7,0.7,1.9,1.1h0v-0.9H93.4z M90.3,310.9
				c1.1,0,1.4-1,1.4-1.8c0-1-0.5-1.9-1.4-1.9c-0.6,0-1.3,0.5-1.3,1.9C88.9,310,89.3,310.9,90.3,310.9z"/>
			<path d="M94.8,305.9h1.6v1.1h0c0.3-0.6,0.7-1.3,1.8-1.3c0.1,0,0.2,0,0.3,0v1.7c-0.1,0-0.3,0-0.5,0c-1.3,0-1.5,0.8-1.5,1.5v3.3
				h-1.7V305.9z"/>
			<path d="M105.3,312.3h-1.6v-0.9h0c-0.4,0.7-1.1,1.1-1.9,1.1c-1.3,0-2.2-0.7-2.2-2.4v-4.2h1.7v4c0,1,0.6,1.2,1.1,1.2
				c0.6,0,1.3-0.3,1.3-1.5v-3.7h1.7V312.3z"/>
			<path d="M108.4,306.8L108.4,306.8c0.3-0.5,0.8-1.1,1.9-1.1c1.4,0,2.7,1.1,2.7,3.3c0,1.8-0.8,3.4-2.7,3.4c-1.2,0-1.6-0.6-1.8-1h0
				v3.3h-1.7v-8.9h1.6V306.8z M109.9,311.1c1.1,0,1.4-1.2,1.4-1.9c0-1-0.4-2-1.4-2c-1.2,0-1.4,1-1.4,2.1
				C108.4,310.2,108.8,311.1,109.9,311.1z"/>
			<path d="M117.1,312.5c-1.7,0-3.3-1.1-3.3-3.4s1.5-3.4,3.3-3.4c1.7,0,3.3,1.1,3.3,3.4S118.8,312.5,117.1,312.5z M117.1,307.2
				c-1.3,0-1.5,1.1-1.5,1.9s0.2,1.9,1.5,1.9s1.5-1.1,1.5-1.9S118.4,307.2,117.1,307.2z"/>
			<path d="M130.7,312.3H129v-0.8h0c-0.4,0.7-1.2,1-1.8,1c-1.9,0-2.7-1.7-2.7-3.4c0-2.2,1.2-3.3,2.7-3.3c1.1,0,1.6,0.6,1.8,1h0v-3.1
				h1.7V312.3z M127.6,311.1c1.1,0,1.5-0.9,1.5-1.8c0-1-0.3-2.1-1.4-2.1c-1.1,0-1.4,0.9-1.4,2C126.2,309.9,126.5,311.1,127.6,311.1z
				"/>
			<path d="M137.6,310.4c-0.4,1.5-1.7,2-2.8,2c-1.8,0-3.2-0.9-3.2-3.5c0-0.8,0.3-3.2,3.1-3.2c1.3,0,3,0.6,3,3.5v0.3h-4.4
				c0,0.5,0.1,1.6,1.5,1.6c0.5,0,0.9-0.2,1.1-0.7H137.6z M136,308.5c-0.1-1-0.8-1.3-1.3-1.3c-0.8,0-1.2,0.5-1.3,1.3H136z"/>
			<path d="M147.9,312.3h-1.6v-0.9h0c-0.4,0.7-1.1,1.1-1.9,1.1c-1.3,0-2.2-0.7-2.2-2.4v-4.2h1.7v4c0,1,0.6,1.2,1.1,1.2
				c0.6,0,1.3-0.3,1.3-1.5v-3.7h1.7V312.3z"/>
			<path d="M153.1,307.9c-0.1-0.4-0.2-0.8-1.1-0.8s-1,0.3-1,0.6c0,1,4,0.3,4,2.6c0,1.9-1.8,2.2-2.8,2.2c-1.5,0-3-0.5-3.1-2.2h1.7
				c0,0.5,0.3,0.9,1.4,0.9c0.9,0,1.1-0.4,1.1-0.7c0-1.1-4-0.3-4-2.7c0-0.9,0.6-2.1,2.6-2.1c1.2,0,2.7,0.3,2.9,2.1H153.1z"/>
			<path d="M161.9,312.3h-1.6v-0.9h0c-0.4,0.7-1.1,1.1-1.9,1.1c-1.3,0-2.2-0.7-2.2-2.4v-4.2h1.7v4c0,1,0.6,1.2,1.1,1.2
				c0.6,0,1.3-0.3,1.3-1.5v-3.7h1.7V312.3z"/>
			<path d="M168.7,311.1c0,0.8,0.2,0.9,0.4,1v0.3h-1.8c-0.1-0.3-0.1-0.4-0.2-0.8c-0.4,0.4-0.9,0.9-2.1,0.9c-1,0-1.9-0.5-1.9-1.9
				c0-1.2,0.8-1.9,1.9-2l1.5-0.2c0.3,0,0.6-0.1,0.6-0.5c0-0.7-0.7-0.7-1.1-0.7c-0.8,0-1,0.5-1,0.9h-1.6c0.2-2,1.5-2.2,2.9-2.2
				c0.9,0,2.5,0.3,2.5,1.8V311.1z M167,309.2c-0.2,0.1-0.4,0.2-1.1,0.3c-0.6,0.1-1.1,0.3-1.1,1c0,0.6,0.5,0.8,0.8,0.8
				c0.7,0,1.5-0.5,1.5-1.3V309.2z M166.6,305.1h-1.2l1.1-1.8h1.8L166.6,305.1z"/>
			<path d="M170.2,305.9h1.6v1.1h0c0.3-0.6,0.7-1.3,1.8-1.3c0.1,0,0.2,0,0.3,0v1.7c-0.1,0-0.3,0-0.5,0c-1.3,0-1.5,0.8-1.5,1.5v3.3
				h-1.7V305.9z"/>
			<path d="M176.6,305.2h-1.7v-1.6h1.7V305.2z M176.6,305.9v6.4h-1.7v-6.4H176.6z"/>
			<path d="M181.1,312.5c-1.7,0-3.3-1.1-3.3-3.4s1.5-3.4,3.3-3.4c1.7,0,3.3,1.1,3.3,3.4S182.8,312.5,181.1,312.5z M181.1,307.2
				c-1.3,0-1.5,1.1-1.5,1.9s0.2,1.9,1.5,1.9s1.5-1.1,1.5-1.9S182.4,307.2,181.1,307.2z"/>
			<path d="M189.1,307.9c-0.1-0.4-0.2-0.8-1.1-0.8s-1,0.3-1,0.6c0,1,4,0.3,4,2.6c0,1.9-1.8,2.2-2.8,2.2c-1.5,0-3-0.5-3.1-2.2h1.7
				c0,0.5,0.3,0.9,1.4,0.9c0.9,0,1.1-0.4,1.1-0.7c0-1.1-4-0.3-4-2.7c0-0.9,0.6-2.1,2.6-2.1c1.2,0,2.7,0.3,2.9,2.1H189.1z"/>
			<path d="M201.4,312.3h-1.6v-0.8h0c-0.4,0.7-1.2,1-1.8,1c-1.9,0-2.7-1.7-2.7-3.4c0-2.2,1.2-3.3,2.7-3.3c1.1,0,1.6,0.6,1.8,1h0
				v-3.1h1.7V312.3z M198.3,311.1c1.1,0,1.5-0.9,1.5-1.8c0-1-0.3-2.1-1.4-2.1c-1.1,0-1.4,0.9-1.4,2
				C196.9,309.9,197.2,311.1,198.3,311.1z"/>
			<path d="M208.3,310.4c-0.4,1.5-1.7,2-2.8,2c-1.8,0-3.2-0.9-3.2-3.5c0-0.8,0.3-3.2,3.1-3.2c1.3,0,3,0.6,3,3.5v0.3H204
				c0,0.5,0.1,1.6,1.5,1.6c0.5,0,0.9-0.2,1.1-0.7H208.3z M206.7,308.5c-0.1-1-0.8-1.3-1.3-1.3c-0.8,0-1.2,0.5-1.3,1.3H206.7z"/>
			<path d="M222,312.3h-1.7v-3.9c0-0.9-0.4-1.3-0.9-1.3c-0.8,0-1.1,0.6-1.1,1.3v3.8h-1.7v-3.8c0-0.5,0-1.3-1-1.3c-0.8,0-1,0.6-1,1.2
				v3.9h-1.7v-6.4h1.6v0.9h0c0.2-0.4,0.7-1.1,1.8-1.1c0.9,0,1.3,0.3,1.8,1c0.2-0.3,0.7-1,1.7-1c1.2,0,2.2,0.7,2.2,2.1V312.3z"/>
			<path d="M228.7,311.1c0,0.8,0.2,0.9,0.4,1v0.3h-1.8c-0.1-0.3-0.1-0.4-0.2-0.8c-0.4,0.4-0.9,0.9-2.1,0.9c-1,0-1.9-0.5-1.9-1.9
				c0-1.2,0.8-1.9,1.9-2l1.5-0.2c0.3,0,0.6-0.1,0.6-0.5c0-0.7-0.7-0.7-1.1-0.7c-0.8,0-1,0.5-1,0.9h-1.6c0.2-2,1.5-2.2,2.9-2.2
				c0.9,0,2.5,0.3,2.5,1.8V311.1z M227.1,309.2c-0.2,0.1-0.4,0.2-1.1,0.3c-0.6,0.1-1.1,0.3-1.1,1c0,0.6,0.5,0.8,0.8,0.8
				c0.7,0,1.5-0.5,1.5-1.3V309.2z"/>
			<path d="M230.2,305.9h1.6v1.1h0c0.3-0.6,0.7-1.3,1.8-1.3c0.1,0,0.2,0,0.3,0v1.7c-0.1,0-0.3,0-0.5,0c-1.3,0-1.5,0.8-1.5,1.5v3.3
				h-1.7V305.9z"/>
			<path d="M236.6,312.3h-1.7v-8.6h1.7v4.7l2.1-2.4h2.1l-2.3,2.5l2.3,3.9h-2l-1.5-2.7l-0.7,0.7V312.3z"/>
			<path d="M247,310.4c-0.4,1.5-1.7,2-2.8,2c-1.8,0-3.2-0.9-3.2-3.5c0-0.8,0.3-3.2,3.1-3.2c1.3,0,3,0.6,3,3.5v0.3h-4.4
				c0,0.5,0.1,1.6,1.5,1.6c0.5,0,0.9-0.2,1.1-0.7H247z M245.4,308.5c-0.1-1-0.8-1.3-1.3-1.3c-0.8,0-1.2,0.5-1.3,1.3H245.4z"/>
			<path d="M250.1,305.9h1v1.2h-1v3.5c0,0.4,0,0.5,0.7,0.5c0.1,0,0.2,0,0.3,0v1.3c-0.3,0-0.5,0-0.8,0h-0.2c-1.5,0-1.7-0.6-1.7-1.4
				v-3.9h-0.9v-1.2h0.9v-1.7h1.7V305.9z"/>
			<path d="M253.9,305.2h-1.7v-1.6h1.7V305.2z M253.9,305.9v6.4h-1.7v-6.4H253.9z"/>
			<path d="M261.3,312.3h-1.7v-3.9c0-0.5,0-1.3-1.1-1.3c-0.7,0-1.3,0.5-1.3,1.5v3.7h-1.7v-6.4h1.6v0.9h0c0.2-0.4,0.7-1.1,1.9-1.1
				c1.2,0,2.2,0.7,2.2,2.1V312.3z"/>
			<path d="M268.7,305.9v6c0,1.1-0.1,2.9-3.2,2.9c-1.3,0-2.7-0.6-2.8-1.9h1.8c0.1,0.3,0.2,0.6,1.2,0.6c0.9,0,1.3-0.4,1.3-1.5v-0.8
				l0,0c-0.3,0.5-0.7,1-1.7,1c-1.5,0-2.7-1.1-2.7-3.3c0-2.2,1.2-3.3,2.7-3.3c1.2,0,1.7,0.7,1.9,1.1h0v-0.9H268.7z M265.6,310.9
				c1.1,0,1.4-1,1.4-1.8c0-1-0.5-1.9-1.4-1.9c-0.6,0-1.3,0.5-1.3,1.9C264.3,310,264.6,310.9,265.6,310.9z"/>
			<path d="M275.4,305.9h1v1.2h-1v3.5c0,0.4,0,0.5,0.7,0.5c0.1,0,0.2,0,0.3,0v1.3c-0.3,0-0.5,0-0.8,0h-0.2c-1.5,0-1.7-0.6-1.7-1.4
				v-3.9h-0.9v-1.2h0.9v-1.7h1.7V305.9z"/>
			<path d="M283,310.4c-0.4,1.5-1.7,2-2.8,2c-1.8,0-3.2-0.9-3.2-3.5c0-0.8,0.3-3.2,3.1-3.2c1.3,0,3,0.6,3,3.5v0.3h-4.4
				c0,0.5,0.1,1.6,1.5,1.6c0.5,0,0.9-0.2,1.1-0.7H283z M281.4,308.5c-0.1-1-0.8-1.3-1.3-1.3c-0.8,0-1.2,0.5-1.3,1.3H281.4z"/>
			<path d="M293.3,312.3h-1.7v-3.9c0-0.9-0.4-1.3-0.9-1.3c-0.8,0-1.1,0.6-1.1,1.3v3.8h-1.7v-3.8c0-0.5,0-1.3-1-1.3
				c-0.8,0-1,0.6-1,1.2v3.9h-1.7v-6.4h1.6v0.9h0c0.2-0.4,0.7-1.1,1.8-1.1c0.9,0,1.3,0.3,1.8,1c0.2-0.3,0.7-1,1.7-1
				c1.2,0,2.2,0.7,2.2,2.1V312.3z"/>
			<path d="M299.8,306.8L299.8,306.8c0.3-0.5,0.8-1.1,1.9-1.1c1.4,0,2.7,1.1,2.7,3.3c0,1.8-0.8,3.4-2.7,3.4c-1.2,0-1.6-0.6-1.8-1h0
				v3.3h-1.7v-8.9h1.6V306.8z M301.3,311.1c1.1,0,1.4-1.2,1.4-1.9c0-1-0.4-2-1.4-2c-1.2,0-1.4,1-1.4,2.1
				C299.8,310.2,300.2,311.1,301.3,311.1z"/>
			<path d="M311,310.4c-0.4,1.5-1.7,2-2.8,2c-1.8,0-3.2-0.9-3.2-3.5c0-0.8,0.3-3.2,3.1-3.2c1.3,0,3,0.6,3,3.5v0.3h-4.4
				c0,0.5,0.1,1.6,1.5,1.6c0.5,0,0.9-0.2,1.1-0.7H311z M309.4,308.5c-0.1-1-0.8-1.3-1.3-1.3c-0.8,0-1.2,0.5-1.3,1.3H309.4z"/>
			<path d="M312.2,305.9h1.6v1.1h0c0.3-0.6,0.7-1.3,1.8-1.3c0.1,0,0.2,0,0.3,0v1.7c-0.1,0-0.3,0-0.5,0c-1.3,0-1.5,0.8-1.5,1.5v3.3
				h-1.7V305.9z"/>
			<path d="M326,312.3h-1.7v-3.9c0-0.9-0.4-1.3-0.9-1.3c-0.8,0-1.1,0.6-1.1,1.3v3.8h-1.7v-3.8c0-0.5,0-1.3-1-1.3c-0.8,0-1,0.6-1,1.2
				v3.9h-1.7v-6.4h1.6v0.9h0c0.2-0.4,0.7-1.1,1.8-1.1c0.9,0,1.3,0.3,1.8,1c0.2-0.3,0.7-1,1.7-1c1.2,0,2.2,0.7,2.2,2.1V312.3z"/>
			<path d="M329.3,305.2h-1.7v-1.6h1.7V305.2z M329.3,305.9v6.4h-1.7v-6.4H329.3z"/>
			<path d="M334.5,307.9c-0.1-0.4-0.2-0.8-1.1-0.8c-0.9,0-1,0.3-1,0.6c0,1,4,0.3,4,2.6c0,1.9-1.8,2.2-2.8,2.2c-1.5,0-3-0.5-3.1-2.2
				h1.7c0,0.5,0.3,0.9,1.4,0.9c0.9,0,1.1-0.4,1.1-0.7c0-1.1-4-0.3-4-2.7c0-0.9,0.6-2.1,2.6-2.1c1.2,0,2.7,0.3,2.9,2.1H334.5z"/>
			<path d="M341.2,307.9c-0.1-0.4-0.2-0.8-1.1-0.8c-0.9,0-1,0.3-1,0.6c0,1,4,0.3,4,2.6c0,1.9-1.8,2.2-2.8,2.2c-1.5,0-3-0.5-3.1-2.2
				h1.7c0,0.5,0.3,0.9,1.4,0.9c0.9,0,1.1-0.4,1.1-0.7c0-1.1-4-0.3-4-2.7c0-0.9,0.6-2.1,2.6-2.1c1.2,0,2.7,0.3,2.9,2.1H341.2z"/>
			<path d="M347.1,312.5c-1.7,0-3.3-1.1-3.3-3.4s1.5-3.4,3.3-3.4s3.3,1.1,3.3,3.4S348.8,312.5,347.1,312.5z M349.3,303.5
				c-0.1,0.4-0.3,1.4-1.3,1.4c-0.3,0-0.7-0.1-0.9-0.2c-0.4-0.1-0.6-0.2-0.9-0.2c-0.4,0-0.5,0.4-0.6,0.5h-0.8c0-0.2,0.1-0.6,0.3-0.9
				c0.2-0.3,0.6-0.6,1.1-0.6c0.3,0,0.5,0.1,0.9,0.2c0.4,0.2,0.6,0.2,0.7,0.2c0.4,0,0.5-0.3,0.6-0.5H349.3z M347.1,307.2
				c-1.3,0-1.5,1.1-1.5,1.9s0.2,1.9,1.5,1.9s1.5-1.1,1.5-1.9S348.4,307.2,347.1,307.2z"/>
			<path d="M357.1,310.4c-0.4,1.5-1.7,2-2.8,2c-1.8,0-3.2-0.9-3.2-3.5c0-0.8,0.3-3.2,3.1-3.2c1.3,0,3,0.6,3,3.5v0.3h-4.4
				c0,0.5,0.1,1.6,1.5,1.6c0.5,0,0.9-0.2,1.1-0.7H357.1z M355.4,308.5c-0.1-1-0.8-1.3-1.3-1.3c-0.8,0-1.2,0.5-1.3,1.3H355.4z"/>
			<path d="M361.9,307.9c-0.1-0.4-0.2-0.8-1.1-0.8c-0.9,0-1,0.3-1,0.6c0,1,4,0.3,4,2.6c0,1.9-1.8,2.2-2.8,2.2c-1.5,0-3-0.5-3.1-2.2
				h1.7c0,0.5,0.3,0.9,1.4,0.9c0.9,0,1.1-0.4,1.1-0.7c0-1.1-4-0.3-4-2.7c0-0.9,0.6-2.1,2.6-2.1c1.2,0,2.7,0.3,2.9,2.1H361.9z"/>
			<path d="M6.9,321.2L6.9,321.2c0.3-0.5,0.8-1.1,1.9-1.1c1.4,0,2.7,1.1,2.7,3.3c0,1.8-0.8,3.4-2.7,3.4c-1.2,0-1.6-0.6-1.8-1h0v3.3
				H5.2v-8.9h1.6V321.2z M8.3,325.5c1.1,0,1.4-1.2,1.4-1.9c0-1-0.4-2-1.4-2c-1.2,0-1.4,1-1.4,2.1C6.9,324.6,7.3,325.5,8.3,325.5z"/>
			<path d="M17.8,325.5c0,0.8,0.2,0.9,0.4,1v0.3h-1.8c-0.1-0.3-0.1-0.4-0.2-0.8c-0.4,0.4-0.9,0.9-2.1,0.9c-1,0-1.9-0.5-1.9-1.9
				c0-1.2,0.8-1.9,1.9-2l1.5-0.2c0.3,0,0.6-0.1,0.6-0.5c0-0.7-0.7-0.7-1.1-0.7c-0.8,0-1,0.5-1,0.9h-1.6c0.2-2,1.5-2.2,2.9-2.2
				c0.9,0,2.5,0.3,2.5,1.8V325.5z M16.1,323.6c-0.2,0.1-0.4,0.2-1.1,0.3c-0.6,0.1-1.1,0.3-1.1,1c0,0.6,0.5,0.8,0.8,0.8
				c0.7,0,1.5-0.5,1.5-1.3V323.6z"/>
			<path d="M19.3,320.3h1.6v1.1h0c0.3-0.6,0.7-1.3,1.8-1.3c0.1,0,0.2,0,0.3,0v1.7c-0.1,0-0.3,0-0.5,0c-1.3,0-1.5,0.8-1.5,1.5v3.3
				h-1.7V320.3z"/>
			<path d="M29.1,325.5c0,0.8,0.2,0.9,0.4,1v0.3h-1.8c-0.1-0.3-0.1-0.4-0.2-0.8c-0.4,0.4-0.9,0.9-2.1,0.9c-1,0-1.9-0.5-1.9-1.9
				c0-1.2,0.8-1.9,1.9-2l1.5-0.2c0.3,0,0.6-0.1,0.6-0.5c0-0.7-0.7-0.7-1.1-0.7c-0.8,0-1,0.5-1,0.9h-1.6c0.2-2,1.5-2.2,2.9-2.2
				c0.9,0,2.5,0.3,2.5,1.8V325.5z M27.5,323.6c-0.2,0.1-0.4,0.2-1.1,0.3c-0.6,0.1-1.1,0.3-1.1,1c0,0.6,0.5,0.8,0.8,0.8
				c0.7,0,1.5-0.5,1.5-1.3V323.6z"/>
			<path d="M39.4,324.8c-0.4,1.5-1.7,2-2.8,2c-1.8,0-3.2-0.9-3.2-3.5c0-0.8,0.3-3.2,3.1-3.2c1.3,0,3,0.6,3,3.5v0.3h-4.4
				c0,0.5,0.1,1.6,1.5,1.6c0.5,0,0.9-0.2,1.1-0.7H39.4z M37.8,322.9c-0.1-1-0.8-1.3-1.3-1.3c-0.8,0-1.2,0.5-1.3,1.3H37.8z"/>
			<path d="M46.5,326.7h-1.6v-0.8h0c-0.4,0.7-1.2,1-1.8,1c-1.9,0-2.7-1.7-2.7-3.4c0-2.2,1.2-3.3,2.7-3.3c1.1,0,1.6,0.6,1.8,1h0v-3.1
				h1.7V326.7z M43.4,325.5c1.1,0,1.5-0.9,1.5-1.8c0-1-0.3-2.1-1.4-2.1c-1.1,0-1.4,0.9-1.4,2C42,324.3,42.3,325.5,43.4,325.5z"/>
			<path d="M49.7,319.6H48V318h1.7V319.6z M49.7,320.3v6.4H48v-6.4H49.7z"/>
			<path d="M53.2,320.3h1v1.2h-1v3.5c0,0.4,0,0.5,0.7,0.5c0.1,0,0.2,0,0.3,0v1.3c-0.3,0-0.5,0-0.8,0h-0.2c-1.5,0-1.7-0.6-1.7-1.4
				v-3.9h-0.9v-1.2h0.9v-1.7h1.7V320.3z"/>
			<path d="M60.5,325.5c0,0.8,0.2,0.9,0.4,1v0.3H59c-0.1-0.3-0.1-0.4-0.2-0.8c-0.4,0.4-0.9,0.9-2.1,0.9c-1,0-1.9-0.5-1.9-1.9
				c0-1.2,0.8-1.9,1.9-2l1.5-0.2c0.3,0,0.6-0.1,0.6-0.5c0-0.7-0.7-0.7-1.1-0.7c-0.8,0-1,0.5-1,0.9h-1.6c0.2-2,1.5-2.2,2.9-2.2
				c0.9,0,2.5,0.3,2.5,1.8V325.5z M58.8,323.6c-0.2,0.1-0.4,0.2-1.1,0.3c-0.6,0.1-1.1,0.3-1.1,1c0,0.6,0.5,0.8,0.8,0.8
				c0.7,0,1.5-0.5,1.5-1.3V323.6z"/>
			<path d="M62,320.3h1.6v1.1h0c0.3-0.6,0.7-1.3,1.8-1.3c0.1,0,0.2,0,0.3,0v1.7c-0.1,0-0.3,0-0.5,0c-1.3,0-1.5,0.8-1.5,1.5v3.3H62
				V320.3z"/>
			<path d="M67.7,326.7h-1.8v-1.8h1.8V326.7z"/>
			<path d="M76,317.9c1.1,0,4.1,0.5,4.1,4.5s-3,4.5-4.1,4.5c-1.1,0-4.1-0.5-4.1-4.5S74.9,317.9,76,317.9z M76,325.4
				c1,0,2.3-0.6,2.3-3c0-2.4-1.4-3-2.3-3c-1,0-2.3,0.6-2.3,3C73.7,324.8,75,325.4,76,325.4z"/>
			<path d="M90.6,320.3v6c0,1.1-0.1,2.9-3.2,2.9c-1.3,0-2.7-0.6-2.8-1.9h1.8c0.1,0.3,0.2,0.6,1.2,0.6c0.9,0,1.3-0.4,1.3-1.5v-0.8
				l0,0c-0.3,0.5-0.7,1-1.7,1c-1.5,0-2.7-1.1-2.7-3.3c0-2.2,1.2-3.3,2.7-3.3c1.2,0,1.7,0.7,1.9,1.1h0v-0.9H90.6z M87.5,325.3
				c1.1,0,1.4-1,1.4-1.8c0-1-0.5-1.9-1.4-1.9c-0.6,0-1.3,0.5-1.3,1.9C86.2,324.4,86.5,325.3,87.5,325.3z"/>
			<path d="M92.1,320.3h1.6v1.1h0c0.3-0.6,0.7-1.3,1.8-1.3c0.1,0,0.2,0,0.3,0v1.7c-0.1,0-0.3,0-0.5,0c-1.3,0-1.5,0.8-1.5,1.5v3.3
				h-1.7V320.3z"/>
			<path d="M102.5,326.7h-1.6v-0.9h0c-0.4,0.7-1.1,1.1-1.9,1.1c-1.3,0-2.2-0.7-2.2-2.4v-4.2h1.7v4c0,1,0.6,1.2,1.1,1.2
				c0.6,0,1.3-0.3,1.3-1.5v-3.7h1.7V326.7z"/>
			<path d="M105.7,321.2L105.7,321.2c0.3-0.5,0.8-1.1,1.9-1.1c1.4,0,2.7,1.1,2.7,3.3c0,1.8-0.8,3.4-2.7,3.4c-1.2,0-1.6-0.6-1.8-1h0
				v3.3h-1.7v-8.9h1.6V321.2z M107.2,325.5c1.1,0,1.4-1.2,1.4-1.9c0-1-0.4-2-1.4-2c-1.2,0-1.4,1-1.4,2.1
				C105.7,324.6,106.1,325.5,107.2,325.5z"/>
			<path d="M114.3,326.9c-1.7,0-3.3-1.1-3.3-3.4s1.5-3.4,3.3-3.4c1.7,0,3.3,1.1,3.3,3.4S116,326.9,114.3,326.9z M114.3,321.6
				c-1.3,0-1.5,1.1-1.5,1.9s0.2,1.9,1.5,1.9s1.5-1.1,1.5-1.9S115.6,321.6,114.3,321.6z"/>
			<path d="M127.9,326.7h-1.6v-0.8h0c-0.4,0.7-1.2,1-1.8,1c-1.9,0-2.7-1.7-2.7-3.4c0-2.2,1.2-3.3,2.7-3.3c1.1,0,1.6,0.6,1.8,1h0
				v-3.1h1.7V326.7z M124.8,325.5c1.1,0,1.5-0.9,1.5-1.8c0-1-0.3-2.1-1.4-2.1c-1.1,0-1.4,0.9-1.4,2
				C123.5,324.3,123.8,325.5,124.8,325.5z"/>
			<path d="M134.9,324.8c-0.4,1.5-1.7,2-2.8,2c-1.8,0-3.2-0.9-3.2-3.5c0-0.8,0.3-3.2,3.1-3.2c1.3,0,3,0.6,3,3.5v0.3h-4.4
				c0,0.5,0.1,1.6,1.5,1.6c0.5,0,0.9-0.2,1.1-0.7H134.9z M133.3,322.9c-0.1-1-0.8-1.3-1.3-1.3c-0.8,0-1.2,0.5-1.3,1.3H133.3z"/>
			<path d="M145.2,326.7h-1.6v-0.9h0c-0.4,0.7-1.1,1.1-1.9,1.1c-1.3,0-2.2-0.7-2.2-2.4v-4.2h1.7v4c0,1,0.6,1.2,1.1,1.2
				c0.6,0,1.3-0.3,1.3-1.5v-3.7h1.7V326.7z"/>
			<path d="M150.4,322.3c-0.1-0.4-0.2-0.8-1.1-0.8s-1,0.3-1,0.6c0,1,4,0.3,4,2.6c0,1.9-1.8,2.2-2.8,2.2c-1.5,0-3-0.5-3.1-2.2h1.7
				c0,0.5,0.3,0.9,1.4,0.9c0.9,0,1.1-0.4,1.1-0.7c0-1.1-4-0.3-4-2.7c0-0.9,0.6-2.1,2.6-2.1c1.2,0,2.7,0.3,2.9,2.1H150.4z"/>
			<path d="M159.2,326.7h-1.6v-0.9h0c-0.4,0.7-1.1,1.1-1.9,1.1c-1.3,0-2.2-0.7-2.2-2.4v-4.2h1.7v4c0,1,0.6,1.2,1.1,1.2
				c0.6,0,1.3-0.3,1.3-1.5v-3.7h1.7V326.7z"/>
			<path d="M166,325.5c0,0.8,0.2,0.9,0.4,1v0.3h-1.8c-0.1-0.3-0.1-0.4-0.2-0.8c-0.4,0.4-0.9,0.9-2.1,0.9c-1,0-1.9-0.5-1.9-1.9
				c0-1.2,0.8-1.9,1.9-2l1.5-0.2c0.3,0,0.6-0.1,0.6-0.5c0-0.7-0.7-0.7-1.1-0.7c-0.8,0-1,0.5-1,0.9h-1.6c0.2-2,1.5-2.2,2.9-2.2
				c0.9,0,2.5,0.3,2.5,1.8V325.5z M164.3,323.6c-0.2,0.1-0.4,0.2-1.1,0.3c-0.6,0.1-1.1,0.3-1.1,1c0,0.6,0.5,0.8,0.8,0.8
				c0.7,0,1.5-0.5,1.5-1.3V323.6z M163.9,319.5h-1.2l1.1-1.8h1.8L163.9,319.5z"/>
			<path d="M167.4,320.3h1.6v1.1h0c0.3-0.6,0.7-1.3,1.8-1.3c0.1,0,0.2,0,0.3,0v1.7c-0.1,0-0.3,0-0.5,0c-1.3,0-1.5,0.8-1.5,1.5v3.3
				h-1.7V320.3z"/>
			<path d="M173.9,319.6h-1.7V318h1.7V319.6z M173.9,320.3v6.4h-1.7v-6.4H173.9z"/>
			<path d="M178.4,326.9c-1.7,0-3.3-1.1-3.3-3.4s1.5-3.4,3.3-3.4c1.7,0,3.3,1.1,3.3,3.4S180.1,326.9,178.4,326.9z M178.4,321.6
				c-1.3,0-1.5,1.1-1.5,1.9s0.2,1.9,1.5,1.9s1.5-1.1,1.5-1.9S179.6,321.6,178.4,321.6z"/>
			<path d="M186.4,322.3c-0.1-0.4-0.2-0.8-1.1-0.8s-1,0.3-1,0.6c0,1,4,0.3,4,2.6c0,1.9-1.8,2.2-2.8,2.2c-1.5,0-3-0.5-3.1-2.2h1.7
				c0,0.5,0.3,0.9,1.4,0.9c0.9,0,1.1-0.4,1.1-0.7c0-1.1-4-0.3-4-2.7c0-0.9,0.6-2.1,2.6-2.1c1.2,0,2.7,0.3,2.9,2.1H186.4z"/>
			<path d="M201.2,326.7h-1.7v-7.2h0l-1.6,7.2h-1.8l-1.6-7.2h0v7.2h-1.7v-8.6h2.6l1.6,6.8h0l1.5-6.8h2.6V326.7z"/>
			<path d="M208,325.5c0,0.8,0.2,0.9,0.4,1v0.3h-1.8c-0.1-0.3-0.1-0.4-0.2-0.8c-0.4,0.4-0.9,0.9-2.1,0.9c-1,0-1.9-0.5-1.9-1.9
				c0-1.2,0.8-1.9,1.9-2l1.5-0.2c0.3,0,0.6-0.1,0.6-0.5c0-0.7-0.7-0.7-1.1-0.7c-0.8,0-1,0.5-1,0.9h-1.6c0.2-2,1.5-2.2,2.9-2.2
				c0.9,0,2.5,0.3,2.5,1.8V325.5z M206.3,323.6c-0.2,0.1-0.4,0.2-1.1,0.3c-0.6,0.1-1.1,0.3-1.1,1c0,0.6,0.5,0.8,0.8,0.8
				c0.7,0,1.5-0.5,1.5-1.3V323.6z"/>
			<path d="M209.5,320.3h1.6v1.1h0c0.3-0.6,0.7-1.3,1.8-1.3c0.1,0,0.2,0,0.3,0v1.7c-0.1,0-0.3,0-0.5,0c-1.3,0-1.5,0.8-1.5,1.5v3.3
				h-1.7V320.3z"/>
			<path d="M215.9,326.7h-1.7v-8.6h1.7v4.7l2.1-2.4h2.1l-2.3,2.5l2.3,3.9h-2l-1.5-2.7l-0.7,0.7V326.7z"/>
			<path d="M226.3,324.8c-0.4,1.5-1.7,2-2.8,2c-1.8,0-3.2-0.9-3.2-3.5c0-0.8,0.3-3.2,3.1-3.2c1.3,0,3,0.6,3,3.5v0.3H222
				c0,0.5,0.1,1.6,1.5,1.6c0.5,0,0.9-0.2,1.1-0.7H226.3z M224.6,322.9c-0.1-1-0.8-1.3-1.3-1.3c-0.8,0-1.2,0.5-1.3,1.3H224.6z"/>
			<path d="M229.4,320.3h1v1.2h-1v3.5c0,0.4,0,0.5,0.7,0.5c0.1,0,0.2,0,0.3,0v1.3c-0.3,0-0.5,0-0.8,0h-0.2c-1.5,0-1.7-0.6-1.7-1.4
				v-3.9h-0.9v-1.2h0.9v-1.7h1.7V320.3z"/>
			<path d="M233.2,319.6h-1.7V318h1.7V319.6z M233.2,320.3v6.4h-1.7v-6.4H233.2z"/>
			<path d="M240.6,326.7h-1.7v-3.9c0-0.5,0-1.3-1.1-1.3c-0.7,0-1.3,0.5-1.3,1.5v3.7h-1.7v-6.4h1.6v0.9h0c0.2-0.4,0.7-1.1,1.9-1.1
				c1.2,0,2.2,0.7,2.2,2.1V326.7z"/>
			<path d="M248,320.3v6c0,1.1-0.1,2.9-3.2,2.9c-1.3,0-2.7-0.6-2.8-1.9h1.8c0.1,0.3,0.2,0.6,1.2,0.6c0.9,0,1.3-0.4,1.3-1.5v-0.8l0,0
				c-0.3,0.5-0.7,1-1.7,1c-1.5,0-2.7-1.1-2.7-3.3c0-2.2,1.2-3.3,2.7-3.3c1.2,0,1.7,0.7,1.9,1.1h0v-0.9H248z M244.9,325.3
				c1.1,0,1.4-1,1.4-1.8c0-1-0.5-1.9-1.4-1.9c-0.6,0-1.3,0.5-1.3,1.9C243.6,324.4,243.9,325.3,244.9,325.3z"/>
			<path d="M254.7,320.3h1v1.2h-1v3.5c0,0.4,0,0.5,0.7,0.5c0.1,0,0.2,0,0.3,0v1.3c-0.3,0-0.5,0-0.8,0h-0.2c-1.5,0-1.7-0.6-1.7-1.4
				v-3.9h-0.9v-1.2h0.9v-1.7h1.7V320.3z"/>
			<path d="M262.3,324.8c-0.4,1.5-1.7,2-2.8,2c-1.8,0-3.2-0.9-3.2-3.5c0-0.8,0.3-3.2,3.1-3.2c1.3,0,3,0.6,3,3.5v0.3H258
				c0,0.5,0.1,1.6,1.5,1.6c0.5,0,0.9-0.2,1.1-0.7H262.3z M260.6,322.9c-0.1-1-0.8-1.3-1.3-1.3c-0.8,0-1.2,0.5-1.3,1.3H260.6z"/>
			<path d="M272.6,326.7h-1.7v-3.9c0-0.9-0.4-1.3-0.9-1.3c-0.8,0-1.1,0.6-1.1,1.3v3.8h-1.7v-3.8c0-0.5,0-1.3-1-1.3
				c-0.8,0-1,0.6-1,1.2v3.9h-1.7v-6.4h1.6v0.9h0c0.2-0.4,0.7-1.1,1.8-1.1c0.9,0,1.3,0.3,1.8,1c0.2-0.3,0.7-1,1.7-1
				c1.2,0,2.2,0.7,2.2,2.1V326.7z"/>
			<path d="M279.1,321.2L279.1,321.2c0.3-0.5,0.8-1.1,1.9-1.1c1.4,0,2.7,1.1,2.7,3.3c0,1.8-0.8,3.4-2.7,3.4c-1.2,0-1.6-0.6-1.8-1h0
				v3.3h-1.7v-8.9h1.6V321.2z M280.5,325.5c1.1,0,1.4-1.2,1.4-1.9c0-1-0.4-2-1.4-2c-1.2,0-1.4,1-1.4,2.1
				C279.1,324.6,279.5,325.5,280.5,325.5z"/>
			<path d="M290.3,324.8c-0.4,1.5-1.7,2-2.8,2c-1.8,0-3.2-0.9-3.2-3.5c0-0.8,0.3-3.2,3.1-3.2c1.3,0,3,0.6,3,3.5v0.3H286
				c0,0.5,0.1,1.6,1.5,1.6c0.5,0,0.9-0.2,1.1-0.7H290.3z M288.6,322.9c-0.1-1-0.8-1.3-1.3-1.3c-0.8,0-1.2,0.5-1.3,1.3H288.6z"/>
			<path d="M291.5,320.3h1.6v1.1h0c0.3-0.6,0.7-1.3,1.8-1.3c0.1,0,0.2,0,0.3,0v1.7c-0.1,0-0.3,0-0.5,0c-1.3,0-1.5,0.8-1.5,1.5v3.3
				h-1.7V320.3z"/>
			<path d="M305.3,326.7h-1.7v-3.9c0-0.9-0.4-1.3-0.9-1.3c-0.8,0-1.1,0.6-1.1,1.3v3.8h-1.7v-3.8c0-0.5,0-1.3-1-1.3
				c-0.8,0-1,0.6-1,1.2v3.9h-1.7v-6.4h1.6v0.9h0c0.2-0.4,0.7-1.1,1.8-1.1c0.9,0,1.3,0.3,1.8,1c0.2-0.3,0.7-1,1.7-1
				c1.2,0,2.2,0.7,2.2,2.1V326.7z"/>
			<path d="M308.6,319.6h-1.7V318h1.7V319.6z M308.6,320.3v6.4h-1.7v-6.4H308.6z"/>
			<path d="M313.8,322.3c-0.1-0.4-0.2-0.8-1.1-0.8c-0.9,0-1,0.3-1,0.6c0,1,4,0.3,4,2.6c0,1.9-1.8,2.2-2.8,2.2c-1.5,0-3-0.5-3.1-2.2
				h1.7c0,0.5,0.3,0.9,1.4,0.9c0.9,0,1.1-0.4,1.1-0.7c0-1.1-4-0.3-4-2.7c0-0.9,0.6-2.1,2.6-2.1c1.2,0,2.7,0.3,2.9,2.1H313.8z"/>
			<path d="M320.4,322.3c-0.1-0.4-0.2-0.8-1.1-0.8c-0.9,0-1,0.3-1,0.6c0,1,4,0.3,4,2.6c0,1.9-1.8,2.2-2.8,2.2c-1.5,0-3-0.5-3.1-2.2
				h1.7c0,0.5,0.3,0.9,1.4,0.9c0.9,0,1.1-0.4,1.1-0.7c0-1.1-4-0.3-4-2.7c0-0.9,0.6-2.1,2.6-2.1c1.2,0,2.7,0.3,2.9,2.1H320.4z"/>
			<path d="M326.4,326.9c-1.7,0-3.3-1.1-3.3-3.4s1.5-3.4,3.3-3.4s3.3,1.1,3.3,3.4S328.1,326.9,326.4,326.9z M328.6,317.9
				c-0.1,0.4-0.3,1.4-1.3,1.4c-0.3,0-0.7-0.1-0.9-0.2c-0.4-0.1-0.6-0.2-0.9-0.2c-0.4,0-0.5,0.4-0.6,0.5h-0.8c0-0.2,0.1-0.6,0.3-0.9
				c0.2-0.3,0.6-0.6,1.1-0.6c0.3,0,0.5,0.1,0.9,0.2c0.4,0.2,0.6,0.2,0.7,0.2c0.4,0,0.5-0.3,0.6-0.5H328.6z M326.4,321.6
				c-1.3,0-1.5,1.1-1.5,1.9s0.2,1.9,1.5,1.9s1.5-1.1,1.5-1.9S327.7,321.6,326.4,321.6z"/>
			<path d="M336.3,324.8c-0.4,1.5-1.7,2-2.8,2c-1.8,0-3.2-0.9-3.2-3.5c0-0.8,0.3-3.2,3.1-3.2c1.3,0,3,0.6,3,3.5v0.3H332
				c0,0.5,0.1,1.6,1.5,1.6c0.5,0,0.9-0.2,1.1-0.7H336.3z M334.7,322.9c-0.1-1-0.8-1.3-1.3-1.3c-0.8,0-1.2,0.5-1.3,1.3H334.7z"/>
			<path d="M341.1,322.3c-0.1-0.4-0.2-0.8-1.1-0.8c-0.9,0-1,0.3-1,0.6c0,1,4,0.3,4,2.6c0,1.9-1.8,2.2-2.8,2.2c-1.5,0-3-0.5-3.1-2.2
				h1.7c0,0.5,0.3,0.9,1.4,0.9c0.9,0,1.1-0.4,1.1-0.7c0-1.1-4-0.3-4-2.7c0-0.9,0.6-2.1,2.6-2.1c1.2,0,2.7,0.3,2.9,2.1H341.1z"/>
			<path d="M6.9,335.6L6.9,335.6c0.3-0.5,0.8-1.1,1.9-1.1c1.4,0,2.7,1.1,2.7,3.3c0,1.8-0.8,3.4-2.7,3.4c-1.2,0-1.6-0.6-1.8-1h0v3.3
				H5.2v-8.9h1.6V335.6z M8.3,339.9c1.1,0,1.4-1.2,1.4-1.9c0-1-0.4-2-1.4-2c-1.2,0-1.4,1-1.4,2.1C6.9,339,7.3,339.9,8.3,339.9z"/>
			<path d="M17.8,339.9c0,0.8,0.2,0.9,0.4,1v0.3h-1.8c-0.1-0.3-0.1-0.4-0.2-0.8c-0.4,0.4-0.9,0.9-2.1,0.9c-1,0-1.9-0.5-1.9-1.9
				c0-1.2,0.8-1.9,1.9-2l1.5-0.2c0.3,0,0.6-0.1,0.6-0.5c0-0.7-0.7-0.7-1.1-0.7c-0.8,0-1,0.5-1,0.9h-1.6c0.2-2,1.5-2.2,2.9-2.2
				c0.9,0,2.5,0.3,2.5,1.8V339.9z M16.1,338c-0.2,0.1-0.4,0.2-1.1,0.3c-0.6,0.1-1.1,0.3-1.1,1c0,0.6,0.5,0.8,0.8,0.8
				c0.7,0,1.5-0.5,1.5-1.3V338z"/>
			<path d="M19.3,334.7h1.6v1.1h0c0.3-0.6,0.7-1.3,1.8-1.3c0.1,0,0.2,0,0.3,0v1.7c-0.1,0-0.3,0-0.5,0c-1.3,0-1.5,0.8-1.5,1.5v3.3
				h-1.7V334.7z"/>
			<path d="M29.1,339.9c0,0.8,0.2,0.9,0.4,1v0.3h-1.8c-0.1-0.3-0.1-0.4-0.2-0.8c-0.4,0.4-0.9,0.9-2.1,0.9c-1,0-1.9-0.5-1.9-1.9
				c0-1.2,0.8-1.9,1.9-2l1.5-0.2c0.3,0,0.6-0.1,0.6-0.5c0-0.7-0.7-0.7-1.1-0.7c-0.8,0-1,0.5-1,0.9h-1.6c0.2-2,1.5-2.2,2.9-2.2
				c0.9,0,2.5,0.3,2.5,1.8V339.9z M27.5,338c-0.2,0.1-0.4,0.2-1.1,0.3c-0.6,0.1-1.1,0.3-1.1,1c0,0.6,0.5,0.8,0.8,0.8
				c0.7,0,1.5-0.5,1.5-1.3V338z"/>
			<path d="M39.4,339.2c-0.4,1.5-1.7,2-2.8,2c-1.8,0-3.2-0.9-3.2-3.5c0-0.8,0.3-3.2,3.1-3.2c1.3,0,3,0.6,3,3.5v0.3h-4.4
				c0,0.5,0.1,1.6,1.5,1.6c0.5,0,0.9-0.2,1.1-0.7H39.4z M37.8,337.3c-0.1-1-0.8-1.3-1.3-1.3c-0.8,0-1.2,0.5-1.3,1.3H37.8z"/>
			<path d="M46.5,341.1h-1.6v-0.8h0c-0.4,0.7-1.2,1-1.8,1c-1.9,0-2.7-1.7-2.7-3.4c0-2.2,1.2-3.3,2.7-3.3c1.1,0,1.6,0.6,1.8,1h0v-3.1
				h1.7V341.1z M43.4,339.9c1.1,0,1.5-0.9,1.5-1.8c0-1-0.3-2.1-1.4-2.1c-1.1,0-1.4,0.9-1.4,2C42,338.7,42.3,339.9,43.4,339.9z"/>
			<path d="M49.7,334H48v-1.6h1.7V334z M49.7,334.7v6.4H48v-6.4H49.7z"/>
			<path d="M53.2,334.7h1v1.2h-1v3.5c0,0.4,0,0.5,0.7,0.5c0.1,0,0.2,0,0.3,0v1.3c-0.3,0-0.5,0-0.8,0h-0.2c-1.5,0-1.7-0.6-1.7-1.4
				v-3.9h-0.9v-1.2h0.9V333h1.7V334.7z"/>
			<path d="M60.5,339.9c0,0.8,0.2,0.9,0.4,1v0.3H59c-0.1-0.3-0.1-0.4-0.2-0.8c-0.4,0.4-0.9,0.9-2.1,0.9c-1,0-1.9-0.5-1.9-1.9
				c0-1.2,0.8-1.9,1.9-2l1.5-0.2c0.3,0,0.6-0.1,0.6-0.5c0-0.7-0.7-0.7-1.1-0.7c-0.8,0-1,0.5-1,0.9h-1.6c0.2-2,1.5-2.2,2.9-2.2
				c0.9,0,2.5,0.3,2.5,1.8V339.9z M58.8,338c-0.2,0.1-0.4,0.2-1.1,0.3c-0.6,0.1-1.1,0.3-1.1,1c0,0.6,0.5,0.8,0.8,0.8
				c0.7,0,1.5-0.5,1.5-1.3V338z"/>
			<path d="M62,334.7h1.6v1.1h0c0.3-0.6,0.7-1.3,1.8-1.3c0.1,0,0.2,0,0.3,0v1.7c-0.1,0-0.3,0-0.5,0c-1.3,0-1.5,0.8-1.5,1.5v3.3H62
				V334.7z"/>
			<path d="M71.9,334.7h1v1.2h-1v3.5c0,0.4,0,0.5,0.7,0.5c0.1,0,0.2,0,0.3,0v1.3c-0.3,0-0.5,0-0.8,0h-0.2c-1.5,0-1.7-0.6-1.7-1.4
				v-3.9h-0.9v-1.2h0.9V333h1.7V334.7z"/>
			<path d="M76.9,341.3c-1.7,0-3.3-1.1-3.3-3.4s1.5-3.4,3.3-3.4c1.7,0,3.3,1.1,3.3,3.4S78.6,341.3,76.9,341.3z M76.9,336
				c-1.3,0-1.5,1.1-1.5,1.9s0.2,1.9,1.5,1.9s1.5-1.1,1.5-1.9S78.2,336,76.9,336z"/>
			<path d="M87.1,341.1h-1.6v-0.8h0c-0.4,0.7-1.2,1-1.8,1c-1.9,0-2.7-1.7-2.7-3.4c0-2.2,1.2-3.3,2.7-3.3c1.1,0,1.6,0.6,1.8,1h0v-3.1
				h1.7V341.1z M84,339.9c1.1,0,1.5-0.9,1.5-1.8c0-1-0.3-2.1-1.4-2.1c-1.1,0-1.4,0.9-1.4,2C82.7,338.7,83,339.9,84,339.9z"/>
			<path d="M93.8,339.9c0,0.8,0.2,0.9,0.4,1v0.3h-1.8c-0.1-0.3-0.1-0.4-0.2-0.8c-0.4,0.4-0.9,0.9-2.1,0.9c-1,0-1.9-0.5-1.9-1.9
				c0-1.2,0.8-1.9,1.9-2l1.5-0.2c0.3,0,0.6-0.1,0.6-0.5c0-0.7-0.7-0.7-1.1-0.7c-0.8,0-1,0.5-1,0.9h-1.6c0.2-2,1.5-2.2,2.9-2.2
				c0.9,0,2.5,0.3,2.5,1.8V339.9z M92.2,338c-0.2,0.1-0.4,0.2-1.1,0.3c-0.6,0.1-1.1,0.3-1.1,1c0,0.6,0.5,0.8,0.8,0.8
				c0.7,0,1.5-0.5,1.5-1.3V338z"/>
			<path d="M98.9,336.7c-0.1-0.4-0.2-0.8-1.1-0.8s-1,0.3-1,0.6c0,1,4,0.3,4,2.6c0,1.9-1.8,2.2-2.8,2.2c-1.5,0-3-0.5-3.1-2.2h1.7
				c0,0.5,0.3,0.9,1.4,0.9c0.9,0,1.1-0.4,1.1-0.7c0-1.1-4-0.3-4-2.7c0-0.9,0.6-2.1,2.6-2.1c1.2,0,2.7,0.3,2.9,2.1H98.9z"/>
			<path d="M110.5,339.9c0,0.8,0.2,0.9,0.4,1v0.3H109c-0.1-0.3-0.1-0.4-0.2-0.8c-0.4,0.4-0.9,0.9-2.1,0.9c-1,0-1.9-0.5-1.9-1.9
				c0-1.2,0.8-1.9,1.9-2l1.5-0.2c0.3,0,0.6-0.1,0.6-0.5c0-0.7-0.7-0.7-1.1-0.7c-0.8,0-1,0.5-1,0.9h-1.6c0.2-2,1.5-2.2,2.9-2.2
				c0.9,0,2.5,0.3,2.5,1.8V339.9z M108.8,338c-0.2,0.1-0.4,0.2-1.1,0.3c-0.6,0.1-1.1,0.3-1.1,1c0,0.6,0.5,0.8,0.8,0.8
				c0.7,0,1.5-0.5,1.5-1.3V338z"/>
			<path d="M115.6,336.7c-0.1-0.4-0.2-0.8-1.1-0.8s-1,0.3-1,0.6c0,1,4,0.3,4,2.6c0,1.9-1.8,2.2-2.8,2.2c-1.5,0-3-0.5-3.1-2.2h1.7
				c0,0.5,0.3,0.9,1.4,0.9c0.9,0,1.1-0.4,1.1-0.7c0-1.1-4-0.3-4-2.7c0-0.9,0.6-2.1,2.6-2.1c1.2,0,2.7,0.3,2.9,2.1H115.6z"/>
			<path d="M123.6,335.6L123.6,335.6c0.3-0.5,0.8-1.1,1.9-1.1c1.4,0,2.7,1.1,2.7,3.3c0,1.8-0.8,3.4-2.7,3.4c-1.2,0-1.6-0.6-1.8-1h0
				v3.3H122v-8.9h1.6V335.6z M125,339.9c1.1,0,1.4-1.2,1.4-1.9c0-1-0.4-2-1.4-2c-1.2,0-1.4,1-1.4,2.1C123.6,339,124,339.9,125,339.9
				z"/>
			<path d="M134.5,339.9c0,0.8,0.2,0.9,0.4,1v0.3h-1.8c-0.1-0.3-0.1-0.4-0.2-0.8c-0.4,0.4-0.9,0.9-2.1,0.9c-1,0-1.9-0.5-1.9-1.9
				c0-1.2,0.8-1.9,1.9-2l1.5-0.2c0.3,0,0.6-0.1,0.6-0.5c0-0.7-0.7-0.7-1.1-0.7c-0.8,0-1,0.5-1,0.9h-1.6c0.2-2,1.5-2.2,2.9-2.2
				c0.9,0,2.5,0.3,2.5,1.8V339.9z M132.8,338c-0.2,0.1-0.4,0.2-1.1,0.3c-0.6,0.1-1.1,0.3-1.1,1c0,0.6,0.5,0.8,0.8,0.8
				c0.7,0,1.5-0.5,1.5-1.3V338z"/>
			<path d="M139.6,336.7c-0.1-0.4-0.2-0.8-1.1-0.8s-1,0.3-1,0.6c0,1,4,0.3,4,2.6c0,1.9-1.8,2.2-2.8,2.2c-1.5,0-3-0.5-3.1-2.2h1.7
				c0,0.5,0.3,0.9,1.4,0.9c0.9,0,1.1-0.4,1.1-0.7c0-1.1-4-0.3-4-2.7c0-0.9,0.6-2.1,2.6-2.1c1.2,0,2.7,0.3,2.9,2.1H139.6z"/>
			<path d="M144.5,334.7h1v1.2h-1v3.5c0,0.4,0,0.5,0.7,0.5c0.1,0,0.2,0,0.3,0v1.3c-0.3,0-0.5,0-0.8,0h-0.2c-1.5,0-1.7-0.6-1.7-1.4
				v-3.9H142v-1.2h0.9V333h1.7V334.7z"/>
			<path d="M151.8,339.9c0,0.8,0.2,0.9,0.4,1v0.3h-1.8c-0.1-0.3-0.1-0.4-0.2-0.8c-0.4,0.4-0.9,0.9-2.1,0.9c-1,0-1.9-0.5-1.9-1.9
				c0-1.2,0.8-1.9,1.9-2l1.5-0.2c0.3,0,0.6-0.1,0.6-0.5c0-0.7-0.7-0.7-1.1-0.7c-0.8,0-1,0.5-1,0.9h-1.6c0.2-2,1.5-2.2,2.9-2.2
				c0.9,0,2.5,0.3,2.5,1.8V339.9z M150.2,338c-0.2,0.1-0.4,0.2-1.1,0.3c-0.6,0.1-1.1,0.3-1.1,1c0,0.6,0.5,0.8,0.8,0.8
				c0.7,0,1.5-0.5,1.5-1.3V338z"/>
			<path d="M156.9,336.7c-0.1-0.4-0.2-0.8-1.1-0.8s-1,0.3-1,0.6c0,1,4,0.3,4,2.6c0,1.9-1.8,2.2-2.8,2.2c-1.5,0-3-0.5-3.1-2.2h1.7
				c0,0.5,0.3,0.9,1.4,0.9c0.9,0,1.1-0.4,1.1-0.7c0-1.1-4-0.3-4-2.7c0-0.9,0.6-2.1,2.6-2.1c1.2,0,2.7,0.3,2.9,2.1H156.9z"/>
			<path d="M167,336.7c-0.1-0.4-0.2-0.8-1.1-0.8s-1,0.3-1,0.6c0,1,4,0.3,4,2.6c0,1.9-1.8,2.2-2.8,2.2c-1.5,0-3-0.5-3.1-2.2h1.7
				c0,0.5,0.3,0.9,1.4,0.9c0.9,0,1.1-0.4,1.1-0.7c0-1.1-4-0.3-4-2.7c0-0.9,0.6-2.1,2.6-2.1c1.2,0,2.7,0.3,2.9,2.1H167z"/>
			<path d="M175.5,339.2c-0.4,1.5-1.7,2-2.8,2c-1.8,0-3.2-0.9-3.2-3.5c0-0.8,0.3-3.2,3.1-3.2c1.3,0,3,0.6,3,3.5v0.3h-4.4
				c0,0.5,0.1,1.6,1.5,1.6c0.5,0,0.9-0.2,1.1-0.7H175.5z M173.8,337.3c-0.1-1-0.8-1.3-1.3-1.3c-0.8,0-1.2,0.5-1.3,1.3H173.8z"/>
			<path d="M182.2,338.8c-0.1,0.7-0.6,2.5-2.9,2.5c-2.4,0-3-1.8-3-3.2c0-2.1,0.9-3.5,3.1-3.5c1,0,2.7,0.5,2.8,2.4h-1.7
				c-0.1-0.4-0.3-1.1-1.1-1c-1.1,0-1.3,1.1-1.3,1.8c0,0.7,0,2.1,1.3,2.1c0.9,0,1.1-0.8,1.1-1.1H182.2z"/>
			<path d="M189.1,341.1h-1.6v-0.9h0c-0.4,0.7-1.1,1.1-1.9,1.1c-1.3,0-2.2-0.7-2.2-2.4v-4.2h1.7v4c0,1,0.6,1.2,1.1,1.2
				c0.6,0,1.3-0.3,1.3-1.5v-3.7h1.7V341.1z"/>
			<path d="M196.5,341.1h-1.7v-3.9c0-0.5,0-1.3-1.1-1.3c-0.7,0-1.3,0.5-1.3,1.5v3.7h-1.7v-6.4h1.6v0.9h0c0.2-0.4,0.7-1.1,1.9-1.1
				c1.2,0,2.2,0.7,2.2,2.1V341.1z"/>
			<path d="M203.9,341.1h-1.6v-0.8h0c-0.4,0.7-1.2,1-1.8,1c-1.9,0-2.7-1.7-2.7-3.4c0-2.2,1.2-3.3,2.7-3.3c1.1,0,1.6,0.6,1.8,1h0
				v-3.1h1.7V341.1z M200.8,339.9c1.1,0,1.5-0.9,1.5-1.8c0-1-0.3-2.1-1.4-2.1c-1.1,0-1.4,0.9-1.4,2
				C199.4,338.7,199.7,339.9,200.8,339.9z"/>
			<path d="M210.5,339.9c0,0.8,0.2,0.9,0.4,1v0.3h-1.8c-0.1-0.3-0.1-0.4-0.2-0.8c-0.4,0.4-0.9,0.9-2.1,0.9c-1,0-1.9-0.5-1.9-1.9
				c0-1.2,0.8-1.9,1.9-2l1.5-0.2c0.3,0,0.6-0.1,0.6-0.5c0-0.7-0.7-0.7-1.1-0.7c-0.8,0-1,0.5-1,0.9h-1.6c0.2-2,1.5-2.2,2.9-2.2
				c0.9,0,2.5,0.3,2.5,1.8V339.9z M208.9,338c-0.2,0.1-0.4,0.2-1.1,0.3c-0.6,0.1-1.1,0.3-1.1,1c0,0.6,0.5,0.8,0.8,0.8
				c0.7,0,1.5-0.5,1.5-1.3V338z M208.4,333.9h-1.2l1.1-1.8h1.8L208.4,333.9z"/>
			<path d="M212,334.7h1.6v1.1h0c0.3-0.6,0.7-1.3,1.8-1.3c0.1,0,0.2,0,0.3,0v1.7c-0.1,0-0.3,0-0.5,0c-1.3,0-1.5,0.8-1.5,1.5v3.3H212
				V334.7z"/>
			<path d="M218.4,334h-1.7v-1.6h1.7V334z M218.4,334.7v6.4h-1.7v-6.4H218.4z"/>
			<path d="M225.2,339.9c0,0.8,0.2,0.9,0.4,1v0.3h-1.8c-0.1-0.3-0.1-0.4-0.2-0.8c-0.4,0.4-0.9,0.9-2.1,0.9c-1,0-1.9-0.5-1.9-1.9
				c0-1.2,0.8-1.9,1.9-2l1.5-0.2c0.3,0,0.6-0.1,0.6-0.5c0-0.7-0.7-0.7-1.1-0.7c-0.8,0-1,0.5-1,0.9h-1.6c0.2-2,1.5-2.2,2.9-2.2
				c0.9,0,2.5,0.3,2.5,1.8V339.9z M223.6,338c-0.2,0.1-0.4,0.2-1.1,0.3c-0.6,0.1-1.1,0.3-1.1,1c0,0.6,0.5,0.8,0.8,0.8
				c0.7,0,1.5-0.5,1.5-1.3V338z"/>
			<path d="M230.3,336.7c-0.1-0.4-0.2-0.8-1.1-0.8s-1,0.3-1,0.6c0,1,4,0.3,4,2.6c0,1.9-1.8,2.2-2.8,2.2c-1.5,0-3-0.5-3.1-2.2h1.7
				c0,0.5,0.3,0.9,1.4,0.9c0.9,0,1.1-0.4,1.1-0.7c0-1.1-4-0.3-4-2.7c0-0.9,0.6-2.1,2.6-2.1c1.2,0,2.7,0.3,2.9,2.1H230.3z"/>
			<path d="M242.5,341.1h-1.7v-3.9c0-0.5,0-1.3-1.1-1.3c-0.7,0-1.3,0.5-1.3,1.5v3.7h-1.7v-6.4h1.6v0.9h0c0.2-0.4,0.7-1.1,1.9-1.1
				c1.2,0,2.2,0.7,2.2,2.1V341.1z"/>
			<path d="M249.2,339.9c0,0.8,0.2,0.9,0.4,1v0.3h-1.8c-0.1-0.3-0.1-0.4-0.2-0.8c-0.4,0.4-0.9,0.9-2.1,0.9c-1,0-1.9-0.5-1.9-1.9
				c0-1.2,0.8-1.9,1.9-2l1.5-0.2c0.3,0,0.6-0.1,0.6-0.5c0-0.7-0.7-0.7-1.1-0.7c-0.8,0-1,0.5-1,0.9h-1.6c0.2-2,1.5-2.2,2.9-2.2
				c0.9,0,2.5,0.3,2.5,1.8V339.9z M247.6,338c-0.2,0.1-0.4,0.2-1.1,0.3c-0.6,0.1-1.1,0.3-1.1,1c0,0.6,0.5,0.8,0.8,0.8
				c0.7,0,1.5-0.5,1.5-1.3V338z"/>
			<path d="M255.6,335.6L255.6,335.6c0.3-0.5,0.8-1.1,1.9-1.1c1.4,0,2.7,1.1,2.7,3.3c0,1.8-0.8,3.4-2.7,3.4c-1.2,0-1.6-0.6-1.8-1h0
				v3.3H254v-8.9h1.6V335.6z M257.1,339.9c1.1,0,1.4-1.2,1.4-1.9c0-1-0.4-2-1.4-2c-1.2,0-1.4,1-1.4,2.1
				C255.6,339,256,339.9,257.1,339.9z"/>
			<path d="M266.6,339.9c0,0.8,0.2,0.9,0.4,1v0.3h-1.8c-0.1-0.3-0.1-0.4-0.2-0.8c-0.4,0.4-0.9,0.9-2.1,0.9c-1,0-1.9-0.5-1.9-1.9
				c0-1.2,0.8-1.9,1.9-2l1.5-0.2c0.3,0,0.6-0.1,0.6-0.5c0-0.7-0.7-0.7-1.1-0.7c-0.8,0-1,0.5-1,0.9h-1.6c0.2-2,1.5-2.2,2.9-2.2
				c0.9,0,2.5,0.3,2.5,1.8V339.9z M264.9,338c-0.2,0.1-0.4,0.2-1.1,0.3c-0.6,0.1-1.1,0.3-1.1,1c0,0.6,0.5,0.8,0.8,0.8
				c0.7,0,1.5-0.5,1.5-1.3V338z"/>
			<path d="M271.7,336.7c-0.1-0.4-0.2-0.8-1.1-0.8c-0.9,0-1,0.3-1,0.6c0,1,4,0.3,4,2.6c0,1.9-1.8,2.2-2.8,2.2c-1.5,0-3-0.5-3.1-2.2
				h1.7c0,0.5,0.3,0.9,1.4,0.9c0.9,0,1.1-0.4,1.1-0.7c0-1.1-4-0.3-4-2.7c0-0.9,0.6-2.1,2.6-2.1c1.2,0,2.7,0.3,2.9,2.1H271.7z"/>
			<path d="M276.6,334.7h1v1.2h-1v3.5c0,0.4,0,0.5,0.7,0.5c0.1,0,0.2,0,0.3,0v1.3c-0.3,0-0.5,0-0.8,0h-0.2c-1.5,0-1.7-0.6-1.7-1.4
				v-3.9h-0.9v-1.2h0.9V333h1.7V334.7z"/>
			<path d="M283.9,339.9c0,0.8,0.2,0.9,0.4,1v0.3h-1.8c-0.1-0.3-0.1-0.4-0.2-0.8c-0.4,0.4-0.9,0.9-2.1,0.9c-1,0-1.9-0.5-1.9-1.9
				c0-1.2,0.8-1.9,1.9-2l1.5-0.2c0.3,0,0.6-0.1,0.6-0.5c0-0.7-0.7-0.7-1.1-0.7c-0.8,0-1,0.5-1,0.9h-1.6c0.2-2,1.5-2.2,2.9-2.2
				c0.9,0,2.5,0.3,2.5,1.8V339.9z M282.2,338c-0.2,0.1-0.4,0.2-1.1,0.3c-0.6,0.1-1.1,0.3-1.1,1c0,0.6,0.5,0.8,0.8,0.8
				c0.7,0,1.5-0.5,1.5-1.3V338z"/>
			<path d="M297.1,341.1h-1.7v-7.2h0l-1.6,7.2h-1.8l-1.6-7.2h0v7.2h-1.7v-8.6h2.6l1.6,6.8h0l1.5-6.8h2.6V341.1z"/>
			<path d="M303.9,339.9c0,0.8,0.2,0.9,0.4,1v0.3h-1.8c-0.1-0.3-0.1-0.4-0.2-0.8c-0.4,0.4-0.9,0.9-2.1,0.9c-1,0-1.9-0.5-1.9-1.9
				c0-1.2,0.8-1.9,1.9-2l1.5-0.2c0.3,0,0.6-0.1,0.6-0.5c0-0.7-0.7-0.7-1.1-0.7c-0.8,0-1,0.5-1,0.9h-1.6c0.2-2,1.5-2.2,2.9-2.2
				c0.9,0,2.5,0.3,2.5,1.8V339.9z M302.3,338c-0.2,0.1-0.4,0.2-1.1,0.3c-0.6,0.1-1.1,0.3-1.1,1c0,0.6,0.5,0.8,0.8,0.8
				c0.7,0,1.5-0.5,1.5-1.3V338z"/>
			<path d="M305.4,334.7h1.6v1.1h0c0.3-0.6,0.7-1.3,1.8-1.3c0.1,0,0.2,0,0.3,0v1.7c-0.1,0-0.3,0-0.5,0c-1.3,0-1.5,0.8-1.5,1.5v3.3
				h-1.7V334.7z"/>
			<path d="M311.8,341.1h-1.7v-8.6h1.7v4.7l2.1-2.4h2.1l-2.3,2.5l2.3,3.9h-2l-1.5-2.7l-0.7,0.7V341.1z"/>
			<path d="M322.2,339.2c-0.4,1.5-1.7,2-2.8,2c-1.8,0-3.2-0.9-3.2-3.5c0-0.8,0.3-3.2,3.1-3.2c1.3,0,3,0.6,3,3.5v0.3h-4.4
				c0,0.5,0.1,1.6,1.5,1.6c0.5,0,0.9-0.2,1.1-0.7H322.2z M320.6,337.3c-0.1-1-0.8-1.3-1.3-1.3c-0.8,0-1.2,0.5-1.3,1.3H320.6z"/>
			<path d="M325.3,334.7h1v1.2h-1v3.5c0,0.4,0,0.5,0.7,0.5c0.1,0,0.2,0,0.3,0v1.3c-0.3,0-0.5,0-0.8,0h-0.2c-1.5,0-1.7-0.6-1.7-1.4
				v-3.9h-0.9v-1.2h0.9V333h1.7V334.7z"/>
			<path d="M329.1,334h-1.7v-1.6h1.7V334z M329.1,334.7v6.4h-1.7v-6.4H329.1z"/>
			<path d="M336.5,341.1h-1.7v-3.9c0-0.5,0-1.3-1.1-1.3c-0.7,0-1.3,0.5-1.3,1.5v3.7h-1.7v-6.4h1.6v0.9h0c0.2-0.4,0.7-1.1,1.9-1.1
				c1.2,0,2.2,0.7,2.2,2.1V341.1z"/>
			<path d="M343.9,334.7v6c0,1.1-0.1,2.9-3.2,2.9c-1.3,0-2.7-0.6-2.8-1.9h1.8c0.1,0.3,0.2,0.6,1.2,0.6c0.9,0,1.3-0.4,1.3-1.5v-0.8
				l0,0c-0.3,0.5-0.7,1-1.7,1c-1.5,0-2.7-1.1-2.7-3.3c0-2.2,1.2-3.3,2.7-3.3c1.2,0,1.7,0.7,1.9,1.1h0v-0.9H343.9z M340.8,339.7
				c1.1,0,1.4-1,1.4-1.8c0-1-0.5-1.9-1.4-1.9c-0.6,0-1.3,0.5-1.3,1.9C339.5,338.8,339.8,339.7,340.8,339.7z"/>
			<path d="M347.2,341.1h-1.8v-1.8h1.8V341.1z"/>
		</g>
	</g>
</g>
<path pointer-events="stroke" class="st3" d="M200.5,99.5v53.6"/>
<path pointer-events="all" class="st4" d="M200.5,158.4l-3.5-7l3.5,1.8l3.5-1.8L200.5,158.4z"/>
<rect x="153.5" y="2.5" pointer-events="all" class="st5" width="90" height="70"/>
<path pointer-events="all" class="st6" d="M201.2,11.8l10.3-8.2c0.9-0.7,2-1.1,3.3-1.1h23.3c2.4,0,5.3,1.7,5.3,4.7v4.6H201.2z
	 M153.5,72.5V19.9c0-2.6,2.7-4.5,5.3-4.5h84.7v57.2H153.5z"/>
<g transform="translate(-0.5 -0.5)">
	<g class="st2">
		<path d="M179.2,91.5h-1.8v-8.6h6.1v1.5h-4.3v1.9h3.8v1.5h-3.8V91.5z"/>
		<path d="M190.4,91.5h-1.6v-0.9h0c-0.4,0.7-1.1,1.1-1.9,1.1c-1.3,0-2.2-0.7-2.2-2.4v-4.2h1.7v4c0,1,0.6,1.2,1.1,1.2
			c0.6,0,1.3-0.3,1.3-1.5v-3.7h1.7V91.5z"/>
		<path d="M197.7,91.5H196v-3.9c0-0.5,0-1.3-1.1-1.3c-0.7,0-1.3,0.5-1.3,1.5v3.7h-1.7v-6.4h1.6v0.9h0c0.2-0.4,0.7-1.1,1.9-1.1
			c1.2,0,2.2,0.7,2.2,2.1V91.5z"/>
		<path d="M204.8,89.2c-0.1,0.7-0.6,2.5-2.9,2.5c-2.4,0-3-1.8-3-3.2c0-2.1,0.9-3.5,3.1-3.5c1,0,2.7,0.5,2.8,2.4h-1.7
			c-0.1-0.4-0.3-1.1-1.1-1c-1.1,0-1.3,1.1-1.3,1.8c0,0.7,0,2.1,1.3,2.1c0.9,0,1.1-0.8,1.1-1.1H204.8z M201.3,91.5h0.7l-0.5,0.7
			c0.1,0,0.2,0,0.4,0c0.3,0,1,0.2,1,0.9c0,0.7-0.6,1.2-1.5,1.2c-0.5,0-0.7-0.1-1.4-0.3l0.3-0.6c0.3,0.1,0.7,0.2,0.9,0.2
			c0.3,0,0.6-0.2,0.6-0.5c0-0.3-0.2-0.4-0.5-0.4c-0.1,0-0.3,0-0.5,0.1l-0.3-0.2L201.3,91.5z"/>
		<path d="M208.8,91.7c-1.7,0-3.3-1.1-3.3-3.4s1.5-3.4,3.3-3.4c1.7,0,3.3,1.1,3.3,3.4S210.5,91.7,208.8,91.7z M211,82.7
			c-0.1,0.4-0.3,1.4-1.3,1.4c-0.3,0-0.7-0.1-0.9-0.2c-0.4-0.1-0.6-0.2-0.9-0.2c-0.4,0-0.5,0.4-0.6,0.5h-0.8c0-0.2,0.1-0.6,0.3-0.9
			c0.2-0.3,0.6-0.6,1.1-0.6c0.3,0,0.5,0.1,0.9,0.2c0.4,0.2,0.6,0.2,0.7,0.2c0.4,0,0.5-0.3,0.6-0.5H211z M208.8,86.4
			c-1.3,0-1.5,1.1-1.5,1.9s0.2,1.9,1.5,1.9s1.5-1.1,1.5-1.9S210.1,86.4,208.8,86.4z"/>
		<path d="M218.7,89.6c-0.4,1.5-1.7,2-2.8,2c-1.8,0-3.2-0.9-3.2-3.5c0-0.8,0.3-3.2,3.1-3.2c1.3,0,3,0.6,3,3.5v0.3h-4.4
			c0,0.5,0.1,1.6,1.5,1.6c0.5,0,0.9-0.2,1.1-0.7H218.7z M217.1,87.7c-0.1-1-0.8-1.3-1.3-1.3c-0.8,0-1.2,0.5-1.3,1.3H217.1z"/>
		<path d="M223.5,87.1c-0.1-0.4-0.2-0.8-1.1-0.8s-1,0.3-1,0.6c0,1,4,0.3,4,2.6c0,1.9-1.8,2.2-2.8,2.2c-1.5,0-3-0.5-3.1-2.2h1.7
			c0,0.5,0.3,0.9,1.4,0.9c0.9,0,1.1-0.4,1.1-0.7c0-1.1-4-0.3-4-2.7c0-0.9,0.6-2.1,2.6-2.1c1.2,0,2.7,0.3,2.9,2.1H223.5z"/>
	</g>
</g>
<rect x="148.5" y="167.5" pointer-events="all" class="st5" width="90" height="70"/>
<path pointer-events="all" class="st6" d="M196.2,176.8l10.3-8.2c0.9-0.7,2-1.1,3.3-1.1h23.3c2.4,0,5.3,1.7,5.3,4.7v4.6H196.2z
	 M148.5,237.5v-52.6c0-2.6,2.7-4.6,5.3-4.6h84.7v57.2H148.5z"/>
<g transform="translate(-0.5 -0.5)">
	<g class="st2">
		<path d="M176.4,256.5h-1.7v-7.2h0l-1.6,7.2h-1.8l-1.6-7.2h0v7.2H168v-8.6h2.6l1.6,6.8h0l1.5-6.8h2.6V256.5z"/>
		<path d="M183.1,255.3c0,0.8,0.2,0.9,0.4,1v0.3h-1.8c-0.1-0.3-0.1-0.4-0.2-0.8c-0.4,0.4-0.9,0.9-2.1,0.9c-1,0-1.9-0.5-1.9-1.9
			c0-1.2,0.8-1.9,1.9-2l1.5-0.2c0.3,0,0.6-0.1,0.6-0.5c0-0.7-0.7-0.7-1.1-0.7c-0.8,0-1,0.5-1,0.9h-1.6c0.2-2,1.5-2.2,2.9-2.2
			c0.9,0,2.5,0.3,2.5,1.8V255.3z M181.5,253.4c-0.2,0.1-0.4,0.2-1.1,0.3c-0.6,0.1-1.1,0.3-1.1,1c0,0.6,0.5,0.8,0.8,0.8
			c0.7,0,1.5-0.5,1.5-1.3V253.4z"/>
		<path d="M184.6,250.1h1.6v1.1h0c0.3-0.6,0.7-1.3,1.8-1.3c0.1,0,0.2,0,0.3,0v1.7c-0.1,0-0.3,0-0.5,0c-1.3,0-1.5,0.8-1.5,1.5v3.3
			h-1.7V250.1z"/>
		<path d="M191,256.5h-1.7v-8.6h1.7v4.7l2.1-2.4h2.1l-2.3,2.5l2.3,3.9h-2l-1.5-2.7l-0.7,0.7V256.5z"/>
		<path d="M201.5,254.6c-0.4,1.5-1.7,2-2.8,2c-1.8,0-3.2-0.9-3.2-3.5c0-0.8,0.3-3.2,3.1-3.2c1.3,0,3,0.6,3,3.5v0.3h-4.4
			c0,0.5,0.1,1.6,1.5,1.6c0.5,0,0.9-0.2,1.1-0.7H201.5z M199.8,252.7c-0.1-1-0.8-1.3-1.3-1.3c-0.8,0-1.2,0.5-1.3,1.3H199.8z"/>
		<path d="M204.5,250.1h1v1.2h-1v3.5c0,0.4,0,0.5,0.7,0.5c0.1,0,0.2,0,0.3,0v1.3c-0.3,0-0.5,0-0.8,0h-0.2c-1.5,0-1.7-0.6-1.7-1.4
			v-3.9H202v-1.2h0.9v-1.7h1.7V250.1z"/>
		<path d="M208.4,249.4h-1.7v-1.6h1.7V249.4z M208.4,250.1v6.4h-1.7v-6.4H208.4z"/>
		<path d="M215.8,256.5h-1.7v-3.9c0-0.5,0-1.3-1.1-1.3c-0.7,0-1.3,0.5-1.3,1.5v3.7H210v-6.4h1.6v0.9h0c0.2-0.4,0.7-1.1,1.9-1.1
			c1.2,0,2.2,0.7,2.2,2.1V256.5z"/>
		<path d="M223.2,250.1v6c0,1.1-0.1,2.9-3.2,2.9c-1.3,0-2.7-0.6-2.8-1.9h1.8c0.1,0.3,0.2,0.6,1.2,0.6c0.9,0,1.3-0.4,1.3-1.5v-0.8
			l0,0c-0.3,0.5-0.7,1-1.7,1c-1.5,0-2.7-1.1-2.7-3.3c0-2.2,1.2-3.3,2.7-3.3c1.2,0,1.7,0.7,1.9,1.1h0v-0.9H223.2z M220.1,255.1
			c1.1,0,1.4-1,1.4-1.8c0-1-0.5-1.9-1.4-1.9c-0.6,0-1.3,0.5-1.3,1.9C218.7,254.2,219.1,255.1,220.1,255.1z"/>
	</g>
</g>
</svg>
